<svg xmlns="http://www.w3.org/2000/svg" viewBox="0 0 24 24">
  <g fill="#1D2B3B">
    <circle cx="12" cy="12" r="4"/>
    <path d="M6.302 10.131C7.09 7.735 9.344 6 12 6h10.252c-2.079-3.581-5.946-6-10.377-6C8.27 0 5.039 1.605 2.838 4.13l3.464 6.001zM13.228 17.873c-.397.083-.807.127-1.228.127-2.217 0-4.151-1.211-5.19-3.003L6.804 15l-5.25-9.092C.495 7.696-.125 9.775-.125 12c0 5.909 4.296 10.821 9.926 11.808l3.427-5.935zM16.46 8c.954 1.063 1.54 2.462 1.54 4 0 1.092-.298 2.114-.81 2.997l.006.003-5.192 8.993c6.557-.07 11.871-5.42 11.871-11.993 0-1.404-.255-2.747-.7-4H16.46z"/>
  </g>
</svg>
