<svg xmlns="http://www.w3.org/2000/svg" viewBox="0 0 24 24">
  <g fill="#1D2B3B">
    <path d="M12 0C8.496 0 5.348 1.519 3.153 3.921c-.519-.743-.654-1.644-.654-1.644s-1.7 1.268-1.244 4.346c0 0-.005.04-.015.098C.454 8.317 0 10.104 0 12c0 6.617 5.383 12 12 12s12-5.383 12-12S18.617 0 12 0zm8.306 6.439c.45 7.89-5.604 14.043-11.755 9.551.01.002 2.714.032 3.678-.486.608-.327 1.385-.973 1.76-.912.608.09.751-.399.445-.75-.351-.404-1.281-1.167-2.361-.655-2.964 1.404-4.941-.672-4.598-1.888.064-.229.309-.531.412-.551.502-.487 3.403-2.396 3.766-3.282.086-.21.183-.703-.098-.806-.466-.111-1.575-.115-1.985-.112-.781.007-1.305-.48-1.27-.965.044-.605.466-1.359 1.664-2.347-2.057-.3-3.244 1.341-3.245 1.343-.385-.096-.843-.118-1.279-.108C7.198 2.937 9.489 2 12 2c3.457 0 6.509 1.765 8.306 4.439z"/>
  </g>
</svg>
