<svg xmlns="http://www.w3.org/2000/svg" width="600" height="460">
  <path stroke="#F0F0F0" stroke-linecap="square" stroke-width="4" d="M2 421h600"/>
  <path fill="#F0F0F0" opacity=".6" d="M260 380c104.934 0 190-85.066 190-190C450 85.0659 364.934 0 260 0S70 85.0659 70 190c0 104.934 85.066 190 190 190Z"/>
  <g clip-path="url(#a)">
    <path fill="#012841" d="m501.123 94.9107-61.025-18.5495c-2.017-.6132-4.148.5427-4.76 2.5817L399.39 198.777c-.612 2.039.527 4.189 2.545 4.802l61.025 18.549c2.017.613 4.148-.542 4.76-2.581l35.948-119.8342c.612-2.039-.528-4.189-2.545-4.8021Z"/>
    <path fill="#FFFFFF" d="m438.571 85.8006 58.481 17.7764c.829.252 1.297 1.135 1.046 1.973L466.29 211.582c-.251.837-1.127 1.312-1.956 1.06l-58.481-17.776c-.828-.252-1.296-1.135-1.045-1.973l31.808-106.0318c.251-.8376 1.127-1.3125 1.955-1.0606Z"/>
    <path fill="#8C8C8C" d="m438.169 85.5106 59.387 18.0514c.576.175.902.787.728 1.367l-1.162 3.873-61.482-18.6887 1.162-3.8727c.084-.28.276-.5146.533-.6517.256-.1371.557-.1652.834-.0783Z"/>
    <path fill="#FFFFFF" d="M461.674 89.1303c.505.1533 1.038-.1356 1.19-.6454.153-.5097-.131-1.0472-.636-1.2005-.504-.1533-1.037.1357-1.19.6454-.153.5098.132 1.0473.636 1.2005Z"/>
    <path fill="#F5F5F5" d="m497.261 108.34-61.482-18.6881-15.321 51.0721 61.482 18.688 15.321-51.072Z"/>
    <path fill="#FFFFFF" d="m474.714 91.2475-8.781-2.6691c-.39-.1188-.803.1051-.922.5002l-.078.2615c-.119.3951.102.8116.493.9304l8.781 2.6691c.391.1188.803-.1051.922-.5002l.078-.2615c.119-.3951-.102-.8116-.493-.9304ZM466.021 139.13c8.027 2.44 16.517-2.194 18.964-10.35 2.447-8.156-2.077-16.746-10.104-19.185-8.026-2.44-16.516 2.194-18.963 10.35-2.447 8.156 2.077 16.745 10.103 19.185Z"/>
    <path fill="#BFBFBF" d="m420.412 140.877 18.576-16.708c.547-.491 1.291-.693 2.006-.544.715.149 1.317.631 1.624 1.301l5.296 11.562c.373.815 1.098 1.41 1.964 1.611.866.201 1.777-.013 2.468-.581l15.841-13.01c.693-.569 1.607-.783 2.475-.579.868.204 1.592.803 1.962 1.622l11.697 25.924-2.427 8.09-61.482-18.688ZM449.756 99.5235c.21.0638.328.2878.265.5005-.062.204-.269.323-.472.275l-.024-.006-11.414-3.4697c-.21-.0639-.329-.2879-.265-.5002.061-.2043.269-.3234.472-.2755l.024.0065 11.414 3.4694ZM444.77 101.197c.21.064.329.288.265.5-.061.205-.269.324-.472.276l-.024-.007-7.305-2.2201c-.21-.0639-.329-.2878-.265-.5002.061-.2043.269-.3234.472-.2755l.024.0065 7.305 2.2203ZM474.546 166.9c.21.064.329.288.265.5-.061.204-.269.323-.472.276l-.024-.007-51.133-15.543c-.21-.064-.329-.288-.265-.5.061-.204.268-.323.471-.275l.024.006 51.134 15.543ZM472.792 172.746c.21.063.329.287.265.5-.061.204-.268.323-.471.275l-.024-.006-51.134-15.543c-.21-.064-.329-.288-.265-.5.061-.204.269-.324.472-.276l.024.007 51.133 15.543ZM470.066 177.96c.21.063.329.287.265.5-.061.204-.269.323-.472.275l-.024-.006-50.068-15.219c-.21-.064-.329-.288-.265-.5.061-.205.268-.324.471-.276l.024.007 50.069 15.219Z"/>
    <path fill="#F0F0F0" d="m429.099 175.579-11.566-3.516c-.672-.204-1.383.181-1.587.861l-3.507 11.691c-.204.679.176 1.396.849 1.6l11.566 3.516c.672.204 1.382-.181 1.586-.861l3.507-11.691c.204-.679-.176-1.396-.848-1.6Z"/>
    <path fill="#BFBFBF" d="m447.97 181.315-11.566-3.516c-.673-.204-1.383.181-1.587.861l-3.507 11.691c-.204.679.176 1.396.848 1.6l11.566 3.516c.673.204 1.383-.181 1.587-.861l3.507-11.691c.204-.679-.176-1.396-.848-1.6Z"/>
    <path fill="#8C8C8C" d="m466.84 187.05-11.565-3.515c-.673-.205-1.383.181-1.587.86l-3.507 11.692c-.204.679.176 1.396.848 1.6l11.566 3.516c.672.204 1.383-.181 1.587-.861l3.507-11.691c.204-.679-.176-1.396-.849-1.601Z"/>
    <path fill="#BFBFBF" d="M423.709 153.965c.883.269 1.815-.237 2.083-1.129.267-.892-.231-1.833-1.114-2.101-.882-.268-1.814.237-2.082 1.129-.268.893.231 1.833 1.113 2.101ZM444.115 166.211c.882.268 1.814-.238 2.082-1.13.268-.892-.231-1.832-1.113-2.101-.883-.268-1.815.238-2.083 1.13-.267.892.231 1.833 1.114 2.101ZM464.718 178.348c.883.269 1.815-.237 2.083-1.129.267-.892-.231-1.833-1.114-2.101-.882-.268-1.815.237-2.082 1.13-.268.892.231 1.832 1.113 2.1Z"/>
  </g>
  <path fill="#FF7946" d="M532.493 54.0759c-23.656 0-42.833 19.3039-42.833 43.1166 0 23.8125 19.177 43.1165 42.833 43.1165s42.833-19.304 42.833-43.1165c0-23.8127-19.177-43.1166-42.833-43.1166Z"/>
  <path fill="#FFFFFF" d="m546.555 110.259-1.082 1.089c-.896.902-2.349.902-3.245 0l-23.797-23.9552c-.896-.902-.896-2.3645 0-3.2666l1.081-1.0889c.897-.902 2.35-.902 3.246 0l23.797 23.9547c.896.902.896 2.365 0 3.267Z"/>
  <path fill="#FFFFFF" d="m518.431 110.259 1.082 1.089c.896.902 2.349.902 3.245 0l23.797-23.9552c.896-.902.896-2.3645 0-3.2666l-1.081-1.0889c-.897-.902-2.35-.902-3.246 0l-23.797 23.9547c-.896.902-.896 2.365 0 3.267Z"/>
  <path fill="#5B8C00" d="M462.198 270.701c19.891-9.51 31.746 15.432 21.743 29.319-12.208 16.947-18.461 36.447-21.944 42.322-2.937 4.956-10.984 17.039-20.674 11.47-8.918-5.125-4.057-25.241-4.057-25.241s.394-46.138 24.932-57.87ZM402.369 349.939c-6.762-9.222-9.231-22.456-1.683-25.85 7.236-3.254 19.224 4.758 24.776 20.176s8.756 26.503 3.324 28.43c-8.91 3.162-17.485-10.575-26.417-22.756Z"/>
  <path fill="#53C518" d="M473.462 350.64c-7.649 9.06-18.686 27.285-25.6 20.902-4.191-3.868 1.411-22.189 16.747-32.156 13.044-8.479 16.501 2.193 8.853 11.254ZM400.273 287.767c2.908-1.978 6.567-2.43 9.906-1.349 4.659 1.508 11.73 6 18.728 18.892 9.136 16.832 13.893 35.285 12.952 46.974-.614 7.644-9.931 10.939-15.143 5.366-2.393-2.56-4.926-6.506-7.404-12.491-9.972-24.089-19.295-39.183-20.407-40.699-2.967-4.045-5.088-12.303 1.368-16.693Z"/>
  <path fill="#FFFFFF" d="M406.961 297.374c.098 1.19-.776 2.235-1.952 2.334-1.177.1-2.21-.783-2.309-1.972-.099-1.19.775-2.235 1.952-2.334 1.176-.1 2.21.783 2.309 1.972ZM425.12 306.601c.099 1.189-.775 2.234-1.952 2.334-1.177.1-2.21-.783-2.309-1.973-.099-1.189.775-2.234 1.952-2.334 1.176-.1 2.21.784 2.309 1.973ZM422.076 331.167c.113 1.362-.887 2.559-2.235 2.673-1.347.115-2.531-.897-2.644-2.259-.113-1.362.887-2.559 2.235-2.673 1.347-.114 2.531.897 2.644 2.259ZM477.852 294.454c0 1.933-1.55 3.5-3.463 3.5-1.912 0-3.462-1.567-3.462-3.5s1.55-3.5 3.462-3.5c1.913 0 3.463 1.567 3.463 3.5ZM449.978 305.142c0 1.933-1.55 3.5-3.462 3.5-1.912 0-3.463-1.567-3.463-3.5s1.551-3.5 3.463-3.5c1.912 0 3.462 1.567 3.462 3.5ZM459.006 328.899c0 .808-.648 1.463-1.447 1.463-.8 0-1.448-.655-1.448-1.463s.648-1.463 1.448-1.463c.799 0 1.447.655 1.447 1.463ZM469.432 347.607c0 1.194-.958 2.161-2.138 2.161-1.181 0-2.138-.967-2.138-2.161 0-1.193.957-2.161 2.138-2.161 1.18 0 2.138.968 2.138 2.161Z"/>
  <path fill="#012841" d="M419.497 352.4c.199-.192.514-.184.704.017l.092.1.069.077c.125.142.27.311.434.508.463.558.978 1.226 1.532 2.001 1.579 2.21 3.157 4.847 4.628 7.906 4.199 8.73 6.717 19.1 6.717 31.07 0 .279-.223.504-.498.504s-.499-.225-.499-.504c0-11.812-2.482-22.032-6.617-30.629-1.445-3.006-2.993-5.593-4.539-7.757-.508-.711-.981-1.327-1.409-1.847l-.079-.097c-.122-.146-.232-.276-.331-.389l-.125-.142c-.046-.051-.079-.087-.096-.105-.19-.202-.183-.52.017-.713ZM457.159 355.927c.165-.223.477-.268.698-.102.22.167.266.482.101.705-1.816 2.458-3.491 5.101-5.032 7.903-3.258 5.922-5.776 12.272-7.645 18.622-.655 2.222-1.181 4.286-1.59 6.136l-.083.38c-.098.452-.183.865-.255 1.235l-.046.242-.083.457c-.045.275-.303.46-.574.414-.272-.047-.455-.307-.409-.581l.028-.162c.024-.131.052-.285.086-.462l.083-.42c.08-.399.173-.841.28-1.323l.09-.404c.401-1.767.903-3.714 1.517-5.799 1.889-6.416 4.434-12.832 7.729-18.825 1.562-2.839 3.262-5.52 5.105-8.016Z"/>
  <path fill="#012841" d="M465.87 293.059c.191.185.205.486.037.688l-.021.024c-.01.011-.031.033-.063.068l-.123.135-.071.08c-.215.242-.464.533-.746.874-.807.976-1.708 2.15-2.678 3.524-2.778 3.932-5.558 8.667-8.154 14.21-4.321 9.23-7.687 19.758-9.727 31.592-2.477 14.371-2.887 30.069-.86 47.108.033.276-.162.527-.435.56-.274.033-.522-.164-.555-.44-2.039-17.136-1.626-32.933.868-47.401 2.055-11.926 5.449-22.539 9.808-31.85 2.622-5.599 5.432-10.386 8.243-14.365l.218-.306c.867-1.214 1.678-2.269 2.415-3.167l.092-.112c.265-.32.503-.599.712-.836l.057-.064c.065-.073.123-.138.175-.195l.104-.112c.19-.201.506-.208.704-.015ZM422.72 322.941c.236-.144.542-.068.685.17l.05.085c.04.068.087.149.14.244l.079.138c.133.238.283.511.449.819l.137.256c.507.954 1.063 2.058 1.656 3.309l.081.171c1.935 4.098 3.869 8.891 5.674 14.336 5.054 15.248 8.128 32.555 8.243 51.607.001.279-.22.506-.496.507-.275.002-.5-.222-.501-.501-.115-18.941-3.17-36.142-8.191-51.293-1.759-5.307-3.641-9.987-5.524-14l-.105-.222c-.643-1.363-1.242-2.553-1.783-3.564l-.163-.302c-.156-.288-.296-.541-.42-.759l-.059-.103-.12-.206c-.143-.238-.067-.548.168-.692Z"/>
  <path fill="#012841" d="M461.087 419.074h-43.091c-2.329 0-4.235-1.926-4.235-4.281v-31.776c0-2.355 1.906-4.281 4.235-4.281h43.091c2.329 0 4.235 1.926 4.235 4.281v31.776c0 2.355-1.906 4.281-4.235 4.281Z"/>
  <path fill="#FFC999" d="M281.941 70.8578c2.882-3.6735 8.122-4.4121 11.896-1.6789l72.839 52.7591c6.536 5.07 7.696 14.543 2.58 21.061-5.161 6.577-14.686 7.578-21.085 2.217l-65.397-62.5809c-3.26-3.1183-3.621-8.2261-.833-11.7773Z"/>
  <path fill="#FFC999" d="M281.558 57.0051s13.606 8.6789 11.757 18.0617c-1.674 8.4971-10.289 7.8361-10.289 7.8361s-8.669.7122-17.869-2.2788c-6.062-1.9681-17.214-6.8909-16.617-10.2388.778-4.3642 13.076 1.9466 14.571-.9072 1.531-2.9282-.914-4.4221-5.365-9.6605-2.781-3.2752-6.8-5.4003-8.633-8.6292-3.581-6.3109 13.114-8.9152 32.445 5.8167Z"/>
  <path fill="#DD936F" d="M251.444 48.8385c.14-.331.52-.4847.849-.3433 2.845 1.2245 5.357 2.7416 7.554 4.486 2.149 1.706 3.886 3.5357 5.247 5.3684.478.6442.875 1.244 1.197 1.7844l.244.4253c.064.1182.113.2121.146.28.156.3236.023.7139-.299.8715-.321.1577-.708.0232-.865-.3005l-.121-.2305c-.056-.1017-.128-.2276-.216-.3759-.299-.503-.672-1.0658-1.123-1.6736-1.295-1.7447-2.954-3.4923-5.011-5.1251-2.109-1.6745-4.523-3.1325-7.262-4.311-.328-.1415-.481-.5246-.34-.8557ZM257.953 48.1545c.13-.3352.506-.5005.838-.3692l.305.1278c.087.0376.186.0814.296.1314l.174.0798c.602.2791 1.272.6176 1.992 1.0172 2.055 1.1404 4.111 2.5439 6.031 4.2243 1.474 1.2904 2.811 2.6964 3.976 4.2216.218.2854.165.6947-.118.9143-.284.2195-.69.1662-.908-.1192-1.11-1.4534-2.387-2.797-3.799-4.0325-1.846-1.6156-3.827-2.9681-5.807-4.0665-.553-.3071-1.075-.5762-1.556-.8079l-.352-.1668c-.342-.1581-.583-.2609-.706-.3095-.333-.1313-.497-.5096-.366-.8448ZM265.982 48.5344c.181-.3103.578-.4139.886-.2314 3.503 2.0749 6.241 4.199 8.303 6.2596.727.7265 1.319 1.3949 1.785 1.9912l.22.2881c.163.219.276.3848.341.4921.188.3066.093.7082-.211.897-.305.1888-.703.0934-.891-.2131l-.078-.1206c-.085-.1235-.215-.304-.397-.5364-.435-.5549-.991-1.1837-1.68-1.8727-1.986-1.9839-4.639-4.0415-8.048-6.0614-.308-.1825-.411-.5821-.23-.8924Z"/>
  <path fill="#012841" d="M241.853 193.429c22.503 12.489 35.822-3.7 35.822-3.7s19.287-.618 22.96-14.803c13.471-1.849 17.499-18.733 8.772-33.071 7.698-13.121-6.513-25.051-6.513-25.051 6.513-16.103-4.144-31.0151-13.026-38.7685-10.067-41.1536-33.161-35.7847-33.161-35.7847-9.327-12.5258-28.868.894-40.712 17.5941 0 0-16.728 3.728-11.989 19.9802-8.883 5.9638-2.962 14.3155-2.962 14.3155s-20.429 20.4264-8.882 36.9774c-14.211 14.017-2.961 20.876-2.961 20.876s-3.702 13.866 17.172 19.681c-3.109 12.078 20.035 27.402 35.48 21.754Z"/>
  <path fill="#FFC999" d="M282.602 94.491c-2.293 4.9806-7.315 8.024-11.227 6.197-3.912-1.8278-5.22-7.3488-2.926-12.3294 2.293-4.9822 7.327-7.5386 11.238-5.7109 3.909 1.8276 5.209 6.8611 2.915 11.8433ZM218.277 95.3319c2.296 4.9821 7.317 8.0241 11.229 6.1971 3.911-1.8279 5.22-7.3489 2.925-12.3295-2.294-4.9822-7.325-7.5369-11.238-5.7109-3.91 1.8293-5.209 6.8627-2.916 11.8433ZM249.66 147.635c-8.167 0-14.37-6.805-14.072-15.026l2.072-29.821 25.317-.277 1.088 30.077c.297 8.221-6.238 15.047-14.405 15.047Z"/>
  <path fill="#FFC999" d="M275.506 88.4743c-1.181 17.4917-9.77 34.8907-25.758 33.5487-11.948-1.003-24.994-16.269-24.994-33.8015 0-24.4882 9.184-34.7551 23.367-35.5335 16.282-.8939 29.069 10.8453 27.385 35.7863Z"/>
  <path fill="#DD936F" d="M236.992 116.23c.202-.247.566-.282.812-.078 3.706 3.084 7.733 4.926 11.548 5.246 4.708.395 8.904-.865 12.52-3.619.254-.193.616-.143.808.113.192.256.141.62-.113.814-3.84 2.924-8.317 4.269-13.31 3.85-4.068-.342-8.31-2.283-12.188-5.508-.245-.205-.28-.571-.077-.818Z"/>
  <path fill="#012841" d="M270.178 133.654c17.97 9.543 28.263-13.794 27.092-23.708-2.222-18.7876-12.141-29.8229-12.141-29.8229-11.102-33.995-29.014-36.0837-46.484-31.4617-24.443 6.4695-34.409 36.7414-21.909 39.8134 18.828 4.6236 23.209-11.6071 26.055-22.6656 2.072-8.0509 8.554-6.5554 10.955-1.4905.746 1.5765 2.572 2.7993 5.328-.5965 2.665-3.2802 5.923-.2992 6.515 10.7361.607 11.3394 4.537 6.9769 6.514 12.2268 3.256 8.6475-8.883 11.6302-5.034 27.7339 0 0-13.466 10.432 3.109 19.235Z"/>
  <path fill="#012841" d="M232.086 75.4907c2.711-1.2811 6.694-1.5862 12.061-.5226.481.0953.794.5653.7 1.0497-.095.4845-.562.7999-1.043.7046-5.019-.9948-8.624-.7186-10.964.387-.67.3167-1.172.6773-1.489 1.0152l-.094.1067-.009.1008c-.03.1882-.12.3668-.263.5048l-.093.0777c-.336.2448-.74.3513-1.175-.02-.371-.3167-.383-.6603-.283-1.0166.069-.2427.222-.5014.437-.7641.477-.5838 1.229-1.1573 2.215-1.6232ZM239.106 82.0618c2.698.0084 4.755 2.8134 4.745 6.1597-.001.4938-.4.8929-.89.8915-.49-.0014-.886-.4028-.885-.8966.007-2.4546-1.391-4.3617-2.975-4.3666-1.586-.0049-2.997 1.8925-3.005 4.3458-.002.4937-.4.8926-.891.8909-.49-.0017-.886-.4033-.884-.897.011-3.3452 2.086-6.136 4.785-6.1277ZM261.016 82.0618c2.698.0084 4.755 2.8134 4.745 6.1597-.001.4938-.4.8929-.89.8915-.49-.0014-.886-.4028-.885-.8966.007-2.4546-1.392-4.3617-2.975-4.3666-1.586-.0049-2.997 1.8925-3.005 4.3458-.002.4937-.4.8926-.891.8909-.49-.0017-.886-.4033-.884-.897.011-3.3452 2.086-6.136 4.785-6.1277Z"/>
  <path fill="#012841" d="M279.053 83.3388s-2.297 12.3342-4.44 13.2596c1.137-4.8583-.395-18.7458-.92-19.4266-.835-1.0923 5.205-2.4672 5.36 6.167ZM221.31 81.188s3.253 16.9413 5.445 17.7444c-1.409-4.7856-.928-23.4967-.443-24.2089.775-1.1369-5.335-2.1648-5.002 6.4645Z"/>
  <path fill="#DD936F" d="M255.065 75.8708c.261-.3404.747-.4031 1.085-.14.307.2392.386.6654.202.9967l-.063.0962-2.937 3.8257.723 15.5293c.019.4071-.275.7532-.664.808l-.108.0076h-5.331c-.427 0-.773-.3489-.773-.7792 0-.3944.291-.7204.668-.772l.105-.0071 4.519-.0001-.696-15.0003c-.007-.1478.028-.2937.1-.4211l.061-.0918 3.109-4.0519Z"/>
  <path fill="#FFFFFF" d="M243.383 101.394h14.803s-1.48 4.474-7.401 4.474c-5.922 0-7.402-4.474-7.402-4.474Z"/>
  <path fill="#FC192F" d="M258.186 100.541h-14.803c-.579 0-.987.571-.804 1.123.223.676.748 1.627 1.685 2.571 1.544 1.555 3.701 2.486 6.521 2.486 2.819 0 4.976-.931 6.52-2.486.937-.944 1.462-1.896 1.685-2.571.183-.552-.226-1.123-.804-1.123Zm-1.424 1.707-.186.251c-.142.18-.298.357-.469.529-1.232 1.24-2.96 1.986-5.322 1.986s-4.091-.746-5.323-1.986l-.245-.262c-.078-.088-.153-.177-.224-.267l-.188-.251h11.957Z"/>
  <path fill="#012841" d="M256.166 75.109c4.389-1.2633 8.421-.9295 11.893.3958 1.168.4456 2.004.8974 2.469 1.2139.406.2766.512.8324.238 1.2414-.275.4089-.827.5162-1.233.2396l-.109-.0704c-.095-.0578-.23-.1368-.406-.2317-.453-.2444-.984-.4903-1.588-.7208-3.134-1.1965-6.781-1.4984-10.776-.3486-.471.1357-.963-.1392-1.097-.6139-.135-.4747.138-.9696.609-1.1053Z"/>
  <path fill="#FFC999" d="M218.04 316.021c-13.274.314-23.689 11.576-23.062 24.935l6.753 143.63c.52 11.064 9.711 19.686 20.703 19.427 10.992-.261 19.769-9.31 19.771-20.385l.036-143.793c.003-13.373-10.925-24.128-24.201-23.814ZM278.632 316.198c13.178-1.645 25.115 7.963 26.431 21.272l14.165 143.081c1.091 11.02-6.748 20.904-17.661 22.265-10.912 1.36-20.908-6.299-22.518-17.255L258.148 343.32c-1.945-13.232 7.307-25.48 20.484-27.122Z"/>
  <path fill="#025D97" d="M282.093 265.464c7.774.212 17.073 23.307 28.984 43.294 15.509 26.025 33.733 52.217 41.266 71.341-1.775 6.81-17.244 23.574-17.244 23.574s2.979 6.048 3.694 9.305c-17.246 22.953-41.192 25.733-41.192 25.733l-.055 4.658c-39.199 18.179-91.691.757-91.691.757s-.979-1.011-.277-4.663c-17.798-.208-55.908-22.952-55.908-22.952l5.418-11.253-15.675-16.158s48.484-69.946 57.105-93.992c8.007-22.331 20.418-31.181 20.418-31.181s38.729.815 65.157 1.537Z"/>
  <path fill="#012841" d="M214.437 282.447c.161-.33.556-.466.884-.305.295.145.434.483.342.789l-.039.101-64.452 132.619.603.448.504.364c1.273.91 2.774 1.925 4.493 3.019 4.915 3.128 10.587 6.258 16.94 9.179 9.877 4.542 20.475 8.151 31.666 10.479.357.075.587.427.513.786-.074.36-.423.591-.78.517-11.293-2.349-21.984-5.99-31.948-10.572-6.409-2.947-12.133-6.105-17.097-9.265-1.546-.983-2.919-1.905-4.112-2.747l-.439-.312c-.363-.259-.686-.495-.971-.707l-.612-.464c-.215-.169-.301-.451-.228-.708l.042-.108 64.691-133.113ZM301.595 320.546c.306-.122.647.002.81.277l.047.097 36.339 92.435c.083.212.053.452-.08.636l-.228.304-.302.39c-.055.069-.112.141-.171.215l-.184.229c-.723.893-1.582 1.887-2.573 2.956-2.828 3.052-6.155 6.103-9.96 8.95-8.129 6.084-17.294 10.399-27.412 12.166-.36.063-.701-.18-.764-.542-.062-.362.179-.706.538-.769 9.899-1.728 18.878-5.955 26.851-11.922 3.737-2.797 7.005-5.794 9.782-8.79.97-1.048 1.809-2.019 2.514-2.89l.343-.429.281-.362-36.202-92.088c-.12-.307.002-.651.275-.815l.096-.048Z"/>
  <path fill="#012841" d="M265.153 267.992c.358-.072.706.162.777.522l1.609 8.163c1.28 6.518 2.706 13.828 4.241 21.761l1.88 9.738c3.442 17.887 6.859 35.929 10.108 53.467l1.812 9.824c.461 2.511.916 4.997 1.364 7.457l1.79 9.881c3.828 21.246 7.027 39.838 9.457 55.124.051.32-.135.631-.439.735-1.924.659-3.871 1.268-5.841 1.83-23.739 6.77-49.062 6.387-72.976 1.679l-1.725-.349c-2.83-.586-5.436-1.199-7.793-1.815l-.699-.185c-.75-.2-1.435-.39-2.052-.568l-1.235-.366c-.197-.061-.344-.107-.441-.139-.283-.092-.466-.361-.458-.653l.014-.11 29.557-149.204c.071-.361.419-.594.777-.522.322.064.542.354.531.674l-.013.108-29.441 148.616 1.073.317c.609.175 1.285.363 2.027.562 2.97.793 6.366 1.587 10.131 2.328 23.728 4.671 48.853 5.051 72.363-1.653 1.461-.416 2.909-.86 4.345-1.33l.901-.303-.743-4.623c-2.303-14.19-5.199-30.925-8.589-49.75l-1.82-10.044-.905-4.953c-.457-2.493-.92-5.012-1.389-7.555-3.801-20.607-7.855-42.004-11.927-63.101l-3.031-15.629-3.758-19.151c-.071-.361.161-.711.518-.783Z"/>
  <path fill="#012841" d="M252.581 269.009c.328.009.594.256.638.574l.006.108-3.079 127.795c-.009.367-.312.658-.677.649-.328-.008-.594-.256-.638-.573l-.006-.108 3.08-127.796c.008-.367.311-.657.676-.649ZM230.939 267.806c.109-.351.479-.547.827-.438.313.098.502.41.458.727l-.023.106-26.081 84.574c-.109.351-.479.547-.827.438-.313-.098-.502-.41-.458-.727l.023-.106 26.081-84.574Z"/>
  <path fill="#025D97" d="m214.099 265.462 1.118-8.552s33.528.202 66.41-1.457c.831 3.795 1.786 10.628 1.786 10.628-2.764-2.287-32.633 4.393-69.314-.619Z"/>
  <path fill="#012841" d="M279.882 265.417c.365-.018.674.266.691.633.017.367-.264.678-.629.695l-3.412.155c-14.179.615-27.876.88-40.074.856l-3.609-.017c-3.757-.026-7.125-.082-9.857-.158l-2.111-.067c-.933-.034-1.702-.07-2.266-.105l-.626-.046c-.083-.007-.155-.015-.216-.022-.118-.014-.203-.029-.279-.051l-.051-.007c-.062-.015-.116-.073-.386-.363l.1-.545c.074-.356.121-.36.298-.378.138-.047.28-.047.41-.006l.077.03.432.039.775.047c.408.022.893.044 1.444.065l1.446.05c3.359.106 7.869.179 12.967.199l2.923.006c12.79.001 27.155-.313 41.953-1.01Z"/>
  <path fill="#FFC999" d="M182.616 261.466c-8.088-2.014-13.022-10.252-11.023-18.399l19.492-79.39c2-8.145 10.178-13.117 18.267-11.103 8.089 2.016 13.023 10.254 11.025 18.399l-19.493 79.39c-2.001 8.147-10.178 13.118-18.268 11.103Z"/>
  <path fill="#1890FF" d="m212.112 204.628 8.264-33.655c1.992-8.113-2.968-16.392-11.025-18.398-8.054-2.007-16.275 2.989-18.265 11.103l-8.185 33.335 29.211 7.615Z"/>
  <path fill="#025D97" d="M209.899 152.17c8.222 2.047 13.328 10.41 11.486 18.694l-.08.341-8.264 33.654c-.062.253-.295.417-.543.399l-.094-.016-29.211-7.615c-.279-.072-.447-.359-.374-.64.064-.25.296-.411.543-.393l.092.016 28.701 7.48 8.137-33.137c1.896-7.719-2.732-15.598-10.312-17.676l-.331-.087c-.28-.07-.451-.354-.382-.636.062-.251.292-.414.539-.399l.093.015Z"/>
  <path fill="#FFC999" d="m369.004 126.959.558 1.107c3.916 7.787.825 17.295-6.905 21.241l-71.348 36.416c-7.73 3.945-17.172.831-21.09-6.955l-.556-1.107c-3.916-7.785-.827-17.295 6.904-21.24l71.349-36.416c7.729-3.946 17.17-.831 21.088 6.954Z"/>
  <path fill="#1890FF" d="m306.731 141.025-30.702 15.669c-7.403 3.779-10.143 13.463-6.087 21.52 4.054 8.058 13.427 11.56 20.828 7.784l30.412-15.522-14.451-29.451Z"/>
  <path fill="#025D97" d="M306.272 140.115c.239-.122.525-.049.68.16l.051.085 14.451 29.451c.133.27.023.598-.246.731-.238.119-.522.045-.675-.163l-.051-.084-14.209-28.957-30.212 15.422c-7.024 3.584-9.694 12.721-6.012 20.449l.164.335c.136.269.029.598-.238.734-.267.137-.594.029-.729-.24-4.129-8.206-1.428-18.064 6.017-22.091l.308-.162 30.701-15.67Z"/>
  <path fill="#1890FF" d="M288.289 150.099c-7.393-4.187-16.119-.137-20.398-4.011-2.53-2.29-3.401-13.13-3.401-13.13h-31.554s-.873 10.84-3.403 13.13c-4.277 3.874-15.533 1.524-27.323 7.957-11.128 6.073-4.451 22.755.645 36.547 1.178 3.189-.855 9.197 1.114 13.631 1.98 4.462 4.991 9.864 6.185 12.75 3.924 9.484 3.117 19.701 5.649 28.306 0 0-4.033 7.859 2.334 11.048h61.151c7.636-3.509 2.333-11.048 2.333-11.048 2.417-8.211.95-14.834 4.532-26.863.717-2.404 3.411-6.217 5.707-11.306 3.582-7.939 2.868-15.557 2.389-17.48-4.574-18.361 4.643-33.523-5.96-39.531Z"/>
  <path fill="#025D97" d="m238.206 147.086 20.916.17c.288.002.52.24.517.53-.002.258-.188.471-.432.513l-.094.008-20.916-.17c-.288-.002-.52-.24-.517-.53.002-.258.188-.471.432-.513l.094-.008ZM207.797 171.762c.124-.262.435-.373.695-.249.26.125.371.438.247.701l-.15.333-.266.621c-.109.262-.225.547-.346.854-.576 1.464-1.152 3.123-1.691 4.944-1.95 6.598-2.893 13.478-2.276 20.157.484 5.224 2.153 9.478 6.173 16.197l.654 1.082.07.185.81 4.588c.35 1.967.703 3.934 1.051 5.858l1.2 6.534c1.096 5.877 1.914 9.961 2.34 11.577.035.132.017.273-.05.392-2.373 4.256-.645 9.683 1.744 10.24l.136.026h61.219l.157-.096c.022-.014.046-.03.071-.047l.118-.082c.354-.253.71-.571 1.042-.956 1.752-2.035 2.176-4.995.397-9.133-.042-.097-.054-.204-.034-.308l.453-2.388c1.258-6.693 2.32-12.763 3.193-18.133l.52-3.257c.094-.603.182-1.176.264-1.718l.36-2.438.087-.225c5.129-7.487 7.385-13.418 7.742-20.043.326-6.037-.769-12.039-2.796-17.687-.624-1.739-1.292-3.314-1.96-4.697l-.272-.55c-.087-.174-.172-.338-.252-.493l-.289-.534c-.029-.052-.052-.093-.069-.121-.146-.25-.063-.572.185-.72.249-.147.568-.064.715.187l.188.337.069.128c.2.373.423.81.663 1.306.683 1.415 1.366 3.024 2.004 4.799 2.071 5.772 3.191 11.909 2.856 18.102-.36 6.662-2.578 12.64-7.538 20.013l-.318.466-.263 1.794-.253 1.662c-.181 1.169-.385 2.456-.613 3.859l-.317 1.927c-.865 5.216-1.897 11.045-3.106 17.42l-.199 1.046.093.221c1.703 4.197 1.267 7.401-.558 9.669l-.164.197c-.603.7-1.209 1.161-1.668 1.414l-.147.077-.229.053-61.428-.006c-3.28-.496-5.384-6.685-2.85-11.569l.035-.069-.208-.876c-.45-1.974-1.132-5.424-1.995-10.035l-.526-2.835c-.423-2.296-.861-4.709-1.3-7.156l-1.322-7.44-.284-.469c-4.217-6.971-6.032-11.398-6.598-16.753l-.042-.425c-.631-6.829.329-13.838 2.315-20.554.548-1.852 1.134-3.54 1.722-5.032l.239-.598c.078-.189.153-.368.224-.537l.261-.595c.027-.059.048-.107.065-.142Z"/>
  <path fill="#025D97" d="M285.173 201.127c.288 0 .521.235.521.525 0 .258-.184.473-.428.517l-.093.009H209.7c-.288 0-.521-.236-.521-.526 0-.258.184-.472.428-.517l.093-.008h75.473Z"/>
  <path fill="#1890FF" d="M239.221 389.922 146.079 368.3c-3.119-.723-5.063-3.855-4.344-6.995l15.241-66.613c.719-3.14 3.828-5.098 6.945-4.374l93.143 21.621c3.116.722 5.061 3.855 4.343 6.995l-15.242 66.613c-.718 3.138-3.827 5.097-6.944 4.375Z"/>
  <path fill="#012841" d="m238.298 393.178-93.143-21.62c-3.119-.724-5.062-3.857-4.345-6.997l15.242-66.611c.718-3.14 3.827-5.1 6.946-4.376l93.142 21.621c3.117.724 5.061 3.855 4.342 6.995l-15.241 66.613c-.717 3.138-3.828 5.098-6.943 4.375Z"/>
  <path fill="#FFC999" d="M187.386 345.59c-4.646.16-8.594-3.389-8.963-8.056l-7.127-90.082c-.382-8.298 6.043-15.313 14.287-15.598 8.318-.284 15.235 6.389 15.309 14.77l-5.124 90.712c-.254 4.521-3.89 8.1-8.382 8.254Z"/>
  <path fill="#FFC999" d="M175.576 355.284s-1.796-22.467 5.544-28.537c6.646-5.498 14.764 4.14 14.764 4.14s3.097 5.165 6.794 13.231c2.669 5.825 6.772 18.611 2.771 17.68-4.289-.996-4.748-9.936-7.7-8.685-3.03 1.284-1.37 6.755-1.23 13.648.085 4.308 1.849 4.088 1.23 7.755-1.207 7.167-17.63 5.673-22.173-19.232Z"/>
  <path fill="#DD936F" d="M190.801 358.679c.35.075.573.421.499.773l-.026.142c-.015.09-.032.209-.05.355l-.018.155c-.471 4.217.401 9.838 3.73 16.283.165.32.042.713-.276.879-.317.167-.707.042-.872-.277-3.454-6.688-4.366-12.568-3.868-17.03l.041-.335c.027-.198.053-.346.073-.442.067-.317.352-.531.663-.516l.104.013ZM185.167 358.356c.356.024.626.334.602.694-.276 4.175.548 8.674 2.095 13.142.47 1.359.975 2.614 1.478 3.733.132.293.257.56.373.801l.291.585c.168.318.049.713-.266.882-.316.17-.708.05-.876-.268l-.196-.388c-.153-.31-.322-.669-.504-1.074-.52-1.153-1.038-2.444-1.523-3.842-1.599-4.619-2.453-9.283-2.163-13.658.023-.359.332-.631.689-.607ZM179.887 357.115c.358 0 .648.292.648.652l.009.427c.005.143.012.311.021.503.039.752.109 1.591.218 2.496.311 2.582.87 5.163 1.737 7.564.463 1.282 1.003 2.479 1.626 3.575.177.313.069.711-.241.89-.31.178-.706.07-.883-.243-.661-1.164-1.231-2.428-1.718-3.776-.904-2.504-1.484-5.179-1.806-7.853-.113-.936-.185-1.805-.225-2.586l-.028-.675c-.003-.134-.005-.242-.005-.322 0-.36.29-.652.647-.652Z"/>
  <defs>
    <clipPath id="a">
      <path fill="#FFFFFF" d="M0 0h150.811v152.275H0z" transform="matrix(.95678 .29083 -.28733 .95783 401.22 54.2856)"/>
    </clipPath>
  </defs>
</svg>
