<svg xmlns="http://www.w3.org/2000/svg" width="600" height="460">
  <path fill="#1890FF" opacity=".16" d="M502.433 250.604h-37.558c-4.706 0-8.557-3.853-8.557-8.561v-37.57c0-4.708 3.851-8.561 8.557-8.561h37.558c4.707 0 8.558 3.853 8.558 8.561v37.57c0 4.708-3.851 8.561-8.558 8.561Z"/>
  <path fill="#FFC540" d="M132.558 218.068h-16.661c-2.101 0-3.819-1.832-3.819-4.07V196.03c0-2.238 1.718-4.07 3.819-4.07h16.661c2.101 0 3.819 1.832 3.819 4.07v17.968c0 2.238-1.718 4.07-3.819 4.07Z"/>
  <path fill="#FF7A46" d="M502.66 321.5c-2.1 0-3.819-1.706-3.819-3.789v-16.73c0-2.083 1.719-3.789 3.819-3.789h16.662c2.1 0 3.819 1.706 3.819 3.789v16.73c0 2.083-1.719 3.789-3.819 3.789H502.66Z"/>
  <path fill="#ADC6FF" opacity=".48" d="M101.788 139.451c-5.624 0-10.2255-4.601-10.2255-10.225V84.3467c0-5.6241 4.6015-10.2256 10.2255-10.2256h44.879c5.624 0 10.226 4.6015 10.226 10.2256v44.8793c0 5.624-4.602 10.225-10.226 10.225h-44.879Z"/>
  <path fill="#FFFFFF" d="m223.657 346.273-3.159-3.159 30.609-30.721c1.047-1.046 2.744-1.046 3.791 0l1.263 1.264c1.047 1.047 1.047 2.744 0 3.79l-28.713 28.826c-1.047 1.046-2.744 1.046-3.791 0Z"/>
  <path fill="#FFFFFF" d="m230.6 343.114-3.158 3.159c-1.047 1.047-2.744 1.047-3.791 0l-12.578-12.578c-1.046-1.047-1.046-2.744 0-3.791l1.264-1.263c1.047-1.047 2.744-1.047 3.79 0l14.473 14.473Z"/>
  <path fill="#FF7946" d="M154.517 323.676c-1.29 0-2.474-.71-3.078-1.85-6.01-11.327-7.833-24.396-5.41-38.835 2.294-13.68 8.298-28.021 17.844-42.63 19.401-29.69 51.385-57.351 90.057-77.885 38.673-20.534 79.501-31.526 114.97-30.966 17.447.275 32.69 3.336 45.304 9.098 13.323 6.085 23.124 14.911 29.14 26.242.901 1.697.255 3.803-1.442 4.704-1.697.9-3.803.255-4.703-1.443-5.281-9.943-13.988-17.741-25.883-23.174-11.738-5.358-26.045-8.209-42.528-8.484-34.308-.55-73.942 10.181-111.593 30.155-37.651 19.974-68.729 46.834-87.499 75.561-9.017 13.801-14.67 27.246-16.805 39.972-2.165 12.896-.584 24.478 4.697 34.421.571 1.076.538 2.372-.086 3.417-.625 1.046-1.75 1.69-2.968 1.697h-.017Z"/>
  <path fill="#025D97" opacity=".32" d="M291.918 358.372c68.676 0 124.349-55.673 124.349-124.35 0-68.676-55.673-124.349-124.349-124.349-68.677 0-124.35 55.673-124.35 124.349 0 68.677 55.673 124.35 124.35 124.35Z"/>
  <path fill="#1890FF" d="M375.531 264.208c7.324-19.534 10.989-26.86 0-30.183-10.988-3.322-26.86 17.973-41.52 7.7-14.66-10.272 4.884-32.455-1.221-45.154-6.105-12.699-13.432-14.161-9.767-38.157 1.86-12.176 13.13-25.665 23.782-35.995-17.069-8.409-35.846-12.771-54.874-12.747-4.97 0-9.935.295-14.87.883 10.313 22.601-8.399 39.083-22.398 61.952-17.093 27.946-10.988 45.308 24.417 52.034 35.405 6.726 31.743 49.433 0 60.405-31.743 10.971-21.977-34.167-41.51-34.387-19.533-.221-39.066-4.663-40.288-22.957-.679-10.375-13.951-20.077-25.302-26.531-2.938 10.738-4.422 21.822-4.412 32.954 0 68.676 55.675 124.35 124.353 124.35 31.842.041 62.478-12.175 85.555-34.115-8.749-20.273-7.313-45.735-1.945-60.052Z"/>
  <path fill="#025D97" d="M197.282 227.601c1.222 18.295 20.755 22.737 40.288 22.958 19.533.22 9.767 45.392 41.51 34.403 31.743-10.988 35.405-53.696 0-60.405-35.405-6.709-41.51-24.094-24.416-52.033 13.984-22.869 32.696-39.365 22.397-61.952-50.625 6.013-91.907 42.443-105.081 90.499 11.358 6.454 24.61 16.156 25.302 26.53Z"/>
  <path fill="#8CCDF6" d="M197.282 227.601c1.222 18.295 20.755 22.737 40.288 22.958 19.533.22 9.767 45.392 41.51 34.403 31.743-10.988 35.405-53.696 0-60.405-35.405-6.709-41.51-24.094-24.416-52.033 13.984-22.869 32.696-39.365 22.397-61.952-50.625 6.013-91.907 42.443-105.081 90.499 11.358 6.454 24.61 16.156 25.302 26.53ZM416.267 234.026c0-48.973-28.309-91.331-69.452-111.607-10.652 10.33-21.922 23.819-23.782 35.995-3.665 23.996 3.662 25.452 9.767 38.157 6.105 12.705-13.432 34.882 1.211 45.154 14.643 10.273 30.542-11.025 41.52-7.699 10.978 3.325 7.324 10.648 0 30.182-5.368 14.317-6.804 39.779 1.945 60.065 24.803-23.459 38.836-56.107 38.791-90.247Z"/>
  <path fill="#FFB200" d="M339.227 326.605c-1.6.004-2.996-1.084-3.384-2.636-.387-1.553.334-3.169 1.748-3.917 37.669-19.992 68.726-46.831 87.496-75.544 9.034-13.798 14.67-27.26 16.805-39.976 2.165-12.895.587-24.477-4.693-34.421-.901-1.697-.255-3.802 1.442-4.703 1.697-.901 3.803-.255 4.703 1.442 6.014 11.328 7.836 24.393 5.43 38.836-2.297 13.679-8.3 28.02-17.843 42.626-19.401 29.694-51.385 57.351-90.061 77.885-.506.27-1.07.41-1.643.408ZM229.161 373.032c15.187 0 27.498-12.312 27.498-27.498 0-15.187-12.311-27.498-27.498-27.498-15.187 0-27.498 12.311-27.498 27.498 0 15.186 12.311 27.498 27.498 27.498Z"/>
</svg>
