<svg xmlns="http://www.w3.org/2000/svg" width="403" height="403">
  <g clip-path="url(#a)">
    <path fill="#1890FF" opacity=".16" d="M378.849 219.551h-32.904c-4.124 0-7.497-3.375-7.497-7.5v-32.915c0-4.125 3.373-7.5 7.497-7.5h32.904c4.124 0 7.497 3.375 7.497 7.5v32.915c0 4.125-3.373 7.5-7.497 7.5Z"/>
    <path fill="#FFC540" d="M54.8062 191.046H40.2095c-1.8402 0-3.3457-1.604-3.3457-3.565v-15.742c0-1.961 1.5055-3.565 3.3457-3.565h14.5967c1.8401 0 3.3458 1.604 3.3458 3.565v15.742c0 1.961-1.5057 3.565-3.3458 3.565Z"/>
    <path fill="#FF7A46" d="M379.048 281.662c-1.84 0-3.346-1.494-3.346-3.32v-14.656c0-1.826 1.506-3.32 3.346-3.32h14.597c1.84 0 3.345 1.494 3.345 3.32v14.656c0 1.826-1.505 3.32-3.345 3.32h-14.597Z"/>
    <path fill="#ADC6FF" opacity=".4" d="M27.8491 122.171c-4.9271 0-8.9585-4.031-8.9585-8.958V73.895c0-4.9271 4.0314-8.9585 8.9585-8.9585H67.167c4.9272 0 8.9585 4.0314 8.9585 8.9585v39.318c0 4.927-4.0313 8.958-8.9585 8.958H27.8491Z"/>
    <path fill="#FFFFFF" d="m134.617 303.365-2.767-2.767 26.816-26.914c.917-.917 2.403-.917 3.32 0l1.107 1.107c.917.917.917 2.404 0 3.321l-25.155 25.253c-.917.917-2.404.917-3.321 0Z"/>
    <path fill="#FFFFFF" d="m140.7 300.598-2.767 2.767c-.917.917-2.404.917-3.321 0l-11.019-11.019c-.917-.917-.917-2.404 0-3.321l1.106-1.107c.917-.917 2.404-.917 3.321 0l12.68 12.68Z"/>
    <path fill="#FF7946" d="M74.0441 283.568c-1.1297 0-2.1675-.622-2.6965-1.62-5.2653-9.924-6.8618-21.373-4.739-34.023 2.0097-11.985 7.269-24.549 15.6322-37.348 16.9969-26.011 45.0182-50.244 78.8982-68.234 33.881-17.99 69.65-27.619 100.724-27.129 15.284.241 28.639 2.923 39.69 7.971 11.672 5.331 20.258 13.063 25.529 22.99.789 1.487.224 3.332-1.263 4.121-1.487.789-3.332.223-4.121-1.264-4.626-8.711-12.255-15.543-22.675-20.302-10.284-4.695-22.818-7.192-37.258-7.433-30.058-.482-64.78 8.919-97.766 26.418-32.986 17.5-60.213 41.031-76.6565 66.198-7.8993 12.091-12.8524 23.871-14.7224 35.019-1.8968 11.298-.5114 21.445 4.1146 30.156.5003.943.4717 2.078-.0754 2.994-.5472.916-1.5332 1.48-2.6003 1.486h-.0149Z"/>
    <path fill="#025D97" opacity=".32" d="M194.42 313.965c60.166 0 108.941-48.775 108.941-108.941 0-60.167-48.775-108.9413-108.941-108.9413-60.167 0-108.9415 48.7743-108.9415 108.9413 0 60.166 48.7745 108.941 108.9415 108.941Z" />
    <path fill="#1890FF" d="M267.672 231.469c6.416-17.113 9.626-23.532 0-26.442-9.627-2.911-23.532 15.745-36.375 6.745-12.844-8.999 4.278-28.434-1.071-39.559-5.348-11.125-11.767-12.406-8.556-33.429 1.629-10.667 11.503-22.485 20.835-31.535-14.954-7.3663-31.404-11.1874-48.074-11.1664-4.354 0-8.704.2583-13.028.7731 9.035 19.8003-7.358 34.2403-19.622 54.2753-14.975 24.483-9.627 39.693 21.391 45.586 31.018 5.893 27.81 43.308 0 52.92-27.81 9.612-19.253-29.932-36.366-30.126-17.113-.193-34.226-4.085-35.296-20.112-.595-9.089-12.2221-17.589-22.1669-23.244-2.5741 9.408-3.874 19.118-3.865 28.872 0 60.165 48.7759 108.941 108.9439 108.941 27.896.036 54.736-10.667 74.953-29.888-7.664-17.761-6.407-40.068-1.703-52.611Z"/>
    <path fill="#025D97" d="M111.51 199.399c1.071 16.027 18.183 19.919 35.296 20.112 17.113.194 8.557 39.768 36.366 30.141 27.81-9.627 31.018-47.042 0-52.92-31.017-5.878-36.366-21.109-21.391-45.586 12.252-20.035 28.646-34.487 19.622-54.2755-44.351 5.2685-80.518 37.1835-92.0597 79.2855 9.9507 5.654 21.5607 14.154 22.1667 23.243Z"/>
    <path fill="#8CCDF6" d="M111.51 199.399c1.071 16.027 18.183 19.919 35.296 20.112 17.113.194 8.557 39.768 36.366 30.141 27.81-9.627 31.018-47.042 0-52.92-31.017-5.878-36.366-21.109-21.391-45.586 12.252-20.035 28.646-34.487 19.622-54.2755-44.351 5.2685-80.518 37.1835-92.0597 79.2855 9.9507 5.654 21.5607 14.154 22.1667 23.243ZM303.36 205.027c0-42.904-24.801-80.014-60.846-97.778-9.332 9.05-19.206 20.868-20.835 31.535-3.211 21.023 3.208 22.298 8.556 33.429 5.349 11.131-11.767 30.56 1.062 39.559 12.828 9 26.757-9.659 36.375-6.745 9.618 2.913 6.416 9.329 0 26.442-4.703 12.543-5.961 34.85 1.703 52.623 21.73-20.553 34.024-49.156 33.985-79.065Z"/>
    <path fill="#FFB200" d="M235.867 286.134c-1.402.004-2.625-.949-2.965-2.309-.339-1.36.293-2.776 1.532-3.432 33-17.514 60.21-41.028 76.653-66.183 7.915-12.088 12.853-23.882 14.723-35.022 1.897-11.298.514-21.445-4.112-30.156-.789-1.486-.223-3.331 1.264-4.12 1.487-.789 3.331-.223 4.12 1.263 5.269 9.924 6.865 21.371 4.757 34.024-2.013 11.984-7.272 24.548-15.632 37.344-16.997 26.014-45.018 50.244-78.901 68.234-.443.236-.938.359-1.439.357ZM139.439 326.808c13.305 0 24.091-10.785 24.091-24.09s-10.786-24.091-24.091-24.091c-13.305 0-24.09 10.786-24.09 24.091 0 13.305 10.785 24.09 24.09 24.09Z"/>
  </g>
  <defs>
    <clipPath id="a">
      <path fill="#FFFFFF" d="M0 0h403v403H0z"/>
    </clipPath>
  </defs>
</svg>
