<svg xmlns="http://www.w3.org/2000/svg" width="100" height="55">
  <path fill="#1890FF" d="M77.1935 20.7692h-8.3077c-.5735 0-1.0384.465-1.0384 1.0385v31.1538c0 .5736.4649 1.0385 1.0384 1.0385h8.3077c.5736 0 1.0385-.4649 1.0385-1.0385V21.8077c0-.5735-.4649-1.0385-1.0385-1.0385ZM60.5781 37.3846h-8.3076c-.5736 0-1.0385.4649-1.0385 1.0385v14.5384c0 .5736.4649 1.0385 1.0385 1.0385h8.3076c.5736 0 1.0385-.4649 1.0385-1.0385V38.4231c0-.5736-.4649-1.0385-1.0385-1.0385ZM43.9628 20.7692h-8.3077c-.5736 0-1.0385.465-1.0385 1.0385v31.1538c0 .5736.4649 1.0385 1.0385 1.0385h8.3077c.5735 0 1.0384-.4649 1.0384-1.0385V21.8077c0-.5735-.4649-1.0385-1.0384-1.0385ZM27.3474 37.3846h-8.3077c-.5735 0-1.0385.4649-1.0385 1.0385v14.5384c0 .5736.465 1.0385 1.0385 1.0385h8.3077c.5735 0 1.0384-.4649 1.0384-1.0385V38.4231c0-.5736-.4649-1.0385-1.0384-1.0385Z"/>
  <path fill="#91D5FF" d="M73.0397 10.3846c2.8676 0 5.1923-2.32466 5.1923-5.19229C78.232 2.32468 75.9073 0 73.0397 0c-2.8676 0-5.1923 2.32468-5.1923 5.19231s2.3247 5.19229 5.1923 5.19229ZM67.2243 9.53723l-7.9432 7.94317c-.8468-.564-1.8415-.865-2.8589-.865-1.0174 0-2.0121.301-2.8589.865l-7.939-7.94317c-.4173.55797-.9125 1.05317-1.4705 1.47047l7.9432 7.9432c-.5188.7823-.8158 1.6907-.8594 2.6284-.0436.9377.1678 1.8697.6118 2.6968.4439.8271 1.1038 1.5184 1.9094 2.0003.8056.4819 1.7268.7364 2.6655.7364.9387 0 1.8599-.2545 2.6655-.7364.8056-.4819 1.4655-1.1732 1.9094-2.0003.444-.8271.6554-1.7591.6118-2.6968-.0436-.9377-.3406-1.8461-.8594-2.6284l7.9432-7.9432c-.558-.4173-1.0532-.9125-1.4705-1.47047ZM39.8089 10.3846c2.8676 0 5.1923-2.32466 5.1923-5.19229C45.0012 2.32468 42.6765 0 39.8089 0c-2.8676 0-5.1923 2.32468-5.1923 5.19231s2.3247 5.19229 5.1923 5.19229ZM33.9935 9.53723l-7.9432 7.94317c-1.0764-.7125-2.3791-.9998-3.6554-.8062s-2.4352.8543-3.2519 1.854c-.8168.9996-1.2331 2.267-1.1684 3.5562.0648 1.2893.606 2.5086 1.5188 3.4213.9128.9128 2.1321 1.4541 3.4213 1.5188 1.2893.0648 2.5566-.3516 3.5563-1.1683.9996-.8168 1.6603-1.9757 1.8539-3.252.1936-1.2762-.0937-2.5789-.8062-3.6554l7.9453-7.9411c-.5579-.4173-1.0531-.9125-1.4705-1.47047Z"/>
  <path fill="#1890FF" d="M0 54.0775c0-.2762.223858-.5.5-.5h99c.2761 0 .5.2238.5.5 0 .2761-.2239.5-.5.5H.5c-.276142 0-.5-.2239-.5-.5Z"/>
</svg>
