<svg xmlns="http://www.w3.org/2000/svg" width="164" height="164" fill="none">
  <path fill="#1890FF" d="M109.194 75.7692h-8.308c-.574 0-1.0386.465-1.0386 1.0385v31.1543c0 .573.4646 1.038 1.0386 1.038h8.308c.573 0 1.038-.465 1.038-1.038V76.8077c0-.5735-.465-1.0385-1.038-1.0385ZM92.5781 92.3846h-8.3076c-.5736 0-1.0385.4649-1.0385 1.0385v14.5389c0 .573.4649 1.038 1.0385 1.038h8.3076c.5736 0 1.0385-.465 1.0385-1.038V93.4231c0-.5736-.4649-1.0385-1.0385-1.0385ZM75.9628 75.7692h-8.3077c-.5736 0-1.0385.465-1.0385 1.0385v31.1543c0 .573.4649 1.038 1.0385 1.038h8.3077c.5735 0 1.0384-.465 1.0384-1.038V76.8077c0-.5735-.4649-1.0385-1.0384-1.0385ZM59.3474 92.3846h-8.3077c-.5735 0-1.0385.4649-1.0385 1.0385v14.5389c0 .573.465 1.038 1.0385 1.038h8.3077c.5735 0 1.0384-.465 1.0384-1.038V93.4231c0-.5736-.4649-1.0385-1.0384-1.0385Z"/>
  <path fill="#91D5FF" d="M105.04 65.3846c2.867 0 5.192-2.3247 5.192-5.1923 0-2.8676-2.325-5.1923-5.192-5.1923-2.868 0-5.1926 2.3247-5.1926 5.1923 0 2.8676 2.3246 5.1923 5.1926 5.1923ZM99.2243 64.5372l-7.9432 7.9432c-.8468-.564-1.8415-.865-2.8589-.865-1.0174 0-2.0121.301-2.8589.865l-7.939-7.9432c-.4173.558-.9125 1.0532-1.4705 1.4705l7.9432 7.9432c-.5188.7823-.8158 1.6907-.8594 2.6284-.0436.9377.1678 1.8697.6118 2.6968.4439.8271 1.1038 1.5184 1.9094 2.0003.8056.4819 1.7268.7364 2.6655.7364.9387 0 1.8599-.2545 2.6655-.7364.8056-.4819 1.4655-1.1732 1.9094-2.0003.444-.8271.6554-1.7591.6118-2.6968-.0436-.9377-.3406-1.8461-.8594-2.6284l7.9434-7.9432c-.558-.4173-1.0534-.9125-1.4707-1.4705ZM71.8089 65.3846c2.8676 0 5.1923-2.3247 5.1923-5.1923 0-2.8676-2.3247-5.1923-5.1923-5.1923-2.8676 0-5.1923 2.3247-5.1923 5.1923 0 2.8676 2.3247 5.1923 5.1923 5.1923ZM65.9935 64.5372l-7.9432 7.9432c-1.0764-.7125-2.3791-.9998-3.6554-.8062s-2.4352.8543-3.2519 1.854c-.8168.9996-1.2331 2.267-1.1684 3.5562.0648 1.2893.606 2.5086 1.5188 3.4213.9128.9128 2.1321 1.4541 3.4213 1.5188 1.2893.0648 2.5566-.3516 3.5563-1.1683.9996-.8168 1.6603-1.9757 1.8539-3.252.1936-1.2762-.0937-2.5789-.8062-3.6554l7.9453-7.9411c-.5579-.4173-1.0531-.9125-1.4705-1.4705Z"/>
  <path fill="#1890FF" d="M32 109.077c0-.276.2239-.5.5-.5h99c.276 0 .5.224.5.5 0 .277-.224.5-.5.5h-99c-.2761 0-.5-.223-.5-.5Z"/>
  <rect width="163" height="163" x=".5" y=".5" stroke="#F0F0F0" stroke-linejoin="round" rx="1.5"/>
</svg>
