<svg xmlns="http://www.w3.org/2000/svg" width="164" height="164" fill="none">
  <path fill="#91D5FF" d="M106 71v-9c0-.552-.447-1-1-1H78.414l-5.707-5.707C72.52 55.105 72.266 55 72 55H59c-.553 0-1 .448-1 1v15h48Z"/>
  <path fill="#1890FF" d="M112.775 73.368c-.19-.233-.474-.368-.775-.368H52c-.301 0-.585.135-.775.368-.189.233-.265.539-.204.833l7 34c.095.466.504.799.979.799h46c.475 0 .884-.333.979-.798l7-34c.061-.295-.014-.601-.204-.834Z"/>
  <path fill="#1890FF" d="M32 109.077c0-.276.2239-.5.5-.5h99c.276 0 .5.224.5.5 0 .277-.224.5-.5.5h-99c-.2761 0-.5-.223-.5-.5Z"/>
  <rect width="163" height="163" x=".5" y=".5" stroke="#F0F0F0" stroke-linejoin="round" rx="1.5"/>
</svg>
