<svg xmlns="http://www.w3.org/2000/svg" width="100" height="55">
  <path fill="#91D5FF" d="M74 16V7c0-.552-.447-1-1-1H46.414L40.707.293C40.52.105 40.266 0 40 0H27c-.553 0-1 .448-1 1v15h48Z"/>
  <path fill="#1890FF" d="M80.775 18.368c-.19-.233-.474-.368-.775-.368H20c-.301 0-.585.135-.775.368-.189.233-.265.539-.204.833l7 34c.095.466.504.799.979.799h46c.475 0 .884-.333.979-.798l7-34c.061-.295-.014-.601-.204-.834Z"/>
  <path fill="#1890FF" d="M0 54.0775c0-.2762.223858-.5.5-.5h99c.2761 0 .5.2238.5.5 0 .2761-.2239.5-.5.5H.5c-.276142 0-.5-.2239-.5-.5Z"/>
</svg>
