<svg xmlns="http://www.w3.org/2000/svg" width="100" height="55">
  <path fill="#91D5FF" d="M56.4383 15.9522c.8006-1.0008 2.3228-1.0008 3.1234 0L90 54H26l30.4383-38.0478Z"/>
  <path fill="#1890FF" d="M36.4948 23.7202c.7969-.9107 2.2135-.9107 3.0103 0L66 54H10l26.4948-30.2798Z"/>
  <path fill="#1890FF" d="M46 8c0 4.4183-3.5817 8-7.9999 8C33.5818 16 30 12.4183 30 8c0-4.41828 3.5818-8 8.0001-8C42.4183 0 46 3.58172 46 8ZM0 54.0775c0-.2762.223858-.5.5-.5h99c.2761 0 .5.2238.5.5 0 .2761-.2239.5-.5.5H.5c-.276142 0-.5-.2239-.5-.5Z"/>
</svg>
