<svg xmlns="http://www.w3.org/2000/svg" width="164" height="164" fill="none">
  <path fill="#91D5FF" d="M88.4383 70.9522c.8006-1.0008 2.3228-1.0008 3.1234 0L122 109H58l30.4383-38.0478Z"/>
  <path fill="#1890FF" d="M68.4948 78.7202c.7969-.9107 2.2135-.9107 3.0104 0L98 109H42l26.4948-30.2798Z"/>
  <path fill="#1890FF" d="M78 63c0 4.4183-3.5817 8-7.9999 8C65.5818 71 62 67.4183 62 63s3.5818-8 8.0001-8C74.4183 55 78 58.5817 78 63ZM32 109.077c0-.276.2239-.5.5-.5h99c.276 0 .5.224.5.5 0 .277-.224.5-.5.5h-99c-.2761 0-.5-.223-.5-.5Z"/>
  <rect width="163" height="163" x=".5" y=".5" stroke="#F0F0F0" stroke-linejoin="round" rx="1.5"/>
</svg>
