<svg xmlns="http://www.w3.org/2000/svg" width="375" height="353">
  <path fill="#F5F5F5" opacity=".5" d="M175 352.625c96.65 0 175-78.938 175-176.313C350 78.9378 271.65 0 175 0 78.3502 0 0 78.9378 0 176.312c0 97.375 78.3502 176.313 175 176.313Z"/>
  <path fill="#8CCDF6" d="M295.821 85.8918H55.1793c-4.1333 0-7.484 3.3876-7.484 7.5664V268.172c0 4.179 3.3507 7.566 7.484 7.566H295.821c4.133 0 7.484-3.387 7.484-7.566V93.4582c0-4.1788-3.351-7.5664-7.484-7.5664Z"/>
  <path fill="#012841" d="M277.384 119.65H73.616c-1.5712 0-2.845 1.287-2.845 2.876v132.955c0 1.588 1.2738 2.876 2.845 2.876h203.768c1.571 0 2.845-1.288 2.845-2.876V122.526c0-1.589-1.274-2.876-2.845-2.876Z"/>
  <path fill="#FFFFFF" d="M240.598 162.252H98.8252v6.732H240.598v-6.732Z"/>
  <path fill="#FFB200" d="M169.708 185.67H98.8213v6.732h70.8867v-6.732Z"/>
  <path fill="#8CCDF6" d="M169.708 232.506H98.8213v6.732h70.8867v-6.732ZM141.349 138.744H98.8174v6.732h42.5316v-6.732ZM205.321 185.581h-21.3v6.732h21.3v-6.732Z"/>
  <path fill="#FFFFFF" d="M205.153 209.088H98.8232v6.732H205.153v-6.732Z"/>
  <path fill="#012841" d="M54.542 77.1366H296.33c3.781 0 6.846 3.0348 6.846 6.7783v20.1991H47.6953V83.9149c0-3.7435 3.0654-6.7783 6.8467-6.7783Z"/>
  <path fill="#FF7946" d="M62.3302 95.4632c2.6989 0 4.8868-2.166 4.8868-4.8379 0-2.6719-2.1879-4.838-4.8868-4.838s-4.8868 2.1661-4.8868 4.838 2.1879 4.8379 4.8868 4.8379Z"/>
  <path fill="#FFB200" d="M80.5821 95.4632c2.6989 0 4.8868-2.166 4.8868-4.8379 0-2.6719-2.1879-4.838-4.8868-4.838s-4.8868 2.1661-4.8868 4.838 2.1879 4.8379 4.8868 4.8379Z"/>
  <path fill="#53C518" d="M98.837 95.4632c2.699 0 4.887-2.166 4.887-4.8379 0-2.6719-2.188-4.838-4.887-4.838-2.6989 0-4.8868 2.1661-4.8868 4.838s2.1879 4.8379 4.8868 4.8379Z"/>
  <path fill="#FFB200" d="M263.356 242.486c-7.484 0-13.551-6.067-13.551-13.551s6.067-13.551 13.551-13.551 13.551 6.067 13.551 13.551-6.067 13.551-13.551 13.551Zm40.668-7.422v-12.259l-9.662-2.455c-.709-2.566-1.727-5.002-3.012-7.267l5.097-8.571-8.669-8.669-8.57 5.098c-2.266-1.286-4.702-2.304-7.267-3.013l-2.456-9.662h-12.259l-2.455 9.662c-2.566.709-5.002 1.727-7.267 3.013l-8.571-5.098-8.669 8.669 5.097 8.571c-1.285 2.265-2.303 4.701-3.012 7.267l-9.662 2.455v12.259l9.662 2.456c.709 2.565 1.727 5.001 3.012 7.267l-5.097 8.57 8.669 8.669 8.571-5.097c2.265 1.285 4.701 2.303 7.267 3.012l2.455 9.662h12.259l2.456-9.662c2.565-.709 5.001-1.727 7.267-3.012l8.57 5.097 8.669-8.669-5.097-8.57c1.285-2.266 2.303-4.702 3.012-7.267l9.662-2.456Z"/>
  <path fill="#012841" d="M324.256 293.008c-6.953 0-12.589-5.636-12.589-12.589s5.636-12.589 12.589-12.589 12.59 5.636 12.59 12.589-5.637 12.589-12.59 12.589Zm37.783-6.894v-11.39l-8.977-2.281c-.658-2.383-1.604-4.647-2.798-6.751l4.736-7.963-8.054-8.054-7.963 4.736c-2.104-1.194-4.368-2.14-6.751-2.798l-2.281-8.977h-11.39l-2.281 8.977c-2.383.658-4.647 1.604-6.751 2.798l-7.963-4.736-8.053 8.054 4.735 7.963c-1.194 2.104-2.14 4.368-2.798 6.751l-8.977 2.281v11.39l8.977 2.281c.658 2.383 1.604 4.647 2.798 6.751l-4.735 7.963 8.053 8.054 7.963-4.736c2.104 1.194 4.368 2.14 6.751 2.798l2.281 8.977h11.39l2.281-8.977c2.383-.658 4.647-1.604 6.751-2.798l7.963 4.736 8.054-8.054-4.736-7.963c1.194-2.104 2.14-4.368 2.798-6.751l8.977-2.281Z"/>
  <path fill="#0072BC" d="m328.332 225.27-14.932-2.883 15.796-17.914c-1.408-.225-2.852-.344-4.323-.344-14.991 0-27.143 12.152-27.143 27.142s12.152 27.142 27.143 27.142c14.99 0 27.142-12.152 27.142-27.142 0-1.055-.063-2.096-.18-3.119l-23.503-2.882Z"/>
  <path fill="#30A5EF" d="m328.332 225.27-28.085-5.422c-1.614 3.472-2.516 7.342-2.516 11.423 0 3.674.731 7.177 2.054 10.373l-60.234 55.878c-3.672 11.568 7.408 22.378 18.881 18.422l.801-.276 55.465-59.228c3.143 1.271 6.576 1.973 10.175 1.973 14.99 0 27.142-12.152 27.142-27.142 0-8.142-3.586-15.445-9.263-20.42l-14.42 14.419Z"/>
  <path fill="#0072BC" d="m299.732 262.098-5.905-5.906 5.905-5.906 5.906 5.906-5.906 5.906Z"/>
  <path fill="#1890FF" d="M64 135.21c28.8008 0 52.148-23.523 52.148-52.5393 0-29.0168-23.3472-52.5396-52.148-52.5396-28.8008 0-52.1484 23.5228-52.1484 52.5396C11.8516 111.687 35.1992 135.21 64 135.21Z"/>
  <path fill="#0072BC" d="M64.0002 131.457c26.7436 0 48.4238-21.842 48.4238-48.7863 0-26.9442-21.6802-48.7867-48.4238-48.7867S15.5767 55.7265 15.5767 82.6707c0 26.9443 21.6799 48.7863 48.4235 48.7863Z"/>
  <path fill="#FFFFFF" d="M63.9998 129.698c25.7792 0 46.6772-21.055 46.6772-47.0273 0-25.9726-20.898-47.0276-46.6772-47.0276-25.7793 0-46.6775 21.055-46.6775 47.0276 0 25.9723 20.8982 47.0273 46.6775 47.0273Z"/>
  <path fill="#012841" d="M64.0002 52.756c1.0286 0 1.8624.8401 1.8624 1.8764v26.6627h-3.7249V54.6324c0-1.0363.8338-1.8764 1.8625-1.8764Z"/>
  <path fill="#012841" d="M82.9644 82.6707c0 1.0363-.8339 1.8764-1.8625 1.8764H64v-3.7528h17.1019c1.0286 0 1.8625.8401 1.8625 1.8764Z"/>
  <path fill="#FF7946" d="M63.9998 87.0099c2.3786 0 4.3069-1.9427 4.3069-4.3392 0-2.3965-1.9283-4.3392-4.3069-4.3392-2.3787 0-4.3069 1.9427-4.3069 4.3392 0 2.3965 1.9282 4.3392 4.3069 4.3392Z"/>
  <path fill="#8CCDF6" d="M65.8577 43.266c0-1.0363-.8339-1.8764-1.8625-1.8764-1.0285 0-1.8624.8401-1.8624 1.8764v3.7529c0 1.0363.8339 1.8764 1.8624 1.8764 1.0286 0 1.8625-.8401 1.8625-1.8764V43.266ZM35.024 53.4829c.7273-.7328 1.9065-.7328 2.6339 0l2.6339 2.6536c.7273.7328.7273 1.9209 0 2.6537-.7274.7327-1.9066.7327-2.6339 0l-2.6339-2.6537c-.7274-.7328-.7274-1.9208 0-2.6536ZM23.0264 82.6754c0-1.0363.8338-1.8764 1.8624-1.8764h3.7249c1.0286 0 1.8624.8401 1.8624 1.8764 0 1.0363-.8338 1.8764-1.8624 1.8764h-3.7249c-1.0286 0-1.8624-.8401-1.8624-1.8764ZM35.0302 111.865c-.7273-.733-.7273-1.921 0-2.654l2.6339-2.654c.7273-.732 1.9066-.732 2.6339 0 .7273.733.7273 1.921 0 2.654l-2.6339 2.654c-.7273.732-1.9065.732-2.6339 0ZM62.1423 122.075c0 1.037.8338 1.877 1.8624 1.877s1.8625-.84 1.8625-1.877v-3.752c0-1.037-.8339-1.877-1.8625-1.877s-1.8624.84-1.8624 1.877v3.752ZM92.976 111.857c-.7273.733-1.9065.733-2.6339 0l-2.6339-2.653c-.7273-.733-.7273-1.921 0-2.654.7274-.733 1.9066-.733 2.6339 0l2.6339 2.654c.7273.733.7274 1.921 0 2.653ZM104.974 82.666c0 1.0363-.834 1.8764-1.863 1.8764h-3.7247c-1.0286 0-1.8624-.8401-1.8624-1.8764 0-1.0363.8338-1.8764 1.8624-1.8764h3.7247c1.029 0 1.863.8401 1.863 1.8764ZM92.9703 53.4778c.7273.7328.7273 1.9209 0 2.6537l-2.6339 2.6536c-.7274.7328-1.9066.7328-2.6339 0-.7273-.7328-.7273-1.9209 0-2.6536l2.6339-2.6537c.7273-.7328 1.9065-.7328 2.6339 0Z"/>
</svg>
