<svg xmlns="http://www.w3.org/2000/svg" width="600" height="460">
  <path stroke="#D9D9D9" stroke-linecap="square" stroke-width="4" d="M2.02466 421H602.025"/>
  <path fill="#F5F5F5" opacity=".5" d="M261 380c104.934 0 190-85.066 190-190C451 85.0659 365.934 0 261 0S71 85.0659 71 190c0 104.934 85.066 190 190 190Z"/>
  <path fill="#012841" d="M511.142 103.825H390.141V92.9613c0-2.3567 1.906-4.2674 4.258-4.2674h112.484c2.352 0 4.259 1.9107 4.259 4.2674v10.8637Z"/>
  <path fill="#8CCDF6" d="M506.883 208.43H394.399c-2.352 0-4.258-1.911-4.258-4.268V102.553h121.001v101.609c0 2.357-1.907 4.268-4.259 4.268Z"/>
  <path fill="#FFFFFF" d="M399.974 95.7357c0 1.479-1.197 2.6782-2.673 2.6782s-2.672-1.1992-2.672-2.6782c0-1.479 1.196-2.6781 2.672-2.6781 1.476 0 2.673 1.1991 2.673 2.6781ZM409.955 95.7357c0 1.479-1.196 2.6782-2.672 2.6782-1.476 0-2.673-1.1992-2.673-2.6782 0-1.479 1.197-2.6781 2.673-2.6781s2.672 1.1991 2.672 2.6781ZM419.937 95.7357c0 1.479-1.197 2.6782-2.673 2.6782s-2.672-1.1992-2.672-2.6782c0-1.479 1.196-2.6781 2.672-2.6781 1.476 0 2.673 1.1991 2.673 2.6781ZM403.219 194.028c-.734 0-1.329-.596-1.329-1.331v-77.134c0-.735.595-1.33 1.329-1.33h96.167c.734 0 1.329.595 1.329 1.33v77.134c0 .735-.595 1.331-1.329 1.331h-96.167Z"/>
  <path fill="#1890FF" d="M467.844 159.012c-5.771 0-10.461-4.719-10.461-10.554-.02-5.798 4.655-10.514 10.441-10.534h.02c5.768 0 10.457 4.718 10.457 10.55-.01 5.819-4.689 10.534-10.457 10.538Zm26.026-14.224c-.203-1.15-1.302-2.327-2.45-2.579l-.855-.198c-2.078-.631-3.838-2.033-4.919-3.92-1.093-1.905-1.417-4.158-.905-6.295l.269-.808c.344-1.121-.102-2.668-.997-3.434 0 0-.804-.683-3.059-1.998-2.267-1.307-3.237-1.672-3.237-1.672-1.102-.407-2.643-.016-3.45.844l-.593.641c-1.568 1.503-3.657 2.338-5.827 2.33-2.182.006-4.281-.836-5.856-2.35l-.571-.624c-.794-.861-2.345-1.242-3.45-.841 0 0-.984.365-3.246 1.672-2.266 1.325-3.063 2.008-3.063 2.008-.892.759-1.337 2.29-.993 3.424l.246.818c.506 2.134.182 4.381-.905 6.285-1.08 1.903-2.854 3.311-4.949 3.93l-.822.188c-1.128.262-2.24 1.422-2.45 2.579 0 0-.187 1.038-.187 3.673s.187 3.67.187 3.67c.203 1.163 1.302 2.327 2.45 2.58l.803.187c2.098.621 3.876 2.034 4.955 3.943 1.128 1.981 1.4 4.235.905 6.295l-.233.798c-.344 1.121.101 2.668.997 3.434 0 0 .803.683 3.059 1.998 2.266 1.314 3.24 1.672 3.24 1.672 1.098.408 2.643.017 3.449-.844l.564-.611c3.28-3.145 8.447-3.141 11.723.006l.564.615c.794.857 2.345 1.242 3.45.841 0 0 .983-.365 3.249-1.673 2.263-1.314 3.056-1.997 3.056-1.997.896-.756 1.342-2.3.997-3.434l-.246-.828c-.508-2.127-.184-4.367.905-6.262 1.086-1.903 2.86-3.315 4.955-3.943l.807-.188c1.128-.262 2.239-1.422 2.449-2.579 0 0 .187-1.038.187-3.67-.02-2.638-.203-3.683-.203-3.683ZM431.673 172.347c-2.569 1.464-5.849.552-7.323-2.045-1.473-2.577-.584-5.862 1.987-7.338l.009-.005c2.567-1.463 5.847-.552 7.32 2.044 1.466 2.593.574 5.879-1.993 7.344Zm7.993-12.934c-.381-.46-1.167-.705-1.742-.527l-.431.129c-1.084.246-2.222.068-3.18-.497-.967-.571-1.681-1.492-1.993-2.573l-.084-.428c-.13-.586-.72-1.162-1.312-1.276 0 0-.53-.1-1.866-.113-1.339-.008-1.864.076-1.864.076-.593.098-1.18.663-1.322 1.251l-.102.436c-.319 1.067-1.038 1.968-2.006 2.515-.97.556-2.117.714-3.2.439l-.412-.133c-.571-.182-1.358.042-1.748.501 0 0-.346.412-1.023 1.568-.675 1.164-.857 1.67-.857 1.67-.205.564-.017 1.359.423 1.776l.316.302c.765.822 1.188 1.905 1.185 3.028 0 1.121-.434 2.198-1.21 3.005l-.319.292c-.436.403-.638 1.201-.439 1.769 0 0 .179.51.845 1.683.666 1.173 1.01 1.587 1.01 1.587.385.466 1.167.705 1.742.527l.405-.121c1.091-.256 2.24-.078 3.202.499 1.003.596 1.693 1.53 1.993 2.573l.098.414c.13.586.72 1.162 1.312 1.276 0 0 .53.101 1.866.113 1.341.011 1.865-.077 1.865-.077.592-.097 1.181-.663 1.322-1.251l.097-.415c.666-2.231 2.967-3.541 5.221-2.97l.406.13c.57.181 1.357-.042 1.748-.5 0 0 .346-.412 1.024-1.569.675-1.159.856-1.665.856-1.665.208-.563.016-1.364-.423-1.781l-.319-.306c-.763-.818-1.185-1.898-1.179-3.018.002-1.122.435-2.201 1.209-3.012l.312-.288c.436-.403.638-1.201.439-1.77 0 0-.179-.509-.844-1.681-.675-1.169-1.021-1.588-1.021-1.588Z"/>
  <path fill="#BAE1F9" d="M427.357 127.903h-14.708c-.961 0-1.747-.787-1.747-1.75v-.147c0-.963.786-1.75 1.747-1.75h14.708c.961 0 1.747.787 1.747 1.75v.147c0 .963-.786 1.75-1.747 1.75ZM423.243 136.438h-9.101c-1.005 0-1.82-.816-1.82-1.824 0-1.007.815-1.824 1.82-1.824h9.101c1.005 0 1.82.817 1.82 1.824 0 1.008-.815 1.824-1.82 1.824Z"/>
  <path fill="#FFB200" d="M532 51.8568c-23.766 0-43.031 19.2242-43.031 42.9386 0 23.7146 19.265 42.9386 43.031 42.9386s43.031-19.224 43.031-42.9386c0-23.7144-19.265-42.9386-43.031-42.9386Z"/>
  <path fill="#FFFFFF" d="M533.757 107.063h-1.536c-1.274 0-2.306-1.029-2.306-2.3V75.6264c0-1.2705 1.032-2.3003 2.306-2.3003h1.536c1.274 0 2.306 1.0298 2.306 2.3003v29.1366c0 1.271-1.032 2.3-2.306 2.3ZM533.757 116.493h-1.536c-1.274 0-2.306-1.03-2.306-2.3v-1.534c0-1.27 1.032-2.3 2.306-2.3h1.536c1.274 0 2.306 1.03 2.306 2.3v1.534c0 1.27-1.032 2.3-2.306 2.3Z"/>
  <path fill="#5B8C00" d="M463.122 270.701c20.066-9.51 32.025 15.432 21.934 29.319-12.315 16.947-18.623 36.447-22.136 42.322-2.964 4.956-11.081 17.039-20.856 11.47-8.996-5.125-4.093-25.241-4.093-25.241s.397-46.138 25.151-57.87ZM402.768 349.939c-6.822-9.222-9.313-22.456-1.699-25.85 7.3-3.254 19.393 4.758 24.994 20.176 5.601 15.418 8.833 26.503 3.354 28.43-8.989 3.162-17.639-10.575-26.649-22.756Z"/>
  <path fill="#53C518" d="M474.485 350.639c-7.716 9.061-18.85 27.286-25.825 20.903-4.228-3.868 1.424-22.189 16.894-32.157 13.159-8.478 16.647 2.194 8.931 11.254ZM400.653 287.766c2.934-1.978 6.625-2.429 9.993-1.348 4.7 1.508 11.833 6 18.893 18.892 9.216 16.832 14.014 35.285 13.066 46.974-.62 7.644-10.018 10.939-15.276 5.366-2.415-2.56-4.97-6.506-7.469-12.492-10.06-24.088-19.465-39.183-20.587-40.698-2.992-4.045-5.132-12.303 1.38-16.694Z"/>
  <path fill="#FFFFFF" d="M407.4 297.374c.099 1.19-.783 2.235-1.969 2.334-1.187.1-2.23-.783-2.33-1.972-.099-1.19.782-2.234 1.969-2.334 1.187-.1 2.23.783 2.33 1.972ZM425.718 306.601c.1 1.189-.782 2.234-1.969 2.334-1.187.1-2.23-.783-2.329-1.973-.1-1.189.782-2.234 1.969-2.334 1.187-.1 2.23.784 2.329 1.973ZM422.648 331.167c.114 1.362-.896 2.559-2.255 2.673-1.359.115-2.554-.897-2.667-2.259-.115-1.362.895-2.559 2.254-2.673 1.359-.114 2.554.897 2.668 2.259ZM478.913 294.454c0 1.933-1.563 3.5-3.492 3.5-1.93 0-3.493-1.567-3.493-3.5s1.563-3.5 3.493-3.5c1.929 0 3.492 1.567 3.492 3.5ZM450.795 305.142c0 1.933-1.564 3.5-3.493 3.5-1.929 0-3.493-1.567-3.493-3.5s1.564-3.5 3.493-3.5c1.929 0 3.493 1.567 3.493 3.5ZM459.902 328.899c0 .808-.654 1.463-1.46 1.463-.806 0-1.46-.655-1.46-1.463s.654-1.463 1.46-1.463c.806 0 1.46.655 1.46 1.463ZM470.419 347.607c0 1.194-.965 2.161-2.156 2.161-1.192 0-2.157-.967-2.157-2.161 0-1.193.965-2.161 2.157-2.161 1.191 0 2.156.968 2.156 2.161Z"/>
  <path fill="#012841" d="M420.046 352.401c.201-.193.519-.185.711.016l.092.1.069.077c.127.142.274.311.438.508.467.558.987 1.226 1.546 2.001 1.593 2.21 3.184 4.847 4.669 7.906 4.236 8.73 6.776 19.1 6.776 31.07 0 .279-.225.504-.503.504s-.503-.225-.503-.504c0-11.812-2.504-22.032-6.675-30.629-1.458-3.006-3.019-5.593-4.579-7.757-.513-.711-.99-1.327-1.421-1.847l-.081-.097c-.122-.146-.233-.276-.333-.389l-.126-.142c-.047-.051-.08-.086-.097-.105-.192-.201-.184-.52.017-.712ZM458.039 355.928c.166-.223.481-.269.704-.103.222.167.268.482.102.705-1.832 2.459-3.522 5.101-5.077 7.903-3.286 5.922-5.826 12.272-7.712 18.622-.66 2.222-1.191 4.286-1.604 6.136l-.084.38c-.098.452-.183.865-.256 1.235l-.047.242-.083.457c-.046.275-.306.46-.58.414-.274-.046-.458-.306-.412-.581l.029-.162c.023-.131.052-.285.086-.462l.083-.419c.081-.4.175-.842.283-1.324l.091-.404c.404-1.767.911-3.714 1.53-5.799 1.905-6.416 4.473-12.832 7.797-18.825 1.576-2.839 3.291-5.52 5.15-8.015Z"/>
  <path fill="#012841" d="M466.827 293.059c.192.185.206.486.037.688l-.022.024c-.01.011-.031.033-.063.068l-.124.135-.072.08c-.216.242-.468.533-.752.874-.814.976-1.723 2.15-2.702 3.524-2.803 3.932-5.607 8.667-8.225 14.211-4.36 9.23-7.755 19.757-9.813 31.591-2.499 14.371-2.913 30.07-.867 47.108.033.276-.164.527-.439.56-.276.033-.527-.164-.56-.44-2.057-17.136-1.641-32.933.875-47.401 2.074-11.926 5.497-22.539 9.895-31.85 2.644-5.599 5.479-10.385 8.315-14.365l.22-.306c.875-1.214 1.692-2.269 2.437-3.167l.092-.112c.268-.32.508-.599.719-.836l.056-.064c.066-.073.125-.138.177-.194l.105-.113c.192-.201.51-.208.711-.015ZM423.298 322.941c.237-.144.546-.068.69.17l.051.085c.04.068.087.149.141.244l.079.138c.135.238.287.511.454.819l.138.256c.511.954 1.072 2.058 1.67 3.309l.082.171c1.952 4.098 3.904 8.891 5.724 14.336 5.098 15.248 8.199 32.555 8.315 51.607.002.279-.222.506-.5.507-.277.002-.504-.222-.506-.501-.115-18.941-3.197-36.142-8.262-51.292-1.775-5.308-3.673-9.988-5.573-14l-.105-.223c-.65-1.363-1.254-2.552-1.799-3.564l-.164-.302c-.158-.288-.3-.541-.425-.759l-.059-.103-.121-.206c-.144-.238-.068-.548.17-.692Z"/>
  <path fill="#012841" d="M462.002 419.075h-43.47c-2.349 0-4.272-1.927-4.272-4.281v-31.777c0-2.355 1.923-4.281 4.272-4.281h43.47c2.349 0 4.272 1.926 4.272 4.281v31.777c0 2.354-1.923 4.281-4.272 4.281Z"/>
  <path fill="#FFC999" d="M278.462 639.988c7.581.951 14.559-4.27 15.808-11.827l26.715-161.663c1.924-11.644-6.197-22.559-17.876-24.024-11.682-1.465-22.234 7.106-23.23 18.867L266.05 624.619c-.648 7.634 4.831 14.418 12.412 15.369ZM224.752 646.424c7.638.173 14.051-5.732 14.526-13.377L249.476 469.5c.735-11.783-8.451-21.812-20.218-22.081-11.769-.266-21.399 9.334-21.198 21.138l2.786 163.843c.13 7.66 6.267 13.85 13.906 14.024Z"/>
  <path fill="#FFC999" d="M232.716 294.665c13.867.315 24.755 12.017 24.112 25.912l-6.928 149.38c-.535 11.506-10.128 20.482-21.61 20.219-11.483-.261-20.659-9.664-20.672-21.181l-.161-149.544c-.016-13.909 11.392-25.102 25.259-24.786Z"/>
  <path fill="#012841" d="M299.422 182.063s35.263-22.427 1.96-49.73c7.836-19.502-10.775-27.953-10.775-27.953 5.223-3.9 13.059-20.1511-6.856-34.1272 0-22.1033-18.945-22.8606-18.945-22.8606s-27.134-15.1946-39.683 3.7129c-24.42 4.7281-19.734 30.522-19.734 30.522s-14.039 9.7524-7.509 22.7529c-7.837 7.801-9.143 16.252-3.265 22.102-22.529 21.453-5.878 40.955-5.878 40.955s-12.596 32.856 30.013 32.856c6.856 25.352 49.956 20.477 50.934-.975 25.467 12.676 29.738-17.255 29.738-17.255Z"/>
  <path fill="#FFC999" d="M273.098 80.2175c-14.084 2.4609-18.365-8.1481-18.365-8.1481s-5.812-14.9416-7.3-5.7688c-.79 4.8754-8.364-1.5947-11.843 3.6025-2.342 3.4984 3.513 8.0056-4.098 17.3304-4.409 5.4038 12.985 9.714 2.253 19.6715 0 0 6.627 13.012-6.48 16.976l-.921 14.47c-.527 8.274 6.08 15.271 14.408 15.257 8.119-.012 14.628-6.695 14.386-14.774l-.534-18.001c20.351 0 21.344-27.8435 18.494-40.6155Z"/>
  <path fill="#FC192F" d="M247.176 95.0825c.327-.3301.859-.332 1.188-.0043.078.078.25.2318.511.4363.444.3493.965.7003 1.558 1.0285 2.01 1.1124 4.304 1.6886 6.829 1.4455.462-.0444.872.2949.917.7579.044.463-.294.8744-.756.9188-2.89.278-5.514-.3809-7.802-1.6476-1.161-.6427-1.986-1.2915-2.44-1.744-.33-.3277-.332-.861-.005-1.1911Z"/>
  <path fill="#DD936F" d="M258.239 81.0689c.312.0224.555.2693.583.5722v.1134c-.017.4831.078 1.2881.395 2.3796.509 1.7542 1.46 3.7223 2.964 5.8686.208.2967.124.7075-.183.8992l-.857.5311c-1.254.7684-2.355 1.4107-3.307 1.9368l-.312.1711c-.259.1408-.494.2665-.708.3776l-.59.2996c-.083.0404-.144.0694-.183.0875-.316.1453-.69.0059-.835-.3112-.145-.3172-.006-.6921.31-.8373l.337-.1649.382-.1955c.137-.0716.285-.1495.442-.2341l.244-.1319c1.003-.5459 2.189-1.2335 3.564-2.0765l.288-.1784-.226-.3416c-1.146-1.7713-1.935-3.4336-2.424-4.9664l-.116-.3805c-.325-1.1213-.446-2.0042-.446-2.6177l.005-.2155c.025-.348.326-.6099.673-.5852ZM241.077 117.494c.165-.307.547-.421.853-.256 3.949 2.14 8.045 3.216 12.161 3.272.347.005.625.292.621.641-.005.348-.291.627-.639.623-4.319-.06-8.615-1.188-12.742-3.424-.306-.166-.42-.549-.254-.856Z"/>
  <path fill="#012841" d="M248.786 80.8874c.479 0 .867.3889.867.8686 0 3.3283-2.515 6.0514-5.653 6.0514-3.137 0-5.652-2.7234-5.652-6.0514 0-.4797.388-.8686.866-.8686.479 0 .867.3889.867.8686 0 2.3971 1.77 4.3142 3.919 4.3142 2.15 0 3.92-1.9169 3.92-4.3142 0-.4797.388-.8686.866-.8686ZM270.716 81.4827c.454 0 .822.3688.822.8237 0 3.2874-2.26 6.0066-5.128 6.0066-2.869 0-5.129-2.7188-5.129-6.0066 0-.4549.367-.8237.821-.8237.454 0 .822.3688.822.8237 0 2.4375 1.597 4.3591 3.486 4.3591 1.887 0 3.485-1.9219 3.485-4.3591 0-.4549.367-.8237.821-.8237ZM239.349 72.1076c3.317-1.3932 6.828-1.2534 10.148-.192.954.3051 1.667.6133 2.075.8278.424.2226.587.7475.365 1.1725-.222.4249-.745.5889-1.169.3663l-.219-.1057c-.067-.0311-.147-.0669-.239-.1066-.392-.1695-.841-.3398-1.339-.4992-2.963-.9471-6.072-1.0708-8.952.1392-.525.2206-1.037.4847-1.535.7941-.406.2528-.94.1273-1.192-.2804-.253-.4077-.127-.9431.279-1.196.576-.358 1.169-.6641 1.778-.92Z"/>
  <path fill="#FFC999" d="M276.074 288.759c13.741-1.896 26.343 7.925 27.906 21.748l16.798 148.589c1.293 11.445-6.758 21.833-18.137 23.402-11.38 1.569-21.927-6.254-23.762-17.623l-23.822-147.623c-2.217-13.731 7.276-26.599 21.017-28.493Z"/>
  <path fill="#025D97" d="M286.438 258.943c14.159 1.111 47.766 90.839 60.463 122.924-1.689 6.462-12.017 17.862-12.017 17.862s1.105 5.144 1.785 8.234c-12.082 9.965-35.451 15.377-35.451 15.377l-.051 4.421c-37.362 17.252-87.396.719-87.396.719s-.932-.959-.263-4.426c-16.965-.197-53.288-21.778-53.288-21.778l5.162-10.678-14.938-15.334s40.343-74.424 52.762-95.242c10.902-18.276 21.127-23.538 21.127-23.538s36.981-.515 62.105 1.459Z"/>
  <path fill="#012841" d="M221.953 275.059c.152-.313.529-.442.841-.289.281.138.414.457.326.748l-.037.096-61.433 125.847.356.264.7.505.841.591c1.019.705 2.167 1.467 3.441 2.274 4.685 2.969 10.091 5.938 16.147 8.71 9.414 4.31 19.515 7.734 30.182 9.943.34.071.559.404.489.746-.07.341-.403.56-.743.49-10.764-2.23-20.954-5.684-30.451-10.031-6.109-2.797-11.565-5.794-16.296-8.791-1.473-.934-2.782-1.809-3.919-2.607l-.419-.296c-.345-.246-.654-.47-.925-.671l-.473-.355c-.047-.036-.084-.064-.11-.085-.205-.161-.288-.428-.217-.672l.039-.102 61.661-126.315ZM296.592 300.635c.292-.111.615.011.767.274l.044.093 40.479 107.376c.104.277.003.589-.244.751l-.289.186c-.236.15-.513.323-.831.518-.908.555-1.962 1.173-3.152 1.839-3.396 1.899-7.199 3.798-11.321 5.571-6.723 2.892-13.627 5.158-20.543 6.56-.34.069-.672-.152-.741-.494-.069-.341.151-.674.492-.743 6.825-1.383 13.647-3.623 20.296-6.482 4.08-1.755 7.845-3.635 11.205-5.514.839-.47 1.609-.915 2.307-1.33l1.028-.623.435-.272-40.298-106.897c-.111-.294.011-.618.273-.77l.093-.043Z"/>
  <path fill="#012841" d="M270.292 261.342c.341-.068.672.153.741.495l2.644 13.395c.841 4.279 1.735 8.854 2.674 13.68l2.049 10.563c3.281 16.974 6.537 34.096 9.634 50.738l1.727 9.321 2.041 11.133c4.077 22.386 7.461 41.859 9.979 57.626.048.303-.128.598-.419.697-1.833.625-3.688 1.203-5.565 1.736-22.626 6.425-46.763 6.061-69.557 1.593-3.316-.65-6.335-1.343-9.016-2.039l-.723-.19c-.572-.152-1.104-.298-1.595-.437l-1.036-.299c-.452-.134-.761-.231-.922-.283-.27-.087-.444-.343-.436-.619l.012-.104 28.172-141.583c.068-.342.399-.564.74-.496.307.062.516.337.506.641l-.012.102-28.061 141.024.358.108c.634.187 1.362.394 2.18.615l.417.111c2.831.754 6.068 1.507 9.657 2.211 22.617 4.433 46.565 4.794 68.973-1.569 1.392-.395 2.772-.816 4.14-1.262l.859-.288-.708-4.386c-2.305-14.139-5.233-30.941-8.676-49.905l-1.246-6.837-1.74-9.46-.445-2.404c-3.624-19.555-7.488-39.86-11.369-59.88l-3.596-18.44-2.874-14.566c-.068-.342.153-.674.493-.742Z"/>
  <path fill="#012841" d="M255.294 263.761c.312.019.558.262.59.564l.002.103-6.621 117.752c-.02.348-.317.614-.664.595-.312-.019-.558-.262-.59-.564l-.002-.102 6.621-117.752c.02-.348.317-.614.664-.596ZM237.681 261.165c.103-.332.455-.518.787-.415.299.093.479.389.437.689l-.023.101-24.858 80.255c-.103.333-.456.519-.788.416-.298-.093-.478-.389-.436-.69l.022-.1 24.859-80.256Z"/>
  <path fill="#025D97" d="m221.628 258.941 1.067-8.116s31.957.192 63.298-1.382c.794 3.602 1.703 10.085 1.703 10.085-2.635-2.169-31.105 4.17-66.068-.587Z"/>
  <path fill="#012841" d="M284.332 258.898c.347-.016.642.252.658.601.016.348-.252.643-.599.659-14.67.688-28.894.983-41.45.958l-3.541-.016c-3.518-.025-6.674-.077-9.245-.148l-2.061-.065c-.89-.032-1.622-.066-2.159-.099l-.549-.039c-.1-.009-.184-.017-.254-.026-.113-.013-.193-.027-.266-.049l-.049-.006c-.059-.014-.11-.069-.367-.345l.075-.416c.084-.437.12-.44.304-.458.131-.046.267-.045.39-.007l.073.029.413.037.738.045c.701.037 1.637.074 2.755.109l1.513.043c2.814.072 6.28.123 10.122.142l.724.003c12.872.051 27.584-.24 42.775-.952Z"/>
  <path fill="#FFC999" d="M337.334 244.114c7.532-4.704 9.836-14.641 5.146-22.193l-44.692-70.731c-4.691-7.552-14.599-9.863-22.132-5.16l-.95-.798c-7.531 4.705-8.887 15.438-4.196 22.992l44.693 70.729c4.689 7.554 14.598 9.865 22.131 5.161Z"/>
  <path fill="#1890FF" d="m289.768 199.255-19.377-31.204c-4.672-7.522-2.355-17.508 5.146-22.193 7.501-4.684 17.461-2.362 22.132 5.16l20.195 30.655-28.096 17.582Z"/>
  <path fill="#025D97" d="M268.829 165.182c.2-.132.463-.098.623.071l.055.069 21.821 33.176 26.266-17.459c.2-.133.462-.099.623.069l.055.069c.133.2.099.463-.068.625l-.069.055-26.675 17.732c-.2.133-.463.099-.623-.069l-.056-.07-22.091-33.588c-.149-.226-.087-.53.139-.68Z"/>
  <path fill="#FFC999" d="M349.826 137.04c5.042.967 8.521 5.286 7.897 9.804l-12.041 87.209c-1.403 7.969-9.866 13.081-18.815 11.365-9.029-1.731-15.025-9.728-13.27-17.702l25.384-84.859c1.265-4.23 5.967-6.752 10.845-5.817Z"/>
  <path fill="#FFC999" d="M363.375 117.719s.079 23.745-7.748 31.947c-6.409 6.714-13.038-2.028-13.038-2.028s-5.036-4.548-8.948-13c-2.577-5.568-6.31-16.775-3.315-18.846 3.907-2.703 7.342 10.309 10.562 9.209 3.306-1.127 3.579-3.378 4.623-10.273.654-4.31.998-8.778 1.125-12.623.216-6.4634 14.403-6.3225 16.739 15.614Z"/>
  <path fill="#DD936F" d="M349.6 98.8496c.303-.1014.631.0629.732.367.079.2366-.003.488-.186.6357l-.022.0134-.006.0225c-.011.0411-.021.0939-.029.1568l-.011.102c-.028.303-.019.725.021 1.23.026.317.063.655.108 1.004l.081.573c.025.169.049.314.07.431.536 4.303.367 8.191-.242 11.51-.123.67-.254 1.261-.387 1.768l-.136.49c-.018.06-.033.109-.046.148-.101.304-.428.469-.732.368-.303-.101-.467-.43-.367-.734l.039-.124c.024-.079.053-.182.087-.308l.035-.134c.126-.48.251-1.043.369-1.684.588-3.207.752-6.977.235-11.127l-.048-.295c-.036-.228-.072-.475-.106-.732-.047-.366-.086-.723-.113-1.061l-.033-.473c-.072-1.2694.054-1.9356.687-2.1474ZM355.001 99.2725c.319.0265.556.3069.529.6263-.026.3192-.306.5572-.624.5302-.778-.064-1.111.47-1.13 1.656-.007.461.041.963.127 1.465l.069.365c.021.101.038.177.05.224l.046.159c.027.1.06.23.098.388.105.432.209.936.306 1.504.628 3.692.659 8.019-.301 12.712-.064.314-.37.517-.683.452-.313-.064-.515-.371-.451-.685.929-4.542.899-8.726.293-12.283-.073-.434-.151-.826-.23-1.175l-.122-.505c-.028-.108-.051-.191-.07-.252l-.052-.221c-.029-.133-.062-.297-.094-.486-.097-.568-.152-1.139-.143-1.681.027-1.698.697-2.8385 2.198-2.8034l.184.0099ZM358.772 110.431c.818 4.53.651 8.18-.137 10.973-.256.907-.517 1.517-.742 1.897l-.326.443-.328.458c-.171.242-.352.501-.54.776-.9 1.312-1.8 2.722-2.639 4.174-.953 1.651-1.766 3.25-2.396 4.758-1.615 3.871-1.882 6.798-.539 8.394.206.245.175.611-.069.817-.245.207-.61.176-.816-.069-1.715-2.038-1.413-5.35.357-9.59.65-1.558 1.485-3.201 2.462-4.892.855-1.48 1.77-2.915 2.686-4.25l.373-.538.639-.893c.094-.128.157-.213.174-.229l.084-.166c.025-.054.054-.119.087-.195.141-.331.284-.734.419-1.211.77-2.728.911-6.375.002-11.059l-.01-.232c-.026-.784-.006-1.665.098-2.507.149-1.213.443-2.128.977-2.664.226-.227.593-.227.819-.001.201.201.224.514.068.74l-.067.081c-.299.3-.528 1.012-.648 1.986-.076.618-.104 1.269-.099 1.879l.011.585.1.535ZM341.249 126.053c.219-.245.594-.266.838-.046l.261.242.32.31c.112.111.229.228.35.351.691.705 1.383 1.477 2.03 2.293 1.178 1.485 2.074 2.946 2.577 4.338.582 1.611.615 3.075-.029 4.325-.151.292-.509.406-.8.256-.291-.151-.405-.51-.254-.802.472-.916.447-2.048-.032-3.373-.452-1.252-1.286-2.611-2.391-4.004-.618-.78-1.283-1.522-1.947-2.199l-.335-.335-.305-.296c-.115-.109-.196-.184-.237-.221-.244-.219-.264-.595-.046-.839Z"/>
  <path fill="#1890FF" d="M285.732 167.491c3.434 7.505 9.797 20.424 10.587 28.958 1.284 13.835-7.699 24.132-7.699 24.132s-.091-4.07-.963 31.777c-37.827 3.623-67.386-.458-67.386-.458l.802-9.502-6.683-22.462s-4.06-8.365-12.403-27.027c-5.799-12.974-5.396-29.057-4.611-37.657.337-3.684-.963-8.108 2.703-8.516 10.641-1.186 20.853-2.874 20.853-2.874l1.169-8.209c.201-1.406 1.402-2.451 2.818-2.451h30.247c1.3 0 2.434.884 2.756 2.145l2.218 8.669 21.535-.21c2.939.576 2.34 6.906 2.647 9.893l1.41 13.792Z"/>
  <path fill="#025D97" d="M256.641 143.781c.28 0 .507.228.507.509 0 .25-.179.458-.416.501l-.091.008h-27.237c-.28 0-.507-.228-.507-.509 0-.25.179-.458.416-.501l.091-.008h27.237ZM197.391 154.744c.28.008.501.242.493.523l-.038 1.654c-.004.242-.009.495-.013.757-.069 4.034-.076 8.296.018 12.285l.047 1.707c.131 4.069.374 7.35.746 9.588.428 2.572 2.034 6.889 4.526 12.445l.236.525c.459 1.014.942 2.059 1.447 3.13 1.112 2.361 2.289 4.762 3.478 7.121l1.151 2.263 1.706 3.28.056.115 10.792 32.266.024.212-.915 9.32 1.207.132 1.917.191c1.664.158 3.519.314 5.549.461 17.383 1.263 36.745 1.265 56.247-.816l1.18-.129.12-4.279.393-11.508.519-14.297.063-.228.319-.596c.256-.487.541-1.046.848-1.669.878-1.779 1.756-3.709 2.575-5.72 1.164-2.859 2.111-5.641 2.763-8.254.631-2.528.967-4.827.967-6.844 0-5.046-.668-8.918-2.165-12.913-.8-2.134-1.842-4.341-3.383-7.237l-.735-1.355-4.242-7.689-.063-.227-.321-8.525c-.01-.281.208-.518.489-.528.249-.01.463.162.515.398l.011.091.317 8.404 4.159 7.54.766 1.412.562 1.068c1.259 2.423 2.16 4.381 2.876 6.29 1.541 4.112 2.229 8.106 2.229 13.271 0 2.109-.347 4.488-.997 7.091-.664 2.665-1.626 5.492-2.808 8.392-.829 2.035-1.717 3.987-2.605 5.787l-.362.725c-.117.231-.23.452-.338.661l-.43.812-.87 24.537c-.105 3.203-.163 5.241-.163 5.847 0 .259-.194.477-.451.506-20.119 2.265-40.135 2.299-58.058.998l-2.218-.17c-1.428-.115-2.754-.233-3.971-.352l-1.746-.179-1.281-.146c-.243-.03-.425-.228-.443-.465l.001-.09.951-9.711-10.723-32.083-.549-1.041c-.436-.833-.922-1.771-1.445-2.794-1.495-2.925-2.991-5.949-4.386-8.911l-.744-1.593c-.121-.263-.241-.523-.359-.782l-.35-.77c-2.663-5.89-4.379-10.453-4.84-13.223-.432-2.603-.691-6.531-.806-11.438-.081-3.433-.088-7.064-.044-10.579l.046-2.862.031-1.307c.008-.281.241-.503.522-.495Z"/>
  <path fill="#FFC999" d="m181.31 259.73-1.241-.248c-8.683-1.742-14.313-10.21-12.575-18.915l16.029-80.367c1.735-8.705 10.182-14.35 18.863-12.61l1.242.25c8.681 1.742 14.311 10.21 12.574 18.915l-16.029 80.367c-1.736 8.705-10.182 14.349-18.863 12.608Z"/>
  <path fill="#1890FF" d="m208.172 206.693 8.991-42.375c1.662-8.337-2.702-15.779-11.688-17.582h-3.149c-8.986-1.803-17.02 4.523-18.682 12.858l-8.29 36.28 32.818 10.819Z"/>
  <path fill="#025D97" d="m216.81 165.755.087.01c.235.051.394.262.387.494l-.011.088-8.624 40.449c-.053.251-.288.412-.533.384l-.091-.019-32.819-10.369c-.257-.081-.4-.357-.319-.615.072-.229.297-.368.527-.339l.086.019 32.306 10.206 8.511-39.921c.044-.206.211-.353.407-.382l.086-.005Z"/>
  <path fill="#1890FF" d="m250.209 303.031 4.12-.233c2.969-.168 5.513 2.111 5.679 5.089l3.91 69.68c.168 2.978-2.104 5.529-5.074 5.695l-4.119.234c-2.97.166-5.514-2.11-5.68-5.088l-3.91-69.682c-.168-2.978 2.104-5.529 5.074-5.695Z"/>
  <path fill="#012841" d="m158.357 308.214 92.199-5.204c2.97-.166 5.512 2.112 5.679 5.09l3.91 69.68c.168 2.978-2.104 5.527-5.074 5.696l-92.198 5.203c-2.97.167-5.514-2.11-5.68-5.088l-3.91-69.682c-.168-2.978 2.104-5.529 5.074-5.695Z"/>
  <path fill="#FFC999" d="M196.074 353.555c-5.084.71-9.826-2.715-10.765-7.776l-18.114-97.698c-1.37-9.034 4.887-17.448 13.912-18.708 9.104-1.271 17.464 5.23 18.504 14.388l4.731 99.8c.236 4.975-3.348 9.308-8.268 9.994Z"/>
  <path fill="#FFC999" d="M185.644 350.145s-4.715-17.201 3.719-23.455c7.637-5.665 14.19 1.292 14.19 1.292s7.608 5.881 12.922 15.17c3.5 6.121 8.98 18.436 6.022 20.714-3.856 2.97-9.249-11.329-12.575-10.121-3.414 1.24-2.518 4.279-2.746 11.857-.142 4.736 1.574 9.461.689 13.454-1.73 7.804-17.295-2.519-22.221-28.911Z"/>
  <path fill="#DD936F" d="M200.711 358.136c.098-.335.448-.527.782-.429.334.098.525.449.427.784l-.091.365c-.072.315-.145.687-.213 1.113-.83 5.182-.229 11.517 2.886 18.347.145.317.006.692-.31.837-.317.145-.691.006-.835-.312-3.227-7.075-3.852-13.659-2.985-19.073.055-.34.112-.649.171-.927l.058-.268c.048-.21.087-.356.11-.437ZM195.002 356.547c.347.029.605.334.576.681-.349 4.252.261 8.537 1.493 12.587.348 1.142.72 2.178 1.092 3.087l.187.446.279.622c.008.017.015.031.021.042.154.313.026.692-.286.847-.311.154-.689.026-.844-.286l-.147-.317-.18-.407c-.063-.146-.128-.302-.196-.468-.386-.944-.771-2.016-1.131-3.197-1.275-4.192-1.907-8.632-1.543-13.059.029-.348.333-.607.679-.578ZM190.009 352.401c.342.064.566.395.502.738l-.03.201c-.008.062-.017.135-.026.218l-.013.135c-.307 3.217.169 7.943 2.07 14.078.103.333-.083.687-.415.79-.332.104-.685-.082-.788-.415-1.89-6.1-2.412-10.883-2.149-14.252l.028-.322c.031-.323.062-.546.085-.667.058-.309.331-.523.634-.515l.102.011Z"/>
</svg>
