<svg xmlns="http://www.w3.org/2000/svg" width="600" height="460">
  <path stroke="#D9D9D9" stroke-linecap="square" stroke-width="4" d="M2 421h600"/>
  <path fill="#F5F5F5" opacity=".5" d="M261 380c104.934 0 190-85.066 190-190C451 85.0659 365.934 0 261 0S71 85.0659 71 190c0 104.934 85.066 190 190 190Z"/>
  <g clip-path="url(#a)">
    <path fill="#012841" d="m498.123 94.9106-61.025-18.5495c-2.017-.6131-4.149.5427-4.76 2.5817L396.39 198.777c-.612 2.039.527 4.189 2.544 4.802l61.026 18.549c2.017.613 4.148-.542 4.76-2.581l35.948-119.8343c.612-2.039-.528-4.189-2.545-4.8021Z"/>
    <path fill="#FFFFFF" d="m435.571 85.8007 58.481 17.7763c.829.252 1.297 1.135 1.046 1.973L463.29 211.582c-.251.837-1.127 1.312-1.956 1.06l-58.481-17.776c-.828-.252-1.296-1.135-1.045-1.973l31.808-106.0317c.251-.8376 1.127-1.3125 1.955-1.0606Z"/>
    <path fill="#8C8C8C" d="m435.17 85.5106 59.386 18.0514c.576.175.902.787.728 1.367l-1.161 3.873-61.483-18.6887 1.162-3.8727c.084-.28.276-.5146.533-.6517.256-.137.557-.1652.835-.0783Z"/>
    <path fill="#FFFFFF" d="M458.674 89.1303c.505.1533 1.037-.1357 1.19-.6454.153-.5098-.132-1.0473-.636-1.2006-.504-.1532-1.037.1357-1.19.6455-.153.5097.132 1.0472.636 1.2005Z"/>
    <path fill="#F5F5F5" d="m494.261 108.34-61.482-18.6882-15.321 51.0712 61.482 18.689 15.321-51.072Z"/>
    <path fill="#FFFFFF" d="m471.714 91.2475-8.781-2.6691c-.391-.1188-.803.1052-.922.5002l-.078.2616c-.119.395.102.8116.493.9304l8.781 2.6691c.39.1188.803-.1052.922-.5003l.078-.2615c.119-.395-.102-.8116-.493-.9304ZM463.021 139.13c8.027 2.44 16.517-2.194 18.964-10.35 2.447-8.156-2.077-16.745-10.103-19.185-8.027-2.44-16.517 2.194-18.964 10.35-2.447 8.156 2.077 16.745 10.103 19.185Z"/>
    <path fill="#BFBFBF" d="m417.412 140.877 18.576-16.707c.547-.492 1.291-.694 2.006-.545.715.149 1.317.631 1.624 1.301l5.296 11.562c.373.815 1.098 1.41 1.964 1.611.866.201 1.777-.013 2.468-.581l15.84-13.01c.694-.569 1.607-.783 2.475-.579.868.204 1.593.803 1.963 1.622l11.697 25.924-2.427 8.091-61.482-18.689ZM446.756 99.5235c.21.0638.328.2878.265.5005-.062.204-.269.323-.472.275l-.024-.006-11.414-3.4697c-.21-.0639-.329-.2879-.265-.5003.061-.2042.269-.3234.472-.2755l.024.0066 11.414 3.4694ZM441.77 101.197c.21.064.329.288.265.5-.061.205-.269.324-.472.276l-.024-.007-7.305-2.22c-.21-.0638-.329-.2878-.265-.5002.061-.2042.269-.3234.472-.2755l.024.0066 7.305 2.2201ZM471.546 166.9c.21.064.329.288.265.5-.061.204-.269.324-.472.276l-.024-.007-51.134-15.543c-.21-.064-.328-.287-.265-.5.062-.204.269-.323.472-.275l.024.006 51.134 15.543ZM469.792 172.745c.21.064.329.288.265.501-.061.204-.268.323-.471.275l-.024-.006-51.134-15.543c-.21-.064-.329-.288-.265-.5.061-.205.269-.324.471-.276l.025.007 51.133 15.542ZM467.066 177.96c.21.063.329.287.265.5-.061.204-.269.323-.472.275l-.024-.006-50.068-15.219c-.21-.064-.329-.288-.265-.5.061-.205.269-.324.471-.276l.025.007 50.068 15.219Z"/>
    <path fill="#F0F0F0" d="m426.099 175.579-11.566-3.516c-.672-.204-1.383.181-1.587.861l-3.507 11.691c-.204.679.176 1.396.848 1.6l11.566 3.516c.673.204 1.383-.181 1.587-.861l3.507-11.691c.204-.679-.176-1.396-.848-1.6Z"/>
    <path fill="#BFBFBF" d="m444.969 181.315-11.565-3.516c-.673-.204-1.383.181-1.587.861l-3.507 11.691c-.204.679.176 1.396.848 1.6l11.566 3.516c.672.204 1.383-.181 1.587-.861l3.507-11.691c.204-.679-.176-1.396-.849-1.6Z"/>
    <path fill="#8C8C8C" d="m463.841 187.051-11.566-3.516c-.673-.204-1.383.181-1.587.861l-3.507 11.691c-.204.679.176 1.396.848 1.6l11.566 3.516c.672.204 1.383-.181 1.587-.861l3.507-11.691c.204-.679-.176-1.396-.848-1.6Z"/>
    <path fill="#BFBFBF" d="M420.709 153.965c.883.269 1.815-.237 2.083-1.129.267-.892-.231-1.833-1.114-2.101-.882-.268-1.814.237-2.082 1.129-.268.892.231 1.833 1.113 2.101ZM441.115 166.211c.882.268 1.815-.238 2.082-1.13.268-.892-.231-1.833-1.113-2.101-.883-.268-1.815.238-2.083 1.13-.267.892.231 1.832 1.114 2.101ZM461.718 178.348c.883.269 1.815-.237 2.083-1.129.267-.892-.231-1.833-1.114-2.101-.882-.268-1.815.237-2.082 1.129-.268.893.231 1.833 1.113 2.101Z"/>
  </g>
  <path fill="#FF7946" d="M529.493 54.0758c-23.656 0-42.833 19.304-42.833 43.1166s19.177 43.1166 42.833 43.1166 42.833-19.304 42.833-43.1166-19.177-43.1166-42.833-43.1166Z"/>
  <path fill="#FFFFFF" d="m543.555 110.259-1.082 1.089c-.896.902-2.348.902-3.245 0l-23.797-23.9553c-.896-.902-.896-2.3645 0-3.2665l1.082-1.0889c.896-.902 2.349-.902 3.245 0l23.797 23.9547c.896.902.896 2.365 0 3.267Z"/>
  <path fill="#FFFFFF" d="m515.431 110.259 1.082 1.089c.896.902 2.349.902 3.245 0l23.797-23.9553c.896-.902.896-2.3645 0-3.2665l-1.081-1.0889c-.897-.902-2.349-.902-3.246 0l-23.797 23.9547c-.896.902-.896 2.365 0 3.267Z"/>
  <path fill="#5B8C00" d="M464.198 270.701c19.891-9.51 31.746 15.432 21.743 29.319-12.208 16.947-18.461 36.447-21.943 42.322-2.938 4.956-10.985 17.039-20.675 11.47-8.917-5.125-4.057-25.241-4.057-25.241s.394-46.138 24.932-57.87ZM404.369 349.939c-6.762-9.222-9.231-22.456-1.683-25.85 7.236-3.254 19.224 4.758 24.776 20.176s8.756 26.503 3.325 28.43c-8.911 3.162-17.486-10.575-26.418-22.756Z"/>
  <path fill="#53C518" d="M475.462 350.639c-7.649 9.061-18.686 27.286-25.601 20.903-4.19-3.868 1.412-22.189 16.747-32.157 13.045-8.478 16.502 2.194 8.854 11.254ZM402.272 287.766c2.909-1.978 6.568-2.429 9.907-1.348 4.659 1.508 11.73 6 18.728 18.892 9.136 16.832 13.892 35.285 12.952 46.974-.614 7.644-9.931 10.939-15.143 5.366-2.393-2.56-4.926-6.506-7.404-12.492-9.972-24.088-19.295-39.183-20.407-40.698-2.967-4.045-5.088-12.303 1.367-16.694Z"/>
  <path fill="#FFFFFF" d="M408.961 297.374c.099 1.19-.775 2.235-1.952 2.334-1.176.1-2.21-.783-2.309-1.972-.099-1.19.775-2.234 1.952-2.334 1.176-.1 2.21.783 2.309 1.972ZM427.12 306.601c.099 1.189-.775 2.234-1.952 2.334-1.176.1-2.21-.783-2.309-1.973-.099-1.189.775-2.234 1.952-2.334 1.176-.1 2.21.784 2.309 1.973ZM424.076 331.167c.114 1.362-.887 2.559-2.235 2.673-1.347.115-2.531-.897-2.644-2.259-.113-1.362.888-2.559 2.235-2.673 1.347-.114 2.531.897 2.644 2.259ZM479.852 294.454c0 1.933-1.55 3.5-3.462 3.5-1.913 0-3.463-1.567-3.463-3.5s1.55-3.5 3.463-3.5c1.912 0 3.462 1.567 3.462 3.5ZM451.979 305.142c0 1.933-1.551 3.5-3.463 3.5-1.912 0-3.462-1.567-3.462-3.5s1.55-3.5 3.462-3.5c1.912 0 3.463 1.567 3.463 3.5ZM461.006 328.899c0 .808-.648 1.463-1.447 1.463s-1.447-.655-1.447-1.463.648-1.463 1.447-1.463 1.447.655 1.447 1.463ZM471.432 347.607c0 1.194-.957 2.161-2.138 2.161s-2.138-.967-2.138-2.161c0-1.193.957-2.161 2.138-2.161s2.138.968 2.138 2.161Z"/>
  <path fill="#012841" d="M421.496 352.401c.2-.193.515-.185.705.016l.091.1.069.077c.126.142.271.311.434.508.464.558.979 1.226 1.533 2.001 1.579 2.21 3.157 4.847 4.628 7.906 4.199 8.73 6.717 19.1 6.717 31.07 0 .279-.223.504-.498.504-.276 0-.499-.225-.499-.504 0-11.812-2.482-22.032-6.617-30.629-1.445-3.006-2.993-5.593-4.539-7.757-.508-.711-.981-1.327-1.409-1.847l-.08-.097c-.121-.146-.231-.276-.33-.389l-.125-.142c-.046-.051-.079-.086-.096-.105-.19-.201-.183-.52.016-.712ZM459.159 355.928c.165-.223.477-.269.698-.103.22.167.266.482.101.705-1.816 2.459-3.491 5.101-5.032 7.903-3.258 5.922-5.776 12.272-7.645 18.622-.655 2.222-1.181 4.286-1.591 6.136l-.083.38c-.097.452-.182.865-.254 1.235l-.046.242-.083.457c-.046.275-.303.46-.574.414-.272-.046-.455-.306-.409-.581l.028-.162c.024-.131.052-.285.086-.462l.083-.419c.08-.4.173-.842.279-1.324l.091-.404c.401-1.767.903-3.714 1.517-5.799 1.889-6.416 4.433-12.832 7.729-18.825 1.562-2.839 3.262-5.52 5.105-8.015Z"/>
  <path fill="#012841" d="M467.87 293.059c.191.185.205.486.037.688l-.022.024c-.009.011-.03.033-.062.068l-.123.135-.071.08c-.215.242-.464.533-.746.874-.807.976-1.708 2.15-2.678 3.524-2.779 3.932-5.558 8.667-8.154 14.211-4.322 9.23-7.687 19.757-9.727 31.591-2.477 14.371-2.888 30.07-.86 47.108.033.276-.162.527-.435.56-.274.033-.522-.164-.555-.44-2.039-17.136-1.626-32.933.867-47.401 2.056-11.926 5.45-22.539 9.809-31.85 2.621-5.599 5.431-10.385 8.243-14.365l.218-.306c.867-1.214 1.678-2.269 2.415-3.167l.092-.112c.265-.32.503-.599.712-.836l.057-.064c.065-.073.123-.138.175-.194l.104-.113c.19-.201.506-.208.704-.015ZM424.72 322.941c.235-.144.542-.068.685.17l.05.085c.04.068.087.149.14.244l.078.138c.134.238.284.511.45.819l.137.256c.507.954 1.063 2.058 1.656 3.309l.081.171c1.935 4.098 3.869 8.891 5.674 14.336 5.053 15.248 8.128 32.555 8.243 51.607.001.279-.22.506-.496.507-.275.002-.5-.222-.501-.501-.115-18.941-3.17-36.142-8.191-51.292-1.759-5.308-3.641-9.988-5.524-14l-.105-.223c-.643-1.363-1.243-2.552-1.783-3.564l-.163-.302c-.156-.288-.296-.541-.42-.759l-.059-.103-.12-.206c-.143-.238-.067-.548.168-.692Z"/>
  <path fill="#012841" d="M463.087 419.075h-43.091c-2.329 0-4.235-1.927-4.235-4.281v-31.777c0-2.355 1.906-4.281 4.235-4.281h43.091c2.329 0 4.235 1.926 4.235 4.281v31.777c0 2.354-1.906 4.281-4.235 4.281Z"/>
  <path fill="#FFC999" d="M281.941 70.8574c2.883-3.6734 8.123-4.4121 11.896-1.6789l72.839 52.7585c6.536 5.07 7.696 14.544 2.581 21.061-5.162 6.577-14.687 7.579-21.086 2.218l-65.397-62.5813c-3.259-3.1182-3.62-8.2261-.833-11.7773Z"/>
  <path fill="#FFC999" d="M281.558 57.0049s13.606 8.6789 11.757 18.0617c-1.674 8.4971-10.289 7.8361-10.289 7.8361s-8.669.7122-17.869-2.2788c-6.062-1.9681-17.214-6.8909-16.617-10.2388.778-4.3642 13.076 1.9466 14.571-.9072 1.53-2.9282-.914-4.4221-5.365-9.6605-2.781-3.2752-6.8-5.4003-8.633-8.6292-3.582-6.3109 13.113-8.9152 32.445 5.8167Z"/>
  <path fill="#DD936F" d="M251.443 48.8387c.141-.3311.521-.4848.85-.3433 2.845 1.2244 5.357 2.7415 7.554 4.4859 2.149 1.706 3.886 3.5358 5.246 5.3684.479.6442.876 1.244 1.197 1.7845l.244.4252c.065.1182.114.2121.147.28.156.3237.022.7139-.299.8716-.321.1577-.709.0231-.865-.3006l-.121-.2305c-.056-.1017-.128-.2276-.216-.3759-.299-.503-.672-1.0658-1.123-1.6736-1.296-1.7447-2.955-3.4923-5.011-5.1251-2.11-1.6745-4.524-3.1325-7.262-4.311-.329-.1415-.481-.5246-.341-.8556ZM257.953 48.1545c.13-.3352.506-.5005.839-.3691l.305.1277c.086.0376.185.0814.295.1315l.174.0798c.602.279 1.272.6175 1.992 1.0171 2.056 1.1405 4.111 2.5439 6.031 4.2243 1.475 1.2904 2.811 2.6964 3.976 4.2217.218.2853.165.6946-.118.9142-.283.2195-.69.1662-.908-.1192-1.11-1.4534-2.387-2.7969-3.799-4.0325-1.846-1.6156-3.826-2.968-5.806-4.0664-.554-.3072-1.076-.5763-1.556-.808l-.353-.1667c-.341-.1582-.582-.2609-.706-.3096-.332-.1313-.496-.5095-.366-.8448ZM265.982 48.5346c.181-.3103.578-.4139.886-.2314 3.503 2.075 6.241 4.1991 8.303 6.2596.727.7265 1.319 1.395 1.785 1.9912l.22.2881c.163.2191.275.3848.341.4922.188.3065.093.7081-.211.897-.305.1888-.704.0933-.891-.2132l-.079-.1205c-.084-.1235-.215-.304-.396-.5365-.435-.5548-.991-1.1837-1.681-1.8727-1.985-1.9839-4.638-4.0414-8.047-6.0613-.308-.1826-.411-.5821-.23-.8925Z"/>
  <path fill="#012841" d="M241.853 193.429c22.503 12.489 35.822-3.7 35.822-3.7s19.287-.618 22.96-14.803c13.471-1.849 17.499-18.733 8.773-33.071 7.697-13.121-6.514-25.05-6.514-25.05 6.514-16.104-4.144-31.016-13.026-38.7695-10.067-41.1535-33.161-35.7846-33.161-35.7846-9.327-12.5259-28.868.894-40.712 17.594 0 0-16.727 3.728-11.989 19.9803-8.883 5.9638-2.962 14.3155-2.962 14.3155s-20.429 20.4263-8.882 36.9773c-14.211 14.017-2.961 20.876-2.961 20.876s-3.702 13.866 17.172 19.681c-3.109 12.078 20.035 27.402 35.48 21.754Z"/>
  <path fill="#FFC999" d="M282.603 94.4909c-2.294 4.9806-7.316 8.0241-11.227 6.1971-3.913-1.8279-5.221-7.3488-2.927-12.3294 2.294-4.9823 7.327-7.5386 11.238-5.711 3.91 1.8277 5.209 6.8611 2.916 11.8433ZM218.277 95.3324c2.295 4.9826 7.317 8.0246 11.228 6.1966 3.912-1.8275 5.221-7.3484 2.926-12.329-2.294-4.9822-7.326-7.537-11.239-5.711-3.909 1.8293-5.209 6.8628-2.915 11.8434ZM249.66 147.635c-8.167 0-14.37-6.805-14.072-15.026l2.073-29.821 25.316-.277 1.088 30.077c.297 8.221-6.238 15.047-14.405 15.047Z"/>
  <path fill="#FFC999" d="M275.507 88.4741c-1.182 17.4919-9.77 34.8909-25.758 33.5489-11.949-1.003-24.995-16.269-24.995-33.8017 0-24.4882 9.184-34.7551 23.367-35.5335 16.282-.894 29.069 10.8453 27.386 35.7863Z"/>
  <path fill="#DD936F" d="M236.992 116.23c.203-.248.566-.283.812-.078 3.706 3.083 7.733 4.925 11.549 5.246 4.707.395 8.903-.866 12.519-3.619.254-.194.616-.143.808.113.192.256.142.62-.112.813-3.841 2.925-8.318 4.27-13.311 3.851-4.068-.342-8.31-2.283-12.188-5.509-.245-.204-.28-.57-.077-.817Z"/>
  <path fill="#012841" d="M270.178 133.654c17.97 9.543 28.263-13.794 27.091-23.709-2.221-18.7868-12.14-29.8221-12.14-29.8221-11.102-33.995-29.015-36.0837-46.484-31.4617-24.444 6.4695-34.409 36.7414-21.909 39.8134 18.828 4.6236 23.208-11.6071 26.055-22.6655 2.072-8.051 8.554-6.5554 10.954-1.4906.747 1.5765 2.573 2.7993 5.329-.5965 2.664-3.2802 5.923-.2991 6.515 10.7362.607 11.3393 4.536 6.9768 6.513 12.2267 3.257 8.6475-8.882 11.6302-5.033 27.7341 0 0-13.466 10.432 3.109 19.235Z"/>
  <path fill="#012841" d="M232.086 75.491c2.711-1.2812 6.694-1.5863 12.061-.5227.481.0953.794.5653.7 1.0498-.095.4844-.562.7998-1.043.7045-5.019-.9948-8.624-.7186-10.964.3871-.67.3166-1.172.6772-1.489 1.0151l-.094.1067-.009.1008c-.03.1882-.12.3668-.263.5049l-.093.0776c-.336.2448-.74.3513-1.175-.02-.371-.3166-.383-.6603-.283-1.0166.069-.2427.222-.5014.437-.7641.477-.5838 1.229-1.1573 2.215-1.6231ZM239.106 82.0615c2.698.0084 4.755 2.8134 4.745 6.1598-.001.4937-.399.8928-.89.8915-.49-.0015-.886-.4029-.885-.8966.007-2.4546-1.391-4.3618-2.975-4.3667-1.586-.0049-2.996 1.8925-3.005 4.3459-.001.4937-.4.8926-.89.8909-.491-.0017-.887-.4033-.885-.8971.011-3.3451 2.086-6.1359 4.785-6.1277ZM261.016 82.0615c2.698.0084 4.755 2.8134 4.745 6.1598-.001.4937-.4.8928-.89.8915-.49-.0015-.886-.4029-.885-.8966.007-2.4546-1.391-4.3618-2.975-4.3667-1.586-.0049-2.997 1.8925-3.005 4.3459-.002.4937-.4.8926-.89.8909-.491-.0017-.887-.4033-.885-.8971.011-3.3451 2.086-6.1359 4.785-6.1277Z"/>
  <path fill="#012841" d="M279.052 83.339s-2.296 12.3342-4.439 13.2595c1.137-4.8583-.396-18.7458-.921-19.4266-.835-1.0923 5.206-2.4672 5.36 6.1671ZM221.31 81.1879s3.253 16.9413 5.445 17.7444c-1.409-4.7856-.928-23.4967-.443-24.2089.775-1.1369-5.335-2.1647-5.002 6.4645Z"/>
  <path fill="#DD936F" d="M255.064 75.871c.261-.3405.747-.4031 1.085-.14.308.2392.387.6653.203.9967l-.064.0962-2.936 3.8257.723 15.5293c.019.4071-.275.7531-.664.808l-.109.0075h-5.33c-.427 0-.774-.3488-.774-.7791 0-.3944.291-.7204.669-.772l.105-.0071 4.518-.0001-.696-15.0003c-.006-.1478.029-.2937.1-.4211l.061-.0918 3.109-4.0519Z"/>
  <path fill="#FFFFFF" d="M243.383 101.395h14.803s-1.48 4.473-7.401 4.473c-5.922 0-7.402-4.473-7.402-4.473Z"/>
  <path fill="#FC192F" d="M258.186 100.541h-14.803c-.579 0-.987.571-.804 1.123.223.676.748 1.627 1.685 2.571 1.544 1.555 3.701 2.486 6.521 2.486 2.819 0 4.976-.931 6.52-2.486.937-.944 1.462-1.896 1.685-2.571.183-.552-.226-1.123-.804-1.123Zm-1.424 1.707-.186.251c-.142.18-.298.357-.469.529-1.231 1.24-2.96 1.986-5.322 1.986s-4.091-.746-5.323-1.986l-.245-.262c-.078-.088-.153-.177-.224-.267l-.188-.251h11.957Z"/>
  <path fill="#012841" d="M256.166 75.1091c4.389-1.2633 8.421-.9295 11.893.3957 1.167.4456 2.004.8975 2.469 1.214.406.2766.512.8324.237 1.2413-.274.409-.826.5163-1.232.2396l-.11-.0703c-.094-.0579-.23-.1368-.406-.2318-.452-.2443-.983-.4903-1.587-.7208-3.135-1.1964-6.782-1.4984-10.776-.3485-.472.1357-.963-.1392-1.098-.6139-.134-.4748.139-.9696.61-1.1053Z"/>
  <path fill="#FFC999" d="M218.04 316.021c-13.274.314-23.689 11.576-23.062 24.934l6.752 143.631c.52 11.064 9.711 19.686 20.703 19.427 10.993-.261 19.77-9.31 19.772-20.385l.036-143.793c.003-13.374-10.925-24.128-24.201-23.814ZM278.632 316.198c13.178-1.644 25.115 7.963 26.431 21.272l14.165 143.081c1.091 11.02-6.748 20.904-17.662 22.265-10.911 1.36-20.908-6.299-22.517-17.255L258.147 343.32c-1.944-13.231 7.308-25.48 20.485-27.122Z"/>
  <path fill="#025D97" d="M282.093 265.464c7.773.212 17.072 23.307 28.983 43.294 15.509 26.025 33.733 52.217 41.267 71.341-1.775 6.81-17.245 23.574-17.245 23.574s2.98 6.048 3.695 9.306c-17.246 22.953-41.193 25.732-41.193 25.732l-.054 4.658c-39.199 18.179-91.691.757-91.691.757s-.98-1.011-.277-4.663c-17.798-.208-55.908-22.951-55.908-22.951l5.417-11.254-15.674-16.158s48.484-69.946 57.105-93.992c8.006-22.331 20.418-31.18 20.418-31.18s38.728.814 65.157 1.536Z"/>
  <path fill="#012841" d="M214.438 282.447c.16-.33.556-.466.883-.305.295.146.434.483.342.789l-.039.101-64.452 132.62.603.447.505.364c1.273.91 2.773 1.925 4.492 3.019 4.915 3.128 10.587 6.258 16.94 9.179 9.877 4.542 20.475 8.151 31.666 10.48.357.074.587.426.513.785-.074.36-.423.592-.78.517-11.293-2.349-21.984-5.99-31.947-10.572-6.41-2.947-12.134-6.105-17.098-9.264-1.545-.984-2.918-1.906-4.112-2.748l-.439-.311c-.362-.26-.686-.496-.971-.707l-.611-.465c-.216-.169-.302-.451-.228-.708l.041-.108 64.692-133.113ZM301.595 320.546c.305-.121.647.002.81.277l.047.097 36.338 92.435c.084.212.054.452-.079.636l-.228.304-.302.39c-.055.07-.112.141-.171.215l-.184.229c-.724.893-1.582 1.887-2.573 2.957-2.828 3.052-6.155 6.102-9.96 8.95-8.129 6.083-17.294 10.399-27.412 12.165-.36.063-.701-.179-.764-.541-.062-.362.179-.707.538-.769 9.899-1.729 18.877-5.956 26.85-11.923 3.738-2.797 7.006-5.794 9.782-8.79.971-1.047 1.81-2.019 2.515-2.89l.343-.429.281-.362-36.202-92.087c-.121-.308.002-.651.275-.816l.096-.048Z"/>
  <path fill="#012841" d="M265.153 267.992c.358-.072.706.162.777.522l1.609 8.163c1.28 6.518 2.705 13.828 4.241 21.761l1.879 9.738c3.443 17.887 6.86 35.929 10.109 53.467l1.812 9.824c.461 2.511.916 4.997 1.364 7.456l1.79 9.882c3.828 21.246 7.026 39.838 9.457 55.124.051.32-.135.631-.44.735-1.923.659-3.871 1.268-5.841 1.83-23.738 6.77-49.061 6.387-72.975 1.679l-1.725-.349c-2.83-.586-5.437-1.199-7.793-1.815l-.699-.185c-.75-.2-1.435-.39-2.052-.568l-1.235-.366c-.197-.061-.345-.107-.441-.139-.284-.092-.466-.361-.458-.653l.013-.11 29.558-149.204c.071-.361.419-.594.777-.522.322.064.542.354.531.674l-.013.108-29.441 148.616 1.073.317c.608.175 1.285.363 2.027.562 2.97.793 6.366 1.587 10.131 2.328 23.728 4.671 48.853 5.051 72.363-1.653 1.461-.416 2.909-.86 4.344-1.33l.902-.303-.743-4.623c-2.303-14.19-5.199-30.925-8.59-49.751l-1.819-10.043-.905-4.953c-.457-2.493-.92-5.012-1.389-7.555-3.802-20.607-7.856-42.004-11.927-63.101l-3.031-15.629-3.758-19.151c-.071-.361.16-.711.518-.783Z"/>
  <path fill="#012841" d="M252.581 269.01c.328.008.595.256.638.573l.006.108-3.079 127.795c-.009.367-.312.658-.676.649-.328-.008-.595-.256-.638-.573l-.006-.108 3.079-127.795c.009-.368.312-.658.676-.649ZM230.94 267.806c.108-.351.478-.547.826-.438.314.098.503.41.459.727l-.024.106-26.081 84.574c-.108.351-.478.547-.826.438-.314-.098-.503-.41-.459-.727l.024-.105 26.081-84.575Z"/>
  <path fill="#025D97" d="m214.099 265.462 1.119-8.552s33.527.202 66.409-1.457c.832 3.796 1.786 10.629 1.786 10.629-2.764-2.287-32.633 4.392-69.314-.62Z"/>
  <path fill="#012841" d="M279.882 265.417c.365-.018.674.266.691.633.017.367-.265.678-.629.695l-3.412.155c-14.179.615-27.876.88-40.075.856l-3.608-.017c-3.757-.026-7.125-.082-9.857-.158l-2.111-.067c-.934-.034-1.702-.07-2.266-.105l-.626-.046c-.083-.007-.155-.015-.216-.022-.118-.014-.203-.029-.279-.051l-.051-.007c-.062-.015-.116-.073-.386-.363l.1-.545c.074-.356.121-.36.298-.378.137-.047.28-.047.41-.006l.077.03.432.039.775.047c.408.022.893.044 1.444.065l1.446.05c3.359.106 7.868.179 12.967.199l2.923.006c12.79.001 27.155-.313 41.953-1.01Z"/>
  <path fill="#FFC999" d="M182.616 261.466c-8.088-2.014-13.022-10.252-11.023-18.398l19.492-79.391c2-8.145 10.178-13.117 18.267-11.103 8.089 2.016 13.023 10.254 11.025 18.399l-19.493 79.39c-2.001 8.147-10.178 13.118-18.268 11.103Z"/>
  <path fill="#1890FF" d="m212.112 204.628 8.264-33.654c1.991-8.114-2.968-16.393-11.025-18.399-8.054-2.006-16.275 2.989-18.265 11.103l-8.185 33.336 29.211 7.614Z"/>
  <path fill="#025D97" d="M209.899 152.17c8.223 2.047 13.328 10.41 11.486 18.694l-.079.341-8.264 33.654c-.062.253-.295.417-.544.398l-.093-.015-29.212-7.615c-.279-.073-.446-.359-.374-.64.064-.25.296-.411.543-.393l.093.016 28.7 7.48 8.138-33.138c1.895-7.718-2.733-15.597-10.313-17.675l-.331-.087c-.28-.07-.45-.355-.381-.636.061-.251.292-.414.538-.399l.093.015Z"/>
  <path fill="#FFC999" d="m369.005 126.959.558 1.107c3.916 7.787.825 17.295-6.906 21.241l-71.347 36.416c-7.731 3.944-17.173.831-21.09-6.955l-.557-1.108c-3.916-7.784-.826-17.294 6.904-21.239l71.349-36.416c7.729-3.946 17.171-.831 21.089 6.954Z"/>
  <path fill="#1890FF" d="m306.731 141.025-30.702 15.669c-7.403 3.779-10.143 13.463-6.087 21.52 4.054 8.058 13.427 11.56 20.828 7.784l30.412-15.522-14.451-29.451Z"/>
  <path fill="#025D97" d="M306.272 140.115c.24-.122.526-.049.68.16l.052.085 14.45 29.451c.133.27.023.598-.246.731-.238.119-.522.045-.675-.163l-.051-.084-14.209-28.957-30.211 15.422c-7.025 3.584-9.695 12.721-6.013 20.449l.164.335c.136.269.029.598-.238.734-.267.137-.594.029-.729-.24-4.129-8.206-1.428-18.064 6.017-22.091l.308-.162 30.701-15.67Z"/>
  <path fill="#1890FF" d="M288.288 150.099c-7.392-4.187-16.119-.137-20.398-4.01-2.529-2.291-3.401-13.131-3.401-13.131h-31.554s-.872 10.84-3.402 13.131c-4.277 3.873-15.534 1.523-27.323 7.956-11.129 6.073-4.451 22.755.644 36.547 1.178 3.189-.854 9.198 1.114 13.631 1.981 4.462 4.991 9.864 6.186 12.751 3.924 9.483 3.117 19.701 5.648 28.305 0 0-4.032 7.859 2.335 11.049h61.151c7.635-3.51 2.333-11.049 2.333-11.049 2.417-8.211.95-14.834 4.531-26.863.717-2.404 3.411-6.216 5.708-11.306 3.582-7.938 2.868-15.556 2.389-17.48-4.574-18.361 4.643-33.522-5.961-39.531Z"/>
  <path fill="#025D97" d="m238.206 147.086 20.916.171c.288.002.52.239.517.529-.002.258-.188.471-.432.514l-.093.007-20.917-.17c-.288-.002-.52-.239-.517-.529.002-.258.188-.471.432-.514l.094-.008ZM207.797 171.763c.123-.262.435-.374.695-.249.26.124.371.438.247.7l-.15.333-.266.621c-.109.262-.225.547-.346.854-.576 1.464-1.153 3.123-1.691 4.944-1.951 6.598-2.893 13.478-2.276 20.157.484 5.224 2.153 9.478 6.172 16.198l.655 1.082.069.184.811 4.589c.35 1.966.703 3.933 1.051 5.857l1.2 6.535c1.096 5.877 1.914 9.961 2.34 11.577.034.132.017.272-.05.392-2.373 4.255-.646 9.682 1.744 10.239l.136.026h61.219l.156-.095c.023-.015.047-.031.072-.048l.118-.082c.354-.253.709-.57 1.042-.956 1.752-2.035 2.176-4.995.397-9.133-.042-.097-.054-.204-.034-.308l.452-2.388c1.259-6.692 2.321-12.763 3.194-18.133l.519-3.257c.095-.603.183-1.175.265-1.718l.36-2.438.087-.225c5.129-7.487 7.384-13.418 7.742-20.043.326-6.037-.769-12.039-2.796-17.687-.624-1.739-1.292-3.314-1.96-4.696l-.272-.551c-.087-.174-.172-.338-.253-.493l-.288-.534c-.029-.052-.052-.092-.069-.121-.146-.25-.063-.572.185-.719.248-.148.568-.064.714.186l.189.338.069.127c.2.374.423.811.663 1.307.683 1.414 1.366 3.023 2.003 4.799 2.072 5.771 3.191 11.909 2.857 18.102-.36 6.662-2.578 12.639-7.538 20.012l-.318.466-.263 1.795-.253 1.662c-.181 1.168-.385 2.455-.613 3.858l-.317 1.927c-.865 5.216-1.898 11.045-3.106 17.421l-.2 1.045.094.221c1.703 4.197 1.267 7.401-.558 9.669l-.164.198c-.603.7-1.21 1.16-1.668 1.413l-.147.077-.229.053-61.428-.005c-3.28-.497-5.384-6.685-2.85-11.57l.035-.068-.209-.877c-.45-1.974-1.132-5.424-1.994-10.034l-.526-2.836c-.424-2.296-.862-4.709-1.301-7.155l-1.321-7.441-.285-.469c-4.216-6.971-6.031-11.398-6.597-16.753l-.042-.425c-.631-6.828.329-13.837 2.315-20.554.547-1.851 1.134-3.54 1.721-5.031l.24-.598c.078-.19.152-.369.224-.538l.261-.595c.027-.059.048-.106.065-.141Z"/>
  <path fill="#025D97" d="M285.172 201.127c.289 0 .522.235.522.525 0 .258-.184.473-.428.518l-.094.008H209.7c-.288 0-.521-.235-.521-.526 0-.258.184-.472.428-.517l.093-.008h75.472Z"/>
  <path fill="#1890FF" d="M239.221 389.921 146.079 368.3c-3.119-.724-5.063-3.855-4.344-6.995l15.241-66.613c.719-3.14 3.828-5.098 6.945-4.374l93.143 21.621c3.116.722 5.061 3.855 4.343 6.995l-15.242 66.613c-.718 3.138-3.827 5.096-6.944 4.374Z"/>
  <path fill="#012841" d="m238.298 393.178-93.143-21.62c-3.119-.723-5.062-3.856-4.345-6.996l15.242-66.612c.718-3.14 3.827-5.1 6.946-4.376l93.142 21.621c3.117.724 5.061 3.856 4.342 6.995l-15.241 66.614c-.717 3.138-3.828 5.098-6.943 4.374Z"/>
  <path fill="#FFC999" d="M187.386 345.59c-4.647.16-8.594-3.389-8.963-8.056l-7.127-90.082c-.382-8.299 6.042-15.314 14.287-15.598 8.318-.284 15.234 6.389 15.308 14.77l-5.123 90.712c-.255 4.521-3.89 8.1-8.382 8.254Z"/>
  <path fill="#FFC999" d="M175.576 355.284s-1.797-22.467 5.543-28.536c6.646-5.498 14.764 4.139 14.764 4.139s3.098 5.166 6.794 13.232c2.669 5.825 6.773 18.61 2.771 17.68-4.288-.997-4.748-9.937-7.699-8.686-3.031 1.284-1.37 6.755-1.231 13.648.085 4.308 1.849 4.088 1.231 7.755-1.208 7.167-17.631 5.673-22.173-19.232Z"/>
  <path fill="#DD936F" d="M190.801 358.679c.35.075.573.421.499.774l-.026.141c-.015.09-.032.209-.05.355l-.018.155c-.471 4.217.401 9.838 3.73 16.283.164.32.041.713-.276.88-.317.166-.708.041-.873-.278-3.454-6.687-4.366-12.568-3.868-17.03l.042-.335c.027-.198.052-.346.073-.442.066-.317.351-.531.663-.516l.104.013ZM185.166 358.356c.357.024.627.334.603.694-.277 4.175.547 8.674 2.094 13.142.471 1.359.975 2.614 1.479 3.733.132.293.257.56.372.801l.292.585c.168.318.049.713-.267.882-.315.17-.707.05-.875-.268l-.197-.388c-.152-.31-.322-.669-.504-1.074-.519-1.153-1.038-2.444-1.522-3.842-1.599-4.619-2.454-9.283-2.164-13.658.024-.359.333-.631.689-.607ZM179.887 357.115c.358 0 .648.291.648.652l.009.427c.004.142.012.31.021.502.039.752.109 1.592.218 2.496.311 2.582.87 5.163 1.737 7.565.463 1.281 1.003 2.478 1.626 3.575.177.313.069.711-.241.889-.31.179-.706.07-.883-.242-.661-1.164-1.231-2.428-1.718-3.776-.904-2.505-1.484-5.18-1.806-7.854-.113-.935-.185-1.804-.225-2.585l-.028-.675c-.003-.135-.005-.243-.005-.322 0-.361.29-.652.647-.652Z"/>
  <defs>
    <clipPath id="a">
      <path fill="#FFFFFF" d="M0 0h150.811v152.275H0z" transform="matrix(.95678 .29083 -.28733 .95783 398.22 54.2856)"/>
    </clipPath>
  </defs>
</svg>
