<svg xmlns="http://www.w3.org/2000/svg" width="600" height="460">
  <path stroke="#D9D9D9" stroke-linecap="square" stroke-width="4" d="M-2 420.8h600"/>
  <path fill="#F5F5F5" opacity=".5" d="M261 380c104.934 0 190-85.066 190-190C451 85.0659 365.934 0 261 0S71 85.0659 71 190c0 104.934 85.066 190 190 190Z"/>
  <path fill="#1890FF" d="M429.529 151.698H415.09c-.494 0-.895.4-.895.893v2.21c0 .493.401.893.895.893h14.439c.495 0 .895-.4.895-.893v-2.21c0-.493-.4-.893-.895-.893Z"/>
  <path fill="#BAE1F9" d="M429.543 159.304h-14.466c-.487 0-.882.394-.882.88v2.115c0 .486.395.88.882.88h14.466c.487 0 .881-.394.881-.88v-2.115c0-.486-.394-.88-.881-.88Z"/>
  <path fill="#FF7946" d="M429.543 166.91h-14.466c-.487 0-.882.394-.882.88v2.115c0 .486.395.88.882.88h14.466c.487 0 .881-.394.881-.88v-2.115c0-.486-.394-.88-.881-.88Z"/>
  <path fill="#BAE1F9" d="M429.543 174.516h-14.466c-.487 0-.882.394-.882.88v2.116c0 .485.395.879.882.879h14.466c.487 0 .881-.394.881-.879v-2.116c0-.486-.394-.88-.881-.88Z"/>
  <path fill="#8CCDF6" d="M528.104 100.795H401.139c-2.18 0-3.948 1.764-3.948 3.94v90.98c0 2.176 1.768 3.94 3.948 3.94h126.965c2.181 0 3.948-1.764 3.948-3.94v-90.98c0-2.176-1.767-3.94-3.948-3.94Z"/>
  <path fill="#1890FF" d="M519.411 118.348h-76.743c-.829 0-1.501.671-1.501 1.498v69.555c0 .827.672 1.498 1.501 1.498h76.743c.829 0 1.501-.671 1.501-1.498v-69.555c0-.827-.672-1.498-1.501-1.498Z"/>
  <path fill="#FFFFFF" d="M507.425 140.581h-56.29v3.511h56.29v-3.511Z"/>
  <path fill="#FFB200" d="M479.28 152.868h-28.145v3.51h28.145v-3.51ZM503.321 128.294h-28.145v3.511h28.145v-3.511Z"/>
  <path fill="#FFFFFF" d="M502.735 176.857h-51.6v3.51h51.6v-3.51ZM468.14 128.294h-17.005v3.511h17.005v-3.511Z"/>
  <path fill="#8CCDF6" d="M493.353 152.868h-8.209v3.51h8.209v-3.51ZM492.767 164.57h-41.632v3.51h41.632v-3.51Z"/>
  <path fill="#012841" d="M400.803 96.1147h127.569c1.995 0 3.613 1.5802 3.613 3.5296v10.5187H397.191V99.6443c0-1.9494 1.617-3.5296 3.612-3.5296Z"/>
  <path fill="#FFFFFF" d="M405.046 105.834c1.424 0 2.579-1.128 2.579-2.519 0-1.392-1.155-2.52-2.579-2.52-1.424 0-2.578 1.128-2.578 2.52 0 1.391 1.154 2.519 2.578 2.519ZM415.014 105.834c1.424 0 2.579-1.128 2.579-2.519 0-1.392-1.155-2.52-2.579-2.52-1.424 0-2.578 1.128-2.578 2.52 0 1.391 1.154 2.519 2.578 2.519ZM424.396 105.834c1.424 0 2.578-1.128 2.578-2.519 0-1.392-1.154-2.52-2.578-2.52s-2.578 1.128-2.578 2.52c0 1.391 1.154 2.519 2.578 2.519ZM435.487 117.178h-26.166c-.87 0-1.576.704-1.576 1.572v70.576c0 .868.706 1.573 1.576 1.573h26.166c.87 0 1.576-.705 1.576-1.573V118.75c0-.868-.706-1.572-1.576-1.572Z"/>
  <path fill="#1890FF" d="M429.529 151.698H415.09c-.494 0-.895.4-.895.893v2.21c0 .493.401.893.895.893h14.439c.495 0 .895-.4.895-.893v-2.21c0-.493-.4-.893-.895-.893Z"/>
  <path fill="#BAE1F9" d="M429.543 159.304h-14.466c-.487 0-.882.394-.882.88v2.115c0 .486.395.88.882.88h14.466c.487 0 .881-.394.881-.88v-2.115c0-.486-.394-.88-.881-.88Z"/>
  <path fill="#FF7946" d="M429.543 166.91h-14.466c-.487 0-.882.394-.882.88v2.115c0 .486.395.88.882.88h14.466c.487 0 .881-.394.881-.88v-2.115c0-.486-.394-.88-.881-.88Z"/>
  <path fill="#BAE1F9" d="M429.543 174.516h-14.466c-.487 0-.882.394-.882.88v2.116c0 .485.395.879.882.879h14.466c.487 0 .881-.394.881-.879v-2.116c0-.486-.394-.88-.881-.88Z"/>
  <path fill="#FFB200" d="M422.108 141.198c4.004 0 7.249-3.276 7.249-7.316 0-4.041-3.245-7.317-7.249-7.317s-7.25 3.276-7.25 7.317c0 4.04 3.246 7.316 7.25 7.316Z"/>
  <path fill="#012841" d="M422.108 141.198c2.089.001 4.072-.931 5.417-2.545-1.06-2.029-3.146-3.3-5.418-3.3-2.273 0-4.359 1.271-5.418 3.3 1.345 1.615 3.329 2.546 5.419 2.545Z"/>
  <path fill="#012841" d="M422.146 135.644c1.506 0 2.727-1.232 2.727-2.751 0-1.52-1.221-2.752-2.727-2.752-1.506 0-2.726 1.232-2.726 2.752 0 1.519 1.22 2.751 2.726 2.751Z"/>
  <path fill="#FFB200" d="M532 53.6274c-23.766 0-43.031 19.1439-43.031 42.7592 0 23.6154 19.265 42.7594 43.031 42.7594s43.031-19.144 43.031-42.7594c0-23.6153-19.265-42.7592-43.031-42.7592Z"/>
  <path fill="#FFFFFF" d="M533.757 108.603h-1.537c-1.273 0-2.305-1.025-2.305-2.29V77.2976c0-1.2651 1.032-2.2906 2.305-2.2906h1.537c1.273 0 2.305 1.0255 2.305 2.2906v29.0154c0 1.265-1.032 2.29-2.305 2.29ZM533.757 117.994h-1.537c-1.273 0-2.305-1.026-2.305-2.291v-1.527c0-1.265 1.032-2.291 2.305-2.291h1.537c1.273 0 2.305 1.026 2.305 2.291v1.527c0 1.265-1.032 2.291-2.305 2.291Z"/>
  <path fill="#5B8C00" d="M463.567 270.701c20.15-9.51 32.16 15.432 22.026 29.32-12.367 16.946-18.701 36.446-22.229 42.321-2.976 4.957-11.128 17.039-20.944 11.47-9.033-5.125-4.11-25.241-4.11-25.241s.399-46.137 25.257-57.87ZM402.96 349.939c-6.851-9.222-9.352-22.456-1.706-25.85 7.331-3.253 19.474 4.758 25.099 20.176s8.87 26.503 3.368 28.43c-9.027 3.162-17.713-10.575-26.761-22.756Z"/>
  <path fill="#53C518" d="M474.977 350.639c-7.748 9.061-18.928 27.286-25.933 20.903-4.245-3.868 1.43-22.189 16.965-32.157 13.214-8.478 16.717 2.194 8.968 11.254ZM400.836 287.766c2.946-1.977 6.653-2.429 10.035-1.348 4.72 1.508 11.883 6 18.972 18.892 9.255 16.832 14.073 35.285 13.121 46.974-.623 7.644-10.061 10.939-15.34 5.366-2.425-2.56-4.99-6.506-7.501-12.492-10.102-24.088-19.546-39.183-20.673-40.698-3.005-4.045-5.154-12.303 1.386-16.694Z"/>
  <path fill="#FFFFFF" d="M407.611 297.374c.1 1.19-.785 2.235-1.977 2.334-1.192.1-2.239-.783-2.339-1.972-.1-1.19.785-2.234 1.977-2.334 1.192-.1 2.239.783 2.339 1.972ZM426.006 306.601c.1 1.189-.785 2.234-1.977 2.334-1.192.1-2.239-.783-2.339-1.973-.1-1.189.785-2.234 1.977-2.334 1.192-.1 2.239.784 2.339 1.973ZM422.923 331.167c.115 1.362-.899 2.559-2.264 2.673-1.365.115-2.564-.897-2.679-2.259-.114-1.362.899-2.559 2.264-2.673 1.365-.114 2.565.897 2.679 2.259ZM479.425 294.454c0 1.933-1.571 3.5-3.508 3.5s-3.507-1.567-3.507-3.5 1.57-3.5 3.507-3.5 3.508 1.567 3.508 3.5ZM451.188 305.142c0 1.933-1.57 3.5-3.507 3.5s-3.507-1.567-3.507-3.5 1.57-3.5 3.507-3.5 3.507 1.567 3.507 3.5ZM460.333 328.899c0 .808-.656 1.463-1.466 1.463-.809 0-1.466-.655-1.466-1.463s.657-1.463 1.466-1.463c.81 0 1.466.655 1.466 1.463ZM470.895 347.607c0 1.194-.97 2.161-2.166 2.161s-2.165-.967-2.165-2.161c0-1.193.969-2.161 2.165-2.161 1.196 0 2.166.968 2.166 2.161Z"/>
  <path fill="#012841" d="M420.31 352.401c.202-.193.521-.185.714.016l.092.1.07.077c.128.142.275.311.44.508.469.558.991 1.226 1.552 2.001 1.6 2.21 3.198 4.847 4.689 7.906 4.253 8.73 6.804 19.1 6.804 31.07 0 .279-.226.504-.505.504s-.505-.225-.505-.504c0-11.812-2.514-22.032-6.703-30.629-1.464-3.006-3.032-5.593-4.598-7.757-.515-.711-.994-1.327-1.427-1.847l-.081-.097c-.123-.146-.235-.276-.335-.389l-.127-.142c-.046-.051-.079-.086-.097-.105-.192-.201-.185-.52.017-.712ZM458.463 355.928c.167-.223.483-.269.706-.103.224.167.27.482.103.705-1.839 2.459-3.537 5.102-5.098 7.903-3.3 5.923-5.851 12.272-7.744 18.622-.663 2.223-1.196 4.286-1.611 6.136l-.084.38c-.099.453-.185.865-.258 1.235l-.047.242-.083.458c-.047.274-.307.459-.582.413-.275-.046-.461-.306-.414-.581l.028-.162c.024-.131.053-.285.087-.462l.084-.419c.081-.4.175-.842.283-1.324l.092-.404c.406-1.767.915-3.714 1.537-5.799 1.913-6.416 4.491-12.832 7.83-18.825 1.582-2.839 3.303-5.52 5.171-8.015Z"/>
  <path fill="#012841" d="M467.288 293.059c.193.185.207.486.037.688l-.022.024c-.01.011-.032.033-.064.068l-.124.135-.072.08c-.218.242-.47.533-.756.874-.817.976-1.73 2.15-2.713 3.524-2.814 3.932-5.63 8.667-8.26 14.211-4.378 9.23-7.787 19.757-9.854 31.591-2.509 14.371-2.924 30.07-.87 47.108.033.276-.165.527-.442.56-.276.033-.528-.164-.561-.44-2.066-17.136-1.648-32.933.878-47.401 2.083-11.925 5.52-22.539 9.936-31.85 2.656-5.599 5.503-10.385 8.351-14.365l.221-.306c.878-1.214 1.699-2.269 2.446-3.167l.094-.112c.268-.32.509-.599.721-.836l.057-.064c.066-.073.125-.138.177-.194l.106-.113c.192-.201.512-.208.714-.015ZM423.576 322.941c.238-.144.549-.068.693.17l.051.085c.04.068.088.15.142.244l.079.138c.136.238.288.511.456.819l.138.256c.514.954 1.077 2.058 1.678 3.309l.082.171c1.96 4.098 3.92 8.891 5.748 14.336 5.119 15.248 8.233 32.555 8.35 51.607.002.279-.223.506-.502.507-.279.002-.506-.222-.508-.5-.116-18.942-3.211-36.143-8.298-51.293-1.781-5.308-3.688-9.988-5.595-14l-.106-.223c-.652-1.363-1.259-2.552-1.807-3.564l-.165-.302c-.158-.288-.3-.541-.426-.759l-.059-.103-.122-.206c-.144-.238-.068-.548.171-.692Z"/>
  <path fill="#012841" d="M462.442 419.075H418.79c-2.359 0-4.29-1.927-4.29-4.281v-31.777c0-2.355 1.931-4.281 4.29-4.281h43.652c2.359 0 4.29 1.926 4.29 4.281v31.777c0 2.354-1.931 4.281-4.29 4.281Z"/>
  <path fill="#FFC999" d="m223.962 124.686 5.122-38.1495 34.416 4.3181-.705 36.7924c-.212 11.112-9.68 19.795-20.786 19.062-11.264-.743-19.547-10.851-18.047-22.023ZM272.065 78.3681c2.159-2.0058 5.371-2.4307 7.5.1169 3.429 4.105-.67 18.5175-10.485 18.6359-3.69-.7002-.383-15.6204 2.985-18.7528Z"/>
  <path fill="#DD936F" d="M276.306 80.5005c.29-.0359.555.1704.591.4609.033.2614-.131.5019-.377.5736l-.084.0174c-.081.01-.256.0545-.495.1565-.415.1776-.835.4589-1.231.8688-.715.7405-1.27 1.8136-1.592 3.2883-.084.3826-.05.4789.281.689l.23.1405c.682.417 1.02.8524 1.048 1.6703.044 1.2752-.515 2.248-1.451 2.9256-.526.3813-1.049.594-1.418.6857-.284.0706-.572-.1023-.643-.3863-.07-.2841.103-.5716.387-.6423l.091-.0267c.058-.0188.134-.046.223-.0823.252-.1027.504-.2374.737-.4061.668-.484 1.044-1.1379 1.014-2.0316-.013-.3582-.111-.5195-.429-.7302l-.242-.1501c-.768-.4654-1.07-.9427-.865-1.8812.363-1.662 1.01-2.9126 1.865-3.7985.859-.8892 1.737-1.2644 2.36-1.3413Z"/>
  <path fill="#FFC999" d="M221.581 74.6088c-1.837-2.3048-4.952-3.199-7.435-.9948-4.001 3.5513-2.089 18.4109 7.599 19.983 3.755-.1466 2.703-15.3925-.164-18.9882Z"/>
  <path fill="#DD936F" d="M217.09 75.8119c.474.1317 1.135.5027 1.782 1.2315.914 1.0294 1.504 2.5028 1.634 4.479.059.9065-.262 1.3308-1 1.6707l-.3.1285c-.417.1783-.559.3174-.63.703-.172.9276.144 1.6593.798 2.2501.194.1745.402.3222.611.4424l.157.0859c.044.022.077.0375.099.0465.271.1122.399.4223.286.6927-.112.2703-.422.3985-.693.2862-.306-.1268-.738-.3762-1.172-.7675-.907-.8195-1.375-1.9038-1.13-3.2289.135-.7302.485-1.1179 1.097-1.4127l.315-.1374c.473-.1971.531-.2623.503-.6904-.115-1.7464-.616-2.9959-1.369-3.845-.294-.3305-.605-.5756-.913-.7484-.105-.0591-.193-.1011-.259-.1287l-.1-.0365c-.283-.0785-.448-.3708-.369-.6527.07-.2507.309-.4088.559-.3857l.094.0174Z"/>
  <path fill="#FFC999" d="M272.368 82.3088c-1.967 26.3572-12.922 36.6542-28.461 35.4972-14.36-1.071-24.716-14.659-23.367-40.1928 1.028-19.4811 6.839-33.1697 29.039-31.5147 23.309 1.7349 24.242 16.7573 22.789 36.2103Z"/>
  <path fill="#DD936F" d="M231.254 112.439c.189-.224.523-.254.748-.065 3.273 2.741 8.104 4.478 12.996 4.842 5.165.385 9.014-.478 13.002-2.891.25-.152.577-.072.729.178.152.251.071.577-.179.728-4.182 2.531-8.251 3.443-13.631 3.042-5.101-.38-10.143-2.192-13.599-5.087-.225-.188-.254-.523-.066-.747Z"/>
  <path fill="#012841" d="M225.171 68.8546c-2.319 2.8512-3.49 7.68-4.038 10.8716-.076.4411-.718.416-.757-.0311-.444-5.0376-.85-17.3613 1.265-24.2907 3.324-10.8982 17.295-18.9822 25.235-18.809 3.23.0695 8.763.7224 14.217 6.1433 5.7 5.6667 9.382 5.3558 12.965 13.2253 2.44 5.3632-.228 19.8378-1.521 26.7317-.099.527-.869.487-.909-.0474-.243-3.2537-.886-7.7465-2.575-10.1076-.209-4.3137-.748-12.4067-.748-12.4067-9.403-2.9991-30.678-3.9569-41.794-2.6942l-1.34 11.4148Z"/>
  <path fill="#012841" d="M253.399 70.2192c3.486-.6132 7.475-.6975 11.715.0834.805.1482 1.338.9202 1.189 1.7242-.148.804-.921 1.3356-1.726 1.1873-3.866-.7117-7.505-.6347-10.664-.0791-.422.0742-.804.1523-1.143.2307l-.374.0908-.315.086c-.782.2418-1.612-.1952-1.854-.9762-.242-.781.195-1.6101.977-1.852l.263-.0761c.44-.1212 1.092-.2713 1.932-.419Z"/>
  <path fill="#DD936F" d="M241.664 71.4792c.236-.1108.512-.0333.658.1712l.048.0826 2.348 4.9813c.027.0565.043.117.049.1787v.0931l-1.399 16.0075 4.462.3456c.263.0203.466.2288.487.483l.001.0863c-.021.2626-.229.4656-.484.4872l-.086.0002-4.996-.3863c-.265-.0205-.469-.2316-.488-.4877v-.0868l1.432-16.3994-2.286-4.8513c-.111-.2354-.034-.511.171-.6569l.083-.0483Z"/>
  <path fill="#012841" d="M228.018 67.5129c1.278-.1228 2.759-.0556 4.412.1682 1.376.1862 2.83.4753 4.317.8393.753.1845 1.478.3794 2.161.5765l.917.2735.658.2102c.776.2612 1.193 1.1009.931 1.8757-.261.7747-1.102 1.1911-1.878.9299l-.651-.2071-.324-.0981c-.78-.2335-1.631-.4672-2.521-.6852-1.391-.3408-2.746-.61-4.008-.7809-1.446-.1956-2.71-.253-3.729-.1549-.815.0784-1.54-.5178-1.618-1.3316-.079-.8138.518-1.5371 1.333-1.6155ZM241.741 76.7373l9.159.6809c.584.0435 1.023.552.979 1.1357-.04.5449-.487.9627-1.021.9807l-.116-.0024-9.159-.6809c-.584-.0435-1.023-.552-.979-1.1357.04-.5449.487-.9627 1.021-.9807l.116.0024ZM242.199 81.0623c2.348-.9616 4.641-.7809 6.687.0952.646.2764 1.123.5588 1.404.765.473.3462.575 1.0095.228 1.4815-.346.472-1.011.5741-1.483.2279-.159-.1166-.5-.3183-.985-.5261-1.563-.6689-3.282-.8044-5.045-.0822-.543.2221-1.163-.0369-1.385-.5785-.223-.5416.037-1.1607.579-1.3828Z"/>
  <path fill="#FFFFFF" d="m241.046 75.9735-16.007-1.4433c-1.118-.1007-2.105.7194-2.197 1.8356-.174 2.0828-.359 5.4328-.076 8.3387.335 3.4284 3.183 5.7659 6.601 6.2336 4.27.5848 8.118.9356 10.263-1.1102 3.27-3.1176 3.05-8.7561 3.253-11.7124.074-1.0865-.753-2.0443-1.837-2.142Z"/>
  <path fill="#012841" d="m241.078 75.6215-16.007-1.4433-.166-.0095-.147.0015c-1.181.0464-2.169.9608-2.269 2.1663-.25 3.0085-.315 5.932-.075 8.4018.339 3.4671 3.174 6.0387 6.905 6.5493l1.154.1502c5.064.6221 7.588.375 9.401-1.3549 1.491-1.4214 2.378-3.3987 2.844-5.9058l.072-.404c.157-.921.237-1.7203.311-3.0046l.126-2.5091c.003-.0407.006-.0806.008-.12.087-1.2765-.88-2.4027-2.157-2.5179Zm-16.216-.747.124.0058 16.028 1.4445c.895.0807 1.577.874 1.516 1.7664l-.048.8633-.056 1.1865c-.092 1.8191-.179 2.6998-.403 3.9072-.442 2.374-1.269 4.2203-2.637 5.524-1.724 1.6438-4.352 1.7853-9.971 1.0158-3.424-.4686-5.992-2.7979-6.297-5.9182-.236-2.4189-.171-5.3049.076-8.2751.072-.8704.805-1.5245 1.668-1.5202Z"/>
  <path fill="#012841" d="m222.953 73.9134 19.888 1.2687c.585.0373 1.029.5411.991 1.1253-.035.5452-.476.9678-1.011.9913l-.116-.0011-19.888-1.2687c-.585-.0373-1.029-.5411-.991-1.1253.035-.5452.476-.9678 1.011-.9913l.116.0011Z"/>
  <path fill="#5C4E4A" d="M234.142 78.5804c1.684.1261 2.832 1.8908 2.685 3.8678-.031.4077-.386.7135-.795.683-.408-.0304-.714-.3855-.684-.7932.093-1.236-.55-2.224-1.317-2.2814-.768-.0575-1.552.8252-1.644 2.0615-.031.4076-.386.7134-.795.683-.408-.0304-.714-.3856-.684-.7932.143-1.9117 1.456-3.4481 3.066-3.4345l.168.007Z"/>
  <path fill="#FFFFFF" d="m268.239 77.9985-16.007-1.4433c-1.118-.1007-2.105.718-2.197 1.8356-.173 2.0828-.357 5.4328-.074 8.3387.335 3.4285 3.183 5.7659 6.601 6.2337 4.27.5847 8.116.9355 10.263-1.1103 3.27-3.1175 3.049-8.7561 3.251-11.7123.076-1.0866-.752-2.0444-1.837-2.1421Z"/>
  <path fill="#012841" d="m268.271 77.6476-16.007-1.4434-.167-.0097-.145.0018c-1.182.0462-2.17.9598-2.269 2.1663-.25 2.9995-.315 5.9303-.074 8.4017.339 3.4671 3.174 6.0387 6.905 6.5493l.778.1032c5.316.6802 7.918.4642 9.777-1.3078 1.491-1.4215 2.378-3.3989 2.843-5.9059l.072-.4044c.169-.988.249-1.8367.327-3.2906l.102-2.0987c.005-.0853.01-.1655.016-.2442.088-1.2761-.88-2.4025-2.158-2.5176Zm-16.216-.7471.158.0079 15.994 1.4424c.897.0807 1.578.8738 1.516 1.766l-.039.6872-.079 1.6544c-.086 1.6237-.176 2.4745-.388 3.6159-.441 2.3738-1.269 4.2201-2.636 5.5239-1.725 1.6439-4.353 1.7853-9.971 1.0158-3.424-.4686-5.992-2.7979-6.297-5.9181-.236-2.4207-.172-5.3139.074-8.2752.072-.8712.805-1.5246 1.668-1.5202Z"/>
  <path fill="#5C4E4A" d="M258.838 80.4195c1.684.1261 2.832 1.8903 2.686 3.8686-.03.4077-.385.7138-.794.6838-.408-.03-.714-.3849-.684-.7925.091-1.2379-.552-2.2263-1.319-2.2837-.768-.0574-1.55.8248-1.643 2.0616-.03.4076-.386.7134-.794.683-.408-.0305-.715-.3856-.684-.7933.143-1.9119 1.454-3.448 3.064-3.4345l.168.007Z"/>
  <path fill="#012841" d="m250.146 75.9384 19.888 1.2687c.585.0373 1.029.5411.991 1.1253-.034.5452-.476.9678-1.011.9913l-.116-.0011-19.888-1.2687c-.585-.0373-1.029-.5411-.991-1.1253.035-.5452.476-.9678 1.011-.9913l.116.0011Z"/>
  <path fill="#FFFFFF" d="M253.444 97.5269c-8.112.1318-15.539-1.1576-15.539-1.1576s1.494 5.0497 7.531 5.4997c6.036.448 8.008-4.3421 8.008-4.3421Z"/>
  <path fill="#FF7946" d="M237.194 96.5792c.234.7895.8 1.9227 1.826 3.0531 1.528 1.6827 3.63 2.7707 6.361 2.9747 2.961.22 5.284-.699 7.002-2.363.927-.8991 1.486-1.8025 1.746-2.4356.203-.4918-.165-1.03-.697-1.0214-3.661.0595-7.453-.1627-11.129-.5697-1.144-.1266-2.192-.2623-3.121-.3979l-1.15-.1792c-.541-.094-.993.4126-.838.939Zm2.064.9136-.107-.1824.801.1114c.682.0912 1.413.1811 2.188.2668l1.123.1183c2.629.2624 5.304.428 7.942.463l.932.0057-.071.0996c-.209.2753-.448.5465-.716.8064-1.424 1.3794-3.337 2.1364-5.859 1.9494-2.338-.175-4.092-1.083-5.372-2.493-.334-.3679-.62-.7538-.861-1.1452Z"/>
  <path fill="#DD936F" d="M241.921 104.335c.144-.255.468-.344.723-.2l.179.093.093.045c.229.109.49.219.775.321 1.172.422 2.366.59 3.456.369.386-.078.751-.204 1.095-.382.26-.135.581-.034.716.226.135.259.034.579-.226.714-.434.225-.893.384-1.374.481-1.31.266-2.688.071-4.027-.41-.549-.198-.967-.397-1.211-.535-.255-.144-.344-.468-.199-.722Z"/>
  <path fill="#FFC999" d="M390.501 138.199c1.151 10.032-5.664 19.123-15.407 20.55l-82.031 12.007c-11.754 1.72-22.648-6.888-24.036-18.994-1.39-12.108 7.277-22.9 19.123-23.814l82.678-6.384c9.82-.758 18.521 6.603 19.673 16.635Z"/>
  <path fill="#1890FF" d="m353.627 165.803-58.246 7.731c-12.844 1.887-24.7-7.225-26.16-20.107-1.461-12.882-.352-24.489 12.59-25.518l66.137-4.475 5.679 42.369Z"/>
  <path fill="#1890FF" d="m283.773 256.062 16.349-119.769c-2.481-2.527-11.457-8.648-31.544-6.963-6.677.559-22.26 8.843-29.278 8.988-4.747.098-19.239-9.449-23.158-8.589-22.818 5.001-29.496 8.336-41.738 12.225l20.349 110.244s-6.216 20.68 5.467 20.996c90.124 2.423 78.088 1.265 78.088 1.265s11.104-2.204 5.465-18.397Z"/>
  <path fill="#1890FF" d="m223.83 122.974-8.801 6.754 11.13 20.007 14.317-12.716-16.646-14.045Z"/>
  <path fill="#012841" d="M214.662 129.642c.326-.186.733-.098.956.192l.055.084 10.679 18.661 13.637-11.994c.279-.246.691-.244.967-.011l.079.077c.246.279.243.691.01.966l-.077.079-14.318 12.594c-.325.286-.818.231-1.075-.1l-.059-.088-11.13-19.45c-.203-.355-.079-.807.276-1.01Z"/>
  <path fill="#1890FF" d="m262.844 122.974 6.312 7.447-12.945 20.426-16.038-13.835 22.671-14.038Z"/>
  <path fill="#012841" d="M267.835 132.657c.225-.342.684-.437 1.027-.213.311.204.418.602.266.929l-.053.096-11.688 17.783c-.222.338-.669.431-1.004.227l-.088-.063-15.419-12.736-2.388 117.953-.101.733-.092.735c-.046.382-.09.785-.133 1.206-.19 1.855-.31 3.701-.326 5.421-.031 3.362.348 5.835 1.16 6.916.246.327.179.791-.148 1.036-.327.245-.792.179-1.038-.148-1.076-1.432-1.491-4.134-1.456-7.818.016-1.77.139-3.661.333-5.558l.09-.834c.03-.269.062-.53.093-.78l.13-.962c.003-.019.006-.034.008-.046l.006-.027 2.411-119.39c.012-.584.657-.912 1.132-.614l.081.059 15.963 13.186 11.234-17.091Z"/>
  <path fill="#FFFFFF" d="M243.969 154.737c-.18 1.305.56 2.485 1.65 2.633 1.091.148 2.12-.79 2.298-2.096.177-1.307-.562-2.485-1.652-2.635-1.091-.148-2.118.791-2.296 2.098ZM243.663 177.248c-.177 1.307.562 2.486 1.652 2.634 1.091.148 2.118-.789 2.296-2.097.179-1.307-.56-2.485-1.65-2.635-1.091-.148-2.12.792-2.298 2.098ZM242.55 202.079c-.178 1.307.562 2.485 1.651 2.633 1.092.148 2.119-.789 2.298-2.096.178-1.307-.562-2.485-1.651-2.635-1.091-.148-2.119.792-2.298 2.098ZM241.671 251.864c-.178 1.307.562 2.485 1.652 2.633 1.091.15 2.118-.789 2.296-2.096.178-1.307-.56-2.486-1.65-2.635-1.091-.148-2.12.792-2.298 2.098ZM241.438 223.934c-.178 1.306.561 2.486 1.65 2.634 1.091.148 2.12-.791 2.298-2.096.178-1.307-.562-2.486-1.651-2.635-1.091-.148-2.119.792-2.297 2.097Z"/>
  <path fill="#012841" d="m287.63 170.246-27.452-.685c-.399-.009-.734.298-.758.695l-1.302 21.248c-.015.251.099.494.303.642l14.47 10.558c.272.199.645.189.906-.024l11.425-9.321c.146-.119.241-.29.266-.477l2.858-21.8c.057-.436-.276-.826-.716-.836Zm-26.775.812 25.914.646-2.713 20.694-10.755 8.773-13.679-9.981 1.233-20.132Z"/>
  <path fill="#BAE1F9" d="m284.006 282.999-89.558-.929 1.766-10.514 86.594.848 1.198 10.595Z"/>
  <path fill="#BAE1F9" d="M195.178 279.13s-11.928 26.67-10.699 61.229c15.179 9.998 45.679 15.701 45.679 15.701 2.274 1.178 15.895.573 18.2-.427 0 0 41.549-12.653 45.478-18.94-2.231-32.582-9.974-55.178-9.974-55.178"/>
  <path fill="#FFFFFF" d="M242.99 276.091c-.178 1.307.561 2.486 1.652 2.635 1.091.148 2.118-.79 2.296-2.097.178-1.307-.562-2.486-1.651-2.635-1.092-.148-2.119.792-2.297 2.097Z"/>
  <path fill="#FFC999" d="M170.383 273.293c-10.691-1.207-18.497-10.662-17.643-21.372l7.174-90.19c1.028-12.924 12.571-22.427 25.471-20.971 12.9 1.457 22.028 13.294 20.141 26.119l-13.167 89.514c-1.563 10.63-11.286 18.106-21.976 16.9Z"/>
  <path fill="#1890FF" d="M206.872 167.839c1.888-12.827-8.587-26.179-21.487-27.634-12.9-1.457-24.443 8.047-25.471 20.97l-5.406 61.501s41.619 2.595 43.001 2.595l9.363-57.432Z"/>
  <path fill="#BAE1F9" d="M209.478 496.939c-12.825-.052-23.289-10.27-23.627-23.073l-1.328-144.724c-.14-15.126 12.304-27.357 27.448-26.978 14.869.372 26.585 12.773 26.094 27.617l-4.782 144.454c-.534 12.726-11.049 22.755-23.805 22.704Z"/>
  <path fill="#BAE1F9" d="m222.925 655.645 9.43-175.863c.744-13.522-10.101-24.862-23.664-24.741-13.094.118-23.563 10.905-23.272 23.977l3.498 176.333s13.563 7.903 34.008.294ZM284.039 504.87c12.774-1.156 22.315-12.239 21.544-25.023L294.4 335.549c-1.168-15.082-14.621-26.194-29.675-24.511-14.783 1.65-25.384 15.015-23.611 29.762l17.25 143.501c1.629 12.635 12.972 21.72 25.675 20.569Z"/>
  <path fill="#FFC999" d="M307.701 81.4469 288.907 68.876s-8.914-22.2138-13.414-25.6704c-4.501-3.4551-10.364-2.78-15.315-4.9976-4.95-2.2175-3.844 3.2331 2.336 6.3181 6.18 3.0835 8.695 2.7341 10.195 9.03 1.5 6.2943-.775 28.7479 8.303 32.7448 3.237 2.9725 5.781 5.2418 7.772 6.9723 4.347 3.7764 11.084 3.199 14.509-1.4255.084-.111.167-.2235.249-.339 3.532-4.9191 9.53-7.2536 4.159-10.0618Z"/>
  <path fill="#DD936F" d="M256.002 39.0419c-.626-2.1418 1.079-2.9912 3.734-1.8012.267.1199.386.4335.266.7005s-.434.3863-.701.2664c-1.948-.8732-2.597-.5496-2.28.5374.443 1.5129 2.374 3.4761 5.069 4.8217l.463.225c1.553.7417 4.455 2.0215 4.676 2.1276 3.013 1.4459 4.316 2.9781 5.255 6.6951l.081.3337c.236.9871.418 2.3229.628 4.4703l.547 5.9628.126 1.2655c.17 1.6396.344 3.0992.544 4.5059l.145.978c1.337 8.6804 3.626 14.0729 7.47 15.7656.268.118.39.4309.272.6987-.119.2678-.432.3892-.7.2711-4.454-1.9613-6.873-7.9548-8.238-17.5646-.202-1.4208-.378-2.8927-.548-4.5442l-.265-2.7576-.338-3.7362c-.238-2.5426-.429-4.0381-.675-5.0698-.844-3.537-1.883-4.8858-4.513-6.1962l-.338-.1629c-.6-.272-3.791-1.6833-5.066-2.3197-2.939-1.4669-5.078-3.6421-5.614-5.4729Z"/>
  <path fill="#012841" d="M296.992 161.878c.407.046.699.413.652.819l-.346 2.963-.287 2.328c-.815 6.145-6.563 46.113-11.534 81.292l-.941 6.667.09.195c2.091 4.651 1.908 9.306.309 13.569l-.141.365c-.295.745-.612 1.413-.929 1.995l-.156.279c-.121.211-.218.368-.285.467-.228.339-.688.43-1.028.202-.34-.227-.431-.687-.203-1.027l.12-.191c.068-.112.152-.258.25-.437.289-.532.58-1.146.853-1.833 1.636-4.13 1.837-8.65-.313-13.151-.063-.131-.085-.277-.065-.421l11.868-83.57c.37-2.639.613-4.402.698-5.08l.332-2.748c.074-.632.152-1.302.235-2.032.043-.372.355-.648.72-.656l.101.005Z"/>
  <path fill="#025D97" d="m244.448 468.079-103.552-2.784c-2.742-.074-4.908-2.356-4.834-5.097l1.957-72.572c.074-2.74 2.359-4.903 5.103-4.829l103.551 2.785c2.744.074 4.908 2.355 4.836 5.097l-1.958 72.571c-.073 2.74-2.357 4.903-5.103 4.829Z"/>
  <path fill="#012841" d="m240.923 467.984-103.552-2.785c-2.742-.074-4.908-2.355-4.834-5.096l1.957-72.572c.074-2.74 2.358-4.903 5.102-4.829l103.552 2.785c2.745.074 4.908 2.355 4.836 5.097l-1.959 72.571c-.072 2.74-2.357 4.903-5.102 4.829Z"/>
  <path fill="#FFC999" d="M192.725 384.546c-3.294 1.086-2.52 3.998-2.945 11.199-.267 4.498.833 10.366-.352 14.073-1.22 3.824-18.834 5.779-22.816-19.45 0 0-3.965-29.355 4.258-35.072 7.448-5.177 20.228 5.063 20.228 5.063s2.416 3.248 7.235 12.224l4.639 11.545-10.247.418Z"/>
  <path fill="#025D97" d="M183.426 385.631c.262-.004.478.206.481.467l.008.357c.007.293.018.633.032 1.017.041 1.097.105 2.32.197 3.636.261 3.762.689 7.523 1.322 11.029.466 2.583 1.027 4.929 1.691 6.982.081.249-.056.516-.305.596-.25.081-.517-.056-.597-.305-.679-2.097-1.25-4.483-1.723-7.105-.639-3.544-1.071-7.338-1.335-11.131l-.072-1.114c-.044-.726-.079-1.418-.107-2.071l-.038-1.03-.022-.848c-.003-.261.206-.476.468-.48ZM177.824 387.149c.262 0 .475.211.475.473.003 2.009.169 4.281.478 6.766.332 2.666.819 5.502 1.419 8.414.356 1.729.734 3.396 1.115 4.959l.191.773c.156.623.3 1.183.43 1.67l.162.599c.071.252-.077.513-.329.584-.252.07-.514-.077-.584-.329l-.166-.611-.341-1.315-.092-.369c-.449-1.794-.897-3.74-1.315-5.77-.605-2.935-1.096-5.795-1.431-8.489-.314-2.52-.482-4.829-.486-6.881 0-.261.212-.474.474-.474ZM171.58 388.229c.261-.023.491.17.514.431l.089.879c.02.18.041.373.065.577.137 1.17.314 2.486.536 3.916.634 4.086 1.5 8.275 2.632 12.324.071.252-.076.514-.329.584-.252.07-.514-.077-.584-.329-1.144-4.089-2.018-8.313-2.657-12.434l-.181-1.208c-.113-.785-.212-1.529-.298-2.228l-.127-1.1-.091-.899c-.023-.261.17-.491.431-.513Z"/>
  <path fill="#FFC999" d="m190.926 360.665-23.757 1.915-14.027-104.512c-1.35-11.217 6.957-21.286 18.24-22.107 11.284-.822 20.967 7.939 21.259 19.232l-1.715 105.472Z"/>
  <path fill="#025D97" d="M203.446 384.119c.006.262-.202.478-.464.483l-1.677.04c-1.006.025-2.012.054-2.975.086l-2.346.087c-1.504.064-2.613.132-3.203.202-2.645.312-2.895 4.109-1.814 15.713l.282 3.05c.151 1.698.252 3.052.322 4.346.015.261-.186.485-.448.499-.261.014-.485-.187-.499-.448l-.041-.707c-.059-.956-.137-1.972-.239-3.157l-.549-5.978c-.38-4.29-.467-6.291-.344-8.437.203-3.572 1.156-5.578 3.219-5.822l.43-.043c.869-.076 2.289-.148 4.132-.215l1.798-.06 2.576-.071 1.356-.032c.262-.005.479.203.484.464Z"/>
  <path fill="#012841" d="m202.791 177.47.101.005c.372.041.65.352.658.717l-.004.1-5.276 47.193c-.04.359-.332.632-.684.657h-.097l-43.001-2.595c-.409-.025-.72-.376-.695-.784.023-.374.32-.666.684-.693l.101-.001 42.296 2.553 5.199-46.494c.038-.339.298-.598.62-.649l.098-.009ZM351.025 139.369c.374-.037.71.21.794.565l.017.099 2.529 25.697c.035.364-.199.693-.543.787l-.096.019-58.409 7.865c-.406.055-.779-.229-.834-.634-.05-.372.185-.716.537-.813l.099-.02 57.7-7.77-2.459-24.986c-.036-.373.211-.708.566-.792l.099-.017Z"/>
  <path fill="#FFC999" d="m287.538 92.234 10.293-17.0327 83.319 47.7127c8.923 5.108 11.944 16.958 6.634 26.017-5.31 9.058-16.799 11.65-25.224 5.691l-75.022-62.388Z"/>
  <path fill="#012841" d="M326.819 125.091c.219-.258.589-.312.87-.143l.09.064 26.078 22.085c.287.243.322.672.079.959-.219.258-.59.312-.871.143l-.09-.064-26.077-22.085c-.287-.243-.322-.672-.079-.959Z"/>
  <path fill="#1890FF" d="M283.862 281.541c.293 0 .53.237.53.53 0 .263-.192.482-.444.523l-.086.007h-89.414c-.293 0-.531-.238-.531-.53 0-.264.193-.482.445-.523l.086-.007h89.414Z"/>
  <path fill="#012841" d="M282.757 270.816c.409 0 .741.331.741.74 0 .375-.279.685-.641.734l-.1.006h-86.543c-.409 0-.741-.331-.741-.74 0-.375.279-.684.641-.733l.1-.007h86.543Z"/>
  <path fill="#1890FF" d="M238.402 271.557c.264 0 .483.192.524.444l.007.086v83.825c0 .293-.237.53-.531.53-.263 0-.482-.192-.523-.444l-.007-.086v-83.825c0-.293.237-.53.53-.53Z"/>
  <path fill="#1890FF" d="M248.345 355.103c.293-.007.536.225.543.517.006.264-.181.487-.432.534l-.086.009-18.2.426c-.293.007-.536-.225-.543-.517-.006-.264.182-.487.433-.534l.086-.009 18.199-.426ZM251.572 282.581c.264 0 .483.192.524.444l.007.086v42.111c0 3.371-1.73 6.501-4.568 8.3l-.269.164-7.667 4.526c-.253.149-.578.065-.727-.187-.133-.224-.081-.505.109-.67l.078-.056 7.667-4.525c2.588-1.526 4.208-4.266 4.31-7.253l.005-.299v-42.111c0-.293.238-.53.531-.53Z"/>
</svg>
