<svg xmlns="http://www.w3.org/2000/svg" width="600" height="460">
  <path stroke="#F0F0F0" stroke-linecap="square" stroke-width="4" d="M2.02466 421H602.025"/>
  <path fill="#F0F0F0" opacity=".6" d="M260 380c104.934 0 190-85.066 190-190C450 85.0659 364.934 0 260 0S70 85.0659 70 190c0 104.934 85.066 190 190 190Z" />
  <path fill="#1890FF" d="m455.494 109.882-24.843 78.538h15.02l24.843-78.538h-15.02Z" clip-rule="evenodd"/>
  <path fill="#30A5EF" d="M420.069 118.811h-25.995c-.784 0-1.419.64-1.419 1.429v57.822c0 .79.635 1.429 1.419 1.429h25.995c.784 0 1.42-.639 1.42-1.429v-8.686c0-.789-.636-1.428-1.42-1.428h-15.944v-37.593h15.944c.784 0 1.42-.64 1.42-1.429v-8.686c0-.789-.636-1.429-1.42-1.429ZM507.091 118.811h-25.995c-.784 0-1.42.64-1.42 1.429v8.686c0 .789.636 1.429 1.42 1.429h15.944v37.593h-15.944c-.784 0-1.42.639-1.42 1.428v8.686c0 .79.636 1.429 1.42 1.429h25.995c.784 0 1.419-.639 1.419-1.429V120.24c0-.789-.635-1.429-1.419-1.429Z" clip-rule="evenodd"/>
  <path fill="#FFB200" d="M532 54.0854c-23.766 0-43.031 19.3075-43.031 43.1244 0 23.8172 19.265 43.1242 43.031 43.1242s43.031-19.307 43.031-43.1242c0-23.8169-19.265-43.1244-43.031-43.1244Z" clip-rule="evenodd"/>
  <path fill="#FFFFFF" d="M533.757 109.531h-1.537c-1.273 0-2.305-1.034-2.305-2.31V77.9582c0-1.2759 1.032-2.3103 2.305-2.3103h1.537c1.273 0 2.305 1.0344 2.305 2.3103v29.2628c0 1.276-1.032 2.31-2.305 2.31ZM533.757 119.002h-1.537c-1.273 0-2.305-1.035-2.305-2.311v-1.54c0-1.276 1.032-2.31 2.305-2.31h1.537c1.273 0 2.305 1.034 2.305 2.31v1.54c0 1.276-1.032 2.311-2.305 2.311Z" clip-rule="evenodd"/>
  <path fill="#5B8C00" d="M462.665 270.701c19.979-9.51 31.887 15.432 21.839 29.319-12.262 16.947-18.543 36.447-22.041 42.322-2.95 4.956-11.033 17.039-20.766 11.47-8.957-5.125-4.075-25.241-4.075-25.241s.395-46.138 25.043-57.87ZM402.57 349.939c-6.792-9.222-9.272-22.456-1.691-25.85 7.269-3.254 19.31 4.758 24.887 20.176 5.577 15.418 8.794 26.503 3.339 28.43-8.951 3.162-17.563-10.575-26.535-22.756Z" clip-rule="evenodd"/>
  <path fill="#53C518" d="M473.978 350.64c-7.682 9.06-18.768 27.285-25.713 20.902-4.21-3.868 1.418-22.189 16.821-32.156 13.102-8.479 16.575 2.193 8.892 11.254ZM400.465 287.767c2.921-1.978 6.596-2.43 9.95-1.349 4.68 1.508 11.782 6 18.811 18.892 9.177 16.832 13.954 35.285 13.01 46.974-.617 7.644-9.975 10.939-15.21 5.366-2.404-2.56-4.948-6.506-7.437-12.491-10.017-24.089-19.381-39.183-20.498-40.699-2.98-4.045-5.11-12.303 1.374-16.693Z" clip-rule="evenodd"/>
  <path fill="#FFFFFF" d="M407.182 297.374c.099 1.19-.778 2.235-1.96 2.334-1.182.1-2.22-.783-2.319-1.972-.099-1.19.778-2.235 1.96-2.334 1.182-.1 2.22.783 2.319 1.972ZM425.422 306.601c.099 1.189-.778 2.234-1.96 2.334-1.182.1-2.221-.783-2.32-1.973-.099-1.189.779-2.234 1.961-2.334 1.181-.1 2.22.784 2.319 1.973ZM422.365 331.167c.114 1.362-.892 2.559-2.245 2.673-1.353.115-2.543-.897-2.656-2.259-.114-1.362.891-2.559 2.245-2.673 1.353-.114 2.542.897 2.656 2.259ZM478.388 294.454c0 1.933-1.557 3.5-3.478 3.5-1.921 0-3.478-1.567-3.478-3.5s1.557-3.5 3.478-3.5c1.921 0 3.478 1.567 3.478 3.5ZM450.391 305.142c0 1.933-1.557 3.5-3.478 3.5-1.921 0-3.478-1.567-3.478-3.5s1.557-3.5 3.478-3.5c1.921 0 3.478 1.567 3.478 3.5ZM459.458 328.899c0 .808-.651 1.463-1.453 1.463-.803 0-1.454-.655-1.454-1.463s.651-1.463 1.454-1.463c.802 0 1.453.655 1.453 1.463ZM469.931 347.607c0 1.194-.962 2.161-2.148 2.161-1.186 0-2.147-.967-2.147-2.161 0-1.193.961-2.161 2.147-2.161s2.148.968 2.148 2.161Z" clip-rule="evenodd"/>
  <path fill="#012841" d="M419.774 352.4c.2-.192.517-.184.708.017l.091.1.07.077c.126.142.272.311.436.508.465.558.983 1.226 1.539 2.001 1.586 2.21 3.171 4.847 4.648 7.906 4.218 8.73 6.748 19.1 6.748 31.07 0 .279-.225.504-.501.504-.277 0-.501-.225-.501-.504 0-11.812-2.493-22.032-6.646-30.629-1.452-3.006-3.007-5.593-4.56-7.757-.51-.711-.985-1.327-1.415-1.847l-.08-.097c-.122-.146-.233-.276-.332-.389l-.125-.142c-.047-.051-.079-.087-.097-.105-.191-.202-.183-.52.017-.713ZM457.603 355.927c.166-.223.48-.268.701-.102.222.167.267.482.102.705-1.824 2.458-3.507 5.101-5.055 7.903-3.272 5.922-5.801 12.272-7.679 18.622-.657 2.222-1.185 4.286-1.597 6.136l-.083.38c-.098.452-.183.865-.255 1.235l-.047.242-.083.457c-.046.275-.304.46-.577.414-.273-.047-.457-.307-.411-.581l.029-.162c.023-.131.052-.285.086-.462l.083-.42c.08-.399.174-.841.281-1.323l.091-.404c.402-1.767.907-3.714 1.523-5.799 1.897-6.416 4.454-12.832 7.764-18.825 1.569-2.839 3.276-5.52 5.127-8.016Z"/>
  <path fill="#012841" d="M466.354 293.059c.191.185.205.486.037.688l-.022.024c-.01.011-.031.033-.064.068l-.123.135-.071.08c-.216.242-.466.533-.749.874-.811.976-1.715 2.15-2.691 3.524-2.79 3.932-5.582 8.667-8.189 14.21-4.341 9.23-7.722 19.758-9.771 31.592-2.488 14.371-2.9 30.069-.863 47.108.033.276-.163.527-.438.56-.274.033-.523-.164-.556-.44-2.049-17.136-1.634-32.933.871-47.401 2.064-11.926 5.473-22.539 9.852-31.85 2.633-5.599 5.455-10.386 8.28-14.365l.218-.306c.871-1.214 1.685-2.269 2.426-3.167l.093-.112c.266-.32.505-.599.715-.836l.056-.064c.066-.073.125-.138.176-.195l.105-.112c.191-.201.508-.208.708-.015ZM423.012 322.941c.236-.144.544-.068.687.17l.051.085c.04.068.087.149.141.244l.078.138c.135.238.286.511.452.819l.137.256c.51.954 1.068 2.058 1.664 3.309l.081.171c1.944 4.098 3.887 8.891 5.7 14.336 5.075 15.248 8.163 32.555 8.279 51.607.001.279-.221.506-.498.507-.277.002-.502-.222-.504-.501-.115-18.941-3.184-36.142-8.227-51.293-1.767-5.307-3.657-9.987-5.548-14l-.105-.222c-.647-1.363-1.249-2.553-1.792-3.564l-.163-.302c-.157-.288-.298-.541-.422-.759l-.059-.103-.121-.206c-.143-.238-.068-.548.169-.692Z"/>
  <path fill="#012841" d="M461.549 419.074h-43.282c-2.34 0-4.254-1.926-4.254-4.281v-31.776c0-2.355 1.914-4.281 4.254-4.281h43.282c2.34 0 4.254 1.926 4.254 4.281v31.776c0 2.355-1.914 4.281-4.254 4.281Z" clip-rule="evenodd"/>
  <path fill="#FFC999" d="m269.505 251.566-16.434-40.406 30.886-18.395s31.635 55.621 25.176 68.068c-8.15 15.706-26.517 15.752-39.628-9.267Z" clip-rule="evenodd"/>
  <path fill="#1890FF" d="M172.87 267.187s-9.082-44.283-13.08-60.64c-3.998-16.356-10.163-55.537-3.461-58.517 6.7-2.98 22.75-9.322 22.75-9.322s12.809-.547 27.246 2.451c11.431 2.374 11.297-4.4 25.151-2.186 5.866.936 28.853 8.015 33.326 11.514 4.471 3.498-3.005 118.491-3.005 118.491s5.512 5.632-1.078 13.025c-3.267 3.462-17.517 2.389-35.747 2.554-20.752.187-45.144 2.97-49.698-.973-8.555-7.41-2.404-16.397-2.404-16.397Z" clip-rule="evenodd"/>
  <path fill="#1890FF" d="m224.824 131.045-13.168 11.425 14.996 15.386 7.356-18.54-9.184-8.271Z" clip-rule="evenodd"/>
  <path fill="#FFC999" d="m170.506 275.623-1.945 19.979s-52.709-28.236-63.172-44.589c-9.289-14.519 12.695-50.059 12.695-50.059s21.962 15.398 26.07 25.095l-3.61 10.92 29.962 38.654Z" clip-rule="evenodd"/>
  <path fill="#1890FF" d="M265.126 241.496s-21.971-37.887-23.675-59.95c-1.672-21.636 17.228-37.853 27.007-28.429 14.251 13.731 29.505 59.804 29.505 59.804s-16.009 20.7-32.837 28.575Z" clip-rule="evenodd"/>
  <path fill="#012841" d="M291.603 216.915c.229-.342.69-.431 1.029-.2.339.231.428.695.199 1.036-2.229 3.32-4.705 6.396-7.386 9.235-4.257 4.51-8.817 8.218-13.379 11.178-1.599 1.038-3.085 1.908-4.42 2.618-.282.15-.545.286-.788.408l-.691.339c-.099.047-.174.081-.224.103-.375.166-.812-.005-.977-.382-.165-.378.005-.818.379-.984l.296-.138.114-.055c.276-.134.588-.291.933-.472l.266-.139c1.298-.691 2.747-1.539 4.309-2.553 4.467-2.898 8.937-6.533 13.108-10.951 2.625-2.782 5.049-5.794 7.232-9.043Z"/>
  <path fill="#1890FF" d="M108.661 218.812s25.461-54.888 39.173-65.63c13.714-10.742 19.832-5.095 25.372 2.556 3.489 4.816 11.515 18.484-6.187 47.315-13.33 21.71-18.917 29.757-20.507 33.379-22.352-1.508-37.851-17.62-37.851-17.62Z" clip-rule="evenodd"/>
  <path fill="#FFC999" d="m211.938 144.5 12.826-13.119-2.299-44.7858-34.629 1.9916-1.401 44.1842 25.503 11.729ZM231.443 82.5067s5.326-5.4912 7.535-1.7632c2.207 3.7264-1.766 16.987-7.507 17.3005-7.667.4166-.028-15.5373-.028-15.5373Z" clip-rule="evenodd"/>
  <path fill="#FFC999" d="M197.865 116.348s11.212 9.347 26.175.219c10.771-6.571 12.218-30.5506 10.238-48.1677-1.121-9.9686-5.654-15.3522-15.284-18.3486-9.631-2.9964-35.784-3.2248-36.094 26.0912-.345 32.6531 14.965 40.2061 14.965 40.2061Z" clip-rule="evenodd"/>
  <path fill="#DD936F" d="M217.52 72.9483c.252.0656.415.3032.397.556l-.016.0952-1.558 6.0733 3.193 16.61c.058.2991-.143.579-.43.6284l-.089.0076-6.975.0254c-.293.0011-.531-.2374-.532-.5325-.001-.2657.19-.4868.442-.5291l.086-.0074 6.334-.0236-3.093-16.0944c-.01-.052-.013-.105-.007-.1574l.014-.0779 1.588-6.1898c.065-.2541.301-.4181.552-.3995l.094.0157Z"/>
  <path fill="#012841" d="M210.779 71.2927c.082.7827-.483 1.4835-1.26 1.5652l-5.254.5774-1.317.1333c-3.792.3679-6.183.444-7.66.1419-.766-.1566-1.261-.9088-1.105-1.6801.155-.7713.902-1.2696 1.668-1.113 1.236.2528 3.898.1266 8.12-.3168l5.254-.5774c.778-.0817 1.473.4867 1.554 1.2695Z"/>
  <path fill="#FF7946" d="M206.263 101.018c.104-.398.51-.636.906-.532l.223.054.247.053c.403.084.877.168 1.419.247 2.839.413 6.215.514 9.995.11.407-.044.772.253.815.663.044.41-.251.778-.658.821-3.909.418-7.408.313-10.363-.116-.458-.067-.872-.138-1.241-.209l-.267-.054c-.264-.055-.448-.098-.548-.125-.396-.105-.632-.513-.528-.912Z"/>
  <path fill="#012841" d="m186.145 88.7264-5.608-11.3272s-3.499-16.3062.286-23.2874c5.873-10.833 19.166-10.4612 27.073-13.3128 7.909-2.8516 7.851-5.527 11.049-5.0626 3.197.4643 15.538 9.2444 16.876 18.356 1.175 8.0083-.971 28.3844-.971 28.3844s-2.125-18.0679-3.825-22.8469c-6.237-2.668-28.958-2.9367-38.46-.0493 0 0-.858 6.1406-1.359 10.4672-5.1 3.6279-5.061 18.6786-5.061 18.6786Z" clip-rule="evenodd"/>
  <path fill="#DD936F" d="M224.259 115.55c.199-.217.535-.231.75-.03.215.2.229.538.03.755-.142.155-.412.41-.81.733-.655.53-1.442 1.058-2.362 1.549-5.31 2.835-12.352 3.27-21.144-.192-.273-.108-.407-.418-.301-.693.107-.275.415-.411.688-.303 8.502 3.348 15.222 2.934 20.26.244.859-.459 1.59-.95 2.194-1.438l.244-.203c.22-.189.37-.334.451-.422Z"/>
  <path fill="#012841" d="M216.991 78.6379c.586-.0207 1.077.4409 1.098 1.0309.019.5507-.379 1.0186-.908 1.0954l-.116.0103-5.13.1806c-.586.0207-1.078-.4409-1.098-1.0309-.019-.5507.379-1.0186.908-1.0953l.115-.0104 5.131-.1806ZM212.363 82.0845c1.037-.4498 2.098-.6895 3.138-.5932.987.0913 1.879.4877 2.607 1.2224.414.4179.414 1.0947-.001 1.5118-.386.3872-.993.4143-1.409.0816l-.092-.0832c-.364-.3673-.79-.5566-1.299-.6036-.632-.0586-1.364.1069-2.104.4277-.28.1214-.511.2416-.675.3366l-.163.1003c-.489.3252-1.148.1894-1.471-.3033-.323-.4927-.188-1.1558.301-1.481.247-.1639.65-.3912 1.168-.6161ZM220.627 69.9442c2.392-.8928 4.818-1.3739 7.135-1.2142 1.81.1248 3.468.6435 4.914 1.6151.65.4367.826 1.3215.392 1.9763-.433.6547-1.312.8315-1.962.3948-1.012-.6799-2.196-1.0503-3.537-1.1427-1.859-.1282-3.91.2787-5.958 1.0431-.507.1892-.982.389-1.418.5905l-.32.1513c-.305.1481-.516.2598-.616.3169-.68.388-1.543.1473-1.928-.5375-.386-.6848-.147-1.5544.533-1.9423.568-.3238 1.527-.7891 2.765-1.2513Z"/>
  <path fill="#DD936F" d="M216.042 106.243c.293-.006.536.228.542.523.006.265-.182.49-.433.537l-.086.009-4.182.093c-.293.006-.536-.228-.542-.523-.006-.266.182-.49.433-.537l.086-.009 4.182-.093Z"/>
  <path fill="#012841" d="M192.863 79.2008c.587-.0097 1.07.4609 1.079 1.0512.009.5509-.397 1.0114-.928 1.0783l-.115.0082-8.418.1403c-.586.0098-1.069-.4608-1.078-1.0511-.01-.551.397-1.0114.928-1.0783l.115-.0082 8.417-.1404Z"/>
  <path fill="#FFFFFF" d="m193.474 78.582 16.068-.3583c1.123-.0254 2.052.8674 2.068 1.9976.031 2.108-.012 5.4911-.493 8.3964-.565 3.4264-3.568 5.5837-7.009 5.8211-4.301.2971-8.162.3867-10.165-1.8184-3.049-3.3622-2.445-9.0191-2.448-12.0095 0-1.0958.89-2.005 1.979-2.0289Z" clip-rule="evenodd"/>
  <path fill="#012841" d="m209.692 77.8691-.158-.0019-16.068.3586c-1.282.0281-2.324 1.096-2.324 2.385l-.007.6689-.032 1.5505c-.027 1.7702.013 2.9031.182 4.1895.317 2.4162 1.062 4.3693 2.397 5.8407 1.817 2.0014 4.565 2.3401 10.45 1.9335 3.757-.2592 6.762-2.654 7.333-6.118.41-2.4684.544-5.4113.499-8.4601-.019-1.2735-1.024-2.2936-2.272-2.3467Zm-16.21 1.0687 16.068-.3583c.928-.021 1.693.7166 1.707 1.6468.044 3.0097-.088 5.9147-.489 8.3326-.514 3.1174-3.236 5.2866-6.684 5.5246l-1.141.0711c-4.876.2676-7.242-.1261-8.739-1.7747-1.224-1.3487-1.919-3.1695-2.218-5.4535-.164-1.2453-.203-2.3519-.176-4.0926l.038-1.9913c.001-.0765.001-.1506.001-.2321 0-.9005.734-1.6529 1.633-1.6726Z"/>
  <path fill="#012841" d="M204.558 82.3239c.391-.0085.715.3037.723.6973.049 2.2367-1.514 4.1214-3.542 4.1664-2.03.0451-3.673-1.7685-3.721-4.0057-.009-.3936.301-.7196.692-.7281.391-.0085.715.3037.723.6973.032 1.4894 1.073 2.6378 2.274 2.6111 1.201-.0266 2.191-1.2206 2.159-2.7102-.008-.3936.302-.7196.692-.7281Z"/>
  <path fill="#FFFFFF" d="m218.532 77.8436 18.191-.4046c.732 2.6619.31 13.0291-2.763 15.3179-4.133 2.2991-12.602 1.5318-13.965-.6868-2.065-3.3652-2.947-9.8536-2.974-12.6544-.007-.854.663-1.5527 1.511-1.5721Z" clip-rule="evenodd"/>
  <path fill="#012841" d="m236.715 77.0828-18.191.4047c-1.041.0239-1.865.8822-1.856 1.9312.038 3.9674 1.238 9.923 3.027 12.8385 1.55 2.5244 10.333 3.0938 14.436.8113 2.784-2.0695 3.997-11.855 2.933-15.7247-.043-.157-.187-.2645-.349-.261Zm-.267.7175.04.1764c.797 3.8936-.382 12.7391-2.738 14.4938-3.772 2.0949-12.14 1.5525-13.454-.5878-1.708-2.7839-2.884-8.6216-2.921-12.4705-.006-.6596.511-1.1977 1.165-1.2127l17.908-.3992Z"/>
  <path fill="#012841" d="M227.264 81.8185c.391-.0085.714.3037.723.6973.048 2.2373-1.514 4.1215-3.543 4.1665-2.029.045-3.673-1.7691-3.721-4.0057-.008-.3937.302-.7197.693-.7282.391-.0085.714.3037.723.6973.032 1.4889 1.073 2.6378 2.274 2.6111 1.201-.0266 2.19-1.2199 2.158-2.7101-.008-.3936.302-.7197.693-.7282ZM191.737 77.6626l19.928.0821c.586.0024 1.06.483 1.057 1.0733-.002.5511-.418 1.003-.95 1.0588l-.115.0058-19.929-.0821c-.586-.0024-1.059-.4829-1.057-1.0733.002-.551.418-1.003.95-1.0588l.116-.0058ZM236.843 76.7712c.586-.0213 1.078.4397 1.099 1.0297.02.5506-.377 1.019-.907 1.0964l-.115.0105-19.513.7106c-.586.0214-1.078-.4396-1.099-1.0296-.02-.5507.377-1.0191.907-1.0964l.115-.0105 19.513-.7107Z"/>
  <path fill="#FFC999" d="M183.648 79.584c-2.017-2.1663-5.193-2.8127-7.491-.3956-3.7 3.8967-.59 18.6786 9.194 19.4698 3.73-.4523 1.445-15.6926-1.703-19.0742ZM275.409 249.826s6.358 22.867 26.456 18.665c13.725-2.871 27.099-74.952 28.158-83.325.756-5.985-17.161-6.969-17.161-6.969l-37.453 71.629Z" clip-rule="evenodd"/>
  <path fill="#FFC999" d="M312.62 179.273s.707-4.03 2.12-12.091c1.414-8.059 16.745-25.605 17.738-26.492 3.388-3.021 6.139 1.199-1.057 12.066 8.842-2.61 14.329-6.748 17.391-12.438 3.061-5.688 9.26-1.681 7.341 7.46-1.922 9.142-2.254 16.544-8.112 23.331-8.391 9.718-15.388 12.926-19.334 14.621-3.208 1.378-13.554-.093-16.087-6.457Z" clip-rule="evenodd"/>
  <path fill="#BAE1F9" d="m175.885 638.35 40.865-279.087 2.644-.594 21.713 278.22s22.932 6.682 34.981-.708c.12-54.298-2.929-230.47-8.82-310.978-.949-12.962-5.02-30.563-5.844-35.457-36.786-6.014-86.855 2.835-86.855 2.835l-33.887 341.753s18.232 9.619 35.203 4.016Z" clip-rule="evenodd"/>
  <path fill="#1890FF" d="M238.061 347.752c.262-.132.581-.024.711.241.116.235.044.514-.158.666l-.081.05-22.078 11.045c-.262.131-.581.024-.711-.241-.116-.235-.045-.514.157-.666l.082-.05 22.078-11.045Z"/>
  <path fill="#BAE1F9" d="M175.05 283.469s46.747-7.273 85.688-.665c.343 3.471.703 7.744.703 7.744s-31.521-7.578-86.542 3.306c.09-9.425.151-10.385.151-10.385Z" clip-rule="evenodd"/>
  <path fill="#1890FF" d="M191.067 293.254c16.863-1.463 34.098-2.081 50.19-1.371 6.828.301 13.272.84 19.271 1.637.29.039.495.307.457.6-.039.293-.305.499-.596.46-5.966-.793-12.38-1.329-19.179-1.629-16.039-.707-33.231-.091-50.051 1.369-3.535.306-6.817.631-9.798.96l-1.596.179c-.679.077-1.311.152-1.897.222l-2.332.295c-.29.039-.557-.166-.597-.458-.039-.293.165-.562.455-.602l1.502-.192 1.762-.213.987-.115c3.401-.389 7.236-.778 11.422-1.142Z"/>
  <path fill="#012841" d="M190.788 281.275c16.87-1.464 34.111-2.082 50.211-1.372 6.835.301 13.286.84 19.291 1.638.406.053.692.428.638.837-.053.409-.426.697-.831.643-5.961-.792-12.369-1.328-19.163-1.627-15.433-.68-31.937-.134-48.149 1.21l-1.869.159c-3.855.334-7.409.691-10.6 1.049l-1.773.203-2.376.29-.866.113c-.405.055-.779-.231-.834-.64-.055-.408.23-.784.635-.84l1.109-.143c.645-.082 1.366-.169 2.16-.263l.987-.114c3.404-.39 7.241-.779 11.43-1.143Z"/>
  <path fill="#1890FF" d="M221.941 282.081c.264 0 .483.194.524.448l.007.087-.012 3.883c-.015 2.953-.042 6.229-.084 9.746-.121 9.988-.339 19.964-.678 29.277l-.105 2.743c-.43 10.825-1.008 19.905-1.755 26.718-.032.294-.295.506-.586.473-.291-.032-.501-.296-.469-.59l.178-1.698c.718-7.166 1.271-16.571 1.676-27.685.315-8.639.525-17.851.65-27.113l.059-4.958c.018-1.842.033-3.606.043-5.278l.022-5.513c0-.3.237-.54.53-.54Z"/>
  <path fill="#FFFFFF" d="M231.049 285.887c.03 1.329-.778 2.426-1.806 2.45-1.025.023-1.882-1.036-1.913-2.365-.029-1.33.779-2.426 1.805-2.45 1.026-.024 1.883 1.036 1.914 2.365Z" clip-rule="evenodd"/>
  <path fill="#DD936F" d="M330.924 152.566c.104-.276.41-.415.684-.31.244.093.38.347.335.596l-.026.093-2.095 5.571.001.034c.009.725-.004 1.668-.054 2.761l-.02.417c-.101 1.921-.295 3.82-.606 5.6-.833 4.779-2.355 8.009-4.853 8.972-.274.106-.58-.032-.685-.308-.105-.275.032-.584.306-.69 2.025-.782 3.414-3.729 4.187-8.159.302-1.733.492-3.591.591-5.472l.036-.803c.025-.646.037-1.23.039-1.737l-.004-.696.034-.201 2.13-5.668ZM352.305 155.832c.81-.175 1.548.129 2.098.922.168.242.11.575-.131.744-.24.169-.571.11-.739-.132-.308-.445-.619-.573-1.006-.489-.444.096-.978.47-1.527 1.037-.162.168-.318.344-.465.523l-.215.27c-.123.162-.211.286-.217.285l-.108.217c-.033.062-.072.134-.116.215-.183.332-.403.7-.663 1.096-.741 1.128-1.651 2.255-2.739 3.307-1.935 1.873-4.219 3.302-6.868 4.109-.281.085-.577-.075-.662-.357-.084-.283.074-.581.355-.666 2.478-.755 4.619-2.095 6.44-3.856 1.028-.995 1.889-2.061 2.588-3.126.184-.279.345-.543.486-.787l.134-.237c.1-.182.164-.309.232-.44l.149-.213c.043-.059.093-.126.148-.199.231-.302.487-.604.761-.887.683-.705 1.369-1.186 2.065-1.336ZM352.515 148.902c1.453-.667 2.62-.027 3.034 2.005.059.289-.125.572-.413.631-.287.06-.567-.127-.626-.416-.28-1.373-.736-1.623-1.554-1.247-.378.173-.801.478-1.238.877-.266.242-.521.504-.754.765l-.204.234c-.033.04-.058.07-.073.089-2.743 3.801-5.351 6.352-7.742 7.885-1.468.94-2.558 1.329-3.185 1.401-.291.033-.554-.177-.587-.471-.03-.264.136-.504.382-.574l.199-.037c.12-.026.304-.078.549-.165.595-.212 1.289-.554 2.072-1.056 2.274-1.458 4.785-3.915 7.467-7.63l.1-.123c.062-.073.14-.164.232-.268.256-.287.536-.574.832-.843.511-.466 1.016-.831 1.509-1.057ZM353.638 141.712c.827-.147 1.618.146 2.375.875.212.203.22.542.017.755-.202.214-.538.221-.75.018-.528-.508-.988-.679-1.457-.595-.65.116-1.394.704-2.432 1.899l-.198.231c-.239.282-2.589 3.245-3.559 4.37l-.098.113c-.307.35-.61.682-.914 1.002-1.906 2.008-3.813 3.546-5.632 4.676-.534.332-1.029.608-1.479.834l-.264.13c-.316.151-.544.245-.671.291-.276.1-.58-.045-.679-.322-.099-.278.045-.584.321-.684l.128-.05c.107-.045.257-.111.447-.201.483-.231 1.033-.531 1.64-.907 1.743-1.084 3.58-2.565 5.422-4.505.196-.207.392-.419.589-.638l.296-.334c.876-.998 3.38-4.156 3.645-4.469 1.297-1.532 2.239-2.308 3.253-2.489ZM296.87 208.257c.144-.257.468-.348.723-.203.227.129.323.401.241.64l-.039.088-15.713 28.053c-.144.257-.467.348-.723.203-.227-.129-.323-.401-.241-.64l.04-.088 15.712-28.053Z"/>
  <path fill="#1890FF" d="m211.799 144.236-12.767 17.148-19.385-22.644 6.986-8.917 25.166 14.413Z" clip-rule="evenodd"/>
  <path fill="#012841" d="M212.383 145.155c.366-.138.774.048.911.417l.146.428.145.46c.077.249.16.529.248.841l.275 1.003c.345 1.294.716 2.844 1.109 4.666 1.426 6.606 2.85 15.432 4.178 26.777 1.334 11.394 2.498 24.744 3.444 40.206l.14 2.369c1.28 22.402 1.091 41.641.106 56.185-.027.393-.365.689-.755.662-.39-.026-.684-.366-.658-.759l.101-1.542c.924-14.815 1.033-34.268-.347-56.828l-.169-2.702c-.884-13.847-1.947-25.947-3.151-36.416l-.321-2.727c-1.23-10.194-2.536-18.253-3.842-24.414l-.109-.509c-.494-2.289-.952-4.136-1.362-5.579l-.163-.561c-.052-.173-.101-.332-.147-.478l-.133-.409c-.028-.082-.048-.139-.06-.172-.137-.368.048-.779.414-.918ZM265.407 153.911c.409-.017.755.303.772.715l.029.956c.094 3.997-.01 8.574-.466 12.927-.285 2.715-.692 5.128-1.238 7.17l-.12.433.042.077.047.099c.119.272.229.666.337 1.193.212 1.03.421 2.583.609 4.554l.086.949c.379 4.382.632 10.225.7 16.954.184 18.358-.974 40.516-3.749 64.655l-.143 1.228.191.491.06.162c.242.656.484 1.38.71 2.154.542 1.857.906 3.702 1.009 5.439.172 2.898-.395 5.263-1.921 6.871-.283.298-.753.308-1.048.023-.296-.285-.307-.757-.024-1.055 1.19-1.253 1.663-3.227 1.513-5.75-.095-1.611-.438-3.349-.951-5.108-.173-.59-.355-1.151-.539-1.671l-.138-.382c-.137-.371-.243-.635-.301-.772-.052-.12-.071-.252-.056-.382 2.831-24.155 4.045-46.364 3.914-64.807l-.009-1.081c-.068-6.692-.32-12.496-.694-16.836l-.086-.939c-.183-1.922-.385-3.426-.584-4.393-.051-.247-.101-.453-.147-.613l-.046-.149c-.257-.152-.425-.442-.363-.776l.022-.092c.649-2.117 1.124-4.759 1.443-7.803.416-3.973.534-8.152.475-11.882l-.038-1.603c-.003-.072-.005-.131-.007-.179-.017-.411.3-.759.709-.777ZM229.222 167.181l-.151-.001c-.431-.001-.773.367-.742.8l1.884 26.584c.018.252.162.478.382.6l14.359 7.968c.246.137.548.122.779-.04l11.001-7.671c.18-.125.296-.324.316-.544l.071-.91.058-.911c.025-.434.051-.907.075-1.418l.064-1.454c.193-4.88.243-11.047.075-18.536-.007-.287-.176-.545-.437-.664-3.545-1.608-9.203-2.652-16.21-3.259-2.522-.218-5.072-.366-7.549-.455l-1.539-.048c-.959-.026-1.781-.038-2.436-.041Zm2.441 26.871-1.799-25.373 1.196.022c.627.014 1.326.034 2.084.061 2.454.088 4.98.234 7.475.451l.619.055 1.216.117c5.602.57 10.197 1.452 13.261 2.69l.205.085.025 1.157c.13 6.993.064 12.762-.13 17.339l-.06 1.281c-.018.365-.037.708-.056 1.029l-.097 1.428-10.334 7.207-13.605-7.549Z"/>
  <path fill="#FFC999" d="M183.869 267.292s-11.813-11.166-15.708-10.685c-6.036.744-1.718 12.481-1.718 12.481s-5.104 3.525-1.586 9.467c-2.064 5.866 1.186 8.604 1.186 8.604s-3.29 4.488 1.57 7.992c4.861 3.504 15.734 2.258 13.97-5.33 4.29-4.308.608-8.442.608-8.442s3.095-4.082-.577-8.015c3.147-1.876 3.476-4.895 2.255-6.072Z" clip-rule="evenodd"/>
  <path fill="#DD936F" d="M169.445 266.547c.126-.229.396-.328.634-.246l.087.039 11.706 6.557c.256.144.348.469.205.727-.126.229-.396.328-.634.246l-.087-.039-11.706-6.557c-.256-.143-.348-.469-.205-.727ZM166.081 268.697c.214-.201.55-.19.75.026.2.215.189.554-.025.755l-.16.161c-.067.071-.148.159-.24.264-.311.354-.622.757-.912 1.202-1.557 2.389-1.869 4.837-.208 7.137.109.151.132.348.061.52-1.263 3.049-1.028 5.335.1 6.988.203.297.42.546.635.748.123.117.214.189.256.218.121.081.201.209.226.35l.008.087.061 5.424c.003.295-.232.537-.525.54-.264.003-.485-.188-.528-.442l-.008-.086-.059-5.163-.115-.102c-.21-.191-.445-.446-.683-.768l-.142-.201c-1.244-1.822-1.566-4.268-.464-7.337l.148-.394-.152-.236c-1.545-2.5-1.193-5.137.349-7.629l.153-.241c.319-.49.661-.933 1.003-1.323l.193-.213c.117-.127.212-.223.278-.285ZM171.1 277.905l11.225 2.957c.284.074.453.366.379.652-.066.254-.302.417-.553.398l-.094-.016-11.225-2.956c-.284-.075-.454-.367-.38-.653.066-.254.303-.417.554-.398l.094.016ZM170.869 287.533l10.799 1.762c.289.047.486.321.439.613-.042.262-.267.448-.523.449l-.086-.007-10.799-1.762c-.289-.047-.486-.322-.439-.613.042-.262.267-.449.523-.449l.086.007Z"/>
  <path fill="#FFFFFF" d="M212.884 157.056c.031 1.328-.838 2.427-1.938 2.453-1.1.024-2.016-1.033-2.046-2.362-.029-1.33.838-2.428 1.938-2.453 1.1-.026 2.016 1.031 2.046 2.362ZM216.221 181.464c.031 1.329-.838 2.428-1.938 2.453-1.1.024-2.016-1.033-2.047-2.362-.028-1.33.839-2.427 1.939-2.453 1.1-.025 2.016 1.033 2.046 2.362ZM218.408 207.906c.029 1.329-.838 2.427-1.939 2.453-1.1.024-2.015-1.033-2.046-2.362-.03-1.33.839-2.428 1.939-2.453 1.098-.025 2.015 1.032 2.046 2.362ZM219.363 232.769c.03 1.33-.837 2.428-1.939 2.453-1.1.024-2.014-1.033-2.046-2.362-.028-1.33.839-2.427 1.939-2.453 1.1-.025 2.015 1.033 2.046 2.362ZM219.702 265.675c.03 1.329-.837 2.428-1.939 2.453-1.1.024-2.014-1.033-2.046-2.362-.028-1.33.839-2.427 1.939-2.453 1.1-.025 2.015 1.032 2.046 2.362Z" clip-rule="evenodd"/>
  <path fill="#012841" d="M179.437 138.894c.269-.233.663-.226.924.001l.074.075 18.196 21.325 12.792-15.187c.23-.273.62-.328.913-.145l.085.063c.271.231.326.624.144.919l-.062.085-13.329 15.824c-.258.307-.709.334-1.001.08l-.075-.076-18.737-21.959c-.254-.298-.221-.748.076-1.005Z"/>
  <path fill="#012841" d="M233.344 139.493c.123-.374.524-.576.895-.452.34.113.537.462.473.807l-.024.094-6.841 20.76c-.156.473-.726.634-1.102.342l-.077-.07-14.688-15.186c-.273-.282-.267-.733.013-1.008.252-.247.64-.267.914-.063l.087.076 13.875 14.346 6.475-19.646Z"/>
  <path fill="#1890FF" d="M233.634 292.306c.289-.046.561.154.606.446l.051.351c.041.284.086.616.135.992l.119.953c.098.822.196 1.711.288 2.658.563 5.758.773 11.674.427 17.205l-.065.945c-.935 12.49-4.657 20.407-12.109 21.479-.29.042-.559-.161-.6-.453-.042-.292.16-.563.45-.605 6.952-1 10.477-8.859 11.265-21.433.342-5.466.133-11.328-.424-17.033l-.112-1.099c-.076-.713-.154-1.386-.233-2.015l-.128-.987-.113-.794c-.045-.291.153-.565.443-.61Z"/>
  <path fill="#012841" d="M147.844 158.144c.206-.357.66-.477 1.014-.27l.137.084c.134.084.316.205.543.365.519.365 1.095.813 1.714 1.345 1.758 1.514 3.513 3.411 5.15 5.719 6.372 8.989 9.169 21.371 6.406 37.573-.07.406-.453.679-.856.609-.404-.07-.675-.456-.605-.862 2.696-15.809-.01-27.788-6.152-36.452-1.563-2.206-3.237-4.014-4.906-5.452-.485-.417-.939-.777-1.355-1.081l-.245-.176c-.283-.199-.48-.325-.577-.382-.354-.207-.474-.664-.268-1.02Z"/>
  <path fill="#DD936F" d="M108.145 218.275c.294-.286.763-.279 1.048.017l.282.284c.124.124.279.275.464.452l.558.525c.486.452 1.025.936 1.614 1.446 2.362 2.044 5.043 4.088 7.989 5.996 8.511 5.51 17.46 8.778 26.404 8.69.409-.004.744.327.749.739.003.413-.325.75-.734.754-9.274.091-18.487-3.273-27.22-8.928-3.008-1.947-5.743-4.032-8.154-6.119l-.699-.613c-.45-.401-.866-.782-1.248-1.142l-.443-.423-.627-.622c-.285-.296-.277-.769.017-1.056ZM178.81 81.1581c.108-.2744.416-.4086.689-.2997l.187.0819c.112.0519.248.1204.404.2057.43.2349.86.5203 1.262.8593 1.474 1.2391 2.217 2.8514 1.777 4.8114-.167.7433-.503 1.1419-1.131 1.5241l-.271.1562c-.539.3011-.672.4497-.719.9134-.09.8863.313 1.5462 1.084 2.0499.258.1685.537.3049.817.4106l.179.0633c.078.0258.138.0429.176.052.285.0683.461.3565.393.6437-.068.2872-.354.4646-.639.3962-.388-.093-.943-.3025-1.504-.6691-1.076-.7034-1.697-1.7204-1.562-3.0548.083-.8282.402-1.2306 1.103-1.6495l.261-.1492c.497-.28.676-.4688.778-.9229.341-1.5177-.228-2.7504-1.422-3.7549-.345-.2901-.717-.5371-1.088-.7402l-.238-.1242c-.104-.0518-.186-.0882-.239-.1093-.272-.1088-.405-.4195-.297-.6939Z"/>
  <path fill="#1890FF" d="M243.475 356.83c.293-.021.547.201.567.495.019.265-.158.499-.407.558l-.085.013-17.509 1.239c-.292.021-.546-.201-.567-.496-.018-.265.158-.498.407-.557l.086-.013 17.508-1.239Z"/>
</svg>
