<svg xmlns="http://www.w3.org/2000/svg" width="600" height="460">
  <path stroke="#F0F0F0" stroke-linecap="square" stroke-width="4" d="M2.02466 421H602.025"/>
  <path fill="#F0F0F0" opacity=".6" d="M260 380c104.934 0 190-85.066 190-190C450 85.0659 364.934 0 260 0S70 85.0659 70 190c0 104.934 85.066 190 190 190Z"/>
  <path fill="#012841" d="M532.007 109.732H397.326v-9.264c0-2.0096 1.64-3.639 3.663-3.639h127.355c2.023 0 3.663 1.6294 3.663 3.639v9.264Z"/>
  <path fill="#FFFFFF" d="M406.77 102.887c0 1.261-1.023 2.284-2.285 2.284-1.262 0-2.284-1.023-2.284-2.284s1.022-2.284 2.284-2.284c1.262 0 2.285 1.023 2.285 2.284ZM415.3 102.887c0 1.261-1.023 2.284-2.285 2.284-1.261 0-2.284-1.023-2.284-2.284s1.023-2.284 2.284-2.284c1.262 0 2.285 1.023 2.285 2.284ZM423.831 102.887c0 1.261-1.023 2.284-2.285 2.284-1.262 0-2.285-1.023-2.285-2.284s1.023-2.284 2.285-2.284c1.262 0 2.285 1.023 2.285 2.284Z"/>
  <path fill="#8CCDF6" d="M401.405 198.755c-2.252 0-4.079-1.627-4.079-3.634v-86.53h134.688v86.53c0 2.007-1.826 3.634-4.08 3.634H401.405Z"/>
  <path fill="#FFFFFF" d="M521.355 116.037h-77.991c-.898 0-1.626.726-1.626 1.621v72.571c0 .895.728 1.621 1.626 1.621h77.991c.897 0 1.625-.726 1.625-1.621v-72.571c0-.895-.728-1.621-1.625-1.621ZM434.155 115.901h-26.538c-.897 0-1.625.726-1.625 1.622v72.57c0 .896.728 1.622 1.625 1.622h26.538c.898 0 1.626-.726 1.626-1.622v-72.57c0-.896-.728-1.622-1.626-1.622Z"/>
  <path fill="#BAE1F9" d="M428.307 145.685h-14.892c-.51 0-.924.413-.924.921v2.278c0 .509.414.921.924.921h14.892c.51 0 .923-.412.923-.921v-2.278c0-.508-.413-.921-.923-.921Z"/>
  <path fill="#FF7946" d="M428.321 153.673h-14.92c-.503 0-.91.406-.91.907v2.181c0 .501.407.907.91.907h14.92c.502 0 .909-.406.909-.907v-2.181c0-.501-.407-.907-.909-.907Z"/>
  <path fill="#FFB200" d="M428.321 161.525h-14.92c-.503 0-.91.406-.91.907v2.181c0 .501.407.907.91.907h14.92c.502 0 .909-.406.909-.907v-2.181c0-.501-.407-.907-.909-.907Z"/>
  <path fill="#1890FF" d="M428.321 169.377h-14.92c-.503 0-.91.406-.91.907v2.181c0 .501.407.907.91.907h14.92c.502 0 .909-.406.909-.907v-2.181c0-.501-.407-.907-.909-.907Z"/>
  <path fill="#BAE1F9" d="M497.524 150.965h-46.578c-.598 0-1.084.484-1.084 1.081v.004c0 .597.486 1.081 1.084 1.081h46.578c.598 0 1.084-.484 1.084-1.081v-.004c0-.597-.486-1.081-1.084-1.081ZM497.524 162.066h-46.578c-.598 0-1.084.484-1.084 1.081v.004c0 .597.486 1.081 1.084 1.081h46.578c.598 0 1.084-.484 1.084-1.081v-.004c0-.597-.486-1.081-1.084-1.081ZM513.772 156.38h-62.826c-.598 0-1.084.484-1.084 1.081v.004c0 .597.486 1.081 1.084 1.081h62.826c.599 0 1.084-.484 1.084-1.081v-.004c0-.597-.485-1.081-1.084-1.081Z"/>
  <path fill="#FFB200" d="M476.4 169.106h-23.286c-1.796 0-3.252 1.452-3.252 3.243v8.948c0 1.791 1.456 3.243 3.252 3.243H476.4c1.796 0 3.251-1.452 3.251-3.243v-8.948c0-1.791-1.455-3.243-3.251-3.243Z"/>
  <path fill="#1890FF" d="M512.689 123.347H452.03c-1.197 0-2.168.968-2.168 2.162v20.045c0 1.194.971 2.162 2.168 2.162h60.659c1.197 0 2.167-.968 2.167-2.162v-20.045c0-1.194-.97-2.162-2.167-2.162Z"/>
  <path fill="#FF7946" d="M511.605 169.106h-23.287c-1.795 0-3.251 1.452-3.251 3.243v8.948c0 1.791 1.456 3.243 3.251 3.243h23.287c1.795 0 3.251-1.452 3.251-3.243v-8.948c0-1.791-1.456-3.243-3.251-3.243Z"/>
  <path fill="#FFB200" d="M420.86 137.377c4.129 0 7.477-3.377 7.477-7.543s-3.348-7.542-7.477-7.542c-4.13 0-7.477 3.376-7.477 7.542s3.347 7.543 7.477 7.543Z"/>
  <path fill="#012841" d="M420.86 137.377c2.155.001 4.2-.959 5.587-2.624-1.093-2.092-3.244-3.402-5.588-3.402s-4.496 1.31-5.588 3.402c1.387 1.665 3.433 2.625 5.589 2.624Z"/>
  <path fill="#012841" d="M420.9 131.652c1.553 0 2.812-1.271 2.812-2.837 0-1.567-1.259-2.837-2.812-2.837s-2.813 1.27-2.813 2.837c0 1.566 1.26 2.837 2.813 2.837Z"/>
  <path fill="#FAAD14" d="M488.047 96.8441c0 23.8369 19.454 43.1609 43.453 43.1609 23.998 0 43.453-19.324 43.453-43.1609 0-23.8371-19.455-43.1609-43.453-43.1609-23.999 0-43.453 19.3238-43.453 43.1609Z"/>
  <path fill="#FFFFFF" d="M522.239 84.2626c0-5.0786 4.143-9.1957 9.254-9.1957s9.254 4.1171 9.254 9.1957v4.6078h4.627v-4.605c0-7.6141-6.212-13.7864-13.874-13.7864-7.662 0-13.874 6.1723-13.874 13.7864v4.605h4.613v-4.6078Z"/>
  <path fill="#FFFFFF" d="M551.493 116.746h-39.866c-.953 0-1.733-.774-1.733-1.719V89.8113c0-.9456.78-1.7193 1.733-1.7193h39.866c.954 0 1.734.7737 1.734 1.7193v25.2157c0 .945-.78 1.719-1.734 1.719Z"/>
  <path fill="#FAAD14" d="M531.621 96.0048c.924 0 1.673.7238 1.673 1.6168v5.3164c.95.565 1.586 1.598 1.586 2.778 0 1.788-1.459 3.237-3.259 3.237-1.8 0-3.259-1.449-3.259-3.237 0-1.18.635-2.213 1.585-2.778v-5.3164c0-.8825.732-1.5998 1.641-1.6165l.033-.0003Z"/>
  <path fill="#5B8C00" d="M462.611 270.701c20.158-9.51 32.172 15.432 22.034 29.32-12.371 16.946-18.709 36.446-22.238 42.321-2.977 4.957-11.132 17.039-20.952 11.47-9.037-5.125-4.112-25.241-4.112-25.241s.4-46.137 25.268-57.87ZM401.978 349.939c-6.853-9.222-9.355-22.456-1.706-25.85 7.334-3.253 19.482 4.758 25.109 20.176 5.627 15.418 8.873 26.503 3.369 28.43-9.03 3.162-17.72-10.575-26.772-22.756Z"/>
  <path fill="#53C518" d="M474.026 350.639c-7.752 9.061-18.937 27.286-25.944 20.903-4.247-3.868 1.43-22.189 16.971-32.157 13.22-8.478 16.724 2.194 8.973 11.254ZM399.854 287.766c2.947-1.978 6.655-2.429 10.039-1.348 4.722 1.508 11.887 6 18.979 18.892 9.26 16.832 14.08 35.285 13.127 46.974-.623 7.644-10.065 10.939-15.346 5.366-2.426-2.56-4.993-6.506-7.504-12.492-10.106-24.088-19.555-39.183-20.681-40.698-3.007-4.045-5.156-12.303 1.386-16.694Z"/>
  <path fill="#FFFFFF" d="M406.632 297.374c.1 1.19-.786 2.235-1.978 2.334-1.193.1-2.24-.783-2.341-1.972-.1-1.19.786-2.235 1.979-2.334 1.192-.1 2.239.783 2.34 1.972ZM425.034 306.601c.101 1.189-.785 2.234-1.978 2.334-1.192.1-2.24-.783-2.34-1.973-.1-1.189.786-2.234 1.978-2.334 1.193-.1 2.24.784 2.34 1.973ZM421.95 331.167c.115 1.362-.9 2.559-2.265 2.673-1.366.115-2.565-.897-2.68-2.259-.115-1.362.9-2.559 2.265-2.673 1.366-.114 2.565.897 2.68 2.259ZM478.474 294.454c0 1.933-1.57 3.5-3.508 3.5s-3.509-1.567-3.509-3.5 1.571-3.5 3.509-3.5 3.508 1.567 3.508 3.5ZM450.227 305.142c0 1.933-1.571 3.5-3.509 3.5s-3.509-1.567-3.509-3.5 1.571-3.5 3.509-3.5 3.509 1.567 3.509 3.5ZM459.375 328.899c0 .808-.656 1.463-1.466 1.463-.81 0-1.467-.655-1.467-1.463s.657-1.463 1.467-1.463 1.466.655 1.466 1.463ZM469.941 347.607c0 1.194-.97 2.161-2.166 2.161-1.197 0-2.167-.967-2.167-2.161 0-1.193.97-2.161 2.167-2.161 1.196 0 2.166.968 2.166 2.161Z"/>
  <path fill="#012841" d="M419.336 352.401c.202-.193.521-.185.714.016l.092.1.07.077c.128.142.275.311.44.508.47.558.992 1.226 1.553 2.001 1.601 2.21 3.199 4.847 4.69 7.906 4.256 8.73 6.808 19.1 6.808 31.07 0 .279-.226.504-.505.504s-.505-.225-.505-.504c0-11.812-2.516-22.032-6.706-30.629-1.465-3.006-3.034-5.593-4.601-7.757-.515-.711-.994-1.327-1.427-1.847l-.081-.097c-.123-.146-.235-.276-.335-.389l-.127-.142c-.047-.051-.079-.086-.097-.105-.193-.201-.185-.52.017-.712ZM457.504 355.928c.167-.223.483-.269.707-.103.224.167.27.482.103.705-1.84 2.459-3.539 5.102-5.1 7.903-3.301 5.923-5.854 12.272-7.748 18.622-.663 2.223-1.196 4.286-1.611 6.136l-.084.38c-.099.453-.185.865-.258 1.235l-.047.242-.084.458c-.046.274-.307.459-.582.413-.275-.046-.461-.306-.414-.581l.028-.162c.024-.131.053-.285.088-.462l.083-.419c.081-.4.176-.842.284-1.324l.091-.404c.406-1.767.916-3.714 1.538-5.799 1.914-6.416 4.493-12.832 7.833-18.825 1.583-2.839 3.305-5.52 5.173-8.015Z"/>
  <path fill="#012841" d="M466.332 293.059c.194.185.208.486.038.688l-.022.024c-.01.011-.032.033-.064.068l-.124.135-.073.08c-.217.242-.47.533-.755.874-.818.976-1.731 2.15-2.715 3.524-2.815 3.932-5.632 8.667-8.263 14.211-4.379 9.23-7.79 19.757-9.858 31.591-2.51 14.371-2.926 30.07-.871 47.108.034.276-.164.527-.441.56-.277.033-.529-.164-.562-.44-2.067-17.136-1.648-32.933.879-47.401 2.083-11.925 5.522-22.539 9.94-31.85 2.657-5.599 5.505-10.385 8.354-14.365l.221-.306c.878-1.214 1.7-2.269 2.448-3.167l.093-.112c.268-.32.51-.599.721-.836l.057-.064c.066-.073.126-.138.178-.194l.105-.113c.193-.201.513-.208.714-.015ZM422.603 322.941c.238-.144.549-.068.694.17l.05.085c.041.068.088.15.143.244l.079.138c.135.238.288.511.455.819l.139.256c.514.954 1.077 2.058 1.678 3.309l.083.171c1.961 4.098 3.921 8.891 5.75 14.336 5.121 15.248 8.237 32.555 8.353 51.607.002.279-.223.506-.502.507-.279.002-.507-.222-.508-.5-.116-18.942-3.213-36.143-8.301-51.293-1.783-5.308-3.69-9.988-5.598-14l-.106-.223c-.653-1.363-1.26-2.552-1.807-3.564l-.165-.302c-.159-.288-.301-.541-.426-.759l-.06-.103-.122-.206c-.144-.238-.068-.548.171-.692Z"/>
  <path fill="#012841" d="M461.485 419.075h-43.669c-2.361 0-4.292-1.927-4.292-4.281v-31.777c0-2.355 1.931-4.281 4.292-4.281h43.669c2.36 0 4.292 1.926 4.292 4.281v31.777c0 2.354-1.932 4.281-4.292 4.281Z"/>
  <path fill="#FFC999" d="m223.962 124.635 5.122-38.1335 34.416 4.3163-.704 36.7772c-.212 11.108-9.681 19.787-20.787 19.054-11.263-.743-19.547-10.846-18.047-22.014ZM272.065 78.3362c2.159-2.0051 5.371-2.4298 7.5.1168 3.429 4.1033-.67 18.5099-10.485 18.6283-3.69-.6999-.383-15.614 2.985-18.7451Z"/>
  <path fill="#DD936F" d="M276.306 80.4677c.29-.0359.555.1703.591.4607.033.2613-.131.5017-.377.5733l-.084.0175c-.081.0099-.256.0544-.495.1564-.415.1775-.835.4587-1.231.8684-.715.7402-1.27 1.8129-1.592 3.287-.084.3824-.05.4786.281.6887l.23.1404c.682.4169 1.02.8521 1.048 1.6696.044 1.2747-.515 2.2471-1.451 2.9244-.526.3812-1.049.5938-1.418.6854-.284.0707-.572-.1022-.643-.3861-.07-.2839.103-.5713.387-.642l.091-.0267c.058-.0188.134-.046.223-.0823.252-.1026.504-.2372.737-.4059.668-.4838 1.044-1.1374 1.014-2.0308-.013-.358-.111-.5193-.429-.7299l-.242-.15c-.768-.4652-1.07-.9423-.865-1.8805.363-1.6612 1.01-2.9113 1.865-3.7969.859-.8888 1.737-1.2638 2.36-1.3407Z"/>
  <path fill="#FFC999" d="M221.581 74.5788c-1.837-2.3039-4.952-3.1977-7.435-.9944-4.001 3.5499-2.089 18.4034 7.599 19.9749 3.755-.1465 2.703-15.3862-.164-18.9805Z"/>
  <path fill="#DD936F" d="M217.09 75.7813c.474.1316 1.135.5025 1.782 1.2311.914 1.0289 1.504 2.5017 1.634 4.4771.059.9061-.262 1.3302-1 1.67l-.3.1285c-.417.1782-.559.3172-.63.7027-.172.9272.144 1.6586.798 2.2492.194.1744.402.322.611.4422l.157.0858c.044.0221.077.0376.099.0465.27.1122.399.4222.286.6924-.112.2702-.422.3983-.693.2862-.306-.1269-.738-.3761-1.172-.7672-.907-.8192-1.375-1.903-1.13-3.2276.135-.73.485-1.1175 1.097-1.4122l.315-.1373c.473-.197.531-.2622.503-.6902-.115-1.7456-.616-2.9946-1.369-3.8434-.294-.3304-.605-.5754-.913-.748-.105-.0592-.193-.1012-.259-.1287l-.101-.0365c-.282-.0785-.447-.3706-.368-.6525.07-.2505.309-.4086.559-.3854l.094.0173Z"/>
  <path fill="#FFC999" d="M272.368 82.2754c-1.967 26.3466-12.922 36.6396-28.461 35.4826-14.36-1.07-24.717-14.653-23.368-40.1763 1.029-19.4732 6.84-33.1562 29.04-31.5019 23.309 1.7343 24.242 16.7505 22.789 36.1956Z"/>
  <path fill="#DD936F" d="M231.254 112.393c.189-.224.523-.253.748-.065 3.273 2.74 8.104 4.477 12.996 4.841 5.165.384 9.014-.478 13.002-2.891.25-.151.577-.071.729.179.152.25.072.576-.179.728-4.182 2.529-8.251 3.441-13.631 3.04-5.101-.379-10.143-2.191-13.599-5.085-.225-.188-.254-.522-.066-.747Z"/>
  <path fill="#012841" d="M225.171 68.8267c-2.319 2.8499-3.49 7.6768-4.039 10.8671-.075.4409-.717.4158-.756-.0311-.444-5.0355-.851-17.3542 1.265-24.2808 3.323-10.8938 17.295-18.9745 25.235-18.8014 3.23.0695 8.763.7221 14.217 6.1408 5.7 5.6644 9.382 5.3537 12.965 13.2199 2.44 5.3611-.228 19.8298-1.521 26.7209-.099.5268-.869.4868-.909-.0474-.243-3.2524-.886-7.7434-2.575-10.1035-.209-4.312-.748-12.4016-.748-12.4016-9.403-2.9979-30.678-3.9553-41.794-2.6931l-1.34 11.4102Z"/>
  <path fill="#012841" d="M253.399 70.1907c3.486-.6129 7.475-.6972 11.715.0834.806.1482 1.338.9198 1.189 1.7235-.148.8036-.921 1.335-1.726 1.1868-3.865-.7114-7.505-.6345-10.664-.0791-.422.0742-.804.1523-1.143.2306l-.374.0908-.314.086c-.783.2417-1.613-.1952-1.855-.9758-.242-.7807.195-1.6095.978-1.8512l.262-.0762c.44-.1211 1.092-.2712 1.932-.4188Z"/>
  <path fill="#DD936F" d="M241.664 71.4501c.236-.1108.512-.0333.658.1712l.048.0825 2.348 4.9793c.027.0564.043.1169.049.1786v.093l-1.399 16.0011 4.462.3454c.263.0203.466.2287.488.4828v.0862c-.021.2626-.229.4655-.484.487l-.086.0003-4.996-.3862c-.265-.0205-.469-.2315-.488-.4874v-.0868l1.432-16.3928-2.286-4.8493c-.111-.2353-.033-.5108.171-.6566l.083-.0483Z"/>
  <path fill="#012841" d="M228.018 67.4854c1.277-.1228 2.758-.0556 4.412.1681 1.376.1861 2.83.4751 4.316.8389.754.1844 1.479.3792 2.162.5763l.916.2734.659.2101c.776.2611 1.193 1.1005.931 1.8749s-1.102 1.1906-1.878.9296l-.652-.207-.323-.0981c-.781-.2334-1.631-.467-2.521-.6849-1.391-.3407-2.746-.6098-4.008-.7806-1.446-.1955-2.71-.2529-3.73-.1549-.815.0784-1.539-.5175-1.617-1.331-.079-.8135.518-1.5364 1.333-1.6148ZM241.741 76.706l9.158.6807c.585.0434 1.024.5517.98 1.1352-.041.5446-.487.9623-1.022.9802l-.115-.0023-9.159-.6807c-.584-.0434-1.023-.5517-.979-1.1352.04-.5446.487-.9623 1.021-.9803l.116.0024ZM242.199 81.0293c2.348-.9612 4.641-.7806 6.687.0951.646.2763 1.123.5586 1.404.7647.473.3461.575 1.0091.228 1.4809-.346.4719-1.011.5738-1.483.2278-.16-.1166-.5-.3182-.985-.5258-1.563-.6687-3.282-.8042-5.046-.0823-.542.2221-1.162-.0368-1.384-.5781-.223-.5414.036-1.1603.579-1.3823Z"/>
  <path fill="#FFFFFF" d="m241.046 75.9424-16.007-1.4427c-1.118-.1006-2.105.7191-2.197 1.8348-.174 2.082-.359 5.4306-.076 8.3353.335 3.4271 3.183 5.7636 6.601 6.2312 4.27.5845 8.118.9352 10.263-1.1098 3.27-3.1163 3.05-8.7526 3.253-11.7076.074-1.0861-.753-2.0435-1.837-2.1412Z"/>
  <path fill="#012841" d="m241.078 75.5911-16.008-1.4427-.165-.0095-.147.0015c-1.181.0464-2.169.9604-2.269 2.1654-.25 3.0073-.315 5.9296-.075 8.3984.339 3.4657 3.174 6.0362 6.905 6.5466l1.154.1502c5.064.6218 7.587.3748 9.401-1.3544 1.491-1.4208 2.378-3.3973 2.844-5.9034l.072-.4038c.157-.9207.237-1.7197.311-3.0034l.126-2.5081c.003-.0407.006-.0805.008-.12.087-1.2759-.881-2.4017-2.157-2.5168Zm-16.216-.7467.124.0058 16.028 1.4439c.895.0806 1.577.8737 1.516 1.7657l-.048.8629-.056 1.1861c-.092 1.8184-.179 2.6986-.404 3.9056-.441 2.3731-1.268 4.2185-2.636 5.5217-1.724 1.6432-4.352 1.7846-9.971 1.0154-3.424-.4684-5.992-2.7968-6.297-5.9157-.236-2.418-.171-5.3029.076-8.2718.072-.87.805-1.5239 1.668-1.5196Z"/>
  <path fill="#012841" d="m222.953 73.8829 19.888 1.2681c.585.0373 1.029.5409.991 1.1249-.035.545-.476.9673-1.011.9909l-.116-.0012-19.888-1.2681c-.585-.0373-1.029-.5409-.991-1.1248.034-.5451.476-.9674 1.011-.991l.116.0012Z"/>
  <path fill="#5C4E4A" d="M234.142 78.5483c1.684.1261 2.833 1.8901 2.685 3.8663-.031.4075-.386.7132-.795.6827-.408-.0304-.714-.3854-.684-.7929.093-1.2354-.55-2.2231-1.317-2.2805-.768-.0574-1.552.8249-1.644 2.0607-.031.4075-.386.7132-.794.6827-.409-.0304-.715-.3854-.684-.7928.143-1.911 1.455-3.4467 3.065-3.4332l.168.007Z"/>
  <path fill="#FFFFFF" d="m268.239 77.9673-16.007-1.4427c-1.118-.1006-2.105.7177-2.197 1.8349-.173 2.0819-.357 5.4306-.074 8.3353.335 3.427 3.183 5.7635 6.601 6.2311 4.27.5845 8.116.9352 10.263-1.1098 3.27-3.1163 3.049-8.7526 3.251-11.7076.076-1.0861-.752-2.0435-1.837-2.1412Z"/>
  <path fill="#012841" d="m268.271 77.6157-16.007-1.4427-.167-.0098-.146.0018c-1.181.0462-2.169.9595-2.268 2.1654-.25 2.9983-.315 5.928-.074 8.3984.339 3.4657 3.174 6.0362 6.905 6.5466l.778.1031c5.316.68 7.918.4641 9.777-1.3073 1.491-1.4209 2.378-3.3975 2.843-5.9034l.072-.4043c.168-.9875.249-1.8359.326-3.2892l.103-2.0979c.005-.0852.01-.1654.016-.2441.088-1.2756-.88-2.4015-2.158-2.5166Zm-16.216-.7467.158.0079 15.994 1.4418c.897.0806 1.578.8735 1.516 1.7652l-.039.687-.079 1.6537c-.087 1.623-.176 2.4735-.388 3.6144-.441 2.3729-1.269 4.2185-2.636 5.5217-1.725 1.6432-4.353 1.7846-9.971 1.0154-3.425-.4684-5.992-2.7968-6.297-5.9158-.236-2.4196-.172-5.3117.074-8.2717.072-.8709.805-1.524 1.668-1.5196Z"/>
  <path fill="#5C4E4A" d="M258.837 80.3867c1.685.126 2.833 1.8895 2.687 3.867-.03.4075-.385.7135-.794.6835-.408-.03-.714-.3847-.684-.7922.091-1.2374-.552-2.2253-1.319-2.2827-.768-.0574-1.55.8244-1.643 2.0607-.03.4075-.386.7131-.794.6827-.408-.0304-.715-.3854-.684-.7929.143-1.9112 1.454-3.4466 3.064-3.4331l.167.007Z"/>
  <path fill="#012841" d="m250.146 75.9079 19.888 1.2681c.585.0373 1.029.5409.991 1.1249-.034.545-.476.9674-1.011.9909l-.116-.0011-19.888-1.2681c-.585-.0373-1.029-.541-.991-1.1249.035-.545.476-.9674 1.011-.991l.116.0012Z"/>
  <path fill="#FFFFFF" d="M253.444 97.4877c-8.112.1317-15.539-1.1571-15.539-1.1571s1.494 5.0474 7.531 5.4974c6.036.448 8.008-4.3403 8.008-4.3403Z"/>
  <path fill="#FF7946" d="M237.194 96.5401c.234.7892.8 1.9219 1.827 3.0518 1.527 1.6821 3.629 2.7701 6.36 2.9731 2.961.22 5.284-.698 7.002-2.362.927-.8983 1.486-1.8013 1.746-2.4341.203-.4917-.165-1.0297-.697-1.0211-3.661.0595-7.453-.1626-11.129-.5694-1.144-.1266-2.192-.2622-3.121-.3977l-1.15-.1792c-.541-.0939-.993.4125-.838.9386Zm2.064.9133-.107-.1824.801.1114c.682.0912 1.413.181 2.188.2667l1.123.1183c2.629.2623 5.304.4278 7.942.4628l.932.0056-.071.0996c-.209.2752-.448.5463-.716.8061-1.423 1.3795-3.337 2.1355-5.859 1.9485-2.338-.174-4.092-1.082-5.372-2.4919-.334-.3678-.62-.7535-.861-1.1447Z"/>
  <path fill="#DD936F" d="M241.921 104.292c.144-.254.468-.343.723-.199l.179.092.093.046c.229.109.49.218.775.321 1.172.421 2.366.589 3.456.369.386-.078.751-.205 1.095-.383.26-.135.581-.034.716.226.135.259.034.579-.227.714-.433.225-.892.384-1.373.481-1.31.265-2.688.071-4.027-.411-.549-.197-.967-.396-1.211-.533-.255-.145-.344-.468-.199-.723Z"/>
  <path fill="#FFC999" d="M390.501 138.142c1.151 10.028-5.664 19.115-15.407 20.542l-82.031 12.002c-11.754 1.719-22.648-6.885-24.036-18.987-1.39-12.102 7.277-22.89 19.123-23.804l82.678-6.381c9.82-.757 18.521 6.6 19.673 16.628Z"/>
  <path fill="#1890FF" d="m353.627 165.736-58.246 7.728c-12.844 1.887-24.7-7.223-26.161-20.099-1.46-12.877-.351-24.479 12.591-25.508l66.136-4.473 5.68 42.352Z"/>
  <path fill="#1890FF" d="m283.773 255.957 16.349-119.72c-2.481-2.526-11.457-8.644-31.544-6.96-6.677.559-22.26 8.839-29.278 8.984-4.747.098-19.239-9.445-23.158-8.585-22.818 4.999-29.496 8.332-41.738 12.22l20.349 110.199s-6.216 20.672 5.467 20.987c90.124 2.423 78.089 1.265 78.089 1.265s11.103-2.203 5.464-18.39Z"/>
  <path fill="#1890FF" d="m223.83 122.924-8.801 6.752 11.13 19.998 14.317-12.711-16.646-14.039Z"/>
  <path fill="#012841" d="M214.662 129.589c.326-.186.733-.097.956.192l.055.084 10.679 18.653 13.637-11.989c.279-.245.691-.243.967-.011l.079.077c.246.279.243.691.01.966l-.077.078-14.318 12.59c-.325.286-.818.23-1.075-.1l-.059-.088-11.13-19.442c-.203-.355-.079-.807.276-1.01Z"/>
  <path fill="#1890FF" d="m262.844 122.924 6.312 7.444-12.945 20.418-16.038-13.83 22.671-14.032Z"/>
  <path fill="#012841" d="M267.835 132.603c.225-.342.684-.437 1.026-.213.312.204.419.602.267.929l-.054.096-11.687 17.776c-.222.338-.669.43-1.004.227l-.088-.063-15.42-12.732-2.387 117.906-.101.732-.092.735c-.046.382-.091.785-.134 1.205-.189 1.855-.309 3.701-.325 5.419-.032 3.362.348 5.833 1.16 6.913.246.327.179.791-.148 1.036-.328.245-.792.179-1.038-.148-1.076-1.431-1.491-4.132-1.457-7.815.017-1.769.14-3.659.334-5.555l.09-.833c.03-.27.061-.53.093-.781l.13-.962c.003-.018.006-.033.008-.045l.006-.027 2.411-119.341c.011-.585.657-.912 1.131-.614l.082.059 15.963 13.181 11.234-17.085Z"/>
  <path fill="#FFFFFF" d="M243.969 154.673c-.179 1.306.56 2.485 1.65 2.633 1.091.148 2.12-.79 2.298-2.095.178-1.307-.562-2.485-1.652-2.634-1.091-.148-2.118.79-2.296 2.096ZM243.663 177.176c-.177 1.306.562 2.484 1.652 2.632 1.091.148 2.118-.788 2.296-2.095.179-1.307-.56-2.484-1.65-2.634-1.091-.148-2.12.792-2.298 2.097ZM242.55 201.997c-.178 1.306.562 2.484 1.652 2.632 1.091.148 2.118-.789 2.297-2.095.178-1.307-.561-2.485-1.651-2.634-1.091-.148-2.118.792-2.298 2.097ZM241.672 251.762c-.178 1.306.561 2.484 1.651 2.632 1.091.149 2.118-.789 2.296-2.095.178-1.307-.56-2.485-1.65-2.634-1.091-.148-2.12.791-2.297 2.097ZM241.438 223.844c-.178 1.305.56 2.484 1.65 2.632 1.091.148 2.12-.79 2.298-2.095.178-1.307-.562-2.485-1.652-2.634-1.091-.148-2.118.791-2.296 2.097Z"/>
  <path fill="#012841" d="m287.63 170.177-27.452-.684c-.399-.01-.734.297-.758.695l-1.302 21.238c-.015.252.099.494.303.643l14.47 10.553c.272.199.645.189.906-.024l11.425-9.317c.146-.119.241-.29.266-.477l2.858-21.792c.057-.435-.276-.824-.716-.835Zm-26.775.812 25.914.645-2.713 20.686-10.755 8.77-13.679-9.977 1.233-20.124Z"/>
  <path fill="#BAE1F9" d="m284.006 282.884-89.558-.928 1.766-10.51 86.594.847 1.198 10.591Z"/>
  <path fill="#BAE1F9" d="M195.178 279.016s-11.928 26.659-10.699 61.205c15.179 9.994 45.68 15.694 45.68 15.694 2.274 1.177 15.894.572 18.199-.427 0 0 41.55-12.648 45.478-18.933-2.231-32.568-9.974-55.155-9.974-55.155"/>
  <path fill="#FFFFFF" d="M242.99 275.98c-.178 1.306.561 2.484 1.652 2.634 1.091.148 2.118-.791 2.296-2.097.178-1.307-.562-2.485-1.651-2.634-1.091-.148-2.119.792-2.297 2.097Z"/>
  <path fill="#FFC999" d="M170.383 273.181c-10.691-1.206-18.497-10.657-17.644-21.363l7.175-90.153c1.028-12.918 12.571-22.418 25.471-20.962 12.9 1.456 22.028 13.288 20.14 26.108l-13.166 89.478c-1.563 10.626-11.286 18.098-21.976 16.892Z"/>
  <path fill="#1890FF" d="M206.872 167.771c1.888-12.822-8.587-26.169-21.487-27.623-12.9-1.456-24.443 8.043-25.471 20.961l-5.406 61.476s41.619 2.594 43.001 2.594l9.363-57.408Z"/>
  <path fill="#BAE1F9" d="M209.478 496.736c-12.825-.052-23.289-10.265-23.627-23.063l-1.328-144.666c-.14-15.12 12.304-27.345 27.448-26.966 14.869.371 26.585 12.767 26.094 27.606l-4.782 144.394c-.534 12.721-11.049 22.746-23.805 22.695Z"/>
  <path fill="#BAE1F9" d="m222.925 655.378 9.43-175.791c.744-13.517-10.101-24.852-23.664-24.732-13.094.118-23.563 10.901-23.273 23.969l3.499 176.26s13.563 7.9 34.008.294ZM284.039 504.665c12.774-1.156 22.315-12.234 21.544-25.013L294.4 335.412c-1.169-15.075-14.622-26.183-29.676-24.501-14.782 1.65-25.383 15.009-23.61 29.75l17.249 143.443c1.63 12.63 12.973 21.711 25.676 20.561Z"/>
  <path fill="#FFC999" d="m307.702 81.4134-18.795-12.5658s-8.913-22.2048-13.414-25.6599c-4.501-3.4537-10.364-2.779-15.315-4.9956-4.95-2.2166-3.844 3.2317 2.336 6.3155 6.181 3.0822 8.695 2.733 10.195 9.0263 1.5 6.2918-.775 28.7363 8.303 32.7315 3.238 2.9713 5.781 5.2397 7.772 6.9695 4.347 3.7748 11.084 3.1977 14.509-1.4249.084-.111.167-.2235.249-.3389 3.532-4.9171 9.53-7.2506 4.16-10.0577Z"/>
  <path fill="#DD936F" d="M256.003 39.0261c-.626-2.1409 1.078-2.99 3.733-1.8005.267.1198.387.4333.266.7002-.12.267-.434.3862-.701.2664-1.948-.8729-2.597-.5495-2.28.5371.443 1.5123 2.374 3.4746 5.069 4.8197l.463.2249c1.553.7414 4.455 2.0207 4.676 2.1268 3.013 1.4453 4.316 2.9768 5.255 6.6923l.082.3336c.235.9868.417 2.3219.627 4.4685l.547 5.9604.126 1.265c.17 1.6389.344 3.0979.544 4.504l.145.9776c1.337 8.6769 3.626 14.0672 7.47 15.7592.268.118.39.4307.272.6984-.119.2677-.432.389-.7.271-4.454-1.9605-6.873-7.9515-8.238-17.5574-.202-1.4202-.378-2.8916-.548-4.5424l-.265-2.7564-.338-3.7347c-.238-2.5416-.429-4.0366-.675-5.0678-.844-3.5356-1.883-4.8838-4.513-6.1936l-.338-.1629c-.6-.2719-3.791-1.6827-5.066-2.3188-2.939-1.4662-5.078-3.6406-5.613-5.4706Z"/>
  <path fill="#012841" d="M296.992 161.812c.407.047.699.413.652.819l-.346 2.962-.287 2.327c-.815 6.143-6.563 46.094-11.534 81.259l-.941 6.665.09.194c2.091 4.649 1.908 9.303.309 13.564l-.141.364c-.295.745-.612 1.413-.929 1.995l-.156.279c-.121.21-.218.367-.285.466-.228.34-.688.43-1.028.203-.34-.228-.431-.687-.203-1.027l.12-.191c.068-.112.152-.258.25-.437.289-.532.58-1.146.853-1.832 1.636-4.129 1.837-8.646-.313-13.145-.063-.132-.085-.278-.065-.422l11.868-83.536c.37-2.637.613-4.4.698-5.078l.332-2.746c.074-.632.152-1.302.235-2.032.043-.372.355-.648.72-.655l.101.004Z"/>
  <path fill="#025D97" d="m244.448 467.888-103.552-2.783c-2.742-.074-4.908-2.354-4.834-5.095l1.957-72.542c.074-2.739 2.359-4.901 5.103-4.827l103.551 2.784c2.744.074 4.908 2.354 4.836 5.094l-1.958 72.542c-.073 2.739-2.357 4.901-5.103 4.827Z"/>
  <path fill="#012841" d="m240.923 467.794-103.552-2.783c-2.742-.074-4.908-2.355-4.834-5.095l1.957-72.542c.074-2.739 2.358-4.901 5.102-4.827l103.552 2.783c2.745.074 4.908 2.355 4.836 5.095l-1.959 72.542c-.072 2.739-2.357 4.901-5.102 4.827Z"/>
  <path fill="#FFC999" d="M192.725 384.39c-3.294 1.086-2.52 3.997-2.945 11.194-.267 4.497.833 10.363-.352 14.068-1.22 3.822-18.834 5.777-22.816-19.442 0 0-3.965-29.343 4.258-35.058 7.448-5.175 20.228 5.061 20.228 5.061s2.416 3.246 7.235 12.219l4.639 11.541-10.247.417Z"/>
  <path fill="#025D97" d="M183.426 385.474c.262-.003.477.206.481.467l.008.357c.007.293.017.633.032 1.016.041 1.097.105 2.319.197 3.635.261 3.76.689 7.519 1.322 11.025.466 2.581 1.027 4.926 1.691 6.978.081.249-.056.516-.305.597-.25.08-.517-.057-.598-.306-.678-2.096-1.249-4.481-1.722-7.101-.639-3.543-1.071-7.336-1.335-11.127l-.072-1.113c-.044-.726-.079-1.418-.107-2.07l-.038-1.03-.022-.848c-.003-.261.206-.476.468-.48ZM177.824 386.991c.262 0 .475.212.475.473.003 2.009.169 4.279.479 6.763.331 2.665.818 5.5 1.418 8.411.356 1.728.734 3.394 1.115 4.957l.191.772c.156.623.301 1.183.43 1.67l.163.599c.07.251-.077.513-.33.583-.252.07-.514-.077-.584-.329l-.166-.61-.341-1.315-.092-.369c-.449-1.792-.897-3.738-1.315-5.767-.605-2.934-1.096-5.793-1.431-8.485-.314-2.52-.482-4.828-.485-6.879-.001-.261.211-.473.473-.474ZM171.58 388.071c.261-.023.491.17.514.431l.089.879c.019.18.041.373.065.577.136 1.17.313 2.484.535 3.914.634 4.085 1.501 8.272 2.633 12.319.071.252-.077.513-.329.584-.252.07-.514-.077-.585-.329-1.143-4.087-2.017-8.31-2.656-12.429l-.181-1.207c-.113-.785-.212-1.529-.298-2.227l-.128-1.1-.091-.899c-.022-.261.171-.49.432-.513Z"/>
  <path fill="#FFC999" d="m190.926 360.518-23.757 1.915-14.027-104.47c-1.351-11.212 6.957-21.277 18.24-22.098 11.284-.822 20.967 7.935 21.259 19.224l-1.715 105.429Z"/>
  <path fill="#025D97" d="M203.446 383.963c.006.261-.202.477-.464.483l-1.677.039c-1.006.026-2.012.055-2.975.086l-2.346.087c-1.504.065-2.613.132-3.203.202-2.645.312-2.895 4.107-1.814 15.707l.282 3.048c.151 1.698.252 3.051.322 4.345.015.261-.186.484-.448.498-.261.014-.485-.186-.499-.447l-.041-.707c-.059-.956-.137-1.971-.239-3.155l-.549-5.976c-.38-4.288-.467-6.289-.344-8.434.203-3.57 1.156-5.576 3.219-5.82l.43-.043c.869-.076 2.289-.147 4.132-.214l1.798-.061 2.576-.071 1.356-.031c.262-.005.479.202.484.464Z"/>
  <path fill="#012841" d="m202.791 177.398.101.004c.373.042.65.353.659.717l-.005.101-5.276 47.173c-.04.359-.332.632-.684.657h-.097l-43.001-2.594c-.408-.025-.72-.375-.695-.783.023-.374.32-.666.684-.693l.101-.001 42.296 2.551 5.199-46.474c.038-.339.299-.598.62-.649l.098-.009ZM351.025 139.312c.374-.036.71.211.794.565l.016.099 2.529 25.687c.036.363-.198.693-.542.786l-.096.02-58.409 7.861c-.406.055-.779-.229-.834-.634-.05-.371.185-.715.537-.812l.099-.02 57.7-7.767-2.459-24.976c-.037-.373.211-.708.566-.792l.099-.017Z"/>
  <path fill="#FFC999" d="m287.538 92.1965 10.293-17.0257 83.319 47.6932c8.923 5.106 11.944 16.952 6.634 26.006-5.31 9.054-16.799 11.645-25.223 5.69l-75.023-62.3635Z"/>
  <path fill="#012841" d="M326.819 125.04c.219-.257.589-.312.87-.143l.09.065 26.077 22.076c.287.242.323.672.079.958-.219.258-.589.312-.87.143l-.09-.064-26.077-22.076c-.287-.243-.322-.672-.079-.959Z"/>
  <path fill="#1890FF" d="M283.862 281.426c.293 0 .53.237.53.53 0 .263-.192.482-.444.523l-.086.007h-89.414c-.293 0-.531-.237-.531-.53 0-.263.193-.482.445-.523l.086-.007h89.414Z"/>
  <path fill="#012841" d="M282.756 270.706c.41 0 .742.331.742.74 0 .374-.279.684-.641.733l-.101.007h-86.542c-.409 0-.741-.332-.741-.74 0-.375.279-.684.64-.733l.101-.007h86.542Z"/>
  <path fill="#1890FF" d="M238.402 271.447c.264 0 .483.192.524.444l.007.086v83.791c0 .292-.238.529-.531.529-.263 0-.482-.192-.523-.443l-.007-.086v-83.791c0-.293.237-.53.53-.53Z"/>
  <path fill="#1890FF" d="M248.345 354.959c.293-.007.536.224.543.517.006.263-.181.486-.432.533l-.086.009-18.2.426c-.293.007-.536-.225-.543-.517-.006-.263.182-.486.433-.533l.086-.009 18.199-.426ZM251.572 282.466c.264 0 .483.192.524.444l.007.086v42.094c0 3.37-1.73 6.499-4.568 8.297l-.269.164-7.667 4.524c-.253.149-.578.065-.727-.187-.133-.224-.081-.505.109-.67l.078-.055 7.667-4.524c2.588-1.526 4.208-4.264 4.31-7.25l.005-.299v-42.094c0-.293.238-.53.531-.53Z"/>
</svg>
