<svg xmlns="http://www.w3.org/2000/svg" width="600" height="460">
  <path stroke="#F0F0F0" stroke-linecap="square" stroke-width="4" d="M2 421h600"/>
  <path fill="#F0F0F0" opacity=".6" d="M260 380c104.934 0 190-85.066 190-190C450 85.0659 364.934 0 260 0S70 85.0659 70 190c0 104.934 85.066 190 190 190Z"/>
  <path fill="#012841" d="M525.117 103.801H404.116V92.8889c0-2.3671 1.907-4.2864 4.259-4.2864h112.484c2.352 0 4.258 1.9193 4.258 4.2864v10.9121Z"/>
  <path fill="#8CCDF6" d="M520.859 208.87H408.375c-2.352 0-4.259-1.919-4.259-4.286V102.523h121.001v102.061c0 2.367-1.906 4.286-4.258 4.286Z"/>
  <path fill="#FFFFFF" d="M413.95 95.6756c0 1.4856-1.197 2.6901-2.673 2.6901s-2.673-1.2045-2.673-2.6901c0-1.4855 1.197-2.69 2.673-2.69s2.673 1.2045 2.673 2.69ZM423.931 95.6756c0 1.4856-1.197 2.6901-2.673 2.6901s-2.672-1.2045-2.672-2.6901c0-1.4855 1.196-2.69 2.672-2.69 1.476 0 2.673 1.2045 2.673 2.69ZM433.912 95.6756c0 1.4856-1.196 2.6901-2.672 2.6901-1.476 0-2.673-1.2045-2.673-2.6901 0-1.4855 1.197-2.69 2.673-2.69s2.672 1.2045 2.672 2.69ZM417.194 194.405c-.734 0-1.329-.599-1.329-1.337v-77.477c0-.738.595-1.336 1.329-1.336h96.167c.734 0 1.329.598 1.329 1.336v77.477c0 .738-.595 1.337-1.329 1.337h-96.167Z"/>
  <path fill="#8CCDF6" d="M450.146 124.398h-24.343c-.997 0-1.812-.821-1.812-1.824 0-1.003.815-1.824 1.812-1.824h24.343c.997 0 1.812.821 1.812 1.824 0 1.003-.815 1.824-1.812 1.824ZM436.072 132.999h-9.061c-1 0-1.812-.817-1.812-1.824 0-1.007.812-1.824 1.812-1.824h9.061c1 0 1.811.817 1.811 1.824 0 1.007-.811 1.824-1.811 1.824Z"/>
  <path fill="#1890FF" d="M466.227 163.383c-2.85 0-5.165-2.334-5.165-5.219-.01-2.867 2.298-5.199 5.155-5.209h.01c2.848 0 5.163 2.333 5.163 5.217-.005 2.877-2.315 5.209-5.163 5.211Zm12.85-7.034c-.1-.569-.643-1.15-1.209-1.275l-.423-.098c-1.026-.312-1.894-1.005-2.428-1.938-.54-.942-.7-2.056-.447-3.113l.132-.4c.17-.554-.05-1.319-.492-1.698 0 0-.396-.338-1.51-.987-1.119-.647-1.598-.827-1.598-.827-.544-.202-1.305-.009-1.703.417l-.293.317c-.775.743-1.806 1.156-2.878 1.152-1.077.003-2.113-.414-2.891-1.162l-.282-.309c-.392-.425-1.157-.614-1.703-.415 0 0-.486.18-1.603.827-1.119.654-1.512.992-1.512.992-.44.375-.661 1.133-.491 1.693l.122.405c.25 1.055.09 2.166-.447 3.108-.533.94-1.409 1.637-2.443 1.943l-.406.093c-.557.13-1.106.703-1.21 1.275 0 0-.092.514-.092 1.817s.092 1.814.092 1.814c.1.576.643 1.151 1.21 1.276l.396.092c1.036.307 1.914 1.006 2.446 1.95.557.98.692 2.094.447 3.113l-.115.395c-.17.554.051 1.319.493 1.698 0 0 .396.338 1.51.987 1.119.651 1.6.827 1.6.827.542.202 1.305.009 1.703-.417l.278-.302c1.619-1.555 4.171-1.553 5.788.003l.279.304c.392.424 1.157.614 1.703.416 0 0 .486-.18 1.605-.827 1.117-.65 1.509-.988 1.509-.988.441-.374.662-1.137.492-1.698l-.122-.409c-.251-1.052-.091-2.16.447-3.097.536-.941 1.412-1.639 2.446-1.95l.399-.092c.557-.13 1.105-.704 1.209-1.276 0 0 .092-.513.092-1.815-.009-1.304-.1-1.821-.1-1.821Z"/>
  <path fill="#1890FF" d="M470.195 126.746c.826-.549 1.938-.321 2.483.51.538.818.326 1.915-.468 2.474l-.038.026-.903.601.177.034c12.666 2.501 22.258 13.632 22.474 27.056l.004.464c0 15.489-12.482 28.046-27.878 28.046s-27.878-12.557-27.878-28.046c0-11.179 6.562-21.153 16.535-25.627.904-.405 1.964.004 2.367.914s-.003 1.976-.907 2.382c-8.692 3.899-14.41 12.59-14.41 22.331 0 13.496 10.877 24.437 24.293 24.437 13.417 0 24.293-10.941 24.293-24.437 0-13.497-10.876-24.438-24.293-24.438-1.759 0-2.457-2.276-1.032-3.279l.044-.03 5.137-3.418Z"/>
  <path fill="#1890FF" d="M464.779 130.369c.688-.693 1.797-.704 2.499-.035l.036.035 4.436 4.465c.7.705.7 1.847 0 2.551-.689.693-1.797.705-2.5.035l-.035-.035-4.436-4.465c-.7-.704-.7-1.846 0-2.551Z"/>
  <path fill="#8CCDF6" d="M503.488 179.667c-3.049 0-5.521 2.488-5.521 5.557 0 3.069 2.472 5.557 5.521 5.557s5.521-2.488 5.521-5.557c0-3.069-2.472-5.557-5.521-5.557Zm0 1.827c2.047 0 3.706 1.67 3.706 3.73s-1.659 3.73-3.706 3.73c-2.047 0-3.706-1.67-3.706-3.73s1.659-3.73 3.706-3.73Z"/>
  <path fill="#1890FF" d="M507.243 182.407c.467-.181.993.053 1.173.524.273.713.416 1.486.416 2.281 0 .651-.096 1.288-.281 1.89-.148.482-.656.751-1.135.602-.479-.149-.747-.661-.599-1.143.131-.426.199-.881.199-1.349 0-.539-.09-1.06-.262-1.54l-.032-.084c-.18-.471.053-.999.521-1.181Z"/>
  <path fill="#FFB200" d="M488.944 96.7358c0 23.8192 19.266 43.1292 43.031 43.1292 23.766 0 43.032-19.31 43.032-43.1292 0-23.8197-19.266-43.1293-43.032-43.1293-23.765 0-43.031 19.3096-43.031 43.1293Z"/>
  <path fill="#FFFFFF" d="M550.934 106.755s-3.84 5.94-9.917 9.126c-6.076 3.187-13.563 2.27-18.472-.82-4.91-3.091-6.563-5.698-6.563-5.698l-4.229 2.414s-.875.435-.875-.579V96.0352s0-1.3519 1.021-.8691c.858.4062 10.147 5.6999 13.073 7.3699 1.608.718.195 1.302.195 1.302l-4.081 2.338s2.328 2.922 5.735 4.469c3.647 1.905 7.062 2.131 11.244.548 2.647-1.001 5.75-3.52 8.044-7.236.115-.185.361-.235.541-.113l4.284 2.911Zm-37.917-20.0386s3.84-5.9394 9.917-9.1265c6.076-3.1868 13.562-2.2694 18.472.8209 4.91 3.0905 6.563 5.698 6.563 5.698l4.229-2.4144s.875-.4345.875.5796v15.1623s0 1.3521-1.021.8691c-.859-.406-10.147-5.6996-13.074-7.3696-1.607-.7184-.195-1.3022-.195-1.3022l4.081-2.3379s-2.328-2.9219-5.735-4.4694c-3.647-1.9045-7.061-2.1303-11.243-.5477-2.728 1.0317-5.939 3.6738-8.251 7.5764l-4.618-3.1386Z"/>
  <path fill="#53C518" d="M464.154 356.083h-22.187v-76.508c0-6.09 4.941-11.026 11.036-11.026h.116c6.095 0 11.035 4.936 11.035 11.026v76.508Z"/>
  <path fill="#5B8C00" d="M475.188 374.811h-22.252V334.86c0-5.929 4.832-10.735 10.792-10.735h.668c5.96 0 10.792 4.806 10.792 10.735v39.951Z"/>
  <path fill="#53C518" d="M445.222 356.043h-22.4v-43.436c0-5.963 4.844-10.796 10.82-10.796h.76c5.975 0 10.82 4.833 10.82 10.796v43.436Z"/>
  <path fill="#012841" d="M476.511 419.499H418.24c-2.304 0-4.171-1.859-4.171-4.153v-57.694c0-2.294 1.867-4.154 4.171-4.154h58.271c2.304 0 4.171 1.86 4.171 4.154v57.694c0 2.294-1.867 4.153-4.171 4.153Z"/>
  <path fill="#FFC999" d="M281.941 70.3724c2.882-3.6735 8.122-4.4121 11.896-1.6789l72.839 52.7585c6.536 5.07 7.696 14.544 2.58 21.061-5.161 6.577-14.686 7.579-21.085 2.218l-65.397-62.5813c-3.26-3.1183-3.621-8.2261-.833-11.7773Z"/>
  <path fill="#FFC999" d="M281.558 56.5198s13.605 8.6789 11.756 18.0617c-1.673 8.4971-10.288 7.8361-10.288 7.8361s-8.669.7122-17.87-2.2788c-6.062-1.9681-17.213-6.8909-16.616-10.2388.778-4.3642 13.076 1.9466 14.57-.9072 1.531-2.9282-.913-4.4221-5.364-9.6605-2.781-3.2752-6.801-5.4003-8.633-8.6292-3.582-6.3109 13.113-8.9152 32.445 5.8167Z"/>
  <path fill="#DD936F" d="M251.443 48.3532c.14-.331.521-.4847.849-.3433 2.845 1.2245 5.357 2.7416 7.555 4.486 2.149 1.706 3.886 3.5357 5.246 5.3684.478.6442.876 1.244 1.197 1.7844l.244.4253c.065.1182.113.2121.146.28.157.3237.023.7139-.298.8716-.322.1576-.709.0231-.866-.3006l-.12-.2305c-.056-.1017-.128-.2276-.216-.3759-.299-.503-.673-1.0658-1.124-1.6736-1.295-1.7447-2.954-3.4923-5.011-5.1251-2.109-1.6745-4.523-3.1325-7.261-4.311-.329-.1415-.481-.5246-.341-.8557ZM257.953 47.6691c.13-.3352.506-.5005.838-.3692l.305.1277c.087.0377.185.0815.296.1315l.174.0798c.602.2791 1.272.6176 1.992 1.0172 2.055 1.1404 4.111 2.5439 6.031 4.2243 1.474 1.2904 2.811 2.6964 3.976 4.2216.218.2854.165.6947-.118.9142-.284.2196-.69.1662-.908-.1191-1.11-1.4535-2.387-2.797-3.799-4.0325-1.846-1.6156-3.827-2.9681-5.807-4.0665-.553-.3072-1.075-.5762-1.556-.8079l-.352-.1668c-.342-.1582-.583-.2609-.706-.3095-.333-.1314-.497-.5096-.366-.8448ZM265.982 48.0492c.181-.3104.578-.414.886-.2314 3.502 2.0749 6.241 4.199 8.303 6.2595.727.7266 1.318 1.395 1.785 1.9912l.22.2882c.163.219.275.3848.341.4921.187.3065.093.7081-.212.897-.304.1888-.703.0934-.89-.2132l-.079-.1205c-.084-.1235-.215-.304-.397-.5365-.434-.5548-.99-1.1836-1.68-1.8727-1.985-1.9839-4.638-4.0414-8.047-6.0613-.308-.1825-.411-.5821-.23-.8924Z"/>
  <path fill="#012841" d="M241.853 192.943c22.502 12.49 35.821-3.7 35.821-3.7s19.287-.618 22.961-14.803c13.471-1.849 17.499-18.732 8.772-33.071 7.698-13.121-6.513-25.05-6.513-25.05 6.513-16.103-4.144-31.0154-13.027-38.7689-10.067-41.1535-33.16-35.7846-33.16-35.7846-9.327-12.5259-28.869.894-40.712 17.594 0 0-16.728 3.728-11.99 19.9802-8.882 5.9639-2.961 14.3155-2.961 14.3155s-20.429 20.4268-8.883 36.9778c-14.211 14.016-2.961 20.876-2.961 20.876s-3.701 13.866 17.173 19.681c-3.109 12.078 20.035 27.401 35.48 21.753Z"/>
  <path fill="#FFC999" d="M282.602 94.0058c-2.293 4.9806-7.315 8.0242-11.226 6.1972-3.913-1.8281-5.221-7.349-2.927-12.3296 2.293-4.9822 7.327-7.5386 11.238-5.711 3.91 1.8277 5.209 6.8611 2.915 11.8434ZM218.277 94.8467c2.295 4.9822 7.317 8.0243 11.228 6.1963 3.911-1.8272 5.221-7.3481 2.925-12.3287-2.293-4.9822-7.325-7.537-11.238-5.711-3.91 1.8293-5.209 6.8628-2.915 11.8434ZM249.66 147.15c-8.167 0-14.37-6.805-14.072-15.026l2.072-29.821 25.317-.277 1.088 30.076c.297 8.221-6.238 15.048-14.405 15.048Z"/>
  <path fill="#FFC999" d="M275.506 87.9889c-1.181 17.4921-9.77 34.8911-25.757 33.5491-11.949-1.003-24.995-16.269-24.995-33.8019 0-24.4882 9.184-34.7551 23.367-35.5334 16.282-.894 29.069 10.8453 27.385 35.7862Z"/>
  <path fill="#DD936F" d="M236.992 115.745c.203-.248.566-.283.812-.078 3.706 3.083 7.733 4.925 11.549 5.246 4.707.395 8.903-.866 12.519-3.619.254-.194.616-.143.808.113.192.256.142.62-.113.813-3.84 2.925-8.317 4.27-13.31 3.851-4.068-.342-8.31-2.283-12.188-5.509-.245-.204-.28-.57-.077-.817Z"/>
  <path fill="#012841" d="M270.177 133.168c17.97 9.544 28.264-13.793 27.092-23.708-2.221-18.7868-12.14-29.8222-12.14-29.8222-11.103-33.9949-29.015-36.0836-46.484-31.4616-24.444 6.4694-34.409 36.7414-21.909 39.8133 18.828 4.6237 23.208-11.607 26.055-22.6655 2.072-8.0509 8.554-6.5554 10.954-1.4905.746 1.5764 2.572 2.7993 5.329-.5966 2.664-3.2802 5.922-.2991 6.515 10.7362.607 11.3394 4.536 6.9768 6.513 12.2268 3.257 8.6474-8.882 11.6302-5.033 27.7341 0 0-13.467 10.432 3.108 19.234Z"/>
  <path fill="#012841" d="M232.086 75.0054c2.711-1.2811 6.694-1.5863 12.061-.5227.481.0953.794.5653.699 1.0498-.094.4844-.561.7999-1.042.7046-5.02-.9949-8.625-.7187-10.964.387-.67.3166-1.172.6773-1.489 1.0152l-.094.1066-.009.1008c-.03.1883-.12.3669-.264.5049l-.093.0777c-.336.2447-.739.3513-1.174-.0201-.371-.3166-.384-.6603-.283-1.0166.068-.2427.222-.5014.436-.7641.477-.5838 1.23-1.1573 2.216-1.6231ZM239.106 81.5764c2.697.0083 4.755 2.8133 4.745 6.1597-.001.4938-.4.8929-.89.8915-.49-.0014-.886-.4028-.885-.8966.007-2.4546-1.392-4.3617-2.976-4.3666-1.585-.0049-2.996 1.8925-3.004 4.3458-.002.4937-.401.8926-.891.8909-.49-.0017-.886-.4033-.884-.897.011-3.3452 2.086-6.136 4.785-6.1277ZM261.016 81.5764c2.697.0083 4.754 2.8133 4.745 6.1597-.002.4938-.4.8929-.89.8915-.49-.0014-.887-.4028-.885-.8966.007-2.4546-1.392-4.3617-2.976-4.3666-1.585-.0049-2.996 1.8925-3.004 4.3458-.002.4937-.401.8926-.891.8909-.49-.0017-.886-.4033-.885-.897.012-3.3452 2.087-6.136 4.786-6.1277Z"/>
  <path fill="#012841" d="M279.052 82.8536s-2.297 12.3342-4.44 13.2596c1.137-4.8583-.395-18.7458-.92-19.4267-.835-1.0923 5.206-2.4671 5.36 6.1671ZM221.31 80.7027s3.253 16.9413 5.445 17.7444c-1.409-4.7856-.929-23.4967-.443-24.2089.774-1.1369-5.335-2.1647-5.002 6.4645Z"/>
  <path fill="#DD936F" d="M255.064 75.3856c.261-.3405.747-.4032 1.085-.14.308.2392.387.6653.203.9966l-.064.0963-2.936 3.8257.723 15.5293c.019.4071-.275.7531-.664.808l-.109.0075h-5.33c-.427 0-.774-.3488-.774-.7791 0-.3945.291-.7204.669-.772l.105-.0071 4.518-.0001-.696-15.0003c-.006-.1478.029-.2937.1-.4211l.061-.0918 3.109-4.0519Z"/>
  <path fill="#FFFFFF" d="M243.383 100.909h14.803s-1.48 4.473-7.401 4.473c-5.923 0-7.402-4.473-7.402-4.473Z"/>
  <path fill="#FC192F" d="M258.186 100.056h-14.803c-.579 0-.987.57-.804 1.123.223.675.748 1.627 1.685 2.57 1.544 1.556 3.701 2.487 6.521 2.487 2.819 0 4.976-.931 6.52-2.487.937-.943 1.462-1.895 1.685-2.57.183-.553-.226-1.123-.804-1.123Zm-1.424 1.706-.186.252c-.142.179-.299.356-.469.528-1.232 1.241-2.96 1.987-5.322 1.987s-4.091-.746-5.323-1.987l-.245-.261c-.078-.089-.153-.178-.224-.268l-.188-.251h11.957Z"/>
  <path fill="#012841" d="M256.166 74.6236c4.389-1.2633 8.421-.9295 11.893.3958 1.167.4456 2.004.8974 2.468 1.2139.406.2766.513.8324.238 1.2414-.274.4089-.826.5162-1.232.2395l-.11-.0703c-.094-.0579-.23-.1368-.406-.2317-.452-.2444-.983-.4903-1.587-.7208-3.135-1.1965-6.782-1.4984-10.777-.3486-.471.1357-.962-.1392-1.097-.6139s.138-.9696.61-1.1053Z"/>
  <path fill="#FFC999" d="M218.04 315.536c-13.275.314-23.689 11.576-23.063 24.934l6.753 143.631c.52 11.063 9.711 19.686 20.703 19.427 10.993-.261 19.77-9.31 19.772-20.385l.036-143.793c.003-13.374-10.925-24.128-24.201-23.814ZM278.632 315.712c13.178-1.644 25.115 7.964 26.431 21.273l14.165 143.08c1.091 11.021-6.748 20.904-17.661 22.266-10.912 1.36-20.909-6.299-22.518-17.255l-20.902-142.241c-1.944-13.232 7.308-25.48 20.485-27.123Z"/>
  <path fill="#025D97" d="M282.093 264.979c7.773.211 17.072 23.306 28.983 43.293 15.509 26.025 33.733 52.217 41.267 71.341-1.775 6.81-17.245 23.575-17.245 23.575s2.98 6.048 3.695 9.305c-17.246 22.953-41.193 25.732-41.193 25.732l-.054 4.659c-39.199 18.179-91.691.757-91.691.757s-.98-1.012-.277-4.664c-17.798-.208-55.908-22.951-55.908-22.951l5.417-11.253-15.674-16.158s48.484-69.947 57.105-93.992c8.006-22.332 20.418-31.181 20.418-31.181s38.728.815 65.157 1.537Z"/>
  <path fill="#012841" d="M214.438 281.962c.16-.33.555-.467.883-.305.295.145.434.482.342.789l-.039.101-64.452 132.619.603.447.505.364c1.273.911 2.773 1.926 4.492 3.02 4.915 3.128 10.587 6.258 16.94 9.179 9.877 4.542 20.475 8.151 31.666 10.479.357.074.587.426.513.786-.074.36-.423.591-.78.517-11.293-2.35-21.984-5.99-31.947-10.572-6.41-2.947-12.134-6.105-17.098-9.265-1.546-.984-2.918-1.906-4.112-2.747l-.439-.312c-.363-.259-.686-.495-.971-.707l-.612-.464c-.215-.17-.301-.451-.227-.708l.041-.109 64.692-133.112ZM301.595 320.061c.305-.122.647.001.81.276l.047.097 36.338 92.436c.084.211.053.451-.08.636l-.227.304-.302.389c-.055.07-.112.142-.171.216l-.184.229c-.724.893-1.582 1.887-2.573 2.956-2.828 3.052-6.155 6.103-9.96 8.95-8.129 6.084-17.294 10.399-27.412 12.166-.36.063-.702-.18-.764-.542-.062-.362.179-.706.538-.769 9.899-1.728 18.877-5.956 26.85-11.923 3.738-2.797 7.006-5.794 9.782-8.79.971-1.047 1.81-2.018 2.515-2.889l.343-.429.281-.363-36.202-92.087c-.121-.307.002-.651.275-.815l.096-.048Z"/>
  <path fill="#012841" d="M265.153 267.507c.358-.072.705.161.777.521l1.609 8.163c1.279 6.518 2.705 13.829 4.241 21.762l1.879 9.737c3.443 17.887 6.859 35.93 10.109 53.467l1.812 9.825c.461 2.511.915 4.997 1.364 7.456l1.79 9.881c3.827 21.246 7.026 39.838 9.457 55.125.051.32-.135.63-.44.735-1.923.658-3.871 1.268-5.841 1.83-23.738 6.769-49.061 6.386-72.975 1.678l-1.725-.348c-2.831-.586-5.437-1.199-7.793-1.815l-.699-.185c-.75-.2-1.435-.391-2.052-.569l-1.235-.366c-.197-.06-.345-.107-.441-.138-.284-.092-.466-.362-.458-.653l.013-.11 29.558-149.205c.071-.36.419-.594.777-.522.321.065.542.355.53.675l-.012.108-29.441 148.616 1.073.317c.608.175 1.285.363 2.026.561 2.971.794 6.367 1.588 10.132 2.329 23.728 4.671 48.853 5.051 72.363-1.653 1.461-.417 2.909-.86 4.344-1.331l.902-.303-.743-4.622c-2.303-14.19-5.199-30.926-8.59-49.751l-1.819-10.044-.905-4.952c-.457-2.494-.92-5.013-1.389-7.556-3.802-20.607-7.856-42.004-11.928-63.1l-3.03-15.629-3.758-19.152c-.072-.36.16-.71.518-.782Z"/>
  <path fill="#012841" d="M252.581 268.524c.328.008.594.256.638.573l.006.108L250.146 397c-.009.368-.312.658-.677.649-.328-.008-.594-.256-.638-.573l-.006-.108 3.08-127.795c.009-.367.311-.658.676-.649ZM230.939 267.321c.109-.351.479-.547.827-.438.313.098.502.41.458.727l-.023.105-26.081 84.575c-.109.35-.479.547-.827.438-.313-.099-.502-.41-.458-.727l.023-.106 26.081-84.574Z"/>
  <path fill="#025D97" d="m214.098 264.977 1.119-8.552s33.528.202 66.409-1.458c.832 3.796 1.787 10.629 1.787 10.629-2.765-2.287-32.634 4.393-69.315-.619Z"/>
  <path fill="#012841" d="M279.882 264.931c.365-.017.674.266.691.633.017.367-.265.679-.629.696l-3.412.154c-14.179.616-27.876.881-40.075.856l-3.608-.016c-3.757-.027-7.125-.082-9.857-.158l-2.111-.067c-.933-.034-1.702-.07-2.266-.105l-.626-.046c-.083-.008-.155-.015-.216-.022-.118-.015-.203-.029-.279-.052l-.051-.006c-.062-.015-.116-.073-.386-.363l.1-.545c.074-.356.121-.361.298-.378.137-.048.28-.047.41-.007l.077.031.432.039.775.047c.408.022.893.043 1.444.065l1.446.05c3.359.105 7.868.178 12.967.198l2.923.006c12.79.002 27.155-.312 41.953-1.01Z"/>
  <path fill="#FFC999" d="M182.616 260.981c-8.089-2.015-13.022-10.252-11.024-18.399l19.493-79.39c2-8.146 10.178-13.118 18.266-11.103 8.09 2.016 13.024 10.253 11.025 18.398l-19.492 79.391c-2.002 8.147-10.178 13.117-18.268 11.103Z"/>
  <path fill="#1890FF" d="m212.112 204.143 8.263-33.655c1.992-8.114-2.967-16.393-11.025-18.399-8.053-2.006-16.275 2.99-18.265 11.103l-8.185 33.336 29.212 7.615Z"/>
  <path fill="#025D97" d="M209.899 151.685c8.222 2.047 13.328 10.41 11.486 18.694l-.08.341-8.264 33.654c-.062.253-.295.416-.543.398l-.094-.015-29.211-7.615c-.279-.073-.447-.359-.374-.64.064-.25.296-.411.542-.393l.093.016 28.701 7.48 8.137-33.138c1.895-7.718-2.732-15.597-10.312-17.676l-.331-.086c-.28-.07-.451-.355-.382-.636.062-.251.292-.415.539-.399l.093.015Z"/>
  <path fill="#FFC999" d="m369.004 126.474.558 1.107c3.916 7.787.825 17.295-6.905 21.241l-71.348 36.416c-7.73 3.944-17.172.831-21.09-6.955l-.556-1.108c-3.916-7.784-.827-17.294 6.904-21.239l71.349-36.416c7.729-3.946 17.171-.831 21.088 6.954Z"/>
  <path fill="#1890FF" d="m306.731 140.54-30.702 15.669c-7.403 3.779-10.143 13.463-6.087 21.52 4.054 8.058 13.427 11.559 20.828 7.783l30.412-15.522-14.451-29.45Z"/>
  <path fill="#025D97" d="M306.272 139.629c.239-.122.526-.048.68.161l.052.085 14.45 29.45c.133.271.023.598-.246.732-.238.119-.522.044-.675-.164l-.051-.084-14.209-28.957-30.212 15.422c-7.024 3.585-9.694 12.722-6.012 20.45l.164.335c.136.269.029.598-.238.734s-.594.029-.729-.24c-4.129-8.207-1.428-18.064 6.017-22.091l.308-.162 30.701-15.671Z"/>
  <path fill="#1890FF" d="M288.288 149.614c-7.392-4.188-16.119-.137-20.398-4.011-2.529-2.29-3.401-13.13-3.401-13.13h-31.554s-.873 10.84-3.402 13.13c-4.277 3.874-15.534 1.524-27.323 7.957-11.129 6.073-4.451 22.755.644 36.546 1.178 3.19-.854 9.198 1.114 13.632 1.981 4.461 4.991 9.863 6.186 12.75 3.924 9.484 3.117 19.701 5.648 28.306 0 0-4.032 7.859 2.335 11.048h61.151c7.635-3.51 2.333-11.048 2.333-11.048 2.417-8.211.95-14.835 4.531-26.863.717-2.404 3.411-6.217 5.708-11.306 3.581-7.939 2.868-15.557 2.389-17.48-4.574-18.361 4.643-33.523-5.961-39.531Z"/>
  <path fill="#025D97" d="m238.205 146.601 20.917.17c.288.002.52.239.517.529-.002.258-.188.472-.432.514l-.094.008-20.916-.17c-.288-.003-.52-.24-.517-.53.002-.258.188-.471.432-.514l.093-.007ZM207.797 171.277c.123-.262.435-.374.695-.249.26.125.371.438.247.7l-.15.333-.266.622c-.109.262-.225.546-.346.853-.576 1.464-1.153 3.124-1.691 4.945-1.951 6.597-2.893 13.477-2.276 20.156.483 5.224 2.152 9.479 6.172 16.198l.655 1.082.069.184.811 4.589c.35 1.967.703 3.934 1.051 5.857l1.2 6.535c1.096 5.877 1.914 9.961 2.34 11.577.034.132.017.273-.05.392-2.373 4.255-.646 9.683 1.744 10.239l.136.027h61.219l.156-.096c.023-.015.047-.031.072-.047l.118-.083c.354-.252.709-.57 1.041-.956 1.752-2.034 2.177-4.995.397-9.132-.041-.097-.053-.205-.033-.308l.452-2.388c1.259-6.693 2.32-12.763 3.194-18.133l.519-3.258c.094-.602.183-1.175.265-1.718l.359-2.437.088-.226c5.129-7.486 7.384-13.418 7.742-20.042.326-6.038-.769-12.04-2.796-17.688-.624-1.739-1.293-3.314-1.96-4.696l-.272-.551c-.087-.174-.172-.338-.253-.492l-.288-.535c-.029-.052-.052-.092-.069-.121-.146-.25-.063-.572.185-.719.248-.147.568-.064.714.186l.189.338.068.127c.201.374.424.811.664 1.307.683 1.415 1.366 3.024 2.003 4.799 2.071 5.771 3.191 11.909 2.857 18.102-.36 6.662-2.578 12.639-7.539 20.012l-.317.466-.263 1.795-.254 1.662c-.18 1.168-.384 2.456-.613 3.859l-.316 1.927c-.865 5.216-1.898 11.044-3.106 17.42l-.2 1.045.094.222c1.703 4.196 1.267 7.401-.558 9.668l-.164.198c-.603.7-1.21 1.16-1.668 1.414l-.147.077-.229.053-61.429-.006c-3.28-.496-5.383-6.685-2.849-11.57l.035-.068-.209-.876c-.45-1.975-1.132-5.425-1.994-10.035l-.527-2.836c-.423-2.296-.861-4.709-1.3-7.155l-1.321-7.44-.285-.47c-4.216-6.971-6.031-11.397-6.597-16.752l-.042-.425c-.631-6.829.329-13.838 2.315-20.554.547-1.852 1.134-3.54 1.721-5.032l.24-.598c.077-.189.152-.368.224-.537l.26-.595c.027-.06.049-.107.066-.142Z"/>
  <path fill="#025D97" d="M285.172 200.641c.289 0 .522.236.522.526 0 .258-.184.472-.428.517l-.094.008H209.7c-.288 0-.521-.235-.521-.525 0-.258.184-.473.428-.517l.093-.009h75.472Z"/>
  <path fill="#1890FF" d="m239.22 389.436-93.141-21.621c-3.119-.724-5.063-3.855-4.345-6.995l15.242-66.613c.718-3.14 3.827-5.098 6.945-4.374l93.143 21.621c3.115.722 5.061 3.855 4.343 6.995l-15.242 66.613c-.718 3.138-3.827 5.096-6.945 4.374Z"/>
  <path fill="#012841" d="m238.297 392.692-93.143-21.619c-3.119-.724-5.061-3.857-4.344-6.997l15.241-66.612c.719-3.139 3.828-5.099 6.947-4.375l93.141 21.621c3.117.723 5.061 3.855 4.343 6.995l-15.242 66.613c-.717 3.138-3.827 5.098-6.943 4.374Z"/>
  <path fill="#FFC999" d="M187.385 345.105c-4.646.16-8.593-3.389-8.962-8.056l-7.127-90.082c-.383-8.299 6.042-15.314 14.286-15.598 8.318-.284 15.235 6.389 15.309 14.77l-5.124 90.712c-.254 4.521-3.89 8.1-8.382 8.254Z"/>
  <path fill="#FFC999" d="M175.576 354.799s-1.797-22.467 5.543-28.537c6.646-5.498 14.764 4.14 14.764 4.14s3.098 5.165 6.794 13.231c2.669 5.825 6.773 18.61 2.771 17.68-4.288-.997-4.748-9.937-7.699-8.686-3.031 1.284-1.37 6.756-1.231 13.648.086 4.308 1.849 4.089 1.231 7.755-1.208 7.167-17.63 5.673-22.173-19.231Z"/>
  <path fill="#DD936F" d="M190.801 358.194c.35.075.573.421.499.773l-.026.142c-.015.09-.032.208-.05.355l-.018.155c-.471 4.216.401 9.838 3.73 16.283.164.319.041.713-.276.879-.317.166-.708.042-.873-.278-3.454-6.687-4.366-12.567-3.868-17.03l.042-.334c.027-.199.052-.347.073-.443.066-.317.351-.531.663-.516l.104.014ZM185.166 357.87c.357.024.626.335.603.694-.277 4.175.547 8.675 2.094 13.142.471 1.36.975 2.614 1.479 3.733.132.293.256.561.372.802l.291.585c.169.318.049.713-.266.882-.315.169-.707.049-.876-.268l-.196-.389c-.152-.309-.322-.668-.504-1.073-.519-1.153-1.038-2.444-1.522-3.842-1.6-4.619-2.454-9.283-2.164-13.659.024-.359.332-.631.689-.607ZM179.887 356.63c.358 0 .647.291.647.651l.009.428c.005.142.012.31.022.502.039.752.109 1.592.218 2.496.311 2.582.87 5.163 1.737 7.565.463 1.281 1.003 2.478 1.625 3.575.178.312.07.711-.24.889-.311.179-.706.07-.883-.242-.661-1.164-1.231-2.428-1.718-3.776-.905-2.505-1.484-5.18-1.806-7.854-.113-.935-.185-1.804-.225-2.585l-.028-.675c-.003-.135-.005-.243-.005-.323 0-.36.29-.651.647-.651Z"/>
</svg>
