<svg xmlns="http://www.w3.org/2000/svg" width="600" height="460">
  <path stroke="#DEE6F6" stroke-linecap="square" stroke-width="4" d="M-1.97534 421H598.025"/>
  <path fill="#F0F0F0" opacity=".6" d="M260 380c104.934 0 190-85.066 190-190C450 85.0659 364.934 0 260 0S70 85.0659 70 190c0 104.934 85.066 190 190 190Z"/>
  <path fill="#012841" d="M451.019 207.061h-1.547c-2.126 0-3.867-1.747-3.867-3.884v-31.065c0-2.136 1.741-3.883 3.867-3.883h1.547c2.127 0 3.868 1.747 3.868 3.883v31.065c0 2.137-1.741 3.884-3.868 3.884Z"/>
  <path fill="#012841" d="M496.981 208.221c0 2.573-2.078 4.66-4.641 4.66h-83.534c-2.564 0-4.641-2.087-4.641-4.66s2.077-4.66 4.641-4.66h83.534c2.563 0 4.641 2.087 4.641 4.66Z"/>
  <path fill="#BAE1F9" d="M437.049 216.093c-1.276 0-2.319-1.049-2.319-2.33v-11.085c0-1.281 1.043-2.329 2.319-2.329h26.393c1.276 0 2.321 1.048 2.321 2.329v11.085c0 1.281-1.045 2.33-2.321 2.33h-26.393Z"/>
  <path stroke="#1890FF" stroke-linecap="round" stroke-linejoin="round" stroke-width="1.43555" d="M438.583 202.645v11.152M461.523 202.645v11.152"/>
  <path fill="#012841" d="M407.061 186.216h87.022V84.1478h-87.022V186.216Z"/>
  <path fill="#BAE1F9" d="M406.67 187.096c-2.178 0-3.96-1.789-3.96-3.975v-23.505c0-2.186 1.782-3.975 3.96-3.975h87.805c2.178 0 3.961 1.789 3.961 3.975v23.505c0 2.186-1.783 3.975-3.961 3.975H406.67ZM406.67 113.659c-2.178 0-3.96-1.789-3.96-3.977V86.1789c0-2.1864 1.782-3.9766 3.96-3.9766h87.805c2.178 0 3.961 1.7902 3.961 3.9766v23.5031c0 2.188-1.783 3.977-3.961 3.977H406.67Z"/>
  <path fill="#FFFFFF" d="M413.806 100.913c-1.64 0-2.97-1.3359-2.97-2.9825 0-1.6467 1.33-2.9816 2.97-2.9816 1.64 0 2.97 1.3349 2.97 2.9816 0 1.6466-1.33 2.9825-2.97 2.9825ZM419.99 97.9305c0-1.6467 1.329-2.9816 2.97-2.9816 1.64 0 2.97 1.3349 2.97 2.9816 0 1.6466-1.33 2.9825-2.97 2.9825-1.641 0-2.97-1.3359-2.97-2.9825ZM432.114 100.913c-1.64 0-2.97-1.3359-2.97-2.9825 0-1.6467 1.33-2.9816 2.97-2.9816 1.64 0 2.97 1.3349 2.97 2.9816 0 1.6466-1.33 2.9825-2.97 2.9825Z"/>
  <path fill="#1890FF" d="M463.636 100.913c-.453 0-.819-.368-.819-.822v-4.3197c0-.4544.366-.8224.819-.8224h28.062c.452 0 .819.368.819.8224v4.3197c0 .454-.367.822-.819.822h-28.062Z"/>
  <path fill="#BAE1F9" d="M406.67 150.378c-2.178 0-3.96-1.79-3.96-3.977v-23.503c0-2.187 1.782-3.977 3.96-3.977h87.805c2.178 0 3.961 1.79 3.961 3.977v23.503c0 2.187-1.783 3.977-3.961 3.977H406.67Z"/>
  <path fill="#FF7946" d="M413.806 138.697c-1.64 0-2.97-1.335-2.97-2.982 0-1.647 1.33-2.982 2.97-2.982 1.64 0 2.97 1.335 2.97 2.982 0 1.647-1.33 2.982-2.97 2.982Z"/>
  <path fill="#012841" d="M422.96 138.697c-1.641 0-2.97-1.335-2.97-2.982 0-1.647 1.329-2.982 2.97-2.982 1.64 0 2.97 1.335 2.97 2.982 0 1.647-1.33 2.982-2.97 2.982ZM432.114 138.697c-1.64 0-2.97-1.335-2.97-2.982 0-1.647 1.33-2.982 2.97-2.982 1.64 0 2.97 1.335 2.97 2.982 0 1.647-1.33 2.982-2.97 2.982Z"/>
  <path fill="#FF7946" d="M491.527 138.697h-27.72c-.547 0-.99-.445-.99-.994v-3.977c0-.548.443-.993.99-.993h27.72c.547 0 .99.445.99.993v3.977c0 .549-.443.994-.99.994Z"/>
  <path fill="#FFFFFF" d="M410.836 171.588c0-1.647 1.33-2.982 2.97-2.982 1.64 0 2.97 1.335 2.97 2.982 0 1.647-1.33 2.983-2.97 2.983-1.64 0-2.97-1.336-2.97-2.983ZM422.96 174.571c-1.641 0-2.97-1.336-2.97-2.983s1.329-2.982 2.97-2.982c1.64 0 2.97 1.335 2.97 2.982 0 1.647-1.33 2.983-2.97 2.983ZM432.114 174.571c-1.64 0-2.97-1.336-2.97-2.983s1.33-2.982 2.97-2.982c1.64 0 2.97 1.335 2.97 2.982 0 1.647-1.33 2.983-2.97 2.983Z"/>
  <path fill="#1890FF" d="M491.527 174.571h-27.72c-.547 0-.99-.446-.99-.995V169.6c0-.549.443-.994.99-.994h27.72c.547 0 .99.445.99.994v3.976c0 .549-.443.995-.99.995Z"/>
  <path fill="#FFB200" d="M532 52.0813c-23.766 0-43.031 19.3074-43.031 43.1244 0 23.8173 19.265 43.1243 43.031 43.1243s43.031-19.307 43.031-43.1243c0-23.817-19.265-43.1244-43.031-43.1244Z"/>
  <path fill="#FFFFFF" d="M533.757 107.527h-1.537c-1.273 0-2.305-1.034-2.305-2.31V75.9537c0-1.276 1.032-2.3103 2.305-2.3103h1.537c1.273 0 2.306 1.0343 2.306 2.3103v29.2633c0 1.276-1.033 2.31-2.306 2.31ZM533.757 116.997h-1.537c-1.273 0-2.305-1.034-2.305-2.31v-1.54c0-1.276 1.032-2.31 2.305-2.31h1.537c1.273 0 2.306 1.034 2.306 2.31v1.54c0 1.276-1.033 2.31-2.306 2.31Z"/>
  <path fill="#53C518" d="M392.438 365.975s-1.669-13.438 16.357-19.485c18.026-6.046 22.032-2.855 22.032-2.855l-1.669 5.375s-2.838 13.438-15.856 15.285c-13.019 1.848-18.026-.84-20.864 1.68Z"/>
  <path fill="#53C518" d="m428.894 344.269.528.412-.044.055c-.019.023-.043.052-.071.086l-.083.099c-.059.069-.123.144-.194.223l-.054.061c-.366.409-.808.864-1.327 1.352-1.479 1.394-3.28 2.786-5.41 4.085-4.278 2.608-9.33 4.504-15.182 5.387l-.217.032c-3.939.576-7.078 1.892-9.509 3.725-1.167.879-2.092 1.819-2.802 2.757-.247.327-.449.629-.609.899l-.052.09c-.025.043-.047.083-.067.12l-.056.108-.004.007-.603-.288.018-.038c.039-.076.101-.192.191-.343.172-.291.388-.614.651-.961.746-.987 1.715-1.972 2.933-2.889 2.484-1.872 5.671-3.221 9.64-3.826l.173-.026c5.854-.855 10.893-2.734 15.149-5.329 2.09-1.273 3.853-2.637 5.299-4 .472-.444.877-.858 1.216-1.232l.072-.08c.106-.118.198-.224.276-.318l.089-.106.049-.062Z"/>
  <path fill="#53C518" d="M428.657 375.045h2.17v-31.41h-2.17l.585 9.651c.166 2.746.184 5.5.055 8.248l-.64 13.511ZM395.239 319.985s6.643-10.167 22.472-3.725c15.828 6.442 16.621 11.586 16.621 11.586l-4.159 2.084s-9.724 7.523-19.696 1.148c-9.972-6.376-11.839-11.151-15.238-11.093Z"/>
  <path fill="#53C518" d="M432.162 383.779h1.669l.654-55.447c.008-.684-.439-1.288-1.093-1.476l-1.23-.354s.419 5.152.334 11.59c-.082 6.158-.668 13.486-.668 18.914 0 15.352.334 26.773.334 26.773Z"/>
  <path fill="#5B8C00" d="M417.808 319.615c7.203 5.626 14.521 9.239 14.521 9.239l-2.156 1.076s-9.724 7.523-19.696 1.148c-9.972-6.376-11.839-11.151-15.238-11.093 0 0 11.386-9.104 22.569-.37Z"/>
  <path fill="#53C518" d="M473.348 344.033s-4.482-6.824-15.159-2.5c-10.678 4.324-11.213 7.776-11.213 7.776l2.805 1.399s6.561 5.05 13.287.77c6.727-4.279 7.986-7.484 10.28-7.445Z"/>
  <path fill="#53C518" d="M448.415 387.129h-1.154l-.452-37.398c-.005-.462.304-.87.756-.996l.85-.239s-.29 3.475-.231 7.817c.056 4.154.461 9.097.461 12.758 0 10.354-.23 18.058-.23 18.058ZM474.594 307.051s-6.644-10.167-22.472-3.725c-15.828 6.442-16.622 11.586-16.622 11.586l4.159 2.084s9.725 7.523 19.697 1.148c9.971-6.375 11.838-11.151 15.238-11.093Z"/>
  <path fill="#53C518" d="M437.67 373.03h-1.669l-.654-57.631c-.008-.684.44-1.289 1.093-1.477l1.23-.353s-.419 5.152-.334 11.589c.082 6.159.668 13.487.668 18.915 0 15.351-.334 28.957-.334 28.957Z"/>
  <path fill="#5B8C00" d="M474.594 307.051s-11.387-9.104-22.57-.369c-7.202 5.625-14.521 9.238-14.521 9.238l2.156 1.076s9.725 7.523 19.697 1.148c9.971-6.375 11.838-11.151 15.238-11.093Z"/>
  <path fill="#53C518" d="M440.674 372.526h2.838l1.122-35.697-2.137-33.692c.008-.684-.44-1.289-1.093-1.477l-1.23-.353s2.67 26.756 2.67 32.183c0 15.352-2.17 39.036-2.17 39.036Z"/>
  <path fill="#53C518" d="M408.744 282.456s6.06-9.032 20.414.038c14.459 9.137 13.455 21.123 13.455 21.123l-4.62.484s-11.729 3.612-18.846-5.878c-7.116-9.49-7.199-14.621-10.403-15.767Z"/>
  <path fill="#5B8C00" d="M408.744 282.456s6.523-4.839 12.069 2.054c2.837 3.527 7.857 6.187 10.014 8.23 5.604 5.31 9.559 11.114 9.559 11.114l-2.393.247s-11.729 3.612-18.846-5.878c-7.116-9.49-7.199-14.621-10.403-15.767Z"/>
  <path fill="#012841" d="M456.49 419.557h-38.723c-2.212 0-4.005-1.805-4.005-4.031v-38.969c0-2.227 1.793-4.031 4.005-4.031h38.723c2.212 0 4.006 1.804 4.006 4.031v38.969c0 2.226-1.794 4.031-4.006 4.031Z"/>
  <path fill="#FFC999" d="m230.784 130.455 1.513-38.7884 34.668 1.0809 2.759 37.0075c.833 11.18-7.777 20.793-18.903 21.106-11.285.32-20.481-9.045-20.037-20.406ZM223.214 87.814s-5.467-5.3493-7.578-1.5646c-2.111 3.7832 2.206 16.9346 7.953 17.0976 7.676.215-.375-15.533-.375-15.533Z"/>
  <path fill="#FFC999" d="M257.657 120.761s-10.966 9.639-26.16.908c-10.938-6.285-13.006-30.2206-11.483-47.8839.863-9.9939 5.255-15.494 14.805-18.7428 9.551-3.2487 35.686-4.1638 36.756 25.1342 1.191 32.6315-13.918 40.5845-13.918 40.5845Z"/>
  <path fill="#DD936F" d="M236.885 77.8931c.25-.0722.51.0494.622.2767l.034.09 1.748 6.1465c.014.051.021.1036.02.1563l-.007.0788-2.676 16.1696 6.333-.142c.264-.006.487.183.534.436l.009.086c.006.266-.182.49-.433.538l-.086.008-6.973.157c-.303.007-.543-.24-.543-.533l.007-.089 2.761-16.6869-1.714-6.031c-.072-.2523.049-.5141.275-.6263l.089-.0347Z"/>
  <path fill="#012841" d="m244.966 74.7471.136.0042 5.256.4388 1.224.0915c3.532.2495 5.804.2695 6.911.0124.762-.1769 1.521.3014 1.697 1.0683.176.7669-.299 1.532-1.061 1.7088-1.524.3542-4.043.3266-8.098.0284l-2.128-.1683-3.824-.3229c-.067-.0053-.132-.0105-.197-.0156-.779-.0614-1.361-.7472-1.301-1.5318.058-.7385.664-1.3013 1.385-1.3138Z"/>
  <path fill="#FF7946" d="M247.946 105.15c.393-.116.805.112.919.508.115.396-.111.81-.504.925l-.358.095c-.08.019-.171.041-.273.064-.498.115-1.079.23-1.738.336-2.894.468-6.275.638-10.033.336-.408-.033-.712-.393-.679-.804.032-.411.389-.717.797-.684 3.635.292 6.898.128 9.68-.322.501-.081.953-.166 1.352-.252l.535-.123c.143-.035.244-.062.302-.079Z"/>
  <path fill="#012841" d="m268.658 92.8417 5.312-11.4705s3.076-16.3913-.888-23.2709c-6.152-10.6763-19.43-9.9552-27.41-12.5977-7.979-2.6441-7.99-5.3195-11.175-4.7715-3.185.5479-15.295 9.6505-16.395 18.792-.967 8.0381 1.705 28.3515 1.705 28.3515s1.657-18.1187 3.231-22.9395c6.166-2.8322 28.873-3.6966 38.447-1.06 0 0 1.017 6.1152 1.631 10.4269 5.191 3.4935 5.542 18.5397 5.542 18.5397Z"/>
  <path fill="#DD936F" d="M266.912 106.912c.145-.256.469-.346.724-.199.254.146.343.472.198.729-2.466 4.354-5.103 7.878-7.889 10.625-8.439 8.319-17.466 9.099-25.753 5.425-.995-.442-1.887-.915-2.663-1.389-.205-.125-.391-.243-.557-.354l-.376-.259c-.017-.012-.031-.023-.043-.032-.234-.177-.282-.511-.107-.748.175-.236.508-.285.743-.108l.141.102c.168.118.42.284.749.485.738.451 1.589.903 2.541 1.324 7.92 3.512 16.485 2.772 24.582-5.21 2.713-2.674 5.291-6.119 7.71-10.391Z"/>
  <path fill="#012841" d="m237.561 83.5667 5.133.0462c.587.0053 1.058.4882 1.052 1.0785-.005.551-.423 1.0009-.955 1.0542l-.116.0052-5.133-.0463c-.586-.0053-1.057-.4881-1.052-1.0785.005-.551.423-1.0009.955-1.0541l.116-.0052ZM239.259 86.366c1.013-.0914 2.049.1282 3.062.5427.506.2068.899.416 1.139.5671.498.3122.65.9715.34 1.4726-.31.501-.965.6542-1.462.342l-.158-.0919c-.16-.0871-.385-.1975-.658-.3091-.727-.2975-1.448-.4504-2.074-.394-.481.0434-.886.2077-1.23.5207l-.126.1243c-.403.4288-1.075.4472-1.501.0414-.426-.4059-.444-1.0825-.041-1.5112.742-.7893 1.672-1.211 2.709-1.3046ZM226.785 73.9238c2.286-.1713 4.68.2649 7.039 1.0907 1.198.4193 2.125.8418 2.674 1.136.689.37.951 1.2331.583 1.9277-.367.6946-1.224.9578-1.914.5878l-.222-.1124c-.1-.0485-.224-.1073-.371-.1744-.502-.2286-1.067-.4582-1.679-.6726-2.025-.7086-4.056-1.0788-5.899-.9405-1.417.1062-2.656.5115-3.697 1.2513-.639.4536-1.522.3-1.972-.3431-.451-.6432-.298-1.5323.341-1.9859 1.486-1.0562 3.215-1.6219 5.117-1.7646Z"/>
  <path fill="#DD936F" d="M243.408 111.12c.293-.001.532.238.533.533.001.265-.191.487-.443.529l-.086.007-4.183.017c-.293.001-.532-.237-.533-.533-.001-.265.191-.486.443-.529l.086-.007 4.183-.017Z"/>
  <path fill="#012841" d="M270.113 83.4158c.586-.0056 1.066.4684 1.071 1.0588.006.551-.404 1.0086-.935 1.0717l-.116.0074-8.417.0806c-.586.0056-1.066-.4684-1.072-1.0588-.005-.551.405-1.0085.936-1.0717l.116-.0073 8.417-.0807Z"/>
  <path fill="#FFFFFF" d="m261.069 82.8932-16.072.0642c-1.123.0045-2.028.9212-2.017 2.0514.024 2.108.156 5.4881.71 8.38.656 3.4115 3.712 5.4882 7.159 5.636 4.305.1821 8.17.1717 10.113-2.0857 2.964-3.4398 2.212-9.0803 2.136-12.0692-.026-1.0973-.939-1.9812-2.029-1.9767Z"/>
  <path fill="#012841" d="m261.068 82.5371-16.073.0643c-1.319.0052-2.382 1.0846-2.368 2.4111.034 3.0409.245 5.9852.716 8.4438.663 3.4489 3.728 5.7628 7.491 5.9242l.785.0299c5.361.1791 7.927-.2831 9.61-2.238 1.275-1.4794 1.969-3.4113 2.234-5.779.154-1.3784.161-2.6288.075-4.5641l-.083-1.8532c-.001-.035-.002-.0726-.003-.1152-.032-1.2893-1.101-2.329-2.384-2.3238Zm-16.07.7764 16.072-.0642c.9-.0037 1.653.7283 1.675 1.6293l.035.8966.032.6634c.105 2.1468.108 3.4466-.052 4.875-.25 2.2365-.897 4.0362-2.065 5.3922-1.561 1.8133-4.16 2.2031-9.831 1.9632-3.454-.1481-6.23-2.2441-6.826-5.3478-.462-2.4082-.67-5.3149-.704-8.3165-.01-.9302.736-1.6875 1.664-1.6912Z"/>
  <path fill="#FFFFFF" d="m236 82.8136-18.195.0732c-.664 2.6799.027 13.0336 3.158 15.2402 4.192 2.19 12.637 1.2004 13.942-1.0525 1.979-3.4189 2.69-9.9283 2.644-12.7291-.013-.8525-.701-1.5348-1.549-1.5318Z"/>
  <path fill="#012841" d="m235.999 82.4575-18.195.0732c-.162.0007-.303.1118-.342.2699-.965 3.8944.501 13.6472 3.298 15.6182 4.201 2.1982 12.966 1.3988 14.45-1.1649 1.714-2.9616 2.758-8.9437 2.693-12.9144-.016-1.0477-.863-1.8856-1.904-1.882Zm-17.911.784 17.914-.0718c.653-.0023 1.184.5229 1.194 1.1813.063 3.8528-.96 9.7164-2.597 12.5442-1.258 2.1736-9.608 2.9353-13.474.9158l-.138-.1064c-2.28-1.9075-3.618-10.4648-2.931-14.2953l.032-.1678ZM262.781 81.9295c.586-.0179 1.076.446 1.093 1.0361.017.5508-.383 1.0168-.913 1.091l-.115.0098-19.921.6062c-.586.0178-1.076-.4461-1.093-1.0362-.017-.5508.383-1.0168.913-1.091l.116-.0098 19.92-.6061Z"/>
  <path fill="#012841" d="m217.667 82.2219 19.525.1986c.587.006 1.057.4894 1.051 1.0797-.005.551-.424 1.0004-.956 1.053l-.116.0051-19.525-.1986c-.586-.0059-1.057-.4893-1.051-1.0797.006-.5509.424-1.0003.957-1.053l.115-.0051Z"/>
  <path fill="#FFC999" d="M270.918 83.6376c1.959-2.2186 5.118-2.9486 7.477-.5912 3.799 3.7966 1.075 18.6566-8.686 19.7026-3.74-.354-1.851-15.6492 1.209-19.1114Z"/>
  <path fill="#DD936F" d="M275.098 84.8022c.269-.116.581.01.696.2814.115.2714-.01.5855-.279.7015l-.138.0648c-.085.0429-.195.1014-.323.1755-.359.208-.718.4589-1.052.7514-1.185 1.0391-1.734 2.294-1.351 3.8136.102.4055.262.5956.657.823l.249.1344c.824.4334 1.194.8212 1.307 1.7068.172 1.3429-.434 2.3809-1.506 3.1122-.546.372-1.085.5907-1.463.6916-.284.0756-.574-.0945-.649-.3798-.075-.2853.093-.5779.377-.6535l.171-.0553c.051-.018.109-.0401.173-.0663.273-.1103.545-.2507.796-.4218.769-.5247 1.163-1.199 1.049-2.0903-.055-.4241-.175-.5813-.617-.8265l-.241-.1281c-.74-.3928-1.13-.7844-1.332-1.5833-.494-1.9626.222-3.6027 1.683-4.8831.39-.3413.805-.6311 1.22-.8717.252-.1458.451-.2442.573-.2965Z"/>
  <path fill="#012841" d="M230.966 87.7279c.064 1.6244-.881 2.98-2.11 3.0293-1.227.0478-2.275-1.2287-2.339-2.8531-.064-1.6228.881-2.9799 2.11-3.0277 1.227-.0493 2.275 1.2272 2.339 2.8515ZM254.093 88.0715c.063 1.6243-.881 2.9799-2.11 3.0292-1.227.0478-2.275-1.2287-2.339-2.8531-.062-1.6228.88-2.9799 2.109-3.0277 1.228-.0493 2.276 1.2272 2.34 2.8516Z"/>
  <path fill="#FFC999" d="M159.998 270.909c-9.224-4.055-13.699-14.655-10.199-24.156l31.697-86.073c4.662-12.659 18.931-18.77 31.218-13.368 12.141 5.337 17.442 19.773 11.67 31.782l-39.719 82.629c-4.439 9.235-15.329 13.292-24.667 9.186Z"/>
  <path fill="#1890FF" d="m199.205 232.579-40.801-17.936 22.864-55.422c5.004-12.131 18.914-17.771 30.868-12.516 11.955 5.255 17.306 19.362 11.876 31.306l-24.807 54.568Z"/>
  <path fill="#012841" d="M159.976 216.147c.133-.341.495-.522.838-.437l.093.029 40.733 16.185c.369.147.551.567.405.938-.133.341-.495.523-.839.438l-.093-.03-40.733-16.185c-.369-.146-.55-.567-.404-.938Z"/>
  <path fill="#BAE1F9" d="m210.168 634.561 24.018-162.152c1.822-14.023-8.177-26.807-22.14-28.309-13.964-1.502-26.418 8.868-27.577 22.962l-13.415 162.954s19.276 10.397 39.114 4.545Z"/>
  <path fill="#BAE1F9" d="M206.769 491.824c-13.515-1.453-23.377-13.555-22.154-27.187l11.605-129.511c1.356-15.137 14.766-26.219 29.773-24.606 15.005 1.614 25.788 15.297 23.941 30.382l-15.81 129.059c-1.665 13.586-13.84 23.317-27.355 21.863ZM257.87 632.683l-8.114-163.309c-.702-14.125 10.28-26.064 24.319-26.436 14.037-.372 25.628 10.966 25.665 25.109l-2.531 163.532s-20.029 8.536-39.339 1.104Z"/>
  <path fill="#BAE1F9" d="M275.368 492.417c13.588-.36 24.377-11.629 24.242-25.317l-1.287-130.03c-.15-15.198-12.636-27.326-27.723-26.926-15.086.4-26.921 13.173-26.276 28.358l5.512 129.918c.581 13.677 11.944 24.356 25.532 23.997Z"/>
  <path fill="#1890FF" d="M291.939 261.933s6.071-41.443 9.319-57.966c3.249-16.524 9.174-56.106 2.345-58.774-6.83-2.668-24.705-8.104-24.705-8.104s-14.292.554-28.579 4.216c-11.31 2.9-10.013-4.38-23.75-1.53-5.817 1.208-31.478 2.42-32.237 8.071-7.532 56.097 7.872 123.2 7.872 123.2s-5.249 5.879 1.67 12.961c2.283 2.288 17.607 1.578 35.825.9 20.739-.772 46.517-2.026 49.603-3.27 9.935-4.008 2.637-19.704 2.637-19.704Z"/>
  <path fill="#1890FF" d="m232.828 130.92 13.676 10.803-14.28 16.064-8.194-18.181 8.798-8.686ZM246.173 142.101l13.803 17.934 18.333-23.516-8.484-9.448-23.652 15.03Z"/>
  <path fill="#012841" d="M244.975 144.888c.126-.392.544-.607.934-.48.389.127.602.548.476.94l-.067.226c-.038.132-.086.308-.143.53l-.045.175c-.21.829-.445 1.876-.699 3.158l-.167.869c-.672 3.558-1.341 8.098-1.969 13.723l-.151 1.381c-1.422 13.263-2.413 30.423-2.795 51.97l-.038 2.285c-.363 23.397.717 43.411 2.413 58.314.046.41-.245.78-.652.827-.407.047-.774-.247-.821-.657l-.171-1.539c-1.575-14.532-2.567-33.616-2.269-55.778l.056-3.479c.396-22.348 1.447-39.997 2.955-53.491l.159-1.393c.612-5.254 1.261-9.52 1.912-12.889l.085-.435c.229-1.162.445-2.139.643-2.942l.165-.649c.085-.321.149-.541.189-.666ZM262.416 177.668l-.678.223c-.308.104-.513.398-.505.725l.043 1.703c.128 4.748.32 8.848.559 12.34l.114 1.567c.115 1.5.234 2.802.354 3.916l.04.364c.049.435.095.814.138 1.139l.078.559c.008.054.014.097.019.127.035.211.158.397.338.511l11.339 7.153c.239.15.541.152.781.004l13.979-8.622c.211-.131.344-.359.354-.608l.846-22.168c.014-.37-.244-.695-.606-.763l-.407-.068-.312-.048c-.574-.086-1.236-.172-1.979-.252-7.764-.833-16.363-.41-24.495 2.198Zm24.337-.713.424.047.637.078c.204.026.399.052.586.079l.308.044-.807 21.109-13.249 8.172-10.66-6.726-.106-.824-.069-.596c-.145-1.291-.29-2.863-.428-4.732l-.116-1.669-.08-1.276c-.169-2.819-.309-5.999-.412-9.556l-.052-1.971.137-.044c7.906-2.534 16.31-2.949 23.887-2.135Z"/>
  <path fill="#FFFFFF" d="M245.941 156.351c.031 1.328.947 2.385 2.047 2.36 1.1-.027 1.967-1.124 1.936-2.454-.03-1.329-.947-2.386-2.047-2.361-1.1.027-1.967 1.126-1.936 2.455ZM243.72 180.888c.031 1.33.947 2.386 2.047 2.36 1.1-.025 1.967-1.124 1.936-2.454-.031-1.329-.947-2.386-2.047-2.361-1.1.027-1.967 1.126-1.936 2.455ZM242.741 207.402c.031 1.329.947 2.386 2.047 2.361 1.1-.027 1.967-1.125 1.936-2.455-.031-1.329-.947-2.386-2.047-2.36-1.102.027-1.967 1.125-1.936 2.454ZM243.507 234.21c.031 1.328.947 2.385 2.047 2.36 1.1-.027 1.968-1.124 1.936-2.454-.031-1.329-.947-2.386-2.047-2.361-1.1.027-1.967 1.126-1.936 2.455ZM244.08 265.171c.031 1.329.947 2.386 2.047 2.36 1.1-.025 1.967-1.124 1.936-2.454-.031-1.329-.947-2.386-2.047-2.36-1.1.026-1.967 1.125-1.936 2.454Z"/>
  <path fill="#012841" d="M277.505 136.764c.252-.325.718-.382 1.04-.128.293.231.367.64.189.956l-.062.092-17.715 22.801c-.272.35-.779.379-1.09.084l-.074-.08-13.983-17.722c-.255-.322-.202-.792.119-1.048.291-.234.703-.21.967.038l.074.082 13.399 16.98 17.136-22.055Z"/>
  <path fill="#012841" d="M223.83 140.84c.329-.136.7-.005.877.294l.047.094 7.263 17.808 13.611-17.169c.222-.28.61-.347.908-.172l.087.059c.278.224.344.615.171.915l-.06.087-14.361 18.117c-.315.397-.916.34-1.161-.078l-.047-.096-7.721-18.929c-.148-.364.024-.781.386-.93ZM192.32 174.509c.358-.01.662.249.719.595l.015.267.067 1.949c.031.856.068 1.805.11 2.841l.118 2.805c.127 2.874.277 5.952.452 9.196l.059 1.087c.745 13.539 1.764 27.078 3.097 39.711l.217 2.024c1.572 14.405 3.468 26.596 5.717 35.894.049.199.009.409-.107.577-2.917 4.206-2.587 7.607-.304 10.337.393.469.814.875 1.234 1.216l.226.178.185.134.302.038c8.111.98 19.994 1.172 34.679.719l1.724-.056c8.533-.288 17.631-.774 26.931-1.403l2.503-.173c4.139-.29 8.103-.594 11.815-.899l4.552-.385 2.605-.234c.389-.037.734.251.771.643.036.392-.25.74-.639.776l-2.614.235c-.872.077-1.819.158-2.834.243l-3.986.326c-3.815.305-7.868.605-12.078.89-9.315.63-18.428 1.118-26.978 1.406l-1.716.056c-15.042.464-27.164.255-35.376-.787-.1-.013-.196-.047-.282-.1-.544-.337-1.326-.971-2.106-1.904-2.57-3.072-3.041-6.977-.161-11.492l.204-.314-.083-.348c-2.249-9.501-4.138-21.865-5.7-36.427l-.109-1.019c-1.257-11.915-2.235-24.629-2.968-37.39l-.135-2.393c-.201-3.651-.37-7.101-.511-10.299l-.196-4.768-.106-3.017c-.011-.394.296-.723.687-.735Z"/>
  <path fill="#BAE1F9" d="m297.869 337.046-43.053 20.597s-9.404 2.509-16.917.04c-12.065-3.965-32.502-10.113-40.956-22.221-1.429-17.841 5.937-42.007 5.937-42.007l.858-10.789s38.55 3.096 84.906-2.529c.486 5.309 1.912 11.764 1.912 11.764s10.568 26.926 7.313 45.145Z"/>
  <path fill="#1890FF" d="M287.449 291.265c.048.291-.148.566-.437.614l-1.191.19-1.572.237c-.563.083-1.164.17-1.801.26-3.641.515-7.729 1.029-12.167 1.509-15.606 1.687-31.409 2.531-46.159 2.073-7.097-.221-13.758-.743-19.907-1.597-.29-.04-.493-.31-.453-.602.04-.293.308-.497.598-.457 6.109.848 12.733 1.368 19.795 1.587 14.695.456 30.452-.385 46.012-2.067l2.018-.223c3.321-.376 6.425-.769 9.27-1.163l2.212-.315 2.466-.373.705-.113c.29-.048.563.149.611.44ZM288.979 280.505c.033.293-.177.557-.468.59l-2.094.222c-.563.057-1.169.118-1.815.18l-.999.097c-3.639.347-7.692.693-12.079 1.02l-1.018.075c-16.928 1.235-34.078 1.847-50.083 1.499-5.855-.128-11.439-.384-16.716-.78-.292-.022-.512-.278-.49-.572.022-.295.276-.516.569-.494 5.257.394 10.823.65 16.659.777 15.969.348 33.087-.263 49.984-1.496 4.772-.348 9.163-.721 13.074-1.093l2.378-.233 2.512-.264c.291-.033.554.178.586.472Z"/>
  <path fill="#1890FF" d="M243.19 283.739c.293.012.522.26.511.555l-.098 3.175c-.039 1.36-.077 2.854-.113 4.467-.259 11.646-.306 23.859-.008 35.28l.048 1.747c.342 11.552 1.032 21.159 2.131 28.2.045.292-.152.565-.442.611-.289.046-.561-.153-.607-.445l-.163-1.083c-1.065-7.347-1.721-17.217-2.028-29.002-.277-10.624-.256-21.927-.044-32.824l.099-4.518c.033-1.295.066-2.497.099-3.598l.066-2.049c.01-.295.257-.526.549-.516Z"/>
  <path fill="#FFFFFF" d="M234.61 290.073c.032 1.33.888 2.387 1.916 2.363 1.026-.024 1.832-1.121 1.802-2.45-.031-1.33-.888-2.387-1.915-2.363-1.027.024-1.834 1.121-1.803 2.45Z"/>
  <path fill="#1890FF" d="M232.391 295.738c.292.015.517.267.502.562l-.067 1.449c-.05 1.167-.1 2.49-.147 3.943-.223 6.905-.292 14.05-.117 20.721.075 2.831.192 5.493.357 7.958.501 7.471 2.804 10.522 10.84 11.255.292.027.507.287.48.581-.026.294-.284.51-.576.484l-.724-.074c-8.044-.917-10.562-4.451-11.079-12.174-.166-2.48-.284-5.157-.359-8.001-.16-6.087-.117-12.562.06-18.891l.057-1.894c.027-.832.055-1.622.083-2.365l.102-2.428.03-.62c.015-.295.265-.521.558-.506Z"/>
  <path fill="#FFC999" d="M315.489 278.261c-9.918 1.441-19.229-5.167-21.217-15.058l-18.288-90.989c-2.575-12.809 5.909-25.216 18.71-27.361 12.961-2.173 25.08 7.045 26.55 20.193l10.322 92.251c1.143 10.214-5.975 19.497-16.077 20.964Z"/>
  <path fill="#1890FF" d="m328.672 223.912-44.062 6.403-9.559-59.238c-2.093-12.967 6.781-25.14 19.69-27.017 12.91-1.875 24.838 7.275 26.471 20.307l7.46 59.545Z"/>
  <path fill="#012841" d="M328.566 223.173c.405-.059.781.224.839.632.054.374-.178.723-.529.824l-.098.021-44.062 6.404c-.406.058-.781-.225-.84-.633-.053-.374.178-.723.529-.824l.099-.021 44.062-6.403Z"/>
  <path fill="#FFC999" d="M245.996 143.535c-5.129 2.969-7.08 9.445-4.453 14.783l54.052 109.861c4.904 9.965 17.106 13.744 26.722 8.277 9.777-5.56 12.777-18.331 6.51-27.713l-67.96-101.726c-3.283-4.912-9.774-6.432-14.871-3.482Z"/>
  <path fill="#FFC999" d="M297.707 263.32c-.175 6.288-5.162 11.363-11.403 11.603l-118.821 4.579c-11.149.43-20.341-8.714-20.055-19.947.287-11.214 9.902-19.863 20.998-18.886l118.455 10.415c6.255.551 11.002 5.915 10.826 12.236ZM231.918 147.062s12.401 18.753 22.855 17.305c9.47-1.312 9.398-13.613 9.398-13.613s1.006-10.804-5.206-19.632c-4.259-6.054-5.849-19.796-9.576-19.348-4.858.583.614 13.583-1.899 16.099-5.088 5.098-15.849-14.455-19.295-16.694-6.736-4.376-11.322 13.502 3.723 35.883Z"/>
  <path fill="#DD936F" d="M225.047 113.049c.276-.099.58.047.678.325 1.159 3.285 2.928 6.525 5.143 9.653 1.458 2.06 3.022 3.947 4.585 5.621.437.468.849.892 1.229 1.269l.664.643c.076.071.136.127.179.165.219.197.237.535.042.755-.195.22-.531.239-.749.042l-.277-.257c-.091-.086-.197-.187-.317-.305-.467-.454-.986-.982-1.544-1.58-1.594-1.707-3.188-3.631-4.677-5.733-2.268-3.203-4.083-6.528-5.278-9.915-.099-.278.046-.584.322-.683ZM222.451 117.959c.28-.087.577.072.663.354l.084.257.175.486c.077.206.163.429.26.67.464 1.152 1.065 2.456 1.818 3.885 2.156 4.091 5.097 8.354 8.939 12.573.198.217.184.555-.032.755-.216.199-.552.185-.75-.033-3.906-4.288-6.898-8.626-9.095-12.794-.77-1.462-1.386-2.799-1.864-3.984l-.187-.477c-.058-.151-.111-.294-.16-.429l-.166-.48c-.016-.048-.028-.087-.037-.116-.086-.282.072-.581.352-.667ZM223.46 128.67c.259-.139.58-.04.718.221 2.124 4.027 4.247 7.341 6.265 9.988.616.809 1.183 1.502 1.693 2.084l.215.243c.334.374.567.614.685.728.212.203.219.542.017.755-.202.214-.538.222-.75.018l-.199-.2-.252-.267c-.091-.098-.187-.204-.29-.318-.582-.65-1.24-1.446-1.961-2.392-2.054-2.694-4.208-6.058-6.36-10.137-.138-.261-.04-.585.219-.723Z"/>
  <path fill="#DD936F" d="M224.468 109.834c1.404-.782 2.85-.242 4.197 1.056.305.293.582.607.828.92l.223.297c.04.056.074.105.101.147l.341.544.521.812c.23.354.476.727.738 1.117 1.245 1.859 2.576 3.717 3.937 5.449 1.354 1.723 2.665 3.226 3.903 4.447 2.125 2.094 3.947 3.261 5.303 3.321 1.8.081 2.675-.513 3.024-1.796.267-.982.247-2.027-.015-4.358l-.185-1.59c-.099-.896-.145-1.476-.164-2.095l-.059-1.766c-.116-3.929.133-4.475 2.145-5.094l.081-.009c.621-.053 1.372.139 2.079.77.532.475.969 1.155 1.29 2.059l.186.577c.135.435.384 1.234.501 1.605.295.934.582 1.817.887 2.722.809 2.401 1.654 4.67 2.557 6.803 1.437 3.393 2.926 6.202 4.456 8.264 1.234 1.665 2.078 4.545 2.624 8.324.296 2.053.486 4.248.59 6.448l.041.958c.032.902.044 1.63.043 2.128-.001.301-.239.54-.532.539-.264-.001-.482-.195-.522-.449l-.007-.087-.007-.783c-.011-.603-.034-1.369-.076-2.255-.103-2.168-.29-4.33-.581-6.345-.522-3.614-1.325-6.357-2.424-7.838-1.589-2.141-3.114-5.021-4.581-8.485-.915-2.16-1.769-4.454-2.586-6.878-.205-.608-.402-1.206-.598-1.816l-.89-2.832c-.272-.868-.641-1.471-1.075-1.859-.42-.374-.839-.508-1.177-.509l-.093.003-.222.074c-1.04.364-1.15.793-1.048 3.946l.071 2.072c.018.374.049.762.1 1.253l.268 2.368c.244 2.247.247 3.311-.053 4.417-.484 1.782-1.815 2.684-4.095 2.582-1.695-.076-3.699-1.359-5.998-3.625-1.274-1.256-2.614-2.792-3.993-4.547-1.38-1.756-2.726-3.635-3.985-5.515l-.508-.765c-.162-.247-.317-.486-.465-.715l-.641-1.015-.127-.18c-.039-.052-.084-.111-.136-.177-.217-.277-.462-.554-.729-.811-1.049-1.011-2.059-1.388-2.948-.893-.343.191-.681.512-1.01.98-.17.241-.501.298-.74.128-.239-.171-.296-.505-.126-.746.417-.592.871-1.023 1.361-1.297ZM172.221 240.937l105.974 9.255c.27.023.47.263.446.535-.021.242-.211.428-.442.449l-.089.001-105.974-9.255c-.27-.024-.47-.263-.446-.535.021-.242.211-.428.442-.45h.089Z"/>
  <path fill="#FFC999" d="M295.935 281.138s-17.451-5.588-22.76-14.544c-7.593-12.811 11.577-16.538 11.577-16.538s5.559-1.572 18.035-.669c6.929.502 24.807 2.379 22.693 5.862-2.506 4.125-14.644.799-15.152 4.279-.522 3.572 1.871 6.424 8.335 10.186 4.04 2.35 10.094 2.834 13.141 5.484 5.957 5.182-10.681 14.028-35.869 5.94Z"/>
  <path fill="#DD936F" d="M310.406 270.841c.19-.195.501-.197.694-.005l.152.142c.047.043.104.093.169.151.277.242.61.513.998.806 1.114.841 2.444 1.683 3.988 2.469 3.769 1.922 8.165 3.197 13.174 3.524.271.017.476.253.458.525-.017.272-.251.479-.521.461-5.147-.335-9.671-1.648-13.554-3.628-1.596-.813-2.975-1.686-4.133-2.56-.408-.307-.759-.593-1.053-.851l-.262-.235c-.044-.041-.079-.075-.105-.101-.193-.191-.195-.504-.005-.698ZM306.381 275.956c.147-.228.451-.294.679-.145.767.502 1.563.967 2.385 1.398 2.992 1.568 6.201 2.621 9.411 3.256.963.19 1.867.33 2.694.428l.407.045c.244.026.468.046.669.062l.444.028c.018.001.034.002.046.002.271.01.483.238.473.511-.009.273-.236.486-.507.477l-.327-.018-.421-.033c-.149-.013-.309-.028-.478-.046-.963-.1-2.035-.258-3.189-.486-3.296-.652-6.593-1.734-9.674-3.349-.851-.445-1.674-.927-2.468-1.446-.227-.149-.292-.455-.144-.684ZM300.441 278.393c.17-.212.479-.245.69-.073l.095.073c.063.047.15.109.261.186.316.217.704.461 1.166.724 1.329.758 2.981 1.519 4.974 2.23 2.126.758 4.518 1.414 7.185 1.938.266.052.44.312.388.58-.052.268-.309.442-.575.39-2.715-.533-5.154-1.202-7.325-1.977-2.048-.73-3.752-1.514-5.131-2.301-.388-.221-.729-.431-1.023-.625l-.212-.143c-.208-.143-.347-.247-.42-.307-.211-.171-.244-.483-.073-.695Z"/>
  <path fill="#DD936F" d="M285.462 249.809c5.351-.95 11.24-1.357 17.359-.914 4.872.352 10.483.997 14.795 1.82l.955.189c2.325.48 4.162 1.005 5.43 1.58 1.814.821 2.612 1.846 1.897 3.023-1.056 1.739-3.259 2.422-7.444 2.819l-2.519.212c-3.798.333-5.165.739-5.305 1.701-.43 2.945 2.103 5.422 9.347 9.636 1.042.607 2.181 1.072 3.665 1.535l1.286.378.974.271c3.285.914 4.789 1.519 6.223 2.765 3.422 2.977.387 6.873-6.444 8.796-7.533 2.122-18.02 1.692-29.258-1.809l-.822-.262-.872-.301c-.835-.297-1.766-.648-2.767-1.05-2.863-1.151-5.725-2.489-8.4-4.001-.292-.166-.581-.333-.867-.501-.234-.138-.312-.44-.175-.676.137-.235.437-.315.671-.177.28.166.564.329.851.492 2.634 1.489 5.459 2.809 8.284 3.945.824.331 1.598.626 2.31.885l1.182.415.266.088c11.304 3.629 21.852 4.107 29.333 2 6.216-1.75 8.638-4.859 6.066-7.096-1.236-1.074-2.588-1.641-5.487-2.46l-2.22-.629c-1.757-.525-3.075-1.044-4.29-1.752l-.77-.452c-7.022-4.159-9.556-6.771-9.057-10.184.253-1.734 1.81-2.179 6.52-2.57l1.803-.149.725-.068c3.632-.372 5.552-.996 6.354-2.317.29-.477-.114-.995-1.462-1.606-1.352-.612-3.455-1.182-6.166-1.699-4.269-.814-9.844-1.455-14.683-1.805-6.032-.437-11.841-.035-17.118.902l-.967.179c-.783.151-1.51.308-2.177.465l-.393.094c-.359.088-.673.169-.939.242l-.317.09c-.259.078-.533-.071-.61-.332-.078-.262.07-.537.329-.615l.341-.097.447-.119c.161-.041.333-.084.517-.129l.816-.192c.844-.192 1.774-.38 2.783-.56Z"/>
  <path fill="#1890FF" d="M225.644 345.139c.173-.239.505-.291.742-.117l.87.627 1.122.792c.396.277.814.567 1.252.868 2.501 1.717 5.134 3.434 7.774 5.036 1.716 1.041 3.38 2 4.973 2.858 1.104.595 2.168 1.137 3.185 1.623.172.083.287.251.301.443l.114 1.571c.037.532.073 1.071.107 1.619.255 4.043.438 8.342.562 12.669l.043 1.623c.025.975.045 1.909.062 2.796l.036 2.205.016 1.497c.002.295-.234.536-.527.538-.293.001-.533-.236-.534-.532l-.02-1.779-.045-2.581c-.014-.681-.03-1.388-.049-2.117-.122-4.859-.317-9.718-.603-14.252l-.107-1.611-.091-1.259-.346-.167c-.63-.31-1.277-.639-1.938-.988l-.667-.356c-1.609-.867-3.289-1.834-5.019-2.884-2.659-1.613-5.308-3.341-7.825-5.069l-1.26-.873-1.636-1.161-.376-.272c-.237-.174-.289-.509-.116-.747Z"/>
</svg>
