<svg xmlns="http://www.w3.org/2000/svg" width="600" height="460">
  <path stroke="#D9D9D9" stroke-linecap="square" stroke-width="4" d="M2.02466 421H602.025"/>
  <path fill="#F5F5F5" opacity=".5" d="M258 380c104.934 0 190-85.066 190-190C448 85.0659 362.934 0 258 0S68 85.0659 68 190c0 104.934 85.066 190 190 190Z"/>
  <path fill="#012841" d="M532.007 109.732H397.326v-9.264c0-2.0097 1.64-3.6391 3.663-3.6391h127.355c2.023 0 3.663 1.6294 3.663 3.6391v9.264Z"/>
  <path fill="#FFFFFF" d="M406.77 102.887c0 1.261-1.023 2.284-2.285 2.284-1.262 0-2.284-1.023-2.284-2.284s1.022-2.284 2.284-2.284c1.262 0 2.285 1.023 2.285 2.284ZM415.3 102.887c0 1.261-1.023 2.284-2.285 2.284-1.261 0-2.284-1.023-2.284-2.284s1.023-2.284 2.284-2.284c1.262 0 2.285 1.023 2.285 2.284ZM423.831 102.887c0 1.261-1.023 2.284-2.285 2.284-1.262 0-2.285-1.023-2.285-2.284s1.023-2.284 2.285-2.284c1.262 0 2.285 1.023 2.285 2.284Z"/>
  <path fill="#8CCDF6" d="M401.405 198.755c-2.253 0-4.079-1.627-4.079-3.635v-86.529h134.688v86.529c0 2.008-1.827 3.635-4.08 3.635H401.405Z"/>
  <path fill="#FFFFFF" d="M521.355 116.037h-77.991c-.898 0-1.626.726-1.626 1.621v72.571c0 .895.728 1.621 1.626 1.621h77.991c.897 0 1.625-.726 1.625-1.621v-72.571c0-.895-.728-1.621-1.625-1.621ZM434.155 115.901h-26.537c-.898 0-1.626.726-1.626 1.622v72.57c0 .896.728 1.622 1.626 1.622h26.537c.898 0 1.626-.726 1.626-1.622v-72.57c0-.896-.728-1.622-1.626-1.622Z"/>
  <path fill="#BAE1F9" d="M428.307 145.685h-14.892c-.51 0-.924.413-.924.921v2.278c0 .509.414.921.924.921h14.892c.51 0 .923-.412.923-.921v-2.278c0-.508-.413-.921-.923-.921Z"/>
  <path fill="#FF7946" d="M428.321 153.673h-14.92c-.503 0-.91.406-.91.907v2.181c0 .501.407.907.91.907h14.92c.502 0 .909-.406.909-.907v-2.181c0-.501-.407-.907-.909-.907Z"/>
  <path fill="#FFB200" d="M428.321 161.525h-14.92c-.503 0-.91.406-.91.907v2.181c0 .501.407.907.91.907h14.92c.502 0 .909-.406.909-.907v-2.181c0-.501-.407-.907-.909-.907Z"/>
  <path fill="#1890FF" d="M428.321 169.377h-14.92c-.503 0-.91.406-.91.907v2.181c0 .501.407.907.91.907h14.92c.502 0 .909-.406.909-.907v-2.181c0-.501-.407-.907-.909-.907Z"/>
  <path fill="#BAE1F9" d="M497.524 150.965h-46.578c-.598 0-1.083.484-1.083 1.081v.004c0 .597.485 1.081 1.083 1.081h46.578c.598 0 1.084-.484 1.084-1.081v-.004c0-.597-.486-1.081-1.084-1.081ZM497.524 162.066h-46.578c-.598 0-1.083.484-1.083 1.081v.004c0 .597.485 1.081 1.083 1.081h46.578c.598 0 1.084-.484 1.084-1.081v-.004c0-.597-.486-1.081-1.084-1.081ZM513.772 156.38h-62.826c-.598 0-1.083.484-1.083 1.081v.004c0 .597.485 1.081 1.083 1.081h62.826c.599 0 1.084-.484 1.084-1.081v-.004c0-.597-.485-1.081-1.084-1.081Z"/>
  <path fill="#FFB200" d="M476.4 169.106h-23.286c-1.796 0-3.251 1.452-3.251 3.243v8.948c0 1.791 1.455 3.243 3.251 3.243H476.4c1.796 0 3.251-1.452 3.251-3.243v-8.948c0-1.791-1.455-3.243-3.251-3.243Z"/>
  <path fill="#1890FF" d="M512.689 123.347H452.03c-1.197 0-2.167.968-2.167 2.162v20.045c0 1.194.97 2.162 2.167 2.162h60.659c1.197 0 2.167-.968 2.167-2.162v-20.045c0-1.194-.97-2.162-2.167-2.162Z"/>
  <path fill="#FF7946" d="M511.605 169.106h-23.286c-1.796 0-3.252 1.452-3.252 3.243v8.948c0 1.791 1.456 3.243 3.252 3.243h23.286c1.795 0 3.251-1.452 3.251-3.243v-8.948c0-1.791-1.456-3.243-3.251-3.243Z"/>
  <path fill="#FFB200" d="M420.86 137.377c4.129 0 7.477-3.377 7.477-7.543s-3.348-7.542-7.477-7.542c-4.13 0-7.477 3.376-7.477 7.542s3.347 7.543 7.477 7.543Z"/>
  <path fill="#012841" d="M420.86 137.377c2.155.001 4.2-.959 5.587-2.624-1.093-2.092-3.244-3.401-5.588-3.401s-4.496 1.309-5.588 3.401c1.387 1.665 3.433 2.625 5.589 2.624Z"/>
  <path fill="#012841" d="M420.9 131.651c1.553 0 2.812-1.27 2.812-2.836 0-1.567-1.259-2.837-2.812-2.837-1.554 0-2.813 1.27-2.813 2.837 0 1.566 1.259 2.836 2.813 2.836Z"/>
  <path fill="#FAAD14" d="M488.047 96.844c0 23.837 19.454 43.161 43.453 43.161 23.998 0 43.453-19.324 43.453-43.161 0-23.8371-19.455-43.1608-43.453-43.1608-23.999 0-43.453 19.3237-43.453 43.1608Z"/>
  <path fill="#FFFFFF" d="M522.239 84.2626c0-5.0786 4.143-9.1957 9.254-9.1957s9.254 4.1171 9.254 9.1957v4.6078h4.627v-4.605c0-7.6141-6.212-13.7864-13.874-13.7864-7.662 0-13.874 6.1723-13.874 13.7864v4.605h4.613v-4.6078Z"/>
  <path fill="#FFFFFF" d="M551.493 116.746h-39.866c-.953 0-1.733-.774-1.733-1.719V89.8112c0-.9456.78-1.7192 1.733-1.7192h39.866c.953 0 1.733.7736 1.733 1.7192v25.2158c0 .945-.78 1.719-1.733 1.719Z"/>
  <path fill="#FAAD14" d="M531.621 96.0048c.924 0 1.673.7238 1.673 1.6168v5.3164c.95.565 1.586 1.598 1.586 2.778 0 1.788-1.459 3.237-3.259 3.237-1.8 0-3.259-1.449-3.259-3.237 0-1.18.636-2.213 1.585-2.778v-5.3164c0-.8825.732-1.5998 1.641-1.6165l.033-.0003Z"/>
  <path fill="#5B8C00" d="M463.611 270.701c20.158-9.51 32.172 15.432 22.034 29.319-12.371 16.947-18.709 36.447-22.238 42.322-2.977 4.956-11.132 17.039-20.952 11.47-9.037-5.125-4.112-25.241-4.112-25.241s.4-46.138 25.268-57.87ZM402.978 349.939c-6.853-9.222-9.355-22.456-1.706-25.85 7.334-3.254 19.482 4.758 25.109 20.176 5.627 15.418 8.873 26.503 3.369 28.43-9.03 3.162-17.72-10.575-26.772-22.756Z"/>
  <path fill="#53C518" d="M475.026 350.639c-7.752 9.061-18.937 27.286-25.944 20.903-4.247-3.868 1.43-22.189 16.972-32.157 13.219-8.478 16.723 2.194 8.972 11.254ZM400.854 287.766c2.947-1.978 6.656-2.429 10.039-1.348 4.722 1.508 11.888 6 18.98 18.892 9.259 16.832 14.079 35.285 13.126 46.974-.623 7.644-10.064 10.939-15.346 5.366-2.426-2.56-4.993-6.506-7.504-12.492-10.106-24.088-19.554-39.183-20.681-40.698-3.007-4.045-5.156-12.303 1.386-16.694Z"/>
  <path fill="#FFFFFF" d="M407.631 297.374c.1 1.19-.785 2.235-1.977 2.334-1.193.1-2.24-.783-2.341-1.972-.1-1.19.786-2.234 1.978-2.334 1.193-.1 2.24.783 2.34 1.972ZM426.034 306.601c.1 1.189-.785 2.234-1.978 2.334-1.192.1-2.24-.783-2.34-1.973-.1-1.189.786-2.234 1.978-2.334 1.193-.1 2.24.784 2.34 1.973ZM422.95 331.167c.115 1.362-.9 2.559-2.265 2.673-1.366.115-2.566-.897-2.68-2.259-.115-1.362.9-2.559 2.265-2.673 1.366-.114 2.565.897 2.68 2.259ZM479.474 294.454c0 1.933-1.57 3.5-3.508 3.5s-3.509-1.567-3.509-3.5 1.571-3.5 3.509-3.5 3.508 1.567 3.508 3.5ZM451.227 305.142c0 1.933-1.571 3.5-3.509 3.5s-3.509-1.567-3.509-3.5 1.571-3.5 3.509-3.5 3.509 1.567 3.509 3.5ZM460.375 328.899c0 .808-.656 1.463-1.466 1.463-.81 0-1.467-.655-1.467-1.463s.657-1.463 1.467-1.463 1.466.655 1.466 1.463ZM470.941 347.607c0 1.194-.97 2.161-2.166 2.161-1.197 0-2.167-.967-2.167-2.161 0-1.193.97-2.161 2.167-2.161 1.196 0 2.166.968 2.166 2.161Z"/>
  <path fill="#012841" d="M420.336 352.401c.202-.193.521-.185.714.016l.092.1.07.077c.128.142.275.311.44.508.47.558.992 1.226 1.553 2.001 1.601 2.21 3.199 4.847 4.69 7.906 4.256 8.73 6.808 19.1 6.808 31.07 0 .279-.226.504-.505.504s-.506-.225-.506-.504c0-11.812-2.515-22.032-6.705-30.629-1.465-3.006-3.034-5.593-4.601-7.757-.515-.711-.994-1.327-1.427-1.847l-.081-.097c-.123-.146-.235-.276-.335-.389l-.127-.142c-.047-.051-.08-.086-.097-.105-.193-.201-.185-.52.017-.712ZM458.504 355.928c.167-.223.483-.269.707-.103.223.167.269.482.102.705-1.84 2.459-3.538 5.101-5.099 7.903-3.301 5.922-5.854 12.272-7.748 18.622-.663 2.222-1.196 4.286-1.611 6.136l-.085.38c-.099.452-.184.865-.257 1.235l-.047.242-.084.457c-.046.275-.307.46-.582.414-.275-.046-.461-.306-.414-.581l.028-.162c.024-.131.053-.285.087-.462l.084-.419c.081-.4.176-.842.283-1.324l.092-.404c.406-1.767.915-3.714 1.538-5.799 1.914-6.416 4.493-12.832 7.833-18.825 1.582-2.839 3.305-5.52 5.173-8.015Z"/>
  <path fill="#012841" d="M467.332 293.059c.194.185.208.486.038.688l-.022.024c-.01.011-.032.033-.064.068l-.124.135-.073.08c-.217.242-.47.533-.755.874-.818.976-1.731 2.15-2.715 3.524-2.815 3.932-5.632 8.667-8.263 14.211-4.379 9.23-7.79 19.757-9.858 31.591-2.51 14.371-2.926 30.07-.871 47.108.033.276-.164.527-.441.56-.277.033-.529-.164-.562-.44-2.067-17.136-1.648-32.933.879-47.401 2.083-11.926 5.522-22.539 9.94-31.85 2.657-5.599 5.505-10.385 8.354-14.365l.221-.306c.878-1.214 1.7-2.269 2.447-3.167l.094-.112c.268-.32.509-.599.721-.836l.057-.064c.066-.073.126-.138.178-.194l.105-.113c.193-.201.513-.208.714-.015ZM423.603 322.941c.238-.144.549-.068.693.17l.051.085c.041.068.088.149.142.244l.08.138c.135.238.287.511.455.819l.139.256c.514.954 1.077 2.058 1.678 3.309l.083.171c1.961 4.098 3.921 8.891 5.75 14.336 5.121 15.248 8.236 32.555 8.353 51.607.002.279-.223.506-.502.507-.279.002-.507-.222-.508-.501-.116-18.941-3.213-36.142-8.301-51.292-1.783-5.308-3.69-9.988-5.598-14l-.106-.223c-.653-1.363-1.26-2.552-1.808-3.564l-.164-.302c-.159-.288-.301-.541-.426-.759l-.06-.103-.122-.206c-.144-.238-.068-.548.171-.692Z"/>
  <path fill="#012841" d="M462.485 419.075h-43.67c-2.36 0-4.292-1.927-4.292-4.281v-31.777c0-2.355 1.932-4.281 4.292-4.281h43.67c2.36 0 4.292 1.926 4.292 4.281v31.777c0 2.354-1.932 4.281-4.292 4.281Z"/>
  <path fill="#FFC999" d="m223.962 124.636 5.122-38.1344L263.5 90.818l-.704 36.777c-.212 11.108-9.681 19.787-20.787 19.054-11.263-.742-19.547-10.846-18.047-22.013ZM272.066 78.3363c2.158-2.005 5.37-2.4297 7.499.1169 3.429 4.1033-.67 18.5099-10.485 18.6283-3.69-.6999-.383-15.6141 2.986-18.7452Z"/>
  <path fill="#DD936F" d="M276.305 80.468c.291-.0359.556.1704.592.4607.033.2613-.131.5017-.377.5734l-.084.0174c-.081.0099-.256.0544-.495.1564-.415.1776-.835.4587-1.231.8684-.715.7402-1.27 1.8129-1.592 3.287-.084.3824-.05.4787.281.6887l.23.1405c.682.4168 1.02.852 1.048 1.6695.044 1.2748-.515 2.2472-1.451 2.9245-.526.3812-1.049.5937-1.418.6854-.284.0706-.572-.1022-.643-.3862-.071-.2839.103-.5713.387-.6419l.091-.0268c.058-.0188.134-.046.223-.0822.252-.1026.504-.2373.737-.406.668-.4837 1.044-1.1374 1.014-2.0307-.013-.3581-.112-.5193-.429-.7299l-.242-.1501c-.768-.4652-1.07-.9423-.865-1.8804.363-1.6613 1.009-2.9114 1.865-3.797.859-.8888 1.737-1.2638 2.359-1.3407Z"/>
  <path fill="#FFC999" d="M221.58 74.5786c-1.836-2.304-4.951-3.1977-7.434-.9944-4.001 3.5498-2.089 18.4033 7.599 19.9748 3.755-.1465 2.702-15.3862-.165-18.9804Z"/>
  <path fill="#DD936F" d="M217.09 75.7813c.474.1317 1.135.5025 1.782 1.2311.914 1.0289 1.504 2.5018 1.634 4.4771.059.9062-.263 1.3303-1 1.6701l-.3.1284c-.417.1782-.559.3173-.63.7027-.172.9272.144 1.6586.798 2.2492.193.1744.402.322.61.4422l.158.0859c.043.022.077.0375.099.0465.27.1122.399.4222.286.6924-.112.2702-.423.3983-.693.2861-.306-.1268-.738-.3761-1.172-.7672-.907-.8192-1.375-1.903-1.13-3.2276.135-.7299.485-1.1174 1.097-1.4121l.315-.1374c.473-.197.531-.2621.503-.6901-.115-1.7457-.616-2.9947-1.369-3.8434-.294-.3304-.605-.5754-.913-.7481-.105-.0591-.194-.1011-.259-.1286l-.101-.0366c-.282-.0785-.447-.3706-.368-.6524.07-.2506.309-.4086.559-.3855l.094.0173Z"/>
  <path fill="#FFC999" d="M272.368 82.2755c-1.967 26.3465-12.922 36.6395-28.461 35.4825-14.36-1.07-24.716-14.652-23.367-40.1762 1.028-19.4732 6.839-33.1562 29.039-31.5019 23.309 1.7343 24.242 16.7505 22.789 36.1956Z"/>
  <path fill="#DD936F" d="M231.254 112.393c.189-.224.524-.253.748-.065 3.273 2.74 8.104 4.476 12.996 4.84 5.165.385 9.014-.477 13.002-2.89.251-.151.577-.072.729.179.152.25.072.576-.179.727-4.181 2.53-8.25 3.442-13.631 3.041-5.101-.38-10.142-2.192-13.599-5.086-.225-.188-.254-.522-.066-.746Z"/>
  <path fill="#012841" d="M225.171 68.8266c-2.319 2.8499-3.49 7.6768-4.038 10.8671-.076.4409-.718.4158-.757-.0311-.444-5.0355-.85-17.3542 1.265-24.2808 3.324-10.8937 17.295-18.9745 25.235-18.8014 3.23.0696 8.763.7221 14.217 6.1409 5.7 5.6644 9.382 5.3536 12.965 13.2198 2.44 5.3611-.228 19.8298-1.521 26.7209-.099.5268-.869.4868-.909-.0473-.243-3.2525-.886-7.7434-2.575-10.1036-.209-4.3119-.748-12.4016-.748-12.4016-9.403-2.9979-30.678-3.9553-41.794-2.6931l-1.34 11.4102Z"/>
  <path fill="#012841" d="M253.399 70.1904c3.486-.6129 7.475-.6972 11.715.0833.805.1482 1.338.9199 1.189 1.7235-.148.8037-.921 1.3351-1.726 1.1869-3.866-.7114-7.505-.6345-10.664-.0791-.422.0742-.804.1522-1.143.2306l-.374.0908-.315.086c-.782.2417-1.612-.1952-1.854-.9758-.242-.7807.195-1.6095.977-1.8513l.263-.0761c.44-.1212 1.092-.2712 1.932-.4188Z"/>
  <path fill="#DD936F" d="M241.664 71.4504c.236-.1107.512-.0333.658.1712l.048.0825 2.349 4.9793c.026.0564.042.1169.048.1786v.093l-1.399 16.0011 4.462.3454c.263.0203.466.2287.488.4828v.0862c-.02.2626-.229.4655-.484.487l-.086.0003-4.996-.3862c-.265-.0205-.469-.2315-.488-.4874v-.0868l1.432-16.3928-2.286-4.8493c-.111-.2353-.033-.5108.172-.6566l.082-.0483Z"/>
  <path fill="#012841" d="M228.018 67.4854c1.277-.1228 2.758-.0556 4.412.1681 1.376.1861 2.83.475 4.316.8389.754.1844 1.479.3792 2.162.5763l.916.2734.659.2101c.776.2611 1.193 1.1005.931 1.8749-.261.7744-1.102 1.1906-1.878.9296l-.652-.207-.323-.0981c-.781-.2334-1.631-.467-2.521-.6849-1.391-.3407-2.746-.6098-4.008-.7806-1.446-.1955-2.71-.2529-3.73-.1549-.815.0784-1.539-.5176-1.617-1.331-.079-.8135.518-1.5365 1.333-1.6148ZM241.741 76.7061l9.158.6807c.585.0434 1.023.5517.98 1.1352-.041.5446-.487.9623-1.022.9803l-.115-.0024-9.159-.6807c-.584-.0434-1.023-.5517-.979-1.1352.04-.5446.486-.9623 1.021-.9803l.116.0024ZM242.199 81.0295c2.348-.9612 4.641-.7805 6.687.0952.646.2762 1.123.5586 1.404.7647.473.346.575 1.009.228 1.4809-.346.4718-1.011.5738-1.483.2277-.159-.1165-.5-.3181-.985-.5258-1.563-.6687-3.282-.8041-5.045-.0822-.543.222-1.163-.0368-1.385-.5782-.223-.5414.037-1.1603.579-1.3823Z"/>
  <path fill="#FFFFFF" d="m241.046 75.9426-16.007-1.4428c-1.118-.1006-2.105.7192-2.197 1.8349-.174 2.082-.359 5.4306-.076 8.3353.335 3.427 3.183 5.7635 6.601 6.2311 4.27.5845 8.118.9352 10.263-1.1098 3.27-3.1163 3.049-8.7526 3.253-11.7076.074-1.0861-.753-2.0435-1.837-2.1411Z"/>
  <path fill="#012841" d="m241.078 75.5911-16.007-1.4427-.166-.0095-.147.0015c-1.181.0464-2.169.9603-2.269 2.1654-.25 3.0073-.315 5.9296-.075 8.3984.339 3.4657 3.174 6.0362 6.905 6.5466l1.154.1502c5.064.6218 7.588.3748 9.401-1.3545 1.491-1.4207 2.378-3.3972 2.844-5.9033l.072-.4038c.157-.9207.237-1.7197.311-3.0034l.126-2.5081c.003-.0407.006-.0805.008-.12.087-1.276-.88-2.4017-2.157-2.5168Zm-16.216-.7467.124.0057 16.028 1.444c.895.0806 1.577.8736 1.516 1.7657l-.048.8629-.056 1.1861c-.092 1.8183-.179 2.6986-.403 3.9056-.442 2.373-1.269 4.2185-2.637 5.5217-1.724 1.6432-4.352 1.7846-9.971 1.0154-3.424-.4684-5.992-2.7968-6.297-5.9158-.236-2.4179-.171-5.3028.076-8.2717.072-.8701.805-1.5239 1.668-1.5196Z"/>
  <path fill="#012841" d="m222.953 73.883 19.888 1.2682c.585.0373 1.029.5409.991 1.1248-.035.5451-.476.9674-1.011.991l-.116-.0012-19.888-1.2681c-.585-.0373-1.029-.5409-.991-1.1249.035-.545.476-.9674 1.011-.9909l.116.0011Z"/>
  <path fill="#5C4E4A" d="M234.142 78.5487c1.684.126 2.833 1.89 2.685 3.8662-.031.4075-.386.7132-.795.6828-.408-.0304-.714-.3854-.684-.7929.093-1.2355-.55-2.2232-1.317-2.2805-.768-.0574-1.552.8248-1.644 2.0607-.031.4074-.386.7131-.794.6827-.409-.0304-.715-.3854-.684-.7929.143-1.9109 1.455-3.4467 3.065-3.4331l.168.007Z"/>
  <path fill="#FFFFFF" d="m268.239 77.9671-16.007-1.4427c-1.118-.1006-2.105.7177-2.197 1.8349-.173 2.0819-.357 5.4306-.074 8.3353.335 3.427 3.183 5.7635 6.601 6.2311 4.27.5845 8.116.9352 10.263-1.1098 3.27-3.1163 3.049-8.7526 3.251-11.7076.076-1.0861-.752-2.0435-1.837-2.1412Z"/>
  <path fill="#012841" d="m268.271 77.6156-16.007-1.4427-.167-.0098-.146.0018c-1.181.0462-2.169.9595-2.269 2.1655-.249 2.9983-.314 5.9279-.073 8.3983.339 3.4657 3.174 6.0362 6.905 6.5466l.778.1032c5.316.6799 7.917.464 9.777-1.3073 1.491-1.4209 2.377-3.3976 2.843-5.9035l.072-.4042c.168-.9876.249-1.8359.326-3.2893l.103-2.0978c.005-.0853.01-.1654.015-.2441.089-1.2756-.879-2.4016-2.157-2.5167Zm-16.216-.7467.158.0079 15.994 1.4418c.896.0807 1.578.8735 1.516 1.7652l-.039.687-.079 1.6537c-.087 1.623-.176 2.4735-.388 3.6145-.441 2.3728-1.269 4.2184-2.636 5.5216-1.725 1.6432-4.353 1.7846-9.971 1.0154-3.425-.4684-5.993-2.7967-6.297-5.9157-.236-2.4197-.172-5.3118.074-8.2718.072-.8709.804-1.524 1.668-1.5196Z"/>
  <path fill="#5C4E4A" d="M258.838 80.3868c1.684.126 2.832 1.8895 2.686 3.867-.03.4075-.385.7135-.794.6835-.408-.03-.714-.3847-.684-.7922.091-1.2374-.552-2.2253-1.319-2.2827-.768-.0574-1.55.8244-1.643 2.0607-.03.4075-.386.7131-.794.6827-.408-.0304-.715-.3854-.684-.7929.143-1.9112 1.454-3.4467 3.064-3.4331l.168.007Z"/>
  <path fill="#012841" d="m250.146 75.9076 19.888 1.2681c.585.0373 1.029.5409.991 1.1249-.034.545-.476.9674-1.011.9909l-.115-.0011-19.889-1.2682c-.585-.0373-1.029-.5409-.991-1.1248.035-.545.477-.9674 1.011-.991l.116.0012Z"/>
  <path fill="#FFFFFF" d="M253.444 97.4875c-8.112.1317-15.539-1.1571-15.539-1.1571s1.494 5.0476 7.531 5.4976c6.036.448 8.008-4.3405 8.008-4.3405Z"/>
  <path fill="#FF7946" d="M237.194 96.54c.234.7892.801 1.922 1.827 3.0518 1.527 1.6822 3.629 2.7702 6.36 2.9732 2.961.22 5.284-.698 7.002-2.362.927-.8984 1.486-1.8014 1.747-2.4342.202-.4917-.166-1.0297-.698-1.021-3.661.0594-7.453-.1627-11.129-.5695-1.144-.1266-2.192-.2622-3.121-.3977l-1.15-.1792c-.541-.0939-.993.4125-.838.9386Zm2.064.9133-.107-.1824.801.1114c.682.0912 1.413.181 2.188.2667l1.123.1183c2.629.2623 5.304.4278 7.942.4628l.932.0056-.071.0996c-.209.2752-.447.5463-.716.8061-1.423 1.3796-3.337 2.1356-5.859 1.9486-2.338-.174-4.092-1.082-5.372-2.492-.334-.3678-.62-.7535-.861-1.1447Z"/>
  <path fill="#DD936F" d="M241.921 104.292c.144-.254.468-.343.723-.199l.178.093.094.045c.229.109.49.218.775.321 1.172.421 2.366.589 3.456.369.386-.078.751-.205 1.095-.383.26-.135.581-.034.716.226.135.259.033.579-.227.714-.433.225-.892.384-1.373.481-1.31.265-2.688.071-4.027-.411-.549-.197-.967-.395-1.211-.533-.255-.145-.344-.468-.199-.723Z"/>
  <path fill="#FFC999" d="M390.501 138.142c1.151 10.028-5.664 19.115-15.407 20.542l-82.031 12.002c-11.754 1.719-22.648-6.885-24.036-18.986-1.39-12.103 7.277-22.89 19.123-23.805l82.678-6.38c9.82-.758 18.521 6.599 19.673 16.627Z"/>
  <path fill="#1890FF" d="m353.627 165.736-58.246 7.728c-12.844 1.886-24.7-7.223-26.161-20.1-1.46-12.876-.351-24.479 12.591-25.507l66.136-4.473 5.68 42.352Z"/>
  <path fill="#1890FF" d="m283.773 255.958 16.349-119.721c-2.481-2.526-11.457-8.644-31.544-6.96-6.677.559-22.26 8.84-29.278 8.985-4.747.097-19.239-9.445-23.158-8.586-22.818 4.999-29.496 8.333-41.738 12.22l20.349 110.199s-6.216 20.672 5.467 20.987c90.124 2.423 78.088 1.266 78.088 1.266s11.104-2.204 5.465-18.39Z"/>
  <path fill="#1890FF" d="m223.83 122.924-8.801 6.752 11.13 19.998 14.318-12.711-16.647-14.039Z"/>
  <path fill="#012841" d="M214.662 129.589c.326-.186.733-.098.955.192l.056.083 10.679 18.654 13.636-11.989c.28-.246.692-.243.968-.011l.079.077c.246.279.243.691.01.966l-.077.078-14.318 12.59c-.326.286-.818.23-1.075-.1l-.059-.088-11.13-19.442c-.203-.355-.079-.807.276-1.01Z"/>
  <path fill="#1890FF" d="m262.844 122.924 6.312 7.444-12.945 20.418-16.038-13.83 22.671-14.032Z"/>
  <path fill="#012841" d="M267.835 132.603c.225-.342.684-.437 1.027-.213.311.204.418.602.266.929l-.053.096-11.688 17.776c-.222.338-.669.43-1.004.227l-.088-.063-15.419-12.732-2.388 117.906-.101.732-.092.735c-.046.382-.09.785-.133 1.205-.19 1.855-.31 3.701-.326 5.419-.031 3.362.348 5.833 1.16 6.913.246.327.179.791-.148 1.036-.327.245-.792.179-1.038-.148-1.076-1.432-1.491-4.132-1.456-7.815.016-1.769.139-3.659.333-5.555l.09-.834c.03-.269.062-.529.093-.78l.13-.962c.003-.018.006-.033.008-.045l.006-.027 2.411-119.341c.012-.585.657-.912 1.132-.615l.081.06 15.963 13.181 11.234-17.085Z"/>
  <path fill="#FFFFFF" d="M243.969 154.674c-.179 1.305.56 2.484 1.65 2.632 1.091.148 2.12-.79 2.298-2.095.178-1.307-.562-2.485-1.652-2.634-1.091-.148-2.118.79-2.296 2.097ZM243.663 177.176c-.178 1.307.562 2.484 1.652 2.632 1.091.148 2.118-.788 2.296-2.095.179-1.306-.56-2.484-1.65-2.634-1.091-.148-2.12.792-2.298 2.097ZM242.55 201.997c-.178 1.306.562 2.484 1.652 2.632 1.091.148 2.118-.789 2.297-2.095.178-1.307-.561-2.485-1.651-2.634-1.091-.148-2.118.792-2.298 2.097ZM241.671 251.761c-.177 1.307.562 2.485 1.652 2.633 1.091.149 2.118-.789 2.296-2.096.178-1.306-.56-2.484-1.65-2.634-1.091-.148-2.12.792-2.298 2.097ZM241.438 223.844c-.178 1.305.56 2.484 1.65 2.632 1.091.148 2.12-.79 2.298-2.095.178-1.307-.562-2.485-1.652-2.634-1.091-.148-2.118.792-2.296 2.097Z"/>
  <path fill="#012841" d="m287.629 170.176-27.451-.683c-.399-.01-.734.297-.758.694l-1.302 21.239c-.015.251.099.494.303.642l14.47 10.554c.272.198.644.188.906-.025l11.425-9.316c.146-.119.241-.29.266-.477l2.858-21.792c.057-.435-.277-.825-.717-.836Zm-26.774.813 25.914.645-2.713 20.686-10.755 8.769-13.679-9.977 1.233-20.123Z"/>
  <path fill="#BAE1F9" d="m284.006 282.884-89.558-.928 1.766-10.511 86.594.848 1.198 10.591Z"/>
  <path fill="#BAE1F9" d="M195.178 279.016s-11.928 26.659-10.699 61.205c15.178 9.994 45.679 15.694 45.679 15.694 2.274 1.177 15.895.572 18.2-.427 0 0 41.549-12.648 45.478-18.933-2.231-32.568-9.974-55.155-9.974-55.155"/>
  <path fill="#FFFFFF" d="M242.99 275.979c-.178 1.307.561 2.485 1.652 2.634 1.091.148 2.118-.79 2.296-2.096.178-1.307-.562-2.485-1.651-2.634-1.091-.148-2.119.791-2.297 2.096Z"/>
  <path fill="#FFC999" d="M170.383 273.181c-10.691-1.206-18.497-10.657-17.643-21.363l7.175-90.153c1.027-12.918 12.57-22.418 25.471-20.962 12.9 1.456 22.027 13.288 20.14 26.108l-13.167 89.478c-1.563 10.625-11.286 18.098-21.976 16.892Z"/>
  <path fill="#1890FF" d="M206.872 167.771c1.888-12.822-8.587-26.168-21.487-27.623-12.9-1.456-24.443 8.044-25.471 20.962l-5.406 61.475s41.619 2.594 43 2.594l9.364-57.408Z"/>
  <path fill="#BAE1F9" d="M209.478 496.736c-12.825-.052-23.289-10.265-23.627-23.063l-1.328-144.665c-.14-15.12 12.304-27.346 27.448-26.967 14.869.372 26.584 12.767 26.094 27.606l-4.783 144.394c-.533 12.722-11.048 22.747-23.804 22.695Z"/>
  <path fill="#BAE1F9" d="m222.926 655.379 9.429-175.792c.744-13.517-10.101-24.852-23.664-24.731-13.094.118-23.563 10.9-23.272 23.968l3.498 176.26s13.563 7.901 34.009.295ZM284.039 504.665c12.774-1.156 22.315-12.234 21.544-25.013L294.4 335.412c-1.168-15.075-14.621-26.183-29.675-24.501-14.783 1.65-25.384 15.009-23.611 29.75l17.25 143.443c1.629 12.63 12.972 21.711 25.675 20.561Z"/>
  <path fill="#FFC999" d="m307.701 81.4136-18.794-12.5659s-8.913-22.2047-13.414-25.6599c-4.501-3.4537-10.364-2.7789-15.315-4.9955-4.95-2.2167-3.844 3.2317 2.336 6.3154 6.18 3.0823 8.695 2.7331 10.195 9.0264 1.5 6.2917-.775 28.7362 8.303 32.7315 3.238 2.9713 5.781 5.2397 7.772 6.9695 4.347 3.7748 11.084 3.1977 14.509-1.425.084-.111.167-.2234.249-.3388 3.532-4.9172 9.53-7.2507 4.159-10.0577Z"/>
  <path fill="#DD936F" d="M256.002 39.0262c-.626-2.1409 1.079-2.99 3.734-1.8005.267.1198.386.4333.266.7003-.12.2669-.434.3861-.701.2663-1.948-.8729-2.597-.5495-2.28.5371.443 1.5123 2.374 3.4747 5.069 4.8197l.463.2249c1.553.7414 4.455 2.0207 4.676 2.1268 3.013 1.4453 4.316 2.9768 5.255 6.6923l.081.3336c.236.9868.418 2.3219.628 4.4685l.547 5.9604.126 1.265c.17 1.6389.344 3.0979.544 4.504l.145.9776c1.337 8.6769 3.626 14.0672 7.47 15.7592.268.118.39.4307.272.6984-.119.2677-.432.389-.7.271-4.454-1.9605-6.873-7.9515-8.238-17.5574-.202-1.4202-.378-2.8916-.548-4.5424l-.265-2.7564-.338-3.7347c-.238-2.5416-.429-4.0365-.675-5.0678-.844-3.5356-1.883-4.8838-4.513-6.1936l-.338-.1629c-.6-.2719-3.791-1.6827-5.066-2.3188-2.939-1.4662-5.078-3.6406-5.614-5.4706Z"/>
  <path fill="#012841" d="M296.992 161.812c.407.046.699.413.652.819l-.345 2.962-.288 2.326c-.815 6.143-6.563 46.095-11.533 81.26l-.942 6.664.09.195c2.091 4.649 1.908 9.303.309 13.564l-.141.364c-.295.744-.612 1.412-.929 1.995l-.156.278c-.121.211-.218.368-.285.467-.228.339-.688.43-1.028.202-.34-.227-.431-.687-.203-1.026l.121-.192c.067-.111.151-.258.249-.437.29-.531.581-1.145.853-1.831 1.636-4.129 1.837-8.647-.313-13.146-.062-.131-.085-.278-.065-.421l11.868-83.536c.37-2.638.613-4.4.698-5.078l.332-2.747c.075-.632.152-1.301.236-2.031.042-.372.354-.648.719-.656l.101.005Z"/>
  <path fill="#025D97" d="m244.448 467.889-103.551-2.784c-2.743-.074-4.909-2.354-4.835-5.095l1.957-72.542c.074-2.739 2.359-4.9 5.103-4.826l103.551 2.783c2.744.074 4.909 2.354 4.836 5.095l-1.958 72.542c-.073 2.739-2.357 4.901-5.103 4.827Z"/>
  <path fill="#012841" d="m240.923 467.794-103.552-2.784c-2.742-.073-4.908-2.354-4.834-5.094l1.957-72.542c.074-2.739 2.359-4.901 5.103-4.827l103.551 2.783c2.746.074 4.908 2.354 4.836 5.095l-1.958 72.542c-.073 2.739-2.358 4.901-5.103 4.827Z"/>
  <path fill="#FFC999" d="M192.725 384.39c-3.293 1.086-2.52 3.996-2.945 11.194-.267 4.497.833 10.362-.351 14.068-1.22 3.822-18.835 5.776-22.816-19.443 0 0-3.966-29.343 4.257-35.057 7.448-5.175 20.228 5.06 20.228 5.06s2.416 3.247 7.235 12.22l4.639 11.54-10.247.418Z"/>
  <path fill="#025D97" d="M183.426 385.474c.262-.003.478.206.481.467l.008.357c.007.293.018.633.032 1.017.042 1.096.106 2.318.197 3.635.261 3.759.689 7.519 1.322 11.024.466 2.582 1.027 4.927 1.691 6.979.081.249-.056.516-.305.596-.249.08-.517-.056-.597-.305-.679-2.096-1.25-4.481-1.723-7.102-.639-3.543-1.071-7.335-1.335-11.127l-.072-1.113c-.044-.726-.079-1.418-.107-2.07l-.038-1.03-.021-.847c-.004-.262.205-.477.467-.481ZM177.824 386.991c.262 0 .475.212.475.473.003 2.009.169 4.279.478 6.763.332 2.665.818 5.5 1.419 8.411.356 1.728.734 3.394 1.115 4.957l.191.772c.156.623.3 1.183.43 1.67l.162.599c.071.251-.077.513-.329.583-.252.07-.514-.077-.584-.329l-.166-.61-.341-1.315-.093-.369c-.448-1.792-.896-3.738-1.315-5.767-.605-2.934-1.095-5.793-1.43-8.485-.314-2.52-.483-4.828-.486-6.879 0-.261.212-.473.474-.474ZM171.58 388.071c.261-.023.491.17.514.431l.089.879c.02.18.041.372.065.577.137 1.169.314 2.484.536 3.914.634 4.085 1.5 8.271 2.632 12.319.071.252-.076.513-.329.584-.252.07-.514-.077-.584-.329-1.144-4.087-2.018-8.31-2.657-12.429l-.181-1.207c-.113-.785-.212-1.529-.298-2.228l-.127-1.099-.091-.9c-.023-.26.17-.49.431-.512Z"/>
  <path fill="#FFC999" d="m190.926 360.518-23.757 1.915-14.027-104.47c-1.35-11.212 6.957-21.277 18.24-22.098 11.284-.822 20.967 7.935 21.259 19.224l-1.715 105.429Z"/>
  <path fill="#025D97" d="M203.446 383.963c.006.261-.202.478-.464.483l-1.677.039c-1.006.026-2.012.055-2.976.086l-2.345.088c-1.505.064-2.613.132-3.203.201-2.645.313-2.895 4.108-1.814 15.707l.282 3.048c.151 1.698.252 3.051.322 4.345.015.261-.186.484-.448.499-.261.014-.485-.187-.499-.448l-.041-.707c-.059-.955-.137-1.971-.239-3.155l-.549-5.976c-.38-4.288-.467-6.289-.344-8.433.203-3.571 1.156-5.577 3.219-5.82l.43-.043c.869-.077 2.289-.148 4.132-.215l1.798-.06 2.576-.071 1.356-.032c.262-.005.479.203.484.464Z"/>
  <path fill="#012841" d="m202.791 177.398.101.004c.372.042.65.353.658.717l-.004.101-5.276 47.173c-.04.359-.332.632-.684.657h-.097l-43.001-2.594c-.409-.025-.72-.375-.695-.783.023-.374.32-.666.684-.694h.1l42.297 2.551 5.199-46.474c.037-.339.298-.598.62-.649l.098-.009ZM351.025 139.313c.374-.037.71.21.794.564l.016.1 2.529 25.686c.036.363-.198.693-.542.786l-.096.02-58.409 7.862c-.406.054-.779-.23-.834-.635-.05-.371.185-.715.537-.812l.099-.02 57.7-7.766-2.459-24.977c-.037-.372.211-.708.566-.792l.099-.016Z"/>
  <path fill="#FFC999" d="m287.538 92.1965 10.293-17.0258 83.319 47.6933c8.923 5.106 11.944 16.952 6.634 26.006-5.31 9.054-16.799 11.645-25.223 5.689l-75.023-62.3625Z"/>
  <path fill="#012841" d="M326.819 125.04c.219-.258.589-.312.87-.143l.09.064 26.077 22.076c.287.243.323.672.079.959-.219.257-.589.312-.87.143l-.09-.065-26.077-22.076c-.287-.242-.322-.671-.079-.958Z"/>
  <path fill="#1890FF" d="M283.862 281.426c.293 0 .53.238.53.53 0 .263-.192.482-.444.523l-.086.007h-89.414c-.293 0-.531-.237-.531-.53 0-.263.193-.482.445-.523l.086-.007h89.414Z"/>
  <path fill="#012841" d="M282.756 270.706c.41 0 .742.331.742.74 0 .374-.279.684-.641.733l-.101.006h-86.542c-.409 0-.741-.331-.741-.739 0-.375.279-.685.641-.734l.1-.006h86.542Z"/>
  <path fill="#1890FF" d="M238.402 271.447c.264 0 .483.192.524.444l.007.086v83.791c0 .292-.238.529-.531.529-.263 0-.482-.192-.523-.444l-.007-.085v-83.791c0-.293.237-.53.53-.53Z"/>
  <path fill="#1890FF" d="M248.345 354.958c.293-.006.536.225.543.518.007.263-.181.486-.432.533l-.086.009-18.199.426c-.294.007-.537-.225-.544-.517-.006-.264.182-.486.433-.533l.086-.009 18.199-.427ZM251.572 282.466c.264 0 .483.192.524.444l.007.086v42.094c0 3.37-1.73 6.498-4.568 8.296l-.269.165-7.667 4.523c-.253.149-.578.066-.727-.186-.133-.224-.081-.505.109-.67l.078-.056 7.667-4.523c2.588-1.526 4.208-4.265 4.31-7.25l.005-.299v-42.094c0-.293.238-.53.531-.53Z"/>
</svg>
