<svg xmlns="http://www.w3.org/2000/svg" width="600" height="460">
  <path stroke="#F0F0F0" stroke-linecap="square" stroke-width="4" d="M2.02466 421H602.025"/>
  <path fill="#F0F0F0" opacity=".6" d="M260 380c104.934 0 190-85.066 190-190C450 85.0659 364.934 0 260 0S70 85.0659 70 190c0 104.934 85.066 190 190 190Z"/>
  <path fill="#012841" d="M511.142 103.825H390.141V92.9612c0-2.3566 1.906-4.2674 4.258-4.2674h112.484c2.352 0 4.259 1.9108 4.259 4.2674v10.8638Z"/>
  <path fill="#8CCDF6" d="M506.883 208.429H394.399c-2.352 0-4.258-1.91-4.258-4.267V102.553h121.001v101.609c0 2.357-1.907 4.267-4.259 4.267Z"/>
  <path fill="#FFFFFF" d="M399.974 95.7358c0 1.479-1.197 2.6781-2.673 2.6781s-2.672-1.1991-2.672-2.6781 1.196-2.6782 2.672-2.6782c1.476 0 2.673 1.1992 2.673 2.6782ZM409.955 95.7358c0 1.479-1.196 2.6781-2.672 2.6781-1.476 0-2.673-1.1991-2.673-2.6781s1.197-2.6782 2.673-2.6782 2.672 1.1992 2.672 2.6782ZM419.937 95.7358c0 1.479-1.197 2.6781-2.673 2.6781s-2.672-1.1991-2.672-2.6781 1.196-2.6782 2.672-2.6782c1.476 0 2.673 1.1992 2.673 2.6782ZM403.219 194.028c-.734 0-1.329-.596-1.329-1.331v-77.134c0-.735.595-1.33 1.329-1.33h96.167c.734 0 1.329.595 1.329 1.33v77.134c0 .735-.595 1.331-1.329 1.331h-96.167Z"/>
  <path fill="#1890FF" d="M467.844 159.012c-5.771 0-10.461-4.719-10.461-10.554-.02-5.798 4.655-10.514 10.441-10.534h.02c5.768 0 10.457 4.718 10.457 10.55-.01 5.819-4.689 10.534-10.457 10.538Zm26.026-14.224c-.203-1.15-1.302-2.327-2.45-2.579l-.855-.198c-2.078-.631-3.838-2.033-4.919-3.92-1.093-1.905-1.417-4.158-.905-6.295l.269-.808c.344-1.121-.102-2.668-.997-3.434 0 0-.804-.683-3.059-1.998-2.267-1.307-3.237-1.672-3.237-1.672-1.102-.407-2.643-.016-3.45.844l-.593.641c-1.568 1.503-3.657 2.338-5.827 2.33-2.182.006-4.281-.836-5.856-2.35l-.571-.624c-.794-.861-2.345-1.242-3.45-.841 0 0-.984.365-3.246 1.672-2.266 1.325-3.063 2.008-3.063 2.008-.892.759-1.337 2.29-.993 3.424l.246.818c.506 2.134.182 4.381-.905 6.285-1.08 1.903-2.854 3.311-4.949 3.93l-.822.188c-1.128.262-2.24 1.422-2.45 2.579 0 0-.187 1.038-.187 3.673s.187 3.67.187 3.67c.203 1.164 1.302 2.327 2.45 2.58l.803.187c2.098.621 3.876 2.034 4.955 3.943 1.128 1.981 1.4 4.235.905 6.295l-.233.799c-.344 1.12.101 2.668.997 3.433 0 0 .803.683 3.059 1.998 2.266 1.314 3.24 1.672 3.24 1.672 1.098.408 2.643.017 3.449-.844l.564-.611c3.28-3.145 8.447-3.141 11.723.006l.564.615c.794.857 2.345 1.242 3.45.841 0 0 .983-.365 3.249-1.673 2.263-1.314 3.056-1.997 3.056-1.997.896-.756 1.342-2.3.997-3.434l-.246-.828c-.508-2.127-.184-4.367.905-6.262 1.086-1.903 2.86-3.315 4.955-3.943l.807-.188c1.128-.262 2.239-1.422 2.449-2.579 0 0 .187-1.038.187-3.67-.02-2.638-.203-3.683-.203-3.683ZM431.673 172.347c-2.569 1.463-5.849.552-7.323-2.046-1.473-2.576-.584-5.861 1.987-7.337l.009-.005c2.567-1.463 5.847-.552 7.32 2.044 1.466 2.593.574 5.879-1.993 7.344Zm7.993-12.934c-.381-.46-1.167-.706-1.742-.527l-.431.129c-1.084.246-2.222.068-3.18-.497-.968-.571-1.681-1.492-1.993-2.573l-.084-.428c-.13-.586-.72-1.162-1.312-1.276 0 0-.53-.101-1.866-.113-1.339-.008-1.864.076-1.864.076-.593.098-1.181.663-1.322 1.251l-.103.436c-.318 1.067-1.037 1.968-2.005 2.515-.97.556-2.117.713-3.201.439l-.411-.133c-.571-.182-1.358.042-1.748.501 0 0-.346.412-1.023 1.568-.675 1.164-.857 1.67-.857 1.67-.205.564-.017 1.359.423 1.776l.316.302c.765.822 1.188 1.905 1.185 3.028 0 1.121-.434 2.197-1.21 3.004l-.319.293c-.436.403-.638 1.201-.439 1.769 0 0 .179.51.845 1.683.666 1.173 1.01 1.586 1.01 1.586.385.467 1.167.706 1.742.527l.405-.12c1.091-.256 2.24-.078 3.202.499 1.003.595 1.693 1.53 1.993 2.573l.098.414c.13.586.72 1.162 1.311 1.276 0 0 .531.1 1.867.113 1.341.011 1.865-.077 1.865-.077.592-.097 1.181-.663 1.322-1.251l.097-.415c.666-2.232 2.967-3.541 5.221-2.97l.406.13c.57.181 1.357-.042 1.748-.5 0 0 .346-.412 1.024-1.569.675-1.159.856-1.665.856-1.665.208-.563.016-1.364-.424-1.781l-.318-.306c-.763-.818-1.185-1.898-1.179-3.018.002-1.122.435-2.201 1.209-3.012l.312-.288c.436-.403.638-1.201.439-1.77 0 0-.179-.509-.844-1.681-.675-1.169-1.021-1.588-1.021-1.588Z"/>
  <path fill="#BAE1F9" d="M427.357 127.903h-14.708c-.961 0-1.747-.787-1.747-1.75v-.147c0-.963.786-1.75 1.747-1.75h14.708c.961 0 1.747.787 1.747 1.75v.147c0 .963-.786 1.75-1.747 1.75ZM423.243 136.438h-9.101c-1.005 0-1.82-.816-1.82-1.824 0-1.007.815-1.824 1.82-1.824h9.101c1.005 0 1.82.817 1.82 1.824 0 1.008-.815 1.824-1.82 1.824Z"/>
  <path fill="#FFB200" d="M532 51.8568c-23.766 0-43.031 19.2242-43.031 42.9385 0 23.7147 19.265 42.9387 43.031 42.9387s43.031-19.224 43.031-42.9387c0-23.7143-19.265-42.9385-43.031-42.9385Z"/>
  <path fill="#FFFFFF" d="M533.757 107.063h-1.537c-1.273 0-2.305-1.03-2.305-2.3V75.6262c0-1.2704 1.032-2.3003 2.305-2.3003h1.537c1.273 0 2.306 1.0299 2.306 2.3003v29.1368c0 1.27-1.033 2.3-2.306 2.3ZM533.757 116.493h-1.537c-1.273 0-2.305-1.03-2.305-2.3v-1.534c0-1.27 1.032-2.3 2.305-2.3h1.537c1.273 0 2.306 1.03 2.306 2.3v1.534c0 1.27-1.033 2.3-2.306 2.3Z"/>
  <path fill="#5B8C00" d="M462.122 269.701c20.066-9.51 32.025 15.432 21.934 29.319-12.315 16.947-18.623 36.447-22.136 42.322-2.964 4.956-11.081 17.039-20.856 11.47-8.996-5.125-4.093-25.241-4.093-25.241s.397-46.138 25.151-57.87ZM401.768 348.939c-6.822-9.222-9.313-22.456-1.699-25.85 7.301-3.254 19.393 4.758 24.994 20.176 5.601 15.418 8.833 26.503 3.354 28.43-8.989 3.162-17.639-10.575-26.649-22.756Z"/>
  <path fill="#53C518" d="M473.485 349.64c-7.716 9.06-18.85 27.285-25.825 20.902-4.228-3.868 1.424-22.189 16.894-32.156 13.159-8.479 16.647 2.193 8.931 11.254ZM399.653 286.767c2.934-1.978 6.625-2.43 9.993-1.349 4.7 1.508 11.833 6 18.893 18.892 9.216 16.832 14.014 35.285 13.066 46.974-.62 7.644-10.018 10.939-15.276 5.366-2.415-2.56-4.97-6.506-7.469-12.491-10.06-24.089-19.465-39.183-20.587-40.699-2.993-4.045-5.132-12.303 1.38-16.693Z"/>
  <path fill="#FFFFFF" d="M406.4 296.374c.099 1.19-.782 2.235-1.969 2.334-1.187.1-2.23-.783-2.33-1.972-.099-1.19.782-2.235 1.969-2.334 1.187-.1 2.23.783 2.33 1.972ZM424.718 305.601c.1 1.189-.782 2.234-1.969 2.334-1.187.1-2.23-.783-2.329-1.973-.1-1.189.782-2.234 1.969-2.334 1.187-.1 2.23.784 2.329 1.973ZM421.648 330.167c.114 1.362-.896 2.559-2.255 2.673-1.359.115-2.553-.897-2.667-2.259-.114-1.362.895-2.559 2.254-2.673 1.359-.114 2.554.897 2.668 2.259ZM477.913 293.454c0 1.933-1.563 3.5-3.492 3.5-1.93 0-3.493-1.567-3.493-3.5s1.563-3.5 3.493-3.5c1.929 0 3.492 1.567 3.492 3.5ZM449.795 304.142c0 1.933-1.564 3.5-3.493 3.5-1.929 0-3.493-1.567-3.493-3.5s1.564-3.5 3.493-3.5c1.929 0 3.493 1.567 3.493 3.5ZM458.902 327.899c0 .808-.654 1.463-1.46 1.463-.806 0-1.46-.655-1.46-1.463s.654-1.463 1.46-1.463c.806 0 1.46.655 1.46 1.463ZM469.419 346.607c0 1.194-.965 2.161-2.156 2.161-1.191 0-2.157-.967-2.157-2.161 0-1.193.966-2.161 2.157-2.161s2.156.968 2.156 2.161Z"/>
  <path fill="#012841" d="M419.046 351.4c.201-.192.519-.184.711.017l.092.1.069.077c.127.142.274.311.438.508.467.558.987 1.226 1.546 2.001 1.593 2.21 3.184 4.847 4.669 7.906 4.236 8.73 6.776 19.1 6.776 31.07 0 .279-.225.504-.503.504s-.503-.225-.503-.504c0-11.812-2.504-22.032-6.675-30.629-1.458-3.006-3.019-5.593-4.579-7.757-.513-.711-.99-1.327-1.421-1.847l-.081-.097c-.122-.146-.233-.276-.333-.389l-.126-.142c-.047-.051-.08-.087-.097-.105-.192-.202-.184-.52.017-.713ZM457.039 354.927c.166-.223.481-.268.704-.102.222.167.268.482.102.705-1.832 2.458-3.522 5.101-5.077 7.903-3.286 5.922-5.826 12.272-7.712 18.622-.66 2.222-1.191 4.286-1.604 6.136l-.084.38c-.098.452-.183.865-.256 1.235l-.047.242-.083.457c-.046.275-.306.46-.58.414-.274-.047-.458-.307-.412-.581l.029-.162c.023-.131.052-.285.086-.462l.083-.42c.081-.399.175-.841.283-1.323l.091-.404c.404-1.767.911-3.714 1.53-5.799 1.905-6.416 4.473-12.832 7.797-18.825 1.576-2.839 3.291-5.52 5.15-8.016Z"/>
  <path fill="#012841" d="M465.827 292.059c.192.185.206.486.037.688l-.022.024c-.01.011-.031.033-.063.068l-.124.135-.072.08c-.216.242-.468.533-.752.874-.814.976-1.723 2.15-2.702 3.524-2.803 3.932-5.607 8.667-8.225 14.21-4.36 9.23-7.755 19.758-9.813 31.592-2.499 14.371-2.913 30.069-.867 47.108.033.276-.164.527-.439.56-.276.033-.527-.164-.56-.44-2.057-17.136-1.641-32.933.875-47.401 2.074-11.926 5.497-22.539 9.895-31.85 2.644-5.599 5.479-10.386 8.315-14.365l.22-.306c.875-1.214 1.692-2.269 2.437-3.167l.092-.112c.268-.32.508-.599.719-.836l.056-.064c.066-.073.125-.138.177-.195l.105-.112c.192-.201.51-.208.711-.015ZM422.298 321.941c.237-.144.546-.068.69.17l.051.085c.04.068.087.149.141.244l.079.138c.135.238.287.511.454.819l.138.256c.511.954 1.072 2.058 1.67 3.309l.082.171c1.952 4.098 3.904 8.891 5.724 14.336 5.098 15.248 8.199 32.555 8.315 51.607.002.279-.222.506-.5.507-.277.002-.504-.222-.506-.501-.115-18.941-3.197-36.142-8.262-51.293-1.775-5.307-3.673-9.987-5.573-14l-.105-.222c-.65-1.363-1.254-2.553-1.799-3.564l-.164-.302c-.158-.288-.3-.541-.425-.759l-.059-.103-.121-.206c-.144-.238-.068-.548.17-.692Z"/>
  <path fill="#012841" d="M461.002 418.074h-43.47c-2.349 0-4.272-1.926-4.272-4.281v-31.776c0-2.355 1.923-4.281 4.272-4.281h43.47c2.349 0 4.272 1.926 4.272 4.281v31.776c0 2.355-1.923 4.281-4.272 4.281Z"/>
  <path fill="#FFC999" d="M278.462 639.988c7.581.951 14.559-4.27 15.807-11.827l26.716-161.663c1.924-11.645-6.197-22.559-17.876-24.024-11.682-1.465-22.234 7.105-23.23 18.867L266.05 624.619c-.648 7.634 4.831 14.418 12.412 15.369ZM224.752 646.424c7.639.173 14.051-5.732 14.527-13.377L249.477 469.5c.734-11.782-8.452-21.812-20.219-22.081-11.769-.266-21.399 9.335-21.198 21.138l2.787 163.843c.129 7.66 6.266 13.85 13.905 14.024Z"/>
  <path fill="#FFC999" d="M232.716 294.664c13.867.316 24.755 12.018 24.112 25.913l-6.928 149.38c-.535 11.505-10.128 20.481-21.61 20.219-11.483-.261-20.659-9.665-20.672-21.181l-.161-149.544c-.016-13.909 11.392-25.102 25.259-24.787Z"/>
  <path fill="#012841" d="M299.423 182.063s35.262-22.427 1.959-49.731c7.836-19.501-10.775-27.952-10.775-27.952 5.223-3.9 13.06-20.1513-6.856-34.1274 0-22.1033-18.944-22.8606-18.944-22.8606s-27.134-15.1946-39.684 3.7129c-24.42 4.7281-19.734 30.522-19.734 30.522s-14.039 9.7524-7.509 22.7531c-7.836 7.801-9.142 16.252-3.265 22.102-22.529 21.453-5.877 40.955-5.877 40.955s-12.597 32.856 30.012 32.856c6.856 25.352 49.956 20.477 50.934-.975 25.467 12.676 29.739-17.255 29.739-17.255Z"/>
  <path fill="#FFC999" d="M273.098 80.2172c-14.084 2.4609-18.365-8.1481-18.365-8.1481s-5.812-14.9416-7.3-5.7688c-.79 4.8754-8.364-1.5947-11.843 3.6025-2.342 3.4984 3.513 8.0056-4.098 17.3304-4.409 5.4038 12.985 9.7139 2.253 19.6708 0 0 6.627 13.013-6.48 16.977l-.921 14.469c-.527 8.275 6.08 15.272 14.408 15.257 8.12-.011 14.628-6.694 14.386-14.773l-.534-18.001c20.351 0 21.344-27.8438 18.494-40.6158Z"/>
  <path fill="#FC192F" d="M247.176 95.0821c.327-.3301.859-.332 1.188-.0044.078.078.25.2318.511.4364.444.3492.965.7003 1.558 1.0285 2.01 1.1124 4.304 1.6885 6.829 1.4455.462-.0444.872.2949.917.7579.044.463-.294.8744-.756.9188-2.889.278-5.514-.381-7.802-1.6476-1.161-.6428-1.986-1.2916-2.44-1.7441-.33-.3276-.332-.8609-.005-1.191Z"/>
  <path fill="#DD936F" d="M258.239 81.069c.312.0223.555.2693.582.5721l.001.1135c-.017.4831.078 1.2881.395 2.3796.509 1.7542 1.46 3.7222 2.964 5.8685.208.2967.124.7076-.183.8993l-.858.5311c-1.253.7684-2.354 1.4106-3.306 1.9368l-.312.1711c-.259.1408-.495.2664-.708.3776l-.59.2995c-.083.0405-.144.0694-.183.0875-.317.1453-.69.006-.835-.3112-.145-.3171-.006-.692.31-.8373l.337-.1648.382-.1956c.137-.0715.285-.1494.442-.234l.244-.1319c1.003-.546 2.189-1.2335 3.564-2.0765l.288-.1785-.226-.3415c-1.146-1.7713-1.935-3.4336-2.424-4.9665l-.116-.3805c-.325-1.1212-.446-2.0041-.447-2.6176l.006-.2156c.025-.3479.326-.6099.673-.5851ZM241.077 117.494c.165-.307.547-.421.853-.255 3.949 2.14 8.045 3.215 12.16 3.272.348.005.626.291.622.64-.005.349-.291.628-.639.623-4.319-.06-8.615-1.187-12.742-3.424-.306-.166-.42-.549-.254-.856Z"/>
  <path fill="#012841" d="M248.786 80.8875c.479 0 .867.3888.867.8686 0 3.3282-2.516 6.0513-5.653 6.0513-3.137 0-5.652-2.7234-5.652-6.0513 0-.4798.388-.8686.866-.8686.479 0 .866.3888.866.8686 0 2.397 1.771 4.3141 3.92 4.3141 2.15 0 3.92-1.9168 3.92-4.3141 0-.4798.388-.8686.866-.8686ZM270.716 81.4829c.454 0 .822.3688.822.8238 0 3.2874-2.26 6.0065-5.128 6.0065-2.869 0-5.129-2.7188-5.129-6.0065 0-.455.367-.8238.821-.8238.454 0 .822.3688.822.8238 0 2.4374 1.597 4.359 3.486 4.359 1.887 0 3.485-1.9219 3.485-4.359 0-.455.367-.8238.821-.8238ZM239.349 72.1077c3.317-1.3932 6.828-1.2535 10.148-.1921.954.3051 1.667.6134 2.075.8278.424.2226.587.7476.365 1.1725-.222.425-.745.589-1.169.3664l-.219-.1058c-.067-.0311-.147-.0669-.239-.1066-.392-.1694-.841-.3398-1.34-.4992-2.962-.9471-6.071-1.0708-8.951.1393-.526.2206-1.037.4846-1.535.794-.406.2529-.94.1273-1.193-.2804-.252-.4076-.126-.9431.28-1.1959.576-.358 1.169-.6641 1.778-.92Z"/>
  <path fill="#FFC999" d="M276.074 288.759c13.741-1.896 26.343 7.926 27.906 21.748l16.798 148.59c1.293 11.444-6.758 21.832-18.137 23.401-11.38 1.569-21.927-6.254-23.762-17.623l-23.822-147.622c-2.217-13.732 7.276-26.6 21.017-28.494Z"/>
  <path fill="#025D97" d="M286.438 258.943c14.159 1.111 47.766 90.839 60.463 122.924-1.689 6.462-12.017 17.862-12.017 17.862s1.105 5.144 1.785 8.234c-12.082 9.966-35.451 15.377-35.451 15.377l-.051 4.421c-37.362 17.252-87.396.719-87.396.719s-.932-.959-.263-4.426c-16.965-.197-53.288-21.778-53.288-21.778l5.162-10.678-14.938-15.333s40.343-74.425 52.762-95.243c10.902-18.276 21.127-23.537 21.127-23.537s36.981-.516 62.105 1.458Z"/>
  <path fill="#012841" d="M221.953 275.059c.152-.313.529-.442.841-.289.281.138.414.457.326.748l-.037.096-61.433 125.847.356.264.7.505.841.591c1.019.705 2.167 1.467 3.441 2.274 4.685 2.969 10.091 5.938 16.146 8.71 9.415 4.31 19.516 7.734 30.183 9.943.34.071.559.404.489.746-.07.341-.403.56-.743.49-10.764-2.23-20.954-5.684-30.451-10.031-6.109-2.797-11.565-5.794-16.296-8.791-1.473-.934-2.782-1.809-3.919-2.607l-.419-.296c-.346-.246-.654-.47-.925-.671l-.473-.355c-.047-.036-.084-.064-.11-.085-.205-.161-.288-.428-.217-.672l.039-.102 61.661-126.315ZM296.592 300.635c.292-.111.616.011.767.274l.044.093 40.479 107.377c.104.276.003.588-.244.75l-.289.186c-.236.15-.513.323-.831.518-.908.555-1.962 1.173-3.151 1.839-3.397 1.899-7.2 3.799-11.322 5.571-6.723 2.892-13.627 5.158-20.543 6.56-.34.069-.672-.152-.741-.493-.069-.342.151-.675.492-.744 6.825-1.383 13.647-3.623 20.296-6.482 4.08-1.755 7.845-3.635 11.205-5.514.839-.469 1.609-.915 2.307-1.33l1.028-.623.435-.272-40.298-106.897c-.111-.293.011-.618.273-.769l.093-.044Z"/>
  <path fill="#012841" d="M270.292 261.342c.341-.068.672.153.74.495l2.645 13.395c.841 4.28 1.735 8.854 2.674 13.68l2.049 10.563c3.281 16.974 6.537 34.096 9.634 50.738l1.727 9.321 2.041 11.133c4.077 22.386 7.461 41.859 9.979 57.626.048.304-.129.598-.419.697-1.833.625-3.688 1.203-5.565 1.736-22.626 6.425-46.763 6.061-69.557 1.593-3.316-.65-6.335-1.343-9.016-2.039l-.723-.19c-.572-.152-1.104-.298-1.595-.437l-1.036-.299c-.452-.134-.762-.23-.922-.282-.27-.088-.444-.344-.436-.62l.012-.104 28.172-141.583c.068-.342.399-.564.74-.495.307.061.516.336.506.64l-.012.102-28.061 141.024.358.108c.633.187 1.362.394 2.18.615l.417.111c2.831.754 6.068 1.507 9.657 2.211 22.617 4.433 46.565 4.794 68.973-1.569 1.392-.395 2.772-.815 4.14-1.262l.859-.288-.708-4.386c-2.305-14.139-5.233-30.941-8.676-49.905l-1.246-6.837-1.74-9.46-.445-2.404c-3.624-19.555-7.488-39.86-11.369-59.88l-3.596-18.44-2.874-14.566c-.068-.341.153-.674.493-.742Z"/>
  <path fill="#012841" d="M255.294 263.761c.312.019.558.262.59.564l.002.103-6.621 117.752c-.02.347-.317.614-.664.595-.312-.019-.558-.262-.59-.564l-.002-.102 6.621-117.752c.02-.348.317-.614.664-.596ZM237.681 261.165c.103-.332.455-.518.787-.415.299.093.479.389.437.689l-.023.101-24.858 80.255c-.103.333-.456.519-.788.416-.298-.093-.478-.389-.436-.69l.022-.1 24.859-80.256Z"/>
  <path fill="#025D97" d="m221.628 258.94 1.067-8.116s31.957.193 63.298-1.381c.794 3.602 1.703 10.085 1.703 10.085-2.635-2.169-31.105 4.169-66.068-.588Z"/>
  <path fill="#012841" d="M284.332 258.898c.347-.017.642.252.658.6.016.348-.252.644-.599.66-14.67.688-28.894.983-41.45.958l-3.541-.016c-3.518-.025-6.674-.077-9.245-.148l-2.061-.065c-.89-.032-1.622-.066-2.159-.099l-.549-.039c-.1-.009-.184-.018-.254-.026-.113-.014-.193-.027-.266-.049l-.049-.006c-.059-.014-.11-.069-.367-.345l.075-.416c.084-.437.12-.441.304-.458.131-.046.267-.045.39-.007l.073.029.413.037.738.045c.7.037 1.637.074 2.755.109l1.513.043c2.814.072 6.28.123 10.122.142l.724.003c12.872.051 27.584-.24 42.775-.952Z"/>
  <path fill="#FFC999" d="M337.334 244.114c7.532-4.704 9.836-14.641 5.147-22.193l-44.693-70.731c-4.691-7.552-14.599-9.862-22.132-5.16l-.95-.797c-7.531 4.704-8.887 15.438-4.196 22.992l44.693 70.729c4.689 7.554 14.598 9.864 22.131 5.16Z"/>
  <path fill="#1890FF" d="m289.768 199.254-19.377-31.204c-4.672-7.522-2.355-17.508 5.146-22.193 7.501-4.683 17.462-2.361 22.132 5.161l20.195 30.655-28.096 17.581Z"/>
  <path fill="#025D97" d="M268.829 165.183c.2-.133.463-.098.623.07l.055.069 21.821 33.177 26.266-17.46c.2-.133.462-.099.623.069l.055.069c.133.201.099.464-.069.625l-.068.055-26.675 17.732c-.2.134-.463.099-.623-.069l-.056-.069-22.091-33.588c-.149-.227-.087-.531.139-.68Z"/>
  <path fill="#FFC999" d="M349.826 137.04c5.042.967 8.521 5.285 7.897 9.804l-12.041 87.209c-1.403 7.969-9.866 13.081-18.815 11.365-9.029-1.731-15.025-9.729-13.27-17.702l25.384-84.859c1.265-4.23 5.967-6.752 10.845-5.817Z"/>
  <path fill="#FFC999" d="M363.375 117.72s.079 23.744-7.748 31.947c-6.409 6.713-13.038-2.029-13.038-2.029s-5.036-4.547-8.948-12.999c-2.577-5.569-6.31-16.775-3.315-18.847 3.908-2.703 7.342 10.309 10.562 9.209 3.306-1.127 3.579-3.378 4.623-10.272.655-4.31.998-8.779 1.126-12.623.215-6.4641 14.402-6.3232 16.738 15.614Z"/>
  <path fill="#DD936F" d="M349.6 98.8493c.304-.1014.631.0629.732.367.079.2366-.003.488-.186.6357l-.022.0134-.006.0225c-.011.0411-.021.0939-.029.1571l-.011.101c-.028.304-.019.726.022 1.231.025.317.062.655.107 1.003l.081.573c.026.169.049.315.07.432.536 4.303.367 8.191-.242 11.51-.123.67-.254 1.261-.387 1.768l-.136.489c-.018.061-.033.11-.046.149-.101.304-.428.469-.732.368-.303-.101-.467-.43-.367-.734l.039-.125c.024-.078.053-.181.087-.307l.035-.134c.126-.48.251-1.043.369-1.684.588-3.207.752-6.977.235-11.127l-.048-.295c-.036-.228-.072-.475-.106-.732-.047-.366-.086-.724-.113-1.061l-.033-.473c-.071-1.2697.054-1.9359.687-2.1477ZM355.001 99.2724c.319.0265.556.3069.529.6264-.026.3192-.306.5572-.624.5302-.778-.064-1.111.47-1.13 1.656-.007.461.041.963.127 1.465l.069.365c.021.1.038.177.05.224l.046.159c.027.1.06.229.098.388.105.432.209.935.306 1.504.628 3.692.659 8.019-.301 12.712-.064.314-.37.517-.683.452-.313-.064-.515-.371-.451-.685.929-4.542.899-8.726.294-12.283-.074-.434-.152-.826-.231-1.175l-.122-.505c-.028-.108-.051-.191-.07-.252l-.052-.221c-.029-.133-.061-.297-.094-.487-.097-.567-.152-1.138-.143-1.68.027-1.698.698-2.8386 2.198-2.8035l.184.0099ZM358.772 110.431c.818 4.53.651 8.18-.137 10.973-.256.907-.517 1.517-.742 1.897l-.326.443-.328.458c-.171.241-.352.5-.54.776-.9 1.312-1.8 2.722-2.639 4.174-.953 1.65-1.766 3.25-2.396 4.758-1.615 3.871-1.882 6.798-.539 8.393.206.245.175.611-.069.818-.245.207-.61.176-.816-.069-1.715-2.038-1.413-5.351.357-9.59.65-1.558 1.485-3.201 2.462-4.892.855-1.48 1.77-2.915 2.686-4.25l.373-.539.639-.893c.093-.128.157-.212.174-.229l.084-.165c.025-.054.054-.119.087-.195.141-.331.284-.734.419-1.211.77-2.729.911-6.375.002-11.06l-.01-.231c-.026-.784-.006-1.665.098-2.507.149-1.214.443-2.128.977-2.665.226-.226.593-.227.819 0 .201.201.224.514.067.74l-.066.081c-.299.3-.528 1.012-.648 1.986-.076.617-.104 1.269-.099 1.878l.011.586.1.535ZM341.249 126.053c.219-.245.594-.265.838-.046l.261.243.32.31c.112.11.229.227.35.35.691.706 1.383 1.477 2.03 2.293 1.177 1.485 2.074 2.947 2.577 4.338.582 1.611.615 3.076-.029 4.326-.151.291-.509.406-.8.255-.291-.151-.405-.51-.254-.802.472-.916.447-2.048-.032-3.373-.453-1.252-1.286-2.611-2.391-4.004-.619-.78-1.283-1.521-1.947-2.198l-.335-.336-.305-.296c-.115-.109-.196-.183-.237-.22-.244-.219-.264-.596-.046-.84Z"/>
  <path fill="#1890FF" d="M285.732 167.491c3.434 7.505 9.797 20.424 10.587 28.958 1.284 13.835-7.699 24.132-7.699 24.132s-.091-4.07-.963 31.777c-37.827 3.623-67.386-.458-67.386-.458l.802-9.502-6.683-22.462s-4.06-8.365-12.403-27.027c-5.799-12.974-5.396-29.057-4.611-37.657.337-3.684-.963-8.108 2.703-8.516 10.641-1.186 20.853-2.874 20.853-2.874l1.169-8.209c.201-1.406 1.402-2.451 2.818-2.451h30.247c1.3 0 2.434.884 2.756 2.145l2.218 8.669 21.535-.21c2.939.576 2.34 6.906 2.647 9.893l1.41 13.792Z"/>
  <path fill="#025D97" d="M256.641 143.781c.28 0 .507.228.507.509 0 .25-.179.458-.416.501l-.091.008h-27.237c-.28 0-.507-.228-.507-.509 0-.25.179-.458.416-.501l.091-.008h27.237ZM197.391 154.744c.28.008.501.242.493.523l-.038 1.654c-.004.242-.009.495-.013.757-.069 4.034-.076 8.296.018 12.285l.047 1.708c.131 4.068.374 7.349.746 9.587.428 2.572 2.034 6.889 4.526 12.445l.236.525c.459 1.014.942 2.059 1.447 3.13 1.112 2.361 2.289 4.762 3.478 7.121l1.151 2.263 1.706 3.28.056.115 10.792 32.266.024.212-.915 9.32 1.207.132 1.917.191c1.664.158 3.519.314 5.549.461 17.383 1.263 36.745 1.265 56.247-.816l1.18-.129.12-4.279.393-11.508.519-14.297.063-.228.319-.596c.256-.487.541-1.046.848-1.669.878-1.779 1.756-3.709 2.575-5.72 1.164-2.858 2.111-5.641 2.763-8.254.631-2.528.967-4.827.967-6.844 0-5.046-.668-8.918-2.165-12.913-.8-2.134-1.842-4.341-3.383-7.237l-.735-1.355-4.242-7.689-.063-.226-.321-8.526c-.01-.281.208-.518.489-.528.249-.01.463.162.515.398l.011.091.317 8.404 4.159 7.54.766 1.412.562 1.068c1.259 2.423 2.16 4.381 2.876 6.29 1.541 4.112 2.229 8.106 2.229 13.271 0 2.109-.347 4.488-.997 7.091-.664 2.665-1.626 5.492-2.808 8.392-.829 2.035-1.717 3.987-2.605 5.787l-.362.725c-.117.231-.23.452-.338.661l-.43.812-.87 24.537c-.105 3.203-.163 5.242-.163 5.847 0 .259-.194.477-.451.506-20.119 2.266-40.135 2.3-58.058.998l-2.218-.17c-1.428-.115-2.754-.233-3.971-.352l-1.746-.179-1.281-.146c-.243-.03-.425-.228-.443-.465l.001-.09.951-9.711-10.723-32.082-.549-1.042c-.436-.832-.922-1.771-1.445-2.794-1.495-2.925-2.991-5.949-4.386-8.911l-.744-1.593c-.121-.262-.241-.523-.359-.781l-.35-.771c-2.663-5.889-4.379-10.453-4.84-13.223-.432-2.603-.691-6.531-.806-11.438-.081-3.433-.088-7.064-.044-10.579l.046-2.862.031-1.307c.008-.281.241-.503.522-.495Z"/>
  <path fill="#FFC999" d="m181.31 259.73-1.241-.248c-8.683-1.742-14.312-10.21-12.575-18.916l16.029-80.366c1.735-8.705 10.182-14.35 18.863-12.61l1.242.25c8.681 1.742 14.311 10.21 12.574 18.915l-16.029 80.366c-1.736 8.706-10.182 14.35-18.863 12.609Z"/>
  <path fill="#1890FF" d="m208.172 206.692 8.991-42.375c1.662-8.337-2.702-15.779-11.688-17.581h-3.149c-8.986-1.803-17.02 4.523-18.682 12.858l-8.29 36.28 32.818 10.818Z"/>
  <path fill="#025D97" d="m216.81 165.755.087.011c.235.05.394.261.387.493l-.011.088-8.624 40.449c-.053.251-.288.413-.533.384l-.091-.019-32.819-10.369c-.257-.081-.4-.356-.319-.614.072-.23.297-.369.527-.339l.086.018 32.306 10.206 8.511-39.921c.044-.206.211-.353.407-.382l.086-.005Z"/>
  <path fill="#1890FF" d="m250.209 303.031 4.12-.232c2.97-.169 5.513 2.11 5.679 5.088l3.91 69.68c.168 2.978-2.104 5.529-5.074 5.695l-4.119.234c-2.97.167-5.514-2.11-5.68-5.088l-3.91-69.682c-.168-2.978 2.104-5.529 5.074-5.695Z"/>
  <path fill="#012841" d="m158.357 308.214 92.199-5.204c2.97-.166 5.512 2.112 5.679 5.09l3.911 69.68c.167 2.979-2.105 5.528-5.075 5.696l-92.198 5.203c-2.97.167-5.514-2.11-5.68-5.088l-3.91-69.682c-.168-2.978 2.104-5.529 5.074-5.695Z"/>
  <path fill="#FFC999" d="M196.074 353.555c-5.084.71-9.826-2.715-10.765-7.776l-18.114-97.698c-1.37-9.034 4.888-17.448 13.912-18.708 9.104-1.271 17.464 5.229 18.504 14.388l4.731 99.8c.236 4.975-3.348 9.307-8.268 9.994Z"/>
  <path fill="#FFC999" d="M185.644 350.145s-4.715-17.201 3.719-23.455c7.637-5.665 14.19 1.292 14.19 1.292s7.608 5.881 12.922 15.17c3.5 6.122 8.979 18.436 6.022 20.714-3.856 2.97-9.249-11.329-12.575-10.121-3.414 1.24-2.518 4.279-2.746 11.857-.142 4.736 1.574 9.461.689 13.454-1.73 7.804-17.295-2.519-22.221-28.911Z"/>
  <path fill="#DD936F" d="M200.711 358.136c.098-.335.448-.527.782-.429.334.098.525.449.427.784l-.091.365c-.072.316-.145.688-.213 1.113-.83 5.182-.229 11.517 2.886 18.347.145.317.006.692-.31.837-.317.145-.691.006-.835-.312-3.227-7.074-3.852-13.659-2.985-19.073.055-.34.112-.649.171-.927l.058-.268c.048-.21.087-.356.11-.437ZM195.002 356.547c.347.029.605.334.576.681-.349 4.252.261 8.537 1.493 12.587.348 1.142.72 2.178 1.092 3.087l.186.446.28.622c.008.017.015.031.02.042.155.313.027.692-.285.847-.311.154-.689.026-.844-.286l-.147-.316-.18-.408c-.063-.146-.128-.302-.196-.468-.386-.944-.771-2.016-1.131-3.197-1.275-4.192-1.907-8.632-1.543-13.059.028-.348.333-.607.679-.578ZM190.009 352.4c.341.065.566.395.502.738l-.03.202c-.008.062-.017.134-.026.218l-.013.134c-.307 3.218.169 7.943 2.07 14.079.103.333-.083.687-.415.79-.332.104-.685-.083-.788-.416-1.89-6.099-2.412-10.882-2.149-14.251l.028-.322c.03-.323.062-.546.085-.668.058-.308.331-.522.634-.514l.102.01Z"/>
</svg>
