<svg xmlns="http://www.w3.org/2000/svg" width="600" height="460">
  <style>
    .gear-1 {
      transform-origin: 408.279px 311.056px;
      animation: spin 1.6s linear infinite;
    }
    .gear-2 {
      transform-origin: 483.285px 377px;
      animation: spin-reverse 1.6s linear infinite;
    }
    @keyframes spin {
      100% {
        transform: rotate(360deg);
      }
    }
    @keyframes spin-reverse {
      100% {
        transform: rotate(-360deg);
      }
    }
  </style>
  <path fill="#F0F0F0" opacity=".6" d="M302 460c127.025 0 230-102.975 230-230S429.025 0 302 0 72 102.975 72 230s102.975 230 230 230Z"/>
  <path fill="#8CCDF6" d="M451.021 99.2427H113.734c-5.793 0-10.49 4.7483-10.49 10.6053V354.73c0 5.857 4.697 10.605 10.49 10.605h337.287c5.793 0 10.49-4.748 10.49-10.605V109.848c0-5.857-4.697-10.6053-10.49-10.6053Z"/>
  <path fill="#012841" d="M425.18 146.558H139.575c-2.202 0-3.987 1.805-3.987 4.032v186.351c0 2.227 1.785 4.032 3.987 4.032H425.18c2.202 0 3.987-1.805 3.987-4.032V150.59c0-2.227-1.785-4.032-3.987-4.032Z"/>
  <path fill="#FFFFFF" d="M373.62 206.27H174.908v9.436H373.62v-9.436Z"/>
  <path fill="#FFB200" d="M274.259 239.093h-99.356v9.436h99.356v-9.436Z"/>
  <path fill="#8CCDF6" d="M274.259 304.74h-99.356v9.435h99.356v-9.435ZM234.511 173.322h-59.614v9.435h59.614v-9.435ZM324.175 238.968H294.32v9.436h29.855v-9.436Z"/>
  <path fill="#FFFFFF" d="M323.939 271.917H174.906v9.435h149.033v-9.435Z"/>
  <path fill="#012841" d="M112.841 86.9712h338.893c5.3 0 9.597 4.2535 9.597 9.5005v28.3113H103.244V96.4717c0-5.247 4.297-9.5005 9.597-9.5005Z"/>
  <path fill="#FF7946" d="M123.756 112.658c3.783 0 6.85-3.036 6.85-6.781 0-3.745-3.067-6.7808-6.85-6.7808-3.782 0-6.849 3.0358-6.849 6.7808s3.067 6.781 6.849 6.781Z"/>
  <path fill="#FFB200" d="M149.339 112.658c3.783 0 6.849-3.036 6.849-6.781 0-3.745-3.066-6.7808-6.849-6.7808-3.783 0-6.849 3.0358-6.849 6.7808s3.066 6.781 6.849 6.781Z"/>
  <path fill="#53C518" d="M174.925 112.658c3.783 0 6.85-3.036 6.85-6.781 0-3.745-3.067-6.7808-6.85-6.7808-3.782 0-6.849 3.0358-6.849 6.7808s3.067 6.781 6.849 6.781Z"/>
  <g id="gears">
    <circle fill="transparent" class="gear-mask-1" cx="408.279" cy="311.056" r="60"/>
    <path fill="#FFB200" class="gear-1"  d="M408 330.992c-11.041 0-19.992-8.951-19.992-19.992s8.951-19.992 19.992-19.992 19.992 8.951 19.992 19.992-8.951 19.992-19.992 19.992Zm60-10.949v-18.087l-14.255-3.622c-1.046-3.785-2.548-7.379-4.444-10.721l7.52-12.645-12.789-12.789-12.645 7.52c-3.342-1.896-6.937-3.398-10.721-4.444L417.043 251h-18.087l-3.622 14.255c-3.785 1.046-7.379 2.548-10.721 4.444l-12.645-7.52-12.789 12.789 7.52 12.645c-1.896 3.342-3.398 6.937-4.444 10.721L348 301.956v18.087l14.255 3.623c1.046 3.784 2.548 7.379 4.444 10.721l-7.52 12.645 12.789 12.789 12.645-7.52c3.342 1.896 6.936 3.398 10.721 4.444L398.956 371h18.087l3.623-14.255c3.784-1.046 7.379-2.548 10.721-4.444l12.645 7.52 12.789-12.789-7.52-12.645c1.896-3.342 3.398-6.937 4.444-10.721L468 320.043Z"/>
    <circle fill="transparent" class="gear-mask-2" cx="483.285" cy="377" r="60"/>
    <path fill="#012841" class="gear-2" d="M483 397.332c-11.041 0-19.992-8.951-19.992-19.992 0-11.042 8.951-19.992 19.992-19.992s19.992 8.95 19.992 19.992c0 11.041-8.951 19.992-19.992 19.992Zm60-10.949v-18.087l-14.255-3.622c-1.046-3.785-2.547-7.379-4.444-10.721l7.52-12.645-12.789-12.789-12.645 7.52c-3.342-1.897-6.937-3.399-10.721-4.444l-3.622-14.255h-18.088l-3.622 14.255c-3.784 1.045-7.379 2.547-10.721 4.444l-12.645-7.52-12.789 12.789 7.52 12.645c-1.897 3.342-3.398 6.936-4.444 10.721L423 368.296v18.087l14.255 3.623c1.046 3.784 2.547 7.379 4.444 10.721l-7.52 12.644 12.789 12.79 12.645-7.52c3.342 1.896 6.937 3.398 10.721 4.444l3.622 14.255h18.088l3.622-14.255c3.784-1.046 7.379-2.548 10.721-4.444l12.645 7.52 12.789-12.79-7.52-12.644c1.897-3.342 3.398-6.937 4.444-10.721L543 386.383Z"/>
  </g>
  <path fill="#0072BC" d="m496.59 294.597-20.93-4.041 22.141-25.108c-1.974-.316-3.997-.483-6.06-.483-21.011 0-38.043 17.033-38.043 38.043 0 21.011 17.032 38.043 38.043 38.043 21.01 0 38.042-17.032 38.042-38.043 0-1.479-.087-2.937-.251-4.372l-32.942-4.039Z"/>
  <path fill="#30A5EF" d="m496.59 294.597-39.365-7.599c-2.262 4.867-3.527 10.29-3.527 16.01 0 5.15 1.025 10.059 2.879 14.539l-84.425 78.32c-5.147 16.213 10.383 31.365 26.464 25.82l1.122-.387 77.742-83.015c4.404 1.782 9.217 2.766 14.261 2.766 21.01 0 38.042-17.032 38.042-38.043 0-11.411-5.025-21.648-12.983-28.621l-20.21 20.21Z"/>
  <path fill="#0072BC" d="m456.504 346.215-8.278-8.277 8.278-8.277 8.277 8.277-8.277 8.277Z"/>
  <path fill="#1890FF" d="M126.097 168.368c40.368 0 73.092-32.97 73.092-73.6402 0-40.6705-32.724-73.6404-73.092-73.6404-40.3676 0-73.0921 32.9699-73.0921 73.6404 0 40.6702 32.7245 73.6402 73.0921 73.6402Z"/>
  <path fill="#0072BC" d="M126.097 163.108c37.484 0 67.871-30.615 67.871-68.3802 0-37.7655-30.387-68.3804-67.871-68.3804-37.4842 0-67.8712 30.6149-67.8712 68.3804 0 37.7652 30.387 68.3802 67.8712 68.3802Z"/>
  <path fill="#FFFFFF" d="M126.097 160.642c36.133 0 65.424-29.511 65.424-65.9143 0-36.4037-29.291-65.9147-65.424-65.9147-36.1326 0-65.424 29.511-65.424 65.9147 0 36.4033 29.2914 65.9143 65.424 65.9143Z"/>
  <path fill="#012841" d="M126.097 52.7988c1.442 0 2.611 1.1775 2.611 2.63v37.3709h-5.221V55.4288c0-1.4525 1.168-2.63 2.61-2.63Z"/>
  <path fill="#012841" d="M152.678 94.7277c0 1.4525-1.169 2.63-2.611 2.63h-23.97v-5.26h23.97c1.442 0 2.611 1.1775 2.611 2.63Z"/>
  <path fill="#FF7946" d="M126.097 100.81c3.334 0 6.037-2.7231 6.037-6.0821 0-3.3589-2.703-6.0819-6.037-6.0819s-6.037 2.723-6.037 6.0819c0 3.359 2.703 6.0821 6.037 6.0821Z"/>
  <path fill="#8CCDF6" d="M128.701 39.4974c0-1.4525-1.169-2.63-2.61-2.63-1.442 0-2.611 1.1775-2.611 2.63v5.2601c0 1.4525 1.169 2.63 2.611 2.63 1.441 0 2.61-1.1775 2.61-2.63v-5.2601ZM85.4834 53.8175c1.0195-1.027 2.6723-1.027 3.6917 0l3.6918 3.7194c1.0194 1.0271 1.0194 2.6924 0 3.7194-1.0195 1.0271-2.6723 1.0271-3.6917 0l-3.6918-3.7194c-1.0194-1.027-1.0194-2.6923 0-3.7194ZM68.6675 94.7342c0-1.4525 1.1687-2.63 2.6104-2.63h5.2209c1.4417 0 2.6104 1.1775 2.6104 2.63 0 1.4526-1.1687 2.6301-2.6104 2.6301h-5.2209c-1.4417 0-2.6104-1.1775-2.6104-2.6301ZM85.4924 135.647c-1.0195-1.027-1.0195-2.693 0-3.72l3.6917-3.719c1.0194-1.027 2.6723-1.027 3.6917 0s1.0194 2.692 0 3.719l-3.6917 3.72c-1.0195 1.027-2.6723 1.027-3.6917 0ZM123.493 149.958c0 1.452 1.169 2.63 2.611 2.63 1.441 0 2.61-1.178 2.61-2.63v-5.26c0-1.453-1.169-2.63-2.61-2.63-1.442 0-2.611 1.177-2.611 2.63v5.26ZM166.71 135.637c-1.019 1.027-2.672 1.027-3.691 0l-3.692-3.72c-1.02-1.027-1.02-2.692 0-3.719 1.019-1.027 2.672-1.027 3.692 0l3.691 3.719c1.02 1.027 1.02 2.692 0 3.72ZM183.527 94.7213c0 1.4525-1.169 2.63-2.611 2.63h-5.221c-1.441 0-2.61-1.1775-2.61-2.63s1.169-2.63 2.61-2.63h5.221c1.442 0 2.611 1.1775 2.611 2.63ZM166.702 53.8106c1.02 1.0271 1.02 2.6923 0 3.7194l-3.692 3.7194c-1.019 1.0271-2.672 1.0271-3.691 0-1.02-1.027-1.02-2.6923 0-3.7194l3.691-3.7194c1.02-1.0271 2.673-1.0271 3.692 0Z"/>
</svg>



