<svg width="228.14" height="36.1" viewBox="0 0 228.14 36.1" role="img" xmlns="http://www.w3.org/2000/svg">
	<g fill="#0391EC">
		<path d="M23.48 17.44a6.69 6.69 0 01-1.34-.13 7.65 7.65 0 011.32-15.18 7.5 7.5 0 011.34.12 7.65 7.65 0 01-1.32 15.19m0-14a6.39 6.39 0 00-5.23 10.06 6.25 6.25 0 004.13 2.63 6 6 0 001.12.1 6.4 6.4 0 001.1-12.7 7 7 0 00-1.12-.09M20.59 34a7.39 7.39 0 01-1.33-.12 7.65 7.65 0 119-7.54 7.73 7.73 0 01-.12 1.36 7.64 7.64 0 01-7.55 6.3m0-14a6.39 6.39 0 00-1.15 12.69 6 6 0 001.12.1 6.4 6.4 0 001.15-12.69 6.71 6.71 0 00-1.1-.09" />
		<path d="M7.65 23.24a7.65 7.65 0 010-15.3 7.5 7.5 0 011.34.12 7.65 7.65 0 01-1.34 15.18m0-14a6.4 6.4 0 00-1.1 12.7 7 7 0 001.12.1 6.4 6.4 0 001.1-12.7 7 7 0 00-1.12-.1" />
	</g>
	<path fill="#C9D5DD" d="M41.35 0v36.1h-1.36V0z" />
	<path fill="#576E7D" d="M58.67 25.16l-5.68-14.9h-.09c.1 1.18.16 2.58.16 4.2v10.7h-1.83V8.35h2.95l5.32 13.87h.09l5.4-13.87h2.92v16.81h-2V14.33a36.1 36.1 0 01.16-4.05h-.08l-5.74 14.88zm21.29 0l-.38-1.79h-.09A5.34 5.34 0 0177.61 25a5.85 5.85 0 01-2.34.42 4.26 4.26 0 01-2.94-1 3.54 3.54 0 01-1.07-2.74c0-2.55 2-3.88 6.11-4l2.14-.07v-.78a3.12 3.12 0 00-.64-2.19 2.6 2.6 0 00-2-.71 8.24 8.24 0 00-3.56 1l-.59-1.46a8.42 8.42 0 012-.79 8.3 8.3 0 012.27-.33 4.76 4.76 0 013.35 1 4.2 4.2 0 011.08 3.21v8.6zm-4.31-1.35a3.89 3.89 0 002.8-1 3.67 3.67 0 001-2.74V19l-1.9.08a6.93 6.93 0 00-3.29.71 2.12 2.12 0 00-1 1.95 1.94 1.94 0 00.62 1.57 2.62 2.62 0 001.77.5zm15.41-11.48a6.86 6.86 0 011.5.13l-.26 1.77a6.43 6.43 0 00-1.38-.17 3.37 3.37 0 00-2.62 1.24 4.55 4.55 0 00-1.09 3.1v6.76h-1.9v-12.6h1.57l.22 2.33h.09A5.52 5.52 0 0188.88 13a3.76 3.76 0 012.18-.67zm5.75 6.38a22.27 22.27 0 011.5-1.84l4.07-4.31h2.27l-5.11 5.37 5.45 7.23h-2.3l-4.45-6-1.43 1.24v4.72h-1.89V7.27h1.89v9.48a17.13 17.13 0 01-.1 2zm15.8 6.68a5.85 5.85 0 01-4.41-1.7 6.64 6.64 0 01-1.62-4.7 7.33 7.33 0 011.5-4.84 5 5 0 014-1.79 4.76 4.76 0 013.75 1.55 6 6 0 011.41 4.09v1.2h-8.68a5 5 0 001.12 3.37 3.87 3.87 0 003 1.15 10.18 10.18 0 004-.85v1.7a10.43 10.43 0 01-1.91.63 11.2 11.2 0 01-2.16.19zm-.52-11.47a3.09 3.09 0 00-2.42 1 4.51 4.51 0 00-1.06 2.74h6.59a4.17 4.17 0 00-.81-2.77 2.8 2.8 0 00-2.3-.97zm12.48 9.89a6.73 6.73 0 001-.07 6.08 6.08 0 00.74-.16V25a3.62 3.62 0 01-.91.25 7.89 7.89 0 01-1.09.1c-2.44 0-3.65-1.28-3.65-3.85V14h-1.81v-.92l1.81-.79.8-2.7h1.1v2.93h3.66V14h-3.66v7.42a2.56 2.56 0 00.54 1.74 1.9 1.9 0 001.47.65zm4.08-14.67a1.29 1.29 0 01.32-1 1.15 1.15 0 01.81-.3 1.07 1.07 0 01.79.31 1.22 1.22 0 01.33 1 1.27 1.27 0 01-.33 1 1.15 1.15 0 01-.79.32 1.17 1.17 0 01-.81-.32 1.34 1.34 0 01-.32-1.01zm2.07 16h-1.91V12.56h1.91zm12.67 0V17a3.24 3.24 0 00-.7-2.3 2.81 2.81 0 00-2.19-.76 3.58 3.58 0 00-2.9 1.07 5.33 5.33 0 00-.92 3.53v6.61h-1.91V12.56h1.55l.31 1.72h.09a3.84 3.84 0 011.65-1.44 5.2 5.2 0 012.36-.51 4.73 4.73 0 013.42 1.09A4.69 4.69 0 01145.3 17v8.22zm16.15-12.6v1.2l-2.33.28a3.8 3.8 0 01.82 2.47 3.74 3.74 0 01-1.26 3 6 6 0 01-4.53 1 1.88 1.88 0 00-1.25 1.66.83.83 0 00.42.76 3.18 3.18 0 001.46.25h2.24a4.94 4.94 0 013.14.86 3 3 0 011.1 2.51 3.59 3.59 0 01-1.68 3.19 9.11 9.11 0 01-4.9 1.1 6.7 6.7 0 01-3.78-.92 3 3 0 01-1.34-2.6 2.87 2.87 0 01.74-2 3.69 3.69 0 012.07-1.14 2.09 2.09 0 01-.82-.68 1.79 1.79 0 01-.32-1.07 2 2 0 01.37-1.2 3.83 3.83 0 011.16-1 3.33 3.33 0 01-1.6-1.36 4 4 0 01-.61-2.21 4.05 4.05 0 011.24-3.19 5 5 0 013.52-1.12 6 6 0 011.78.23zm-10.05 14.74a1.74 1.74 0 00.86 1.55 4.9 4.9 0 002.47.53 7 7 0 003.56-.72 2.22 2.22 0 001.16-1.95 1.53 1.53 0 00-.63-1.42 4.88 4.88 0 00-2.38-.4h-2.29a3 3 0 00-2 .62 2.25 2.25 0 00-.75 1.79zm1-10.69a2.58 2.58 0 00.75 2 3 3 0 002.08.68c1.87 0 2.8-.9 2.8-2.71a2.5 2.5 0 00-2.13-2.84 2.06 2.06 0 00-.7 0 2.8 2.8 0 00-2.07.72 2.94 2.94 0 00-.7 2.15zm25.21-6.74a5.47 5.47 0 00-4.37 1.85 7.4 7.4 0 00-1.61 5 7.56 7.56 0 001.55 5.1 5.49 5.49 0 004.41 1.8 15 15 0 004-.63v1.71a12.41 12.41 0 01-4.31.66 7.29 7.29 0 01-5.73-2.25 9.3 9.3 0 01-2-6.41 10 10 0 011-4.55 7 7 0 012.81-3 8.46 8.46 0 014.32-1 10.37 10.37 0 014.62 1l-.83 1.68a8.68 8.68 0 00-3.83-1zm9.29 15.31h-1.9V7.27h1.9zm15-6.31a7 7 0 01-1.55 4.81 5.5 5.5 0 01-4.29 1.73 5.76 5.76 0 01-3-.79 5.26 5.26 0 01-2-2.28 8 8 0 01-.71-3.47 7 7 0 011.55-4.85 5.44 5.44 0 014.28-1.71 5.28 5.28 0 014.2 1.76 6.89 6.89 0 011.52 4.8zm-9.6 0a6 6 0 001 3.68 3.83 3.83 0 005.42.26 2.23 2.23 0 00.27-.26 6 6 0 001-3.68 5.83 5.83 0 00-1-3.65 3.89 3.89 0 00-5.51-.19 1.7 1.7 0 00-.19.19 6 6 0 00-1 3.65zm14.74-6.29v8.17a3.37 3.37 0 00.7 2.3 2.87 2.87 0 002.2.76 3.62 3.62 0 002.89-1.08 5.47 5.47 0 00.92-3.53v-6.62h1.9v12.6h-1.57l-.28-1.69h-.1a3.74 3.74 0 01-1.63 1.42 5.52 5.52 0 01-2.37.5 4.9 4.9 0 01-3.45-1.09 4.72 4.72 0 01-1.14-3.5v-8.24zm21.24 10.91h-.1a4.49 4.49 0 01-4 1.92 4.65 4.65 0 01-3.84-1.69 7.46 7.46 0 01-1.38-4.81 7.51 7.51 0 011.38-4.84 5.12 5.12 0 017.23-.44 5 5 0 01.55.58h.15l-.08-.91V7.27h1.91v17.89h-1.6zm-3.82.32a3.47 3.47 0 002.84-1.06 5.45 5.45 0 00.88-3.44v-.4a6.37 6.37 0 00-.89-3.82 3.39 3.39 0 00-2.85-1.15 2.91 2.91 0 00-2.54 1.31 6.45 6.45 0 00-.89 3.69 6.31 6.31 0 00.89 3.64 3 3 0 002.54 1.23z" />
</svg>
