<svg xmlns="http://www.w3.org/2000/svg" viewBox="0 0 65 68">
  <g data-key="clab-sign" fill="#0391EC">
    <path fill-rule="evenodd" d="M49 68c8.8366 0 16-7.1634 16-16s-7.1634-16-16-16-16 7.1634-16 16 7.1634 16 16 16zm0-3c7.1797 0 13-5.8203 13-13s-5.8203-13-13-13-13 5.8203-13 13 5.8203 13 13 13zM16 50c8.8366 0 16-7.1634 16-16s-7.1634-16-16-16C7.16344 18 0 25.1634 0 34s7.16344 16 16 16zm0-3c7.1797 0 13-5.8203 13-13s-5.8203-13-13-13S3 26.8203 3 34s5.8203 13 13 13zM48 32c8.8366 0 16-7.1634 16-16 0-8.83656-7.1634-16-16-16S32 7.16344 32 16c0 8.8366 7.1634 16 16 16zm0-3c7.1797 0 13-5.8203 13-13S55.1797 3 48 3 35 8.8203 35 16s5.8203 13 13 13z" clip-rule="evenodd"/>
  </g>
</svg>
