<svg xmlns="http://www.w3.org/2000/svg" viewBox="0 0 672 68">
  <g data-name="logo-mc-full">
    <g data-name="clab-sign" fill="#1890ff">
      <path clip-rule="evenodd" fill-rule="evenodd" d="M49 68c8.8366 0 16-7.1634 16-16s-7.1634-16-16-16-16 7.1634-16 16 7.1634 16 16 16zm0-3c7.1797 0 13-5.8203 13-13s-5.8203-13-13-13-13 5.8203-13 13 5.8203 13 13 13zM16 50c8.8366 0 16-7.1634 16-16s-7.1634-16-16-16C7.16344 18 0 25.1634 0 34s7.16344 16 16 16zm0-3c7.1797 0 13-5.8203 13-13s-5.8203-13-13-13S3 26.8203 3 34s5.8203 13 13 13zM48 32c8.8366 0 16-7.1634 16-16 0-8.83656-7.1634-16-16-16S32 7.16344 32 16c0 8.8366 7.1634 16 16 16zm0-3c7.1797 0 13-5.8203 13-13S55.1797 3 48 3 35 8.8203 35 16s5.8203 13 13 13z"/>
    </g>
    <g data-name="mc-full-typo" fill="#141414">
      <path d="M99.228 50.276c4.738 0 8.97-1.61 11.822-4.738l-2.162-2.162c-2.622 2.714-5.842 3.864-9.522 3.864-7.774 0-13.616-5.704-13.616-13.34s5.842-13.34 13.616-13.34c3.68 0 6.9 1.15 9.522 3.818l2.162-2.162c-2.852-3.128-7.084-4.692-11.776-4.692-9.706 0-16.882 6.946-16.882 16.376 0 9.43 7.176 16.376 16.836 16.376zM124.22 50.23c7.084 0 12.282-5.152 12.282-12.328 0-7.176-5.198-12.282-12.282-12.282s-12.328 5.106-12.328 12.282 5.244 12.328 12.328 12.328zm0-2.898c-5.152 0-9.016-3.772-9.016-9.43 0-5.658 3.864-9.43 9.016-9.43s8.97 3.772 8.97 9.43c0 5.658-3.818 9.43-8.97 9.43zM153.29 25.62c-4.186 0-7.452 1.702-9.2 4.646v-4.462h-3.128V50h3.266V37.304c0-5.52 3.266-8.74 8.464-8.74 4.6 0 7.268 2.622 7.268 7.728V50h3.266V35.97c0-6.946-4.048-10.35-9.936-10.35zM181.477 46.182c-.92.828-2.254 1.242-3.588 1.242-2.714 0-4.186-1.564-4.186-4.416V28.564h7.36v-2.76h-7.36v-5.29h-3.266v5.29h-4.324v2.76h4.324v14.628c0 4.462 2.53 7.038 7.084 7.038 1.886 0 3.818-.552 5.106-1.702l-1.15-2.346zM194.829 25.62c-3.818 0-7.406 1.196-9.844 3.266l1.472 2.438c1.978-1.748 4.922-2.852 8.05-2.852 4.508 0 6.854 2.254 6.854 6.394v1.472h-7.682c-6.946 0-9.338 3.128-9.338 6.854 0 4.186 3.358 7.038 8.832 7.038 4.002 0 6.854-1.518 8.326-4.002V50h3.128V35.004c0-6.256-3.542-9.384-9.798-9.384zm-1.15 22.034c-3.864 0-6.118-1.748-6.118-4.554 0-2.484 1.518-4.324 6.21-4.324h7.59v3.956c-1.288 3.174-4.002 4.922-7.682 4.922zM221.407 50.23c4.094 0 7.544-1.656 9.476-4.784l-2.438-1.656c-1.656 2.438-4.232 3.542-7.038 3.542-5.29 0-9.154-3.726-9.154-9.43 0-5.658 3.864-9.43 9.154-9.43 2.806 0 5.382 1.15 7.038 3.588l2.438-1.656c-1.932-3.174-5.382-4.784-9.476-4.784-7.222 0-12.466 5.06-12.466 12.282s5.244 12.328 12.466 12.328zM246.953 46.182c-.92.828-2.254 1.242-3.588 1.242-2.714 0-4.186-1.564-4.186-4.416V28.564h7.36v-2.76h-7.36v-5.29h-3.266v5.29h-4.324v2.76h4.324v14.628c0 4.462 2.53 7.038 7.084 7.038 1.886 0 3.818-.552 5.106-1.702l-1.15-2.346zM251.84 50h3.266V15.868h-3.266V50zM270.45 25.62c-3.818 0-7.406 1.196-9.844 3.266l1.472 2.438c1.978-1.748 4.922-2.852 8.05-2.852 4.508 0 6.854 2.254 6.854 6.394v1.472H269.3c-6.946 0-9.338 3.128-9.338 6.854 0 4.186 3.358 7.038 8.832 7.038 4.002 0 6.854-1.518 8.326-4.002V50h3.128V35.004c0-6.256-3.542-9.384-9.798-9.384zm-1.15 22.034c-3.864 0-6.118-1.748-6.118-4.554 0-2.484 1.518-4.324 6.21-4.324h7.59v3.956c-1.288 3.174-4.002 4.922-7.682 4.922zM299.376 25.62c-3.864 0-7.176 1.656-9.2 4.784V15.868h-3.266V50h3.128v-4.784c1.978 3.266 5.336 5.014 9.338 5.014 6.9 0 12.052-5.014 12.052-12.328 0-7.314-5.152-12.282-12.052-12.282zm-.23 21.712c-5.152 0-9.016-3.772-9.016-9.43 0-5.658 3.864-9.43 9.016-9.43 5.106 0 9.016 3.772 9.016 9.43 0 5.658-3.91 9.43-9.016 9.43zM357.035 17.8l-13.846 23.874L329.205 17.8h-2.806V50h3.266V24.378l12.65 21.528h1.61l12.65-21.666V50h3.266V17.8h-2.806zM375.899 25.62c-3.818 0-7.406 1.196-9.844 3.266l1.472 2.438c1.978-1.748 4.922-2.852 8.05-2.852 4.508 0 6.854 2.254 6.854 6.394v1.472h-7.682c-6.946 0-9.338 3.128-9.338 6.854 0 4.186 3.358 7.038 8.832 7.038 4.002 0 6.854-1.518 8.326-4.002V50h3.128V35.004c0-6.256-3.542-9.384-9.798-9.384zm-1.15 22.034c-3.864 0-6.118-1.748-6.118-4.554 0-2.484 1.518-4.324 6.21-4.324h7.59v3.956c-1.288 3.174-4.002 4.922-7.682 4.922zM395.488 30.542v-4.738h-3.128V50h3.266V37.672c0-5.704 3.082-8.924 8.142-8.924.23 0 .506.046.782.046V25.62c-4.462 0-7.544 1.702-9.062 4.922zM426.977 50h4.002l-11.316-14.306 10.35-9.89h-4.048l-14.444 13.202V15.868h-3.266V50h3.266v-6.9l5.704-5.244L426.977 50z"/>
      <path d="M453.8 37.902c0-7.268-4.922-12.282-11.73-12.282-6.808 0-11.822 5.106-11.822 12.282S435.4 50.23 442.944 50.23c3.818 0 7.176-1.38 9.338-3.956l-1.84-2.116c-1.84 2.116-4.462 3.174-7.406 3.174-5.29 0-9.154-3.358-9.522-8.418h20.24c0-.368.046-.736.046-1.012zm-11.73-9.476c4.738 0 8.188 3.312 8.602 8.05h-17.158c.414-4.738 3.864-8.05 8.556-8.05zM469.832 46.182c-.92.828-2.254 1.242-3.588 1.242-2.714 0-4.186-1.564-4.186-4.416V28.564h7.36v-2.76h-7.36v-5.29h-3.266v5.29h-4.324v2.76h4.324v14.628c0 4.462 2.53 7.038 7.084 7.038 1.886 0 3.818-.552 5.106-1.702l-1.15-2.346zM476.375 20.514c1.38 0 2.392-1.058 2.392-2.392 0-1.242-1.058-2.254-2.392-2.254-1.334 0-2.392 1.058-2.392 2.3 0 1.288 1.058 2.346 2.392 2.346zM474.719 50h3.266V25.804h-3.266V50zM497.193 25.62c-4.186 0-7.452 1.702-9.2 4.646v-4.462h-3.128V50h3.266V37.304c0-5.52 3.266-8.74 8.464-8.74 4.6 0 7.268 2.622 7.268 7.728V50h3.266V35.97c0-6.946-4.048-10.35-9.936-10.35zM533.151 25.804v4.646c-2.024-3.174-5.52-4.83-9.568-4.83-6.9 0-12.144 4.738-12.144 11.684 0 6.946 5.244 11.776 12.144 11.776 3.956 0 7.406-1.61 9.43-4.692v3.082c0 5.98-2.806 8.786-8.924 8.786-3.726 0-7.222-1.242-9.522-3.312l-1.656 2.484c2.53 2.392 6.854 3.726 11.27 3.726 8.004 0 12.098-3.772 12.098-12.098V25.804h-3.128zm-9.246 20.378c-5.336 0-9.154-3.634-9.154-8.878s3.818-8.832 9.154-8.832 9.2 3.588 9.2 8.832c0 5.244-3.864 8.878-9.2 8.878zM567.71 50.276c4.738 0 8.97-1.61 11.822-4.738l-2.162-2.162c-2.622 2.714-5.842 3.864-9.522 3.864-7.774 0-13.616-5.704-13.616-13.34s5.842-13.34 13.616-13.34c3.68 0 6.9 1.15 9.522 3.818l2.162-2.162c-2.852-3.128-7.084-4.692-11.776-4.692-9.706 0-16.882 6.946-16.882 16.376 0 9.43 7.176 16.376 16.836 16.376zM583.89 50h3.266V15.868h-3.266V50zM603.926 50.23c7.084 0 12.282-5.152 12.282-12.328 0-7.176-5.198-12.282-12.282-12.282s-12.328 5.106-12.328 12.282 5.244 12.328 12.328 12.328zm0-2.898c-5.152 0-9.016-3.772-9.016-9.43 0-5.658 3.864-9.43 9.016-9.43s8.97 3.772 8.97 9.43c0 5.658-3.818 9.43-8.97 9.43zM639.205 25.804V38.5c0 5.52-3.174 8.786-8.234 8.786-4.6 0-7.268-2.622-7.268-7.774V25.804h-3.266v14.03c0 6.946 4.048 10.396 10.212 10.396 3.864 0 6.992-1.702 8.694-4.646V50h3.128V25.804h-3.266zM668.225 15.868v14.536c-2.024-3.128-5.336-4.784-9.2-4.784-6.9 0-12.052 4.968-12.052 12.282s5.152 12.328 12.052 12.328c4.002 0 7.36-1.748 9.338-5.014V50h3.128V15.868h-3.266zm-8.924 31.464c-5.152 0-9.016-3.772-9.016-9.43 0-5.658 3.864-9.43 9.016-9.43 5.106 0 8.97 3.772 8.97 9.43 0 5.658-3.864 9.43-8.97 9.43z"/>
    </g>
  </g>
</svg>
