<svg xmlns="http://www.w3.org/2000/svg" viewBox="0 0 428 68">
	<g data-name="logo-mc-compact" fill="#464646">
		<g data-name="mc-compact-typo">
			<polygon class="st0" points="285.6,0.2 233.4,0.2 232.4,4.6 284.6,4.6" />
			<path class="st0"
				d="M290.1,16.2L283,44.4c0,0,0,0.2-0.2,0.2c-0.7,1.9-2.6,3.1-4.5,3.1c0,0,0,0-0.2,0h-19.8l2.3-8.1h0.2
			c1.4,3.1,4.2,4.2,5.7,4.2c6.7-0.3,9.5-6.6,10.9-12.1l2.8-11.3c0.7-2.8,0.9-5.7,0-7.8c-0.5-1.2-1.4-2.3-2.8-2.8
			c-0.7-0.3-1.4-0.3-2.4-0.3c-3.1,0-6.1,1.6-8.7,4.9h-0.2l1-4h-8.5l-9.4,37.6h-22c-0.3,0-0.9,0.2-1.2,0.5l-12.7,12l2.6-10.2
			c0-0.2,0-0.3,0-0.5c0-0.3,0-0.7-0.3-1c-0.3-0.3-0.9-0.7-1.4-0.7h-93.4c-2.8,0-5-2.3-5-5c0-0.2,0-0.3,0-0.5v-0.2l7.8-33.5
			c0,0,0,0,0-0.2c0.5-2.1,2.3-3.7,4.5-3.8h0.2h69.2l1-4.5h-70.4c-0.3,0-0.5,0-0.9,0c-3.8,0.4-6.9,3.1-8.1,6.8c0,0.2-0.2,0.3-0.2,0.5
			l-7.6,33.8c0,0.3-0.2,0.7-0.2,1c0,0.2,0,0.5,0,0.7c0,5.2,4.2,9.4,9.4,9.4h89.6l-3,11.8c0,0,0,0.3,0,0.7c0,1.7,1.4,3.1,3.1,3.1
			c0.9,0,1.6-0.3,2.1-0.9l16.5-14.9h49.3c0.2,0,0.3,0,0.5,0c3.5-0.2,6.7-2.3,8.1-5.4c0.3-0.3,0.3-0.9,0.5-1.4l7.3-29.3L290.1,16.2
			L290.1,16.2z M262.9,30l1.9-7.6c0.7-3.1,1.9-5.7,4.3-5.7c2.6,0,1.9,3.5,1.4,5.4l-1.9,8.3c-0.5,2.1-1.2,5.6-4.2,5.6
			C262,36.1,262.2,32.8,262.9,30z" />
			<path class="st0"
				d="M230.6,43.5c3,0,6.1-2.6,7.6-5h0.2l-1,4h8.6l7.8-32.2h-9.2l-5.6,23.2c-0.3,1.7-1.7,2.6-3.3,2.8
			c-1.7,0.2-1.9-1.2-1.6-2.8l5.6-23.2h-9.2l-6.4,26.5C223,41.1,225.2,43.5,230.6,43.5z" />
			<path class="st0"
				d="M152.5,42.5h9.2l6.4-26.5c1-4.3-2.3-6.7-6.6-6.7c-2.6,0-5.4,1.4-7.8,4.3h-0.2c-0.3-2.8-2.8-4.5-5.7-4.3
			c-2.6,0.2-5.7,1.7-8,4.7l0,0l0.9-3.8H132l-7.8,32.4h9.2l5.6-23.1c0.5-1.7,1.6-2.6,3.3-2.6c1.6,0,1.6,1.2,1.6,2.6l-5.6,23.1h9.2
			l5.6-23.1c0.3-1.7,1.6-2.6,3.1-2.6c1.7-0.2,2.1,1.2,1.7,2.6L152.5,42.5z" />
			<path class="st0"
				d="M195.6,19.1c1.7-7.1-1-9.9-10.1-9.9c-7.4,0-13.5,3.1-15.1,11.1h9.2c0.9-2.8,1.4-5,4.7-5
			c1.9,0,2.6,1.6,2.1,3.3c-0.9,3.5-5,3.8-9.2,5.2c-4.3,1.2-8.8,3.7-10.7,10.9c-1.2,5,1.2,8.7,6.4,8.7c3.7,0,5.9-1.4,8.8-4v3h9
			c0-1.2-0.2-2.4,0.2-3.7L195.6,19.1z M183.5,32c-0.7,2.1-1.9,4.9-4.5,4.9c-2.3,0-3.1-1.4-2.6-3.5c0.5-2.3,1.7-3.3,3.1-4.2
			c1.4-0.9,3.1-1.4,5.2-2.4L183.5,32z" />
			<polygon class="st0" points="213.8,0 204.6,0 202.9,7 212.3,7 		" />
			<polygon class="st0" points="203.6,42.5 211.4,10.1 202.2,10.1 194.4,42.5 		" />
			<polygon class="st0" points="217.6,42.5 227.9,0 218.7,0 208.4,42.5 		" />
		</g>
		<g data-name="clab-sign" class="st1">
			<path class="st0"
				d="M293.6,2.7c-0.1-0.2-0.3-0.4-0.6-0.4c-0.2,0-0.5,0.1-0.7,0.2c-0.2,0.1-0.3,0.4-0.5,0.7s-0.3,0.8-0.5,1.4
			s-0.3,1.3-0.5,2.1s-0.3,1.6-0.5,2.1c-0.1,0.6-0.2,1-0.2,1.4s0,0.6,0.2,0.7s0.3,0.2,0.5,0.2c0.2,0,0.4,0,0.5-0.2
			c0.2-0.1,0.3-0.3,0.4-0.5c0.1-0.2,0.2-0.5,0.4-0.9c0.1-0.4,0.2-0.9,0.4-1.5h3.2l-0.2,0.9c-0.2,0.9-0.5,1.6-0.9,2.2
			c-0.4,0.6-0.8,1-1.2,1.4s-0.9,0.5-1.5,0.7c-0.5,0.1-1.1,0.2-1.6,0.2c-0.9,0-1.6-0.1-2.2-0.3s-0.9-0.6-1.1-1.1
			c-0.2-0.5-0.3-1.2-0.2-2.1c0.1-0.8,0.2-1.9,0.5-3c0.3-1.2,0.6-2.2,0.9-3.1c0.3-0.8,0.7-1.5,1.2-2.1c0.5-0.5,1-0.9,1.6-1.1
			c0.6-0.2,1.4-0.3,2.2-0.3c0.7,0,1.4,0.1,1.9,0.3s0.8,0.5,1.1,0.8c0.2,0.3,0.4,0.8,0.4,1.3c0,0.5,0,1-0.2,1.6l-0.2,0.8h-3.2
			l0.2-0.7C293.7,3.4,293.7,2.9,293.6,2.7z" />
			<path class="st0"
				d="M303.6,0.3c0.9,0,1.6,0.2,2.1,0.5s0.7,0.8,0.9,1.4c0.1,0.6,0.1,1.3,0,2c-0.1,0.8-0.3,1.6-0.5,2.4
			c-0.2,0.8-0.4,1.6-0.7,2.4s-0.6,1.4-0.9,2c-0.4,0.6-0.9,1.1-1.5,1.4c-0.6,0.4-1.4,0.5-2.3,0.5h-4.8l2.9-12.7
			C298.8,0.3,303.6,0.3,303.6,0.3z M300.4,10.6c0.3,0,0.6,0,0.8-0.1c0.2-0.1,0.4-0.3,0.6-0.6c0.2-0.3,0.3-0.7,0.5-1.2
			c0.2-0.5,0.3-1.2,0.5-2.1s0.3-1.5,0.5-2.1c0.1-0.5,0.1-0.9,0.1-1.2c0-0.3-0.1-0.5-0.3-0.6c-0.2-0.1-0.4-0.1-0.7-0.1h-0.7l-1.8,7.9
			L300.4,10.6L300.4,10.6z" />
			<path class="st0"
				d="M313.8,0.3c0.6,0,1.2,0.1,1.6,0.3s0.7,0.5,0.9,0.8s0.3,0.7,0.4,1.2c0,0.5,0,1-0.1,1.6c-0.3,1.3-0.9,2.3-1.7,3
			c-0.9,0.7-2,1-3.3,1h-1.2l-1.1,4.8H306l2.9-12.7C308.9,0.3,313.8,0.3,313.8,0.3z M311.6,5.8c0.4,0,0.7-0.1,1-0.4
			c0.3-0.2,0.5-0.7,0.6-1.2c0.2-1-0.1-1.6-0.9-1.6h-0.6L311,5.8H311.6z" />
		</g>
	</g>
</svg>