<svg xmlns="http://www.w3.org/2000/svg" viewBox="0 0 346 45">
	<g data-name="mc-compact-typo" fill="#464646">
		<g>
			<polygon class="st0" points="220.4,0.2 185.8,0.2 185.1,3 219.7,3" />
			<path class="st0"
				d="M223.4,10.7l-4.7,18.7c0,0,0,0.1-0.1,0.1c-0.5,1.3-1.7,2.1-3,2.1c0,0,0,0-0.1,0h-13.1l1.5-5.4h0.1
			c0.9,2.1,2.7,2.7,3.8,2.7c4.5-0.2,6.3-4.4,7.2-8l1.8-7.5c0.5-1.8,0.6-3.8,0-5.2c-0.4-0.8-0.9-1.5-1.8-1.8
			c-0.5-0.2-0.9-0.2-1.6-0.2c-2.1,0-4,1-5.7,3.2h-0.1l0.7-2.6h-5.6l-6.2,24.9h-14.6c-0.2,0-0.6,0.1-0.8,0.4l-8.4,7.9l1.7-6.8
			c0-0.1,0-0.2,0-0.4c0-0.2,0-0.5-0.2-0.7c-0.2-0.2-0.6-0.5-0.9-0.5h-61.8c-1.8,0-3.3-1.5-3.3-3.3c0-0.1,0-0.2,0-0.4v-0.1l5.2-22.1
			c0,0,0,0,0-0.1c0.4-1.4,1.5-2.4,3-2.5h0.1h45.8l0.7-3h-46.6c-0.2,0-0.4,0-0.6,0c-2.5,0.2-4.6,2.1-5.4,4.5c0,0.1-0.1,0.2-0.1,0.4
			l-5.1,22.4c0,0.2-0.1,0.5-0.1,0.7c0,0.1,0,0.4,0,0.5c0,3.4,2.7,6.2,6.2,6.2h59.3l-2,7.8c0,0,0,0.2,0,0.5c0,1.1,0.9,2.1,2.1,2.1
			c0.6,0,1-0.2,1.4-0.6l10.9-9.9h32.6c0.1,0,0.2,0,0.4,0c2.3-0.1,4.5-1.5,5.4-3.6c0.2-0.2,0.2-0.6,0.4-0.9l4.8-19.4L223.4,10.7
			L223.4,10.7z M205.3,19.9l1.3-5.1c0.5-2.1,1.3-3.8,2.9-3.8c1.7,0,1.3,2.3,0.9,3.6l-1.3,5.5c-0.4,1.4-0.8,3.7-2.7,3.7
			C204.8,23.9,204.9,21.7,205.3,19.9z" />
			<path class="st0"
				d="M184,28.8c2,0,4-1.7,5.1-3.3h0.1l-0.7,2.6h5.7l5.2-21.3h-6.1l-3.7,15.4c-0.2,1.1-1.1,1.7-2.2,1.8
			c-1.1,0.1-1.3-0.8-1-1.8l3.7-15.4H184l-4.2,17.5C179,27.2,180.4,28.8,184,28.8z" />
			<path class="st0"
				d="M132.3,28.2h6.1l4.2-17.5c0.7-2.9-1.5-4.5-4.4-4.5c-1.7,0-3.6,0.9-5.2,2.9H133c-0.2-1.8-1.8-3-3.8-2.9
			c-1.7,0.1-3.8,1.1-5.3,3.1l0,0l0.6-2.5h-5.7l-5.2,21.4h6.1l3.7-15.3c0.4-1.1,1-1.7,2.2-1.7c1,0,1,0.8,1,1.7l-3.7,15.3h6.1
			l3.7-15.3c0.2-1.1,1-1.7,2.1-1.7c1.1-0.1,1.4,0.8,1.1,1.7L132.3,28.2z" />
			<path class="st0"
				d="M160.8,12.7c1.1-4.7-0.7-6.5-6.7-6.5c-4.9,0-9,2.1-10,7.3h6.1c0.6-1.8,0.9-3.3,3.1-3.3c1.3,0,1.7,1,1.4,2.2
			c-0.6,2.3-3.3,2.5-6.1,3.4c-2.9,0.8-5.8,2.4-7.1,7.2c-0.8,3.3,0.8,5.7,4.2,5.7c2.4,0,3.9-0.9,5.8-2.6v2h6c0-0.8-0.1-1.6,0.1-2.4
			L160.8,12.7z M152.8,21.2c-0.5,1.4-1.3,3.2-3,3.2c-1.5,0-2.1-0.9-1.7-2.3c0.4-1.5,1.1-2.2,2.1-2.7s2.1-0.9,3.4-1.6L152.8,21.2z" />
			<polygon class="st0" points="172.9,0 166.8,0 165.7,4.6 171.8,4.6 		" />
			<polygon class="st0" points="166.1,28.2 171.3,6.7 165.2,6.7 160,28.2 		" />
			<polygon class="st0" points="175.4,28.2 182.2,0 176.1,0 169.3,28.2 		" />
		</g>
		<g class="st1">
			<path class="st0"
				d="M225.7,1.8c-0.1-0.2-0.2-0.3-0.4-0.3c-0.2,0-0.3,0.1-0.4,0.1c-0.1,0.1-0.2,0.2-0.3,0.5s-0.2,0.5-0.3,0.9
			s-0.2,0.8-0.4,1.4s-0.2,1-0.3,1.4s-0.1,0.7-0.1,0.9c0,0.2,0,0.4,0.1,0.5s0.2,0.1,0.4,0.1c0.1,0,0.2,0,0.4-0.1
			c0.1-0.1,0.2-0.2,0.3-0.3c0.1-0.2,0.2-0.4,0.2-0.6c0.1-0.3,0.2-0.6,0.3-1h2.1L227,5.9c-0.1,0.6-0.3,1.1-0.6,1.4
			c-0.2,0.4-0.5,0.7-0.8,0.9c-0.3,0.2-0.6,0.4-1,0.4c-0.4,0.1-0.7,0.1-1.1,0.1c-0.6,0-1.1-0.1-1.4-0.2s-0.6-0.4-0.7-0.7
			c-0.1-0.4-0.2-0.8-0.1-1.4c0.1-0.5,0.2-1.2,0.3-2c0.2-0.8,0.4-1.5,0.6-2c0.2-0.5,0.5-1,0.8-1.4c0.3-0.4,0.7-0.6,1.1-0.7
			c0.4-0.2,0.9-0.2,1.5-0.2c0.5,0,0.9,0.1,1.2,0.2c0.3,0.1,0.5,0.3,0.7,0.5c0.2,0.2,0.2,0.5,0.3,0.8s0,0.7-0.1,1.1l-0.1,0.5h-2.1
			l0.1-0.5C225.7,2.3,225.7,2,225.7,1.8z" />
			<path class="st0"
				d="M232.3,0.2c0.6,0,1.1,0.1,1.4,0.4s0.5,0.5,0.6,0.9s0.1,0.8,0,1.3c-0.1,0.5-0.2,1-0.3,1.6
			c-0.1,0.5-0.3,1.1-0.4,1.6s-0.4,1-0.6,1.3c-0.3,0.4-0.6,0.7-1,0.9c-0.4,0.2-0.9,0.4-1.6,0.4h-3.2l1.9-8.4
			C229.1,0.2,232.3,0.2,232.3,0.2z M230.2,7c0.2,0,0.4,0,0.5-0.1c0.1-0.1,0.3-0.2,0.4-0.4c0.1-0.2,0.2-0.5,0.3-0.8
			c0.1-0.4,0.2-0.8,0.4-1.4s0.2-1,0.3-1.4c0.1-0.4,0.1-0.6,0.1-0.8c0-0.2-0.1-0.3-0.2-0.4c-0.1-0.1-0.3-0.1-0.5-0.1H231L229.8,7
			L230.2,7L230.2,7z" />
			<path class="st0"
				d="M239.1,0.2c0.4,0,0.8,0.1,1,0.2s0.5,0.3,0.6,0.5s0.2,0.5,0.2,0.8s0,0.7-0.1,1c-0.2,0.9-0.6,1.5-1.1,2
			c-0.6,0.4-1.3,0.7-2.2,0.7h-0.8L236,8.6h-2.2l1.9-8.4C235.8,0.2,239.1,0.2,239.1,0.2z M237.6,3.8c0.3,0,0.5-0.1,0.7-0.2
			c0.2-0.2,0.3-0.4,0.4-0.8c0.2-0.7-0.1-1-0.6-1h-0.4l-0.5,2H237.6z" />
		</g>
	</g>
</svg>