<svg xmlns="http://www.w3.org/2000/svg" viewBox="0 0 25 25">
  <path fill="#1890ff" d="M12.6 6.5c-.4 0-.8-.4-.8-.8v-.3c0-.9-.3-1.7-1-2.3-.6-.6-1.5-1-2.4-1-1.8 0-3.3 1.5-3.3 3.3v10.2c0 .4-.4.8-.8.8s-.8-.4-.8-.8V5.4C3.5 2.7 5.7.5 8.4.5c1.3 0 2.5.5 3.5 1.4.9.9 1.4 2.2 1.4 3.4v.3c.1.5-.3.9-.7.9zm.8 11.9v1.2c0 1.8 1.5 3.3 3.3 3.3 1.8 0 3.3-1.5 3.3-3.3V9.4c0-.4.4-.8.8-.8s.8.4.8.8v10.2c0 2.7-2.2 4.9-4.9 4.9s-4.9-2.2-4.9-4.9v-1.2c0-.4.4-.8.8-.8s.8.4.8.8z"/>
  <path fill="#1890ff" d="m12.8 8.1 3.8 3.8c.1.1.1.2 0 .3L12.8 16c-.1.1-.2.1-.3 0l-3.8-3.8c-.1-.1-.1-.2 0-.3l3.8-3.8h.3z"/>
  <circle fill="#91d5ff" cx="20.8" cy="4" r="2.4"/>
  <circle fill="#91d5ff" cx="4.2" cy="21.1" r="2.4"/>
</svg>
