<svg xmlns="http://www.w3.org/2000/svg" viewBox="0 0 25 25">
  <path fill="#91d5ff" d="m23.1 10.1-2.7-1.8c.6-.6 1.1-1.5 1.1-2.6V4.4c0-1.8-1.4-3.6-3.1-3.9s-3.3.8-4.1 2.1c1.6 1.5 2.7 3.6 2.7 6v1.5c0 1.4-.3 2.7-.9 3.8 0 0 1.8 1.4 1.8 1.5H23c.9 0 1.5-.6 1.5-1.5v-1.2c0-1.1-.4-2-1.4-2.6z"/>
  <path fill="#1890ff" d="m15.8 17.7-4.1-3c1.3-1.1 2.2-2.6 2.2-4.4V9c0-2.9-2.1-5.4-4.9-5.6-3-.1-5.5 2.3-5.5 5.3v1.5c0 1.8.9 3.3 2.2 4.4l-4.1 3.2c-.7.6-1.2 1.5-1.2 2.4v2.9c0 .9.6 1.5 1.5 1.5h13.5c.9 0 1.5-.6 1.5-1.5v-3c.1-.9-.3-1.8-1.1-2.4z"/>
</svg>
