<svg xmlns="http://www.w3.org/2000/svg" viewBox="0 0 25 25">
  <path fill="#1890ff" d="M1 5h2.142c.447 1.72 2 3 3.858 3 2.206 0 4-1.794 4-4S9.206 0 7 0C5.142 0 3.589 1.28 3.142 3H1a1 1 0 0 0 0 2z"/>
  <path fill="#1890ff" d="M1 13h10.142c.447 1.72 2 3 3.858 3 2.206 0 4-1.794 4-4s-1.794-4-4-4c-1.858 0-3.411 1.28-3.858 3H1a1 1 0 0 0 0 2z"/>
  <path fill="#1890ff" d="M7 16c-1.858 0-3.411 1.28-3.858 3H1a1 1 0 0 0 0 2h2.142c.447 1.72 2 3 3.858 3 2.206 0 4-1.794 4-4s-1.794-4-4-4z"/>
  <path fill="#91d5ff" d="M23 3H13v2h10a1 1 0 0 0 0-2z"/>
  <path fill="#91d5ff" d="M23 11h-2v2h2a1 1 0 0 0 0-2z"/>
  <path fill="#91d5ff" d="M23 19H13v2h10a1 1 0 0 0 0-2z"/>
</svg>
