<?xml encoding="utf-8" standalone="no">
<!DOCTYPE svg PUBLIC "-//W3C//DTD SVG 20010904//EN"
 "http://www.w3.org/TR/2001/REC-SVG-20010904/DTD/svg10.dtd">
<svg version="1.0" xmlns="http://www.w3.org/2000/svg" viewBox="0 0 260 260">
  <path d="M0 0h260v260H0z"/>
  <path d="M70.3 121.4c-1.1 0-2.2-.1-3.3-.3-10.1-1.8-16.8-11.5-15-21.6 1.5-8.9 9.2-15.4 18.2-15.4 1.1 0 2.2.1 3.3.3 10.2 1.7 17 11.4 15.3 21.6-1.6 8.9-9.4 15.4-18.5 15.4m0-34.2c-8.6 0-15.6 7-15.6 15.6 0 3.2 1 6.3 2.8 9 2.3 3.4 6 5.7 10 6.4.9.2 1.8.2 2.7.2 8.6 0 15.6-7.1 15.6-15.7 0-7.5-5.4-14-12.9-15.3-.8-.1-1.7-.2-2.6-.2m-7 74.7c-1.1 0-2.2-.1-3.2-.3-10.2-1.8-16.9-11.5-15.1-21.7 1.6-8.9 9.3-15.3 18.3-15.4 10.3 0 18.7 8.3 18.7 18.7 0 1.1-.1 2.2-.3 3.3-1.7 8.9-9.4 15.4-18.4 15.4m0-34.2c-7.6 0-14 5.4-15.3 12.9-.8 4.1.1 8.3 2.4 11.7 2.4 3.4 6 5.7 10.1 6.4.9.2 1.8.2 2.7.2 7.6 0 14-5.4 15.4-12.9 1.5-8.5-4.1-16.6-12.6-18.1-.9-.1-1.9-.2-2.7-.2m-31.6 7.9c-10.3 0-18.7-8.4-18.7-18.7s8.4-18.7 18.7-18.7c1.1 0 2.2.1 3.3.3 10.2 1.8 16.9 11.5 15.1 21.7-1.7 8.9-9.4 15.3-18.4 15.4m0-34.2c-8.6 0-15.6 7.1-15.6 15.7 0 7.5 5.4 14 12.9 15.3.9.2 1.8.2 2.7.2 8.6 0 15.6-7.1 15.6-15.7 0-7.5-5.4-14-12.9-15.3-.9-.1-1.8-.2-2.7-.2M144 161.9l-28.9-71.5h-.4c.3 4.4.4 8.9.4 13.5V162H110V84.4h8.4l27.4 68.1h.3l27.4-68.1h8.2v77.5h-5.5v-58.7c0-4.1.2-8.3.6-12.7h-.4l-29 71.4H144zm81.8-73.7c-9.7 0-17.4 3.1-22.9 9.3-5.6 6.2-8.4 14.7-8.4 25.5 0 11.1 2.6 19.6 7.9 25.7 5.3 6.1 12.8 9.2 22.6 9.2 6.5 0 12.5-.8 17.9-2.5v4.8c-5.1 1.8-11.5 2.7-19.2 2.7-10.9 0-19.4-3.5-25.7-10.5-6.3-7-9.4-16.8-9.4-29.5 0-7.9 1.5-14.8 4.5-20.8s7.3-10.6 12.9-13.9c5.6-3.3 12.1-4.9 19.5-4.9 7.6 0 14.3 1.4 20.3 4.2l-2.2 4.9c-5.6-2.8-11.5-4.2-17.8-4.2z" fill="#fff"/>
</svg>
